<?xml version="1.0" standalone="no"?>
<!DOCTYPE svg PUBLIC "-//W3C//DTD SVG 1.1//EN" "http://www.w3.org/Graphics/SVG/1.1/DTD/svg11.dtd" >
<svg xmlns="http://www.w3.org/2000/svg" xmlns:xlink="http://www.w3.org/1999/xlink" version="1.1">
<metadata>
Created by FontForge 20160407 at Fri Sep 30 13:27:15 2016
 By Jimmy Warting
Copyright (c) 2000, 2002, 2005 Parachute :, www.parachute.gr.  All rights reserved.
</metadata>
<defs>
<font id="PFIsotextPro-Bold" horiz-adv-x="1818" >
  <font-face 
    font-family="PF Isotext Pro"
    font-weight="700"
    font-stretch="normal"
    units-per-em="1000"
    panose-1="2 0 8 6 0 0 0 2 0 3"
    ascent="750"
    descent="-250"
    x-height="466"
    cap-height="668"
    bbox="-209 -250 1760 913"
    underline-thickness="60"
    underline-position="-110"
    unicode-range="U+0020-FB05"
  />
<missing-glyph horiz-adv-x="454" 
d="M0 700h454v-700h-454v700zM327 85l-100 181l-100 -181h200zM327 615h-200l100 -181zM369 184v332l-92 -166zM85 184l92 166l-92 166v-332z" />
    <glyph glyph-name="ff" unicode="ff" horiz-adv-x="702" 
d="M85 466v36q0 93 49.5 136.5t131.5 43.5h57q9 0 18.5 -3.5t17.5 -11t13 -18t5 -24.5q0 -27 -18 -43t-36 -16h-44q-33 0 -53.5 -11t-20.5 -49v-40h196v66q0 93 49 136.5t131 43.5h69q9 0 18.5 -3.5t17.5 -11t13 -18t5 -24.5q0 -27 -18 -43t-36 -16h-56q-33 0 -53.5 -11
t-20.5 -49v-70h107q17 0 32.5 -12.5t15.5 -41.5q0 -27 -15.5 -40.5t-32.5 -13.5h-107v-316q0 -17 -15.5 -32t-44.5 -15q-31 0 -45.5 15t-14.5 32v316h-195v-316q0 -17 -15.5 -32t-44.5 -15q-31 0 -45.5 15t-14.5 32v316h-32q-17 0 -33 13t-16 41q0 29 16 41.5t33 12.5h32z
" />
    <glyph glyph-name="fi" unicode="fi" horiz-adv-x="572" 
d="M513 42q0 -17 -14.5 -32t-45.5 -15q-30 0 -45 15t-15 32v316h-188v-316q0 -17 -15.5 -32t-44.5 -15q-31 0 -45.5 15t-14.5 32v316h-32q-17 0 -33 13t-16 41q0 29 16 41.5t33 12.5h32v46q0 93 49.5 136.5t131.5 43.5h134q9 0 18.5 -3.5t17.5 -11t13 -18t5 -24.5
q0 -27 -18 -43t-36 -16h-121q-33 0 -53.5 -11t-20.5 -49v-50h248q26 0 42.5 -14.5t16.5 -41.5z" />
    <glyph glyph-name="fl" unicode="fl" horiz-adv-x="650" 
d="M205 358v-316q0 -17 -15.5 -32t-44.5 -15q-31 0 -45.5 15t-14.5 32v316h-32q-17 0 -33 13t-16 41q0 29 16 41.5t33 12.5h32v39q0 93 49.5 136.5t131.5 43.5h79t41 -0.5t15.5 -0.5h3.5q16 18 48 18q29 0 44.5 -15t15.5 -32v-474q0 -29 15.5 -49.5t52.5 -20.5h14
q26 0 39.5 -15.5t13.5 -42.5q0 -28 -16 -42.5t-37 -14.5h-25q-82 0 -129 46t-47 140v387h-115q-33 0 -53.5 -11t-20.5 -49v-43h87q17 0 32.5 -12.5t15.5 -41.5q0 -27 -15.5 -40.5t-32.5 -13.5h-87z" />
    <glyph glyph-name="ffi" unicode="ffi" horiz-adv-x="887" 
d="M707 358h-187v-316q0 -17 -15.5 -32t-44.5 -15q-31 0 -45.5 15t-14.5 32v316h-195v-316q0 -17 -15.5 -32t-44.5 -15q-31 0 -45.5 15t-14.5 32v316h-32q-17 0 -33 13t-16 41q0 29 16 41.5t33 12.5h32v36q0 93 49.5 136.5t131.5 43.5h57q9 0 18.5 -3.5t17.5 -11t13 -18
t5 -24.5q0 -27 -18 -43t-36 -16h-44q-33 0 -53.5 -11t-20.5 -49v-40h195v66q0 93 49.5 136.5t131.5 43.5h134q9 0 18.5 -3.5t17.5 -11t13 -18t5 -24.5q0 -27 -18 -43t-36 -16h-121q-33 0 -53.5 -11t-20.5 -49v-70h248q26 0 42.5 -14.5t16.5 -41.5v-368q0 -17 -14.5 -32
t-45.5 -15q-30 0 -45 15t-15 32v316z" />
    <glyph glyph-name="ffl" unicode="ffl" horiz-adv-x="965" 
d="M400 358h-195v-316q0 -17 -15.5 -32t-44.5 -15q-31 0 -45.5 15t-14.5 32v316h-32q-17 0 -33 13t-16 41q0 29 16 41.5t33 12.5h32v36q0 93 49.5 136.5t131.5 43.5h57q9 0 18.5 -3.5t17.5 -11t13 -18t5 -24.5q0 -27 -18 -43t-36 -16h-44q-33 0 -53.5 -11t-20.5 -49v-40h195
v66q0 93 49.5 136.5t131.5 43.5h79t41 -0.5t15.5 -0.5h3.5q16 18 48 18q29 0 44.5 -15t15.5 -32v-501q0 -29 15.5 -49.5t52.5 -20.5h14q26 0 39.5 -15.5t13.5 -42.5q0 -28 -16 -42.5t-37 -14.5h-25q-82 0 -129 46t-47 140v414h-115q-33 0 -53.5 -11t-20.5 -49v-70h87
q17 0 32.5 -12.5t15.5 -41.5q0 -27 -15.5 -40.5t-32.5 -13.5h-87v-316q0 -17 -15.5 -32t-44.5 -15q-31 0 -45.5 15t-14.5 32v316z" />
    <glyph glyph-name="ft" unicode="ft" horiz-adv-x="733" 
d="M676 110q18 0 36 -14.5t18 -41.5q0 -14 -5 -24.5t-13 -18t-17.5 -11t-18.5 -3.5h-81q-34 0 -64 10t-52 32t-35 55t-13 80v184h-226v-316q0 -17 -15.5 -32t-44.5 -15q-31 0 -45.5 15t-14.5 32v316h-32q-17 0 -33 13t-16 41q0 29 16 41.5t33 12.5h33v46q0 93 49 136.5
t131 43.5h69q9 0 18.5 -3.5t17.5 -11t13 -18t5 -24.5q0 -27 -18 -43t-36 -16h-56q-33 0 -53.5 -11t-20.5 -49v-50h225v124q0 17 14.5 32t45.5 15q29 0 44.5 -15t15.5 -32v-124h104q17 0 32.5 -14.5t15.5 -41.5q0 -29 -15.5 -40.5t-32.5 -11.5h-104v-176q0 -38 18.5 -55
t55.5 -17h52z" />
    <glyph glyph-name="fj" unicode="fj" horiz-adv-x="572" 
d="M279 576q-33 0 -53.5 -11t-20.5 -49v-50h248q26 0 42.5 -14.5t16.5 -41.5v-429q0 -91 -50 -137t-138 -46h-56q-18 0 -33.5 15.5t-15.5 42.5q0 29 16 43t33 14h49q33 0 54 17.5t21 55.5v372h-187v-316q0 -17 -15.5 -32t-44.5 -15q-31 0 -45.5 15t-14.5 32v316h-32
q-17 0 -33 13t-16 41q0 29 16 41.5t33 12.5h32v46q0 93 49.5 136.5t131.5 43.5h134q9 0 18.5 -3.5t17.5 -11t13 -18t5 -24.5q0 -27 -18 -43t-36 -16h-121z" />
    <glyph glyph-name="ffj" unicode="ffj" horiz-adv-x="887" 
d="M279 566q-33 0 -53.5 -11t-20.5 -49v-40h195v66q0 93 49.5 136.5t131.5 43.5h134q9 0 18.5 -3.5t17.5 -11t13 -18t5 -24.5q0 -27 -18 -43t-36 -16h-121q-33 0 -53.5 -11t-20.5 -49v-70h248q26 0 42.5 -14.5t16.5 -41.5v-429q0 -91 -50 -137t-138 -46h-56
q-18 0 -33.5 15.5t-15.5 42.5q0 29 16 43t33 14h49q33 0 54 17.5t21 55.5v372h-187v-316q0 -17 -15.5 -32t-44.5 -15q-31 0 -45.5 15t-14.5 32v316h-195v-316q0 -17 -15.5 -32t-44.5 -15q-31 0 -45.5 15t-14.5 32v316h-32q-17 0 -33 13t-16 41q0 29 16 41.5t33 12.5h32v36
q0 93 49.5 136.5t131.5 43.5h57q9 0 18.5 -3.5t17.5 -11t13 -18t5 -24.5q0 -27 -18 -43t-36 -16h-44z" />
    <glyph glyph-name=".notdef" horiz-adv-x="454" 
d="M0 700h454v-700h-454v700zM327 85l-100 181l-100 -181h200zM327 615h-200l100 -181zM369 184v332l-92 -166zM85 184l92 166l-92 166v-332z" />
    <glyph glyph-name="exclam" unicode="!" horiz-adv-x="233" 
d="M118 0q-27 0 -47 18.5t-20 45.5q0 32 20.5 48t45.5 16t45.5 -16t20.5 -48q0 -27 -18.5 -45.5t-46.5 -18.5zM117 183q-32 0 -46 17.5t-14 44.5v361q0 27 14 44.5t46 17.5t45.5 -17.5t13.5 -44.5v-361q0 -27 -13.5 -44.5t-45.5 -17.5z" />
    <glyph glyph-name="quotedbl" unicode="&#x22;" horiz-adv-x="313" 
d="M233 430q-19 0 -30.5 6t-17.5 14.5t-8 18t-2 17.5v135q0 6 2 15t8 17.5t17.5 14t31.5 5.5q26 0 40 -17.5t14 -41.5v-129q0 -24 -13.5 -39.5t-41.5 -15.5zM83 430q-19 0 -30.5 6t-17.5 14.5t-8 18t-2 17.5v135q0 6 2 15t8 17.5t17.5 14t31.5 5.5q26 0 40 -17.5t14 -41.5
v-129q0 -24 -13.5 -39.5t-41.5 -15.5z" />
    <glyph glyph-name="numbersign" unicode="#" horiz-adv-x="520" 
d="M375 604q3 11 13 18.5t27 7.5q28 0 40 -14t12 -28q0 -7 -1 -10l-36 -120h28q12 0 24 -11t12 -31q0 -26 -12 -38t-25 -12h-55l-19 -61h40q12 0 24 -11.5t12 -29.5q0 -26 -12.5 -38.5t-24.5 -12.5h-67l-54 -179q-3 -10 -13.5 -16.5t-26.5 -6.5q-29 0 -40 14t-11 28
q0 7 1 10l45 150h-75l-50 -168q-3 -10 -14 -17t-26 -7q-29 0 -40.5 15.5t-11.5 27.5q0 7 1 10l42 139h-18q-12 0 -25 10t-13 31q0 25 11 38t25 13h48l18 61h-31q-14 0 -26 11t-12 35q0 26 13 36t25 10h59l48 157q3 10 13 18t26 8q29 0 41.5 -15t12.5 -26q0 -3 -0.5 -5.5
t-1.5 -5.5l-40 -131h76zM209 305h75l19 61h-75z" />
    <glyph glyph-name="dollar" unicode="$" horiz-adv-x="520" 
d="M212 699q0 11 9.5 22.5t31.5 11.5q20 0 31 -10.5t11 -21.5v-50h108q7 0 15 -3.5t15 -10.5t12 -18t5 -25q0 -18 -5 -29t-12 -17t-15 -8.5t-15 -2.5h-108v-152l23 -9q30 -12 59 -27t52.5 -36t38 -50.5t14.5 -69.5q0 -37 -13 -70t-36.5 -58t-56.5 -39.5t-73 -14.5h-8v-49
q0 -11 -11 -21.5t-31 -10.5q-22 0 -31.5 11t-9.5 22v48h-113q-15 0 -31 12t-16 46q0 16 5 27t12.5 17.5t15.5 9t14 2.5h113v170l-36 15q-29 12 -54 25t-44 31.5t-30 45.5t-11 67q0 36 11.5 67t33.5 54t54.5 36.5t75.5 14.5v48zM305 125q21 0 37.5 15.5t16.5 47.5
q0 23 -17.5 41.5t-46.5 31.5v-136h10zM155 481q0 -23 13 -37t39 -23l5 -2v118h-2q-23 0 -39 -14t-16 -42z" />
    <glyph glyph-name="percent" unicode="%" horiz-adv-x="821" 
d="M192 668q60 0 96 -32.5t36 -98.5v-143q0 -33 -10.5 -57.5t-28.5 -41t-42 -24.5t-51 -8h-15q-58 0 -96.5 32.5t-38.5 98.5v143q0 33 11 57.5t30 41t43 24.5t51 8h15zM229 543q0 19 -11 30.5t-31 11.5h-6q-20 0 -32 -11.5t-12 -30.5v-155q0 -20 12 -31.5t32 -11.5h6
q18 0 30 12.5t12 30.5v155zM647 405q60 0 96 -32.5t36 -98.5v-143q0 -33 -10.5 -57.5t-28.5 -41t-42 -24.5t-51 -8h-15q-58 0 -96.5 32.5t-38.5 98.5v143q0 33 11 57.5t30 41t43 24.5t51 8h15zM684 280q0 19 -11 30.5t-31 11.5h-6q-20 0 -32 -11.5t-12 -30.5v-155
q0 -20 12 -31.5t32 -11.5h6q18 0 30 12.5t12 30.5v155zM486 661q6 16 17.5 22.5t25.5 6.5q6 0 14.5 -2t16.5 -6.5t13.5 -13.5t5.5 -22q0 -10 -4 -19l-235 -609q-14 -35 -45 -35q-26 0 -39 13t-13 30q0 11 5 23z" />
    <glyph glyph-name="ampersand" unicode="&#x26;" horiz-adv-x="650" 
d="M60 395q0 52 15.5 91.5t41 65t58 38.5t67.5 13h154q58 0 58 -61q0 -30 -14.5 -43.5t-43.5 -13.5h-144q-35 0 -54.5 -24.5t-19.5 -62.5v-193q0 -38 18 -63t52 -25h36q26 0 44.5 8.5t30.5 23t17.5 33.5t5.5 40v56h-78q-29 0 -42.5 12.5t-13.5 44.5q0 29 13.5 44.5
t42.5 15.5h179q15 0 27.5 4.5t22.5 10.5t18.5 10.5t17.5 4.5q12 0 23 -5.5t19.5 -15t13.5 -21t5 -23.5q0 -18 -12.5 -33t-31.5 -26t-40.5 -17t-40.5 -6h-5v-53q0 -54 -17.5 -96t-46.5 -70.5t-67.5 -43.5t-80.5 -15h-46q-40 0 -73.5 13t-57.5 38.5t-37.5 64.5t-13.5 92v187z
" />
    <glyph glyph-name="quoteright" unicode="&#x2019;" horiz-adv-x="216" 
d="M128 472q-5 -11 -16.5 -20.5t-30.5 -9.5q-15 0 -26 5t-18 12.5t-10 16t-3 15.5q0 2 0.5 4.5t0.5 4.5l27 139q4 20 21 37.5t46 17.5q36 0 53.5 -21t17.5 -45q0 -13 -4 -22z" />
    <glyph glyph-name="parenleft" unicode="(" horiz-adv-x="284" 
d="M151 316q0 -46 7.5 -91.5t20.5 -87.5t30 -78.5t37 -64.5q7 -10 9.5 -18t2.5 -15q0 -10 -5 -19.5t-13.5 -16.5t-18.5 -11.5t-19 -4.5q-25 0 -40 20q-25 33 -49 76.5t-43 94t-30.5 105.5t-11.5 111q0 44 8.5 92t22.5 95t32.5 89.5t38 75t39.5 51.5t38 19q12 0 22.5 -5
t18 -12.5t11.5 -16.5t4 -16q0 -18 -12 -36q-48 -75 -74 -160.5t-26 -175.5z" />
    <glyph glyph-name="parenright" unicode=")" horiz-adv-x="284" 
d="M133 316q0 90 -26 175.5t-74 160.5q-12 18 -12 36q0 7 4 16t11.5 16.5t18 12.5t22.5 5q17 0 37.5 -19t40 -51.5t38 -75t32.5 -89.5t22.5 -95t8.5 -92q0 -56 -11.5 -111t-30.5 -105.5t-43 -94t-49 -76.5q-8 -10 -18 -15t-21 -5q-9 0 -19.5 4.5t-18.5 11.5t-13.5 16.5
t-5.5 19.5q0 7 2.5 15t9.5 18q19 28 36.5 64.5t30.5 78.5t20.5 87.5t7.5 91.5z" />
    <glyph glyph-name="asterisk" unicode="*" horiz-adv-x="431" 
d="M354 599q5 2 11 3.5t12 1.5q18 0 29 -20q4 -8 4 -17q0 -11 -6.5 -18t-16.5 -15l-94 -64l62 -100q7 -12 7 -25q0 -17 -14 -28q-10 -7 -20 -7q-15 0 -30 17l-85 93l-93 -97q-6 -5 -12 -8t-14 -3q-12 0 -22 10v-1q-14 11 -14 24q0 7 3 14t8 14l62 96l-93 62q-9 7 -16 15
t-7 19q0 9 5 18q6 11 13 14.5t15 3.5q10 0 22 -5q21 -8 46 -18.5t48 -18.5l11 97q2 14 9 27t27 13q21 0 27 -12t8 -26l13 -98z" />
    <glyph glyph-name="plus" unicode="+" horiz-adv-x="520" 
d="M316 269v-108q0 -22 -13.5 -37t-43.5 -15q-28 0 -41 15.5t-13 36.5v108h-117q-24 0 -40 13t-16 39q0 27 16.5 40t39.5 13h117v110q0 21 12.5 36t41.5 15q30 0 43.5 -13.5t13.5 -37.5v-110h116q23 0 39.5 -13t16.5 -40q0 -26 -15 -39t-41 -13h-116z" />
    <glyph glyph-name="comma" unicode="," horiz-adv-x="188" 
d="M110 -87q-5 -11 -16.5 -20.5t-30.5 -9.5q-15 0 -26 5t-18 12.5t-10 16t-3 15.5q0 2 0.5 4.5t0.5 4.5l27 139q4 20 21 37.5t46 17.5q36 0 53.5 -21t17.5 -45q0 -13 -4 -22z" />
    <glyph glyph-name="hyphen" unicode="-" horiz-adv-x="383" 
d="M298 298q60 0 60 -57q0 -56 -60 -56h-213q-60 0 -60 56q0 57 60 57h213z" />
    <glyph glyph-name="period" unicode="." horiz-adv-x="207" 
d="M104 0q-30 0 -50 20t-20 47q0 34 21.5 50.5t47.5 16.5t47.5 -16.5t21.5 -50.5q0 -26 -19 -46.5t-49 -20.5z" />
    <glyph glyph-name="slash" unicode="/" horiz-adv-x="503" 
d="M126 -23q-15 -29 -45 -29q-24 0 -43.5 15t-19.5 41q0 15 5 24l334 660q7 14 19.5 20t26.5 6q26 0 44.5 -16t18.5 -37q0 -11 -6 -23z" />
    <glyph glyph-name="zero" unicode="0" horiz-adv-x="520" 
d="M275 669q43 0 78 -13t60 -39.5t39 -65.5t14 -91v-252q0 -52 -15 -91t-41 -65t-61 -39t-74 -13h-24q-42 0 -78 13t-62.5 39t-41.5 65t-15 91v252q0 52 16 91t43 65.5t63 39.5t75 13h24zM349 466q0 40 -22 64t-60 24h-9q-38 0 -62 -24t-24 -64v-264q0 -42 23 -65t63 -23h9
q36 0 59 25t23 63v264z" />
    <glyph glyph-name="one" unicode="1" horiz-adv-x="520" 
d="M284 -5q-36 0 -48 16.5t-12 36.5v453l-52 -40q-17 -12 -35 -12q-20 0 -39 17t-19 45q0 25 21 42l129 100q17 13 28 16t26 3q32 0 45 -12t13 -50v-564q0 -9 -2.5 -18t-9 -16.5t-17.5 -12t-28 -4.5z" />
    <glyph glyph-name="two" unicode="2" horiz-adv-x="520" 
d="M131 551q-27 0 -42 14t-15 44q0 29 15 44.5t42 15.5h168q86 0 131.5 -47t45.5 -122q0 -41 -11.5 -72t-31 -54.5t-44.5 -41t-53 -31.5l-110 -57q-64 -36 -64 -92v-35h253q57 0 57 -57q0 -60 -57 -60h-309q-32 0 -47 17t-15 40v91q0 69 30 114t96 82q32 17 65 34t65 34
q26 14 42 36.5t16 46.5q0 29 -18.5 42.5t-40.5 13.5h-168z" />
    <glyph glyph-name="three" unicode="3" horiz-adv-x="520" 
d="M266 669q27 0 59 -7.5t59 -27.5t45.5 -54.5t18.5 -88.5q0 -38 -16.5 -72.5t-49.5 -51.5q38 -23 54.5 -62t16.5 -84v-10q0 -52 -16 -91.5t-42.5 -66t-62 -40t-74.5 -13.5h-169q-15 0 -32 14t-17 45q0 34 16.5 45.5t32.5 11.5h163q39 0 62 25.5t23 65.5v15q0 39 -25.5 62.5
t-66.5 23.5h-93q-17 0 -33 13t-16 44q0 32 16.5 43t31.5 11h102q29 0 53 16.5t24 53.5q0 35 -24 49.5t-52 14.5h-151q-17 0 -33 11t-16 45q0 16 5 27t12.5 18.5t16 11t15.5 3.5h163z" />
    <glyph glyph-name="four" unicode="4" horiz-adv-x="520" 
d="M85 121q-37 0 -49.5 12.5t-13.5 44.5q0 15 3.5 25t11.5 30l169 404q12 29 32 34.5t43 -0.5q22 -8 33.5 -27t0.5 -46l-152 -360h116v108q0 22 13 37.5t45 15.5q31 0 44.5 -17.5t13.5 -35.5v-108h58q17 0 34 -14t17 -44q0 -26 -12.5 -42.5t-38.5 -16.5h-58v-78
q0 -19 -13.5 -34t-44.5 -15q-32 0 -45 15t-13 34v78h-194z" />
    <glyph glyph-name="five" unicode="5" horiz-adv-x="520" 
d="M104 0q-7 0 -15.5 3.5t-16 10.5t-12.5 18t-5 27q0 17 5 28t12.5 17t16 8.5t15.5 2.5h172q38 0 55 24t17 64v27q0 38 -17.5 59.5t-52.5 21.5h-162q-18 0 -30 6.5t-18.5 16t-9.5 20.5t-3 20v230q0 11 3 22t9.5 20t18.5 15t30 6h286q21 0 35.5 -13.5t14.5 -45.5
q0 -17 -5.5 -28t-13 -17t-16 -8.5t-15.5 -2.5h-233v-125h116q39 0 72.5 -11.5t58 -36.5t38 -63t13.5 -90v-19q0 -52 -13.5 -91t-38 -64.5t-58 -38.5t-72.5 -13h-181z" />
    <glyph glyph-name="six" unicode="6" horiz-adv-x="520" 
d="M216 0q-50 0 -82 16.5t-51 42.5t-26 58t-7 63v281q0 57 17 96.5t43 64t58.5 36t62.5 11.5h149q23 0 38 -14.5t15 -44.5t-13.5 -43t-40.5 -13h-132q-37 0 -59.5 -21.5t-22.5 -68.5v-43h128q39 0 72.5 -11.5t58 -35.5t38 -62t13.5 -91v-15q0 -52 -13.5 -91t-38 -64.5
t-58 -38t-72.5 -12.5h-77zM280 111q37 0 58.5 24t21.5 64v26q0 39 -20 60t-56 21h-119v-129q0 -10 2.5 -21.5t9 -21.5t19 -16.5t32.5 -6.5h52z" />
    <glyph glyph-name="seven" unicode="7" horiz-adv-x="520" 
d="M401 668q37 0 49.5 -12.5t13.5 -44.5q0 -11 -3.5 -23t-11.5 -32l-193 -523q-8 -20 -23.5 -30t-33.5 -10q-28 0 -44.5 14.5t-16.5 34.5q0 9 5 24l183 486h-230q-17 0 -33.5 14.5t-16.5 43.5q0 28 16.5 43t33.5 15h305z" />
    <glyph glyph-name="eight" unicode="8" horiz-adv-x="520" 
d="M51 220q0 48 18 87.5t52 58.5q-35 20 -48 52.5t-13 65.5q0 44 14 79t39 59t59 37t73 13h28q39 0 73 -12t59 -35.5t39.5 -58t14.5 -79.5q0 -32 -14.5 -66t-45.5 -52q39 -21 55 -60.5t16 -88.5v-13q0 -53 -15.5 -91.5t-42.5 -64.5t-62.5 -38.5t-74.5 -12.5h-35
q-39 0 -73.5 12.5t-60 38.5t-40.5 64.5t-15 91.5v13zM267 110q38 0 62.5 27.5t24.5 67.5v14q0 39 -22.5 67.5t-59.5 28.5h-24q-37 0 -59.5 -28.5t-22.5 -67.5v-14q0 -40 22 -67.5t59 -27.5h20zM251 564q-37 0 -57 -22.5t-20 -53.5q0 -29 18.5 -49.5t49.5 -20.5h33
q31 0 50.5 22t19.5 48q0 29 -19.5 52.5t-56.5 23.5h-18z" />
    <glyph glyph-name="nine" unicode="9" horiz-adv-x="520" 
d="M304 669q50 0 82 -16.5t51 -42.5t26 -58t7 -63v-281q0 -57 -17 -96.5t-43 -64t-58.5 -36t-62.5 -11.5h-149q-23 0 -38 14.5t-15 44.5t13.5 43t40.5 13h132q37 0 59.5 21.5t22.5 68.5v43h-128q-39 0 -72.5 11.5t-58 35.5t-38 62t-13.5 91v15q0 52 13.5 91t38 64.5t58 38
t72.5 12.5h77zM240 556q-37 0 -58.5 -24t-21.5 -64v-24q0 -39 20 -60t56 -21h119v127q0 10 -2.5 21.5t-9 21.5t-19 16.5t-32.5 6.5h-52z" />
    <glyph glyph-name="colon" unicode=":" horiz-adv-x="203" 
d="M104 0q-30 0 -50 20t-20 47q0 34 21.5 50.5t47.5 16.5t47.5 -16.5t21.5 -50.5q0 -26 -19 -46.5t-49 -20.5zM104 229q-30 0 -50 20t-20 47q0 34 21.5 50.5t47.5 16.5t47.5 -16.5t21.5 -50.5q0 -26 -19 -46.5t-49 -20.5z" />
    <glyph glyph-name="semicolon" unicode=";" horiz-adv-x="203" 
d="M104 229q-30 0 -50 20t-20 47q0 34 21.5 50.5t47.5 16.5t47.5 -16.5t21.5 -50.5q0 -26 -19 -46.5t-49 -20.5zM110 -87q-5 -11 -16.5 -20.5t-30.5 -9.5q-15 0 -26 5t-18 12.5t-10 16t-3 15.5q0 2 0.5 4.5t0.5 4.5l27 139q4 20 21 37.5t46 17.5q36 0 53.5 -21t17.5 -45
q0 -13 -4 -22z" />
    <glyph glyph-name="less" unicode="&#x3c;" horiz-adv-x="520" 
d="M218 322l254 -86q21 -7 30 -19.5t9 -26.5q0 -30 -17 -45.5t-36 -15.5q-6 0 -12 1t-12 3l-380 129q-21 8 -33.5 19t-12.5 37q0 13 2 21t7.5 14t14 10.5t20.5 9.5l381 161q13 5 23 5q21 0 37.5 -16.5t16.5 -43.5q0 -31 -36 -47l-256 -106v-4z" />
    <glyph glyph-name="equal" unicode="=" horiz-adv-x="520" 
d="M93 358q-60 0 -60 55q0 53 60 53h333q60 0 60 -53q0 -55 -60 -55h-333zM93 202q-60 0 -60 53q0 55 60 55h333q60 0 60 -55q0 -53 -60 -53h-333z" />
    <glyph glyph-name="greater" unicode="&#x3e;" horiz-adv-x="520" 
d="M302 326l-256 106q-37 16 -37 47q0 27 18 43.5t37 16.5q11 0 23 -5l381 -161q12 -5 20.5 -9.5t14 -10.5t7.5 -14t2 -21q0 -26 -12.5 -37t-33.5 -19l-380 -129q-6 -2 -12 -3t-12 -1q-19 0 -36 15.5t-17 45.5q0 14 9 26.5t30 19.5l254 86v4z" />
    <glyph glyph-name="question" unicode="?" horiz-adv-x="470" 
d="M237 0q-28 0 -47 18.5t-19 45.5q0 32 20.5 48t45.5 16t45.5 -16t20.5 -48q0 -27 -18.5 -45.5t-47.5 -18.5zM231 668q189 0 189 -152q0 -23 -12 -52t-29 -49l-46 -52q-19 -24 -26 -41.5t-7 -35.5v-53q0 -18 -15.5 -34t-47.5 -16q-7 0 -16.5 2.5t-18.5 8.5t-15.5 15.5
t-6.5 23.5v80q0 22 10 41.5t25 38.5l56 71q10 12 15.5 22t5.5 26q0 21 -21.5 31.5t-53.5 10.5q-25 0 -48 -7t-55 -18q-15 -5 -26 -5q-18 0 -34 15t-16 47q0 22 21 38t51 25.5t63 14t58 4.5z" />
    <glyph glyph-name="at" unicode="@" horiz-adv-x="919" 
d="M652 223q0 -14 7.5 -22.5t25.5 -8.5q23 0 39 13t26.5 35.5t15 51.5t4.5 62q0 63 -23 115t-63.5 89.5t-96 58.5t-120.5 21q-66 0 -123.5 -23.5t-100 -67.5t-67.5 -108.5t-25 -145.5q0 -70 21 -128t61 -99t97 -64t128 -23q39 0 78.5 7.5t71.5 24.5q12 6 23 6q22 0 35 -16.5
t13 -34.5q0 -21 -23 -37t-57.5 -26.5t-75 -16t-74.5 -5.5q-90 0 -163.5 30.5t-126 84.5t-81 129.5t-28.5 165.5q0 93 29 174.5t83.5 141.5t133 95t176.5 35q84 0 156.5 -27.5t126 -78t84 -121t30.5 -156.5q0 -68 -15 -116t-40.5 -79t-58.5 -45t-70 -14q-61 0 -98.5 30
t-37.5 94v60h-177q-14 0 -24 -9t-10 -23v-5q0 -12 8 -24.5t26 -12.5h106q7 0 14.5 -3t14.5 -9t11.5 -16t4.5 -24q0 -30 -15.5 -41t-29.5 -11h-115q-57 0 -93.5 37.5t-36.5 102.5v7q0 25 8 49.5t25 43.5t43 31t63 12h174v6q0 23 -17 35t-45 12h-135q-14 0 -30 10.5t-16 39.5
t16 41.5t30 12.5h131q86 0 129 -45t43 -126v-152z" />
    <glyph glyph-name="A" unicode="A" horiz-adv-x="567" 
d="M281 474l-72 -214h148q-18 53 -35.5 106.5t-36.5 107.5h-4zM169 149l-40 -115q-13 -40 -53 -40q-32 0 -49 17t-17 39q0 5 1 11t3 11l193 547q8 21 20.5 35t40.5 14h30q27 0 40 -13.5t21 -35.5l194 -547q4 -9 4 -21q0 -23 -19 -40t-49 -17q-36 0 -52 41l-42 114h-226z" />
    <glyph glyph-name="B" unicode="B" horiz-adv-x="611" 
d="M180 552v-139h183q9 0 18.5 4.5t17.5 14t13.5 23t5.5 31.5q0 33 -19.5 49.5t-40.5 16.5h-178zM180 302v-186h189q11 0 23.5 5t23.5 16t18.5 28.5t7.5 43.5q0 16 -6 32.5t-17 30t-27 22t-36 8.5h-176zM120 0q-60 0 -60 60v550q0 58 60 58h255q32 0 62 -12.5t52.5 -35.5
t36 -56t13.5 -75q0 -32 -12.5 -66.5t-43.5 -59.5q18 -13 32.5 -27.5t24.5 -33t15.5 -42t5.5 -53.5q0 -51 -17.5 -89.5t-45.5 -65t-63 -39.5t-69 -13h-246z" />
    <glyph glyph-name="C" unicode="C" horiz-adv-x="531" 
d="M242 0q-39 0 -74 12.5t-61.5 37.5t-41.5 63.5t-15 91.5v254q0 52 15.5 91t41.5 65.5t61.5 39.5t74.5 13h209q28 0 41 -15.5t13 -42.5t-13 -42.5t-41 -15.5h-205q-38 0 -58 -24t-20 -64v-261q0 -41 20.5 -63.5t57.5 -22.5l205 -1q27 0 40.5 -15.5t13.5 -42.5t-13.5 -42.5
t-40.5 -15.5h-210z" />
    <glyph glyph-name="D" unicode="D" horiz-adv-x="622" 
d="M452 464q0 42 -21 65t-68 23h-183v-436h185q46 0 66.5 22.5t20.5 64.5v261zM121 0q-61 0 -61 58v552q0 58 61 58h267q40 0 73.5 -13t58 -38.5t38.5 -64.5t14 -91v-254q0 -51 -14.5 -89.5t-40.5 -65t-61 -39.5t-77 -13h-258z" />
    <glyph glyph-name="E" unicode="E" horiz-adv-x="534" 
d="M121 0q-61 0 -61 58v552q0 58 61 58h331q27 0 40.5 -15.5t13.5 -42.5t-13.5 -42.5t-40.5 -15.5h-272v-142h230q27 0 39.5 -15.5t12.5 -42.5t-12.5 -42t-39.5 -15h-230v-179h272q27 0 40.5 -15.5t13.5 -42.5t-13.5 -42.5t-40.5 -15.5h-331z" />
    <glyph glyph-name="F" unicode="F" horiz-adv-x="531" 
d="M180 552v-142h230q27 0 39.5 -15.5t12.5 -42.5t-12.5 -42t-39.5 -15h-230v-247q0 -29 -15 -41t-44 -12q-31 0 -46 12t-15 41v562q0 58 61 58h331q27 0 40.5 -15.5t13.5 -42.5t-13.5 -42.5t-40.5 -15.5h-272z" />
    <glyph glyph-name="G" unicode="G" horiz-adv-x="587" 
d="M243 0q-39 0 -74.5 13t-61.5 39.5t-41.5 65t-15.5 89.5v254q0 52 16.5 91t43.5 64.5t61.5 38.5t71.5 13h212q28 0 42 -15.5t14 -42.5t-14 -42.5t-42 -15.5h-195q-47 0 -68.5 -23t-21.5 -65v-261q0 -42 22 -64.5t68 -22.5h162v179h-83q-27 0 -41 15.5t-14 42.5t14 42
t41 15h143q27 0 43.5 -11t16.5 -46v-295q0 -27 -14 -42.5t-44 -15.5h-241z" />
    <glyph glyph-name="H" unicode="H" horiz-adv-x="592" 
d="M477 -5q-30 0 -44.5 13t-14.5 42v245h-244v-245q0 -29 -14.5 -42t-44.5 -13q-31 0 -45.5 13t-14.5 42v568q0 55 60 55q59 0 59 -55v-208h244v208q0 55 59 55q60 0 60 -55v-568q0 -29 -14.5 -42t-45.5 -13z" />
    <glyph glyph-name="I" unicode="I" horiz-adv-x="269" 
d="M135 -5q-31 0 -45.5 13t-14.5 42v568q0 55 60 55q59 0 59 -55v-568q0 -29 -14.5 -42t-44.5 -13z" />
    <glyph glyph-name="J" unicode="J" horiz-adv-x="433" 
d="M63 0q-31 0 -44.5 14.5t-13.5 43.5q0 31 16.5 44.5t44.5 13.5h86q39 0 60.5 24.5t21.5 63.5v348h-114q-27 0 -40.5 15.5t-13.5 42.5t13.5 42.5t40.5 15.5h172q61 0 61 -58v-403q0 -34 -9.5 -70.5t-31.5 -67t-59.5 -50t-92.5 -19.5h-97z" />
    <glyph glyph-name="K" unicode="K" horiz-adv-x="555" 
d="M182 411l251 234q27 25 54 25q9 0 19 -4t18.5 -11.5t14 -18t5.5 -23.5q0 -23 -16 -38l-214 -195q53 -71 107.5 -145.5t107.5 -146.5q13 -18 13 -36q0 -13 -5.5 -23t-14.5 -17.5t-19.5 -11.5t-20.5 -4q-15 0 -29 7t-24 21l-203 279l-47 -42v-208q0 -58 -59 -58
q-60 0 -60 58v562q0 58 60 58q59 0 59 -58v-204h3z" />
    <glyph glyph-name="L" unicode="L" horiz-adv-x="511" 
d="M121 0q-61 0 -61 58v557q0 58 61 58q59 0 59 -58v-499h271q27 0 41 -15.5t14 -42.5t-14 -42.5t-41 -15.5h-330z" />
    <glyph glyph-name="M" unicode="M" horiz-adv-x="674" 
d="M340 388l125 249q16 31 55 31h34q60 0 60 -58v-560q0 -29 -14.5 -42t-45.5 -13q-30 0 -44.5 13t-14.5 42v384h-4l-78 -157q-7 -13 -19.5 -27.5t-40.5 -14.5h-33q-27 0 -40 15t-20 28l-77 156h-4v-384q0 -29 -14.5 -42t-44.5 -13q-31 0 -45.5 13t-14.5 42v560q0 58 60 58
h34q15 0 24.5 -3.5t16.5 -10t12 -15.5t10 -19l117 -232h6z" />
    <glyph glyph-name="N" unicode="N" horiz-adv-x="619" 
d="M439 233v386q0 55 60 55t60 -55v-561q0 -58 -60 -58h-30q-26 0 -37 10.5t-21 27.5l-228 407h-3v-396q0 -29 -15 -42t-45 -13t-45 13t-15 42v561q0 58 60 58h32q27 0 40 -14t24 -33q56 -98 109 -193t110 -195h4z" />
    <glyph glyph-name="O" unicode="O" horiz-adv-x="588" 
d="M339 668q101 0 150 -54.5t49 -159.5v-241q0 -52 -15 -92t-41.5 -67t-62.5 -40.5t-79 -13.5h-93q-43 0 -79 11.5t-62.5 36.5t-41 65t-14.5 97v244q0 52 14.5 92t40.5 67t62.5 41t80.5 14h91zM420 466q0 40 -22 66.5t-73 26.5h-63q-48 0 -70.5 -26.5t-22.5 -66.5v-267
q0 -41 22.5 -66t70.5 -25h63q48 0 71.5 27.5t23.5 65.5v265z" />
    <glyph glyph-name="P" unicode="P" horiz-adv-x="573" 
d="M179 552v-188h164q22 0 37.5 8.5t25 22t14 31t4.5 35.5q0 25 -7.5 42.5t-19.5 28.5t-27 15.5t-29 4.5h-162zM179 249v-199q0 -29 -14.5 -42t-44.5 -13q-31 0 -45.5 13t-14.5 42v560q0 58 60 58h214q48 0 86.5 -14.5t66 -41.5t42 -65.5t14.5 -85.5q0 -48 -12 -87
t-37 -66.5t-64 -43t-93 -15.5h-158z" />
    <glyph glyph-name="Q" unicode="Q" horiz-adv-x="588" 
d="M551 -20q-19 -19 -38 -19q-10 0 -18.5 4.5t-15.5 11.5l-42 41q-41 -18 -89 -18h-106q-39 0 -74 12.5t-61.5 37.5t-41.5 63.5t-15 91.5v254q0 52 15.5 91t41.5 65.5t61.5 39.5t74.5 13h104q43 0 79 -13t61.5 -39.5t39.5 -65.5t14 -91v-251q0 -36 -7.5 -66t-21.5 -54
l39 -37q8 -7 13 -15.5t5 -19.5q0 -19 -18 -36zM423 464q0 40 -21 64t-59 24h-96q-38 0 -58 -24t-20 -64v-261q0 -41 20.5 -63.5t57.5 -22.5h90l-55 55q-7 7 -11.5 14.5t-4.5 18.5q0 9 5 18.5t13 17.5t18 13.5t19 5.5q10 0 18 -4.5t15 -10.5l66 -66q3 12 3 26v259z" />
    <glyph glyph-name="R" unicode="R" horiz-adv-x="562" 
d="M179 552v-188h173q34 0 53 28t19 69q0 25 -8 42.5t-19.5 28.5t-25 15.5t-24.5 4.5h-168zM543 461q0 -31 -6 -62t-20 -58t-37.5 -48t-58.5 -33l99 -176q5 -7 6.5 -14.5t1.5 -15.5q0 -21 -16 -40t-42 -19q-17 0 -32 8.5t-23 23.5l-123 222h-113v-196q0 -58 -59 -58
q-60 0 -60 58v557q0 58 60 58h212q48 0 86.5 -14.5t66.5 -41.5t43 -65.5t15 -85.5z" />
    <glyph glyph-name="S" unicode="S" horiz-adv-x="531" 
d="M105 0q-7 0 -15.5 2.5t-16 9.5t-12.5 18t-5 28q0 16 5.5 27.5t13.5 18t16.5 9.5t13.5 3h213q24 0 42 17t18 51q0 26 -18.5 44.5t-50.5 32.5l-127 54q-30 13 -55.5 26t-45 32.5t-30.5 47.5t-11 70q0 37 11.5 69.5t34 56.5t55 38t75.5 14h197q15 0 32 -14t17 -44
q0 -18 -5 -29t-12 -17.5t-16 -9t-16 -2.5h-197q-25 0 -42 -15.5t-17 -45.5q0 -25 14 -40t41 -26l121 -51q29 -12 58 -27t52.5 -36t38 -51t14.5 -72q0 -38 -11.5 -72t-34 -60t-55.5 -41.5t-75 -15.5h-215z" />
    <glyph glyph-name="T" unicode="T" horiz-adv-x="526" 
d="M322 552v-501q0 -56 -60 -56q-59 0 -59 56v501h-141q-27 0 -40.5 15.5t-13.5 42.5t13.5 42.5t40.5 15.5h400q27 0 41 -15.5t14 -42.5t-14 -42.5t-41 -15.5h-140z" />
    <glyph glyph-name="U" unicode="U" horiz-adv-x="611" 
d="M433 619q0 16 6 27t14.5 17t19 8.5t19.5 2.5q8 0 18.5 -2.5t19.5 -8.5t15 -17t6 -28v-410q0 -52 -15.5 -91t-41.5 -65t-61 -39t-75 -13h-106q-39 0 -74 12.5t-61.5 37.5t-41.5 63.5t-15 91.5v413q0 17 6 28t15 17t19.5 8.5t19.5 2.5t19 -2.5t19 -9t15 -17.5t6 -27v-415
q0 -41 20.5 -63.5t57.5 -22.5h96q38 0 59 25t21 63v414z" />
    <glyph glyph-name="V" unicode="V" horiz-adv-x="581" 
d="M292 171l159 466q8 22 21 30.5t27 8.5q27 0 48.5 -17.5t21.5 -38.5q0 -11 -4 -20l-195 -552q-8 -23 -20.5 -35.5t-40.5 -12.5h-38q-28 0 -40.5 12.5t-20.5 35.5l-196 552q-3 9 -3 17q0 21 18 39t47 18q17 0 31 -9t21 -29l160 -465h4z" />
    <glyph glyph-name="W" unicode="W" horiz-adv-x="802" 
d="M547 174h4l120 462q13 38 50 38q31 0 49 -15.5t18 -39.5q0 -10 -3 -19l-156 -552q-8 -23 -20.5 -35.5t-40.5 -12.5h-38q-27 0 -40 12.5t-21 35.5l-70 340h-2l-67 -340q-8 -23 -21 -35.5t-40 -12.5h-38q-28 0 -40.5 12.5t-20.5 35.5l-156 552q-3 9 -3 18q0 23 19 39.5
t48 16.5q17 0 31 -9t19 -29l120 -462h4l81 393q5 23 17.5 35.5t36.5 12.5h26q25 0 36.5 -12.5t16.5 -35.5z" />
    <glyph glyph-name="X" unicode="X" horiz-adv-x="550" 
d="M519 7q-17 -12 -33 -12q-15 0 -28 7.5t-22 20.5l-162 230l-158 -227q-10 -14 -23.5 -22t-28.5 -8q-25 0 -40 17.5t-15 37.5q0 21 13 41l182 255l-164 233q-13 19 -13 36q0 8 4.5 18t12.5 19t19 15t23 6q29 0 48 -28l141 -205l143 205q20 28 47 28q12 0 22.5 -5.5t19 -14
t13 -19t4.5 -20.5q0 -19 -12 -35l-166 -233l184 -258q11 -16 11 -36q0 -28 -22 -46z" />
    <glyph glyph-name="Y" unicode="Y" horiz-adv-x="553" 
d="M282 385l150 259q9 16 21.5 23.5t26.5 7.5q25 0 44.5 -18t19.5 -41q0 -12 -6 -24l-198 -334v-208q0 -56 -60 -56q-28 0 -43.5 14.5t-15.5 41.5v210l-206 337q-5 10 -5 19q0 12 6 22.5t16 18.5t22.5 13t25.5 5q29 0 47 -31l151 -259h4z" />
    <glyph glyph-name="Z" unicode="Z" horiz-adv-x="541" 
d="M92 0q-38 0 -50 16t-12 36q0 17 5 30.5t11 22.5l301 447h-242q-27 0 -40.5 15.5t-13.5 42.5t13.5 42.5t40.5 15.5h348q32 0 44 -16.5t12 -37.5q0 -17 -4.5 -29t-11.5 -22l-301 -447h269q29 0 40.5 -17t11.5 -41q0 -23 -11.5 -40.5t-40.5 -17.5h-369z" />
    <glyph glyph-name="bracketleft" unicode="[" horiz-adv-x="368" 
d="M132 -88q-18 0 -30 6.5t-19 15.5t-9.5 19.5t-2.5 18.5v701q0 9 2.5 19.5t9.5 19.5t19 15t30 6h163q16 0 31 -13.5t15 -41.5q0 -26 -15 -41t-31 -15h-110v-599h110q16 0 31 -14.5t15 -40.5q0 -29 -15 -42.5t-31 -13.5h-163z" />
    <glyph glyph-name="backslash" unicode="\" horiz-adv-x="503" 
d="M24 638q-6 12 -6 23q0 21 18.5 37t44.5 16q14 0 26.5 -6t19.5 -20l334 -660q6 -11 6 -24q0 -26 -20 -41t-44 -15q-14 0 -25.5 7t-19.5 22z" />
    <glyph glyph-name="bracketright" unicode="]" horiz-adv-x="368" 
d="M67 -88q-17 0 -32 13.5t-15 42.5q0 26 15 40.5t32 14.5h110v599h-110q-17 0 -32 15t-15 41q0 28 15 41.5t32 13.5h162q18 0 30 -6t19 -15t9.5 -19.5t2.5 -19.5v-701q0 -8 -2.5 -18.5t-9.5 -19.5t-19 -15.5t-30 -6.5h-162z" />
    <glyph glyph-name="asciicircum" unicode="^" horiz-adv-x="469" 
d="M241 670q19 0 38 -13l161 -150q17 -16 16 -35q0 -13 -6 -23t-14.5 -17.5t-18.5 -11.5t-19 -4q-20 0 -34 14l-124 114l-138 -118q-7 -6 -14.5 -8.5t-15.5 -2.5q-27 0 -43.5 19t-16.5 40q-1 17 15 32l174 151q20 13 40 13z" />
    <glyph glyph-name="underscore" unicode="_" horiz-adv-x="500" 
d="M0 -144q-27 0 -41 9.5t-14 35.5t13.5 35.5t41.5 9.5h501q28 0 42.5 -9.5t14.5 -35.5t-14.5 -35.5t-42.5 -9.5h-501z" />
    <glyph glyph-name="quoteleft" unicode="&#x2018;" horiz-adv-x="216" 
d="M87 662q5 11 17 20.5t30 9.5q16 0 26.5 -5t17.5 -12.5t10 -16t3 -15.5q0 -6 -1 -9l-27 -139q-4 -20 -21 -37t-46 -17q-36 0 -53.5 20.5t-17.5 44.5q0 14 4 22z" />
    <glyph glyph-name="a" unicode="a" horiz-adv-x="529" 
d="M190 190q-16 0 -25 -11t-9 -24v-3q0 -14 8.5 -25.5t25.5 -11.5h175v75h-175zM364 293v8q0 20 -14.5 37.5t-51.5 17.5h-137q-17 0 -33 11.5t-16 40.5t16 43.5t33 14.5h143q90 0 135.5 -45.5t45.5 -132.5v-227q0 -7 -3 -17.5t-10 -20t-18 -16.5t-27 -7h-257
q-27 0 -51.5 10.5t-43 30t-29 46.5t-10.5 61v9q0 27 9.5 51.5t27.5 43t44 30t60 11.5h187z" />
    <glyph glyph-name="b" unicode="b" horiz-adv-x="528" 
d="M370 275q0 35 -17 55t-58 20h-128v-235h129q41 0 57.5 19.5t16.5 51.5v89zM105 0q-16 0 -27 6t-18 15.5t-10 20.5t-3 20v589q0 17 16 31.5t45 14.5q30 0 44.5 -14.5t14.5 -31.5v-185h135q42 0 76.5 -12t59 -35t38.5 -57.5t14 -80.5v-99q0 -45 -14.5 -79t-40 -57
t-61 -34.5t-76.5 -11.5h-193z" />
    <glyph glyph-name="c" unicode="c" horiz-adv-x="443" 
d="M232 0q-43 0 -78 11t-60.5 33.5t-39.5 57t-14 80.5v99q0 46 14 80.5t38.5 57.5t59 35t76.5 12h141q17 0 33 -15.5t16 -42.5q0 -29 -16 -43.5t-33 -14.5h-134q-41 0 -58 -20t-17 -55v-88q0 -32 16 -52t58 -20h140q17 0 33 -14.5t16 -43.5q0 -27 -15.5 -42t-34.5 -15h-141z
" />
    <glyph glyph-name="d" unicode="d" horiz-adv-x="528" 
d="M158 186q0 -32 16.5 -51.5t57.5 -19.5h129v235h-128q-41 0 -58 -20t-17 -55v-89zM230 0q-86 0 -139 44.5t-53 134.5v101q0 46 14 80.5t38.5 58t59 35.5t76.5 12h135v185q0 17 14.5 31.5t44.5 14.5q29 0 45 -14.5t16 -31.5v-589q0 -9 -3 -20t-10 -20.5t-18 -15.5t-27 -6
h-193z" />
    <glyph glyph-name="e" unicode="e" horiz-adv-x="500" 
d="M345 278q0 34 -19 53t-57 19h-36q-32 0 -52.5 -19t-20.5 -53v-6h185v6zM276 466q40 0 74.5 -12.5t60 -36t40 -58.5t14.5 -80v-39q0 -8 -3 -18.5t-10.5 -19.5t-19.5 -15.5t-31 -6.5h-241v-7q0 -29 21.5 -46t57.5 -17h133q17 0 33 -12t16 -41q0 -27 -16 -42t-33 -15h-147
q-40 0 -74 12t-58.5 34.5t-38.5 56t-14 76.5v100q0 44 14.5 79t39.5 59t59.5 36.5t75.5 12.5h47z" />
    <glyph glyph-name="f" unicode="f" horiz-adv-x="387" 
d="M279 576q-33 0 -53.5 -11t-20.5 -49v-50h107q17 0 32.5 -12.5t15.5 -41.5q0 -27 -15.5 -40.5t-32.5 -13.5h-107v-316q0 -17 -15.5 -32t-44.5 -15q-31 0 -45.5 15t-14.5 32v316h-32q-17 0 -33 13t-16 41q0 29 16 41.5t33 12.5h32v46q0 93 49.5 136.5t131.5 43.5h69
q9 0 18.5 -3.5t17.5 -11t13 -18t5 -24.5q0 -27 -18 -43t-36 -16h-56z" />
    <glyph glyph-name="g" unicode="g" horiz-adv-x="528" 
d="M481 -20q0 -89 -53.5 -135.5t-144.5 -46.5h-146q-17 0 -33.5 15t-16.5 43q0 29 16.5 42t33.5 13h145q79 0 79 74v15h-135q-42 0 -76.5 11.5t-59 35t-38.5 58t-14 80.5v100q0 45 14.5 79t40 57t61 34.5t76.5 11.5h193q16 0 27 -6t18 -15.5t10 -20.5t3 -20v-425zM158 192
q0 -35 17 -55t58 -20h128v235h-129q-41 0 -57.5 -19.5t-16.5 -51.5v-89z" />
    <glyph glyph-name="h" unicode="h" horiz-adv-x="523" 
d="M424 -5q-29 0 -44.5 15t-15.5 32v239q0 39 -23 54t-57 15h-117v-308q0 -17 -14.5 -32t-44.5 -15q-29 0 -45.5 15t-16.5 32v608q0 17 16 32t45 15q30 0 45 -15t15 -32v-184h127q87 0 138.5 -46.5t51.5 -138.5v-238q0 -17 -14.5 -32.5t-45.5 -15.5z" />
    <glyph glyph-name="i" unicode="i" horiz-adv-x="340" 
d="M194 535q-29 0 -49.5 19t-20.5 48q0 33 21.5 50t47.5 17q27 0 49 -17t22 -50q0 -29 -20 -48t-50 -19zM197 -5q-30 0 -45 15t-15 32v312h-62q-17 0 -33 14.5t-16 41.5q0 29 16 42.5t33 13.5h123q28 0 43.5 -16t15.5 -36v-372q0 -17 -14.5 -32t-45.5 -15z" />
    <glyph glyph-name="j" unicode="j" horiz-adv-x="305" 
d="M173 535q-29 0 -50 19t-21 48q0 35 22 51.5t48 16.5t47.5 -16.5t21.5 -51.5q0 -29 -19.5 -48t-48.5 -19zM-6 -202q-18 0 -33.5 15.5t-15.5 42.5q0 29 16 43t33 14h49q33 0 54 17.5t21 55.5v368h-62q-17 0 -33 14t-16 42q0 29 16 42.5t33 13.5h123q26 0 42.5 -14.5
t16.5 -41.5v-429q0 -91 -50 -137t-138 -46h-56z" />
    <glyph glyph-name="k" unicode="k" horiz-adv-x="461" 
d="M430 7q-20 -12 -38 -12q-17 0 -30.5 8t-21.5 22l-119 216l-57 -39v-160q0 -17 -14 -32t-45 -15q-29 0 -44.5 15t-15.5 32v608q0 17 15.5 32t44.5 15q31 0 45 -15t14 -32v-317l178 129q9 7 19.5 10t19.5 3q23 0 41.5 -16t18.5 -41q-1 -11 -6.5 -23t-17.5 -20l-98 -68
l129 -229q7 -11 7 -24q0 -16 -8 -28.5t-17 -18.5z" />
    <glyph glyph-name="l" unicode="l" horiz-adv-x="321" 
d="M184 181q0 -29 15.5 -49.5t52.5 -20.5h14q26 0 39.5 -15.5t13.5 -42.5q0 -28 -16 -42.5t-37 -14.5h-25q-82 0 -129 46t-47 140v468q0 17 14 32t45 15q29 0 44.5 -15t15.5 -32v-469z" />
    <glyph glyph-name="m" unicode="m" horiz-adv-x="707" 
d="M607 -5q-30 0 -45 14t-15 32v242q0 38 -23.5 52.5t-57.5 14.5h-49v-309q0 -16 -14.5 -31t-45.5 -15q-29 0 -45 14.5t-16 32.5v308h-130v-309q0 -16 -14.5 -31t-45.5 -15q-29 0 -45 14.5t-16 32.5v362q0 9 3 19.5t10.5 20t19.5 16t31 6.5h365q88 0 140.5 -46.5
t52.5 -136.5v-242q0 -16 -14.5 -31t-45.5 -15z" />
    <glyph glyph-name="n" unicode="n" horiz-adv-x="523" 
d="M423 -5q-32 0 -46 14t-14 32v242q0 38 -23.5 52.5t-57.5 14.5h-116v-309q0 -16 -14 -31t-46 -15q-30 0 -45.5 14.5t-15.5 32.5v362q0 9 3 19.5t10.5 20t19.5 16t31 6.5h181q88 0 140.5 -46.5t52.5 -136.5v-242q0 -16 -14 -31t-46 -15z" />
    <glyph glyph-name="o" unicode="o" horiz-adv-x="518" 
d="M235 358q-41 0 -58 -20t-17 -55v-104q0 -32 16.5 -51.5t57.5 -19.5h50q41 0 57.5 19.5t16.5 51.5v104q0 35 -17 55t-58 20h-48zM225 0q-39 0 -72.5 11t-58.5 33.5t-39.5 57t-14.5 80.5v99q0 46 14 80.5t38.5 57.5t59 35t76.5 12h62q42 0 76.5 -12t59 -35t38.5 -57.5
t14 -80.5v-99q0 -46 -14.5 -80.5t-39.5 -57t-58.5 -33.5t-72.5 -11h-68z" />
    <glyph glyph-name="p" unicode="p" horiz-adv-x="528" 
d="M368 281q0 32 -16.5 51.5t-57.5 19.5h-129v-239h128q41 0 58 20t17 55v93zM296 467q41 0 76.5 -11.5t61 -34.5t40 -57t14.5 -79v-99q0 -46 -14 -80.5t-38.5 -58t-59 -35t-76.5 -11.5h-135v-168q0 -17 -14.5 -30.5t-44.5 -13.5q-29 0 -45 13.5t-16 30.5v572q0 9 3 20
t10 20.5t18 15.5t27 6h193z" />
    <glyph glyph-name="q" unicode="q" horiz-adv-x="528" 
d="M162 188q0 -35 17 -55t58 -20h128v239h-129q-41 0 -57.5 -19.5t-16.5 -51.5v-93zM427 467q16 0 27 -6t18 -15.5t10 -20.5t3 -20v-572q0 -17 -16 -30.5t-45 -13.5q-30 0 -44.5 13.5t-14.5 30.5v168h-135q-42 0 -76.5 11.5t-59 35t-38.5 58t-14 80.5v99q0 45 14.5 79t40 57
t61 34.5t76.5 11.5h193z" />
    <glyph glyph-name="r" unicode="r" horiz-adv-x="415" 
d="M251 466q31 0 60 -10.5t51 -27.5t35 -38t13 -41q0 -15 -9 -27t-20 -20q-24 -16 -46 -9t-37 29q-8 10 -25 20t-37 10h-61v-311q0 -16 -14.5 -31t-45.5 -15q-29 0 -44.5 14t-15.5 32v363q0 9 3 19.5t10.5 20t19.5 16t31 6.5h132z" />
    <glyph glyph-name="s" unicode="s" horiz-adv-x="459" 
d="M92 0q-8 0 -17 3t-17 10t-13 18.5t-5 28.5t6 28.5t14.5 18t17.5 9.5t14 3h188q28 0 28 21q0 14 -36 25l-108 31q-27 7 -50.5 17t-41 25t-27.5 37.5t-10 56.5q0 58 37.5 95.5t110.5 37.5h171q7 0 16 -2.5t17 -8.5t13.5 -17t5.5 -27q0 -17 -5 -28.5t-13 -18.5t-17 -10
t-17 -3h-171q-11 0 -18 -3.5t-7 -13.5q0 -5 9 -10.5t23 -9.5l110 -30q28 -8 51.5 -18t41 -26t27 -39.5t9.5 -57.5q0 -29 -9 -54.5t-27.5 -45t-46.5 -31t-66 -11.5h-188z" />
    <glyph glyph-name="t" unicode="t" horiz-adv-x="397" 
d="M340 110q18 0 36 -14.5t18 -41.5q0 -14 -5 -24.5t-13 -18t-17.5 -11t-18.5 -3.5h-81q-34 0 -64 10t-52 32t-35 55t-13 80v182h-38q-17 0 -33 12.5t-16 41.5q0 28 16 41t33 13h37v126q0 17 14.5 32t45.5 15q29 0 44.5 -15t15.5 -32v-126h104q17 0 32.5 -13.5t15.5 -40.5
q0 -29 -15.5 -41.5t-32.5 -12.5h-104v-174q0 -38 18.5 -55t55.5 -17h52z" />
    <glyph glyph-name="u" unicode="u" horiz-adv-x="523" 
d="M100 471q30 0 45 -14t15 -32v-242q0 -38 23.5 -52.5t57.5 -14.5h116v309q0 16 14.5 31t45.5 15q29 0 45 -14.5t16 -32.5v-362q0 -9 -3 -19.5t-10.5 -20t-19.5 -16t-31 -6.5h-181q-88 0 -140.5 46.5t-52.5 136.5v242q0 16 14.5 31t45.5 15z" />
    <glyph glyph-name="v" unicode="v" horiz-adv-x="476" 
d="M239 141l107 299q7 18 20 26t30 8q26 0 45 -14t19 -41q0 -9 -3 -18l-138 -355q-8 -21 -22.5 -33.5t-41.5 -12.5h-38q-26 0 -41.5 12t-23.5 34l-138 355q-3 9 -3 18q0 26 19.5 41t45.5 15q39 0 53 -40l108 -294h2z" />
    <glyph glyph-name="w" unicode="w" horiz-adv-x="659" 
d="M464 149l63 291q7 18 20 26t30 8q26 0 45 -14t19 -41q0 -9 -3 -18l-93 -355q-11 -46 -64 -46h-38q-26 0 -41.5 12t-23.5 34l-46 138h-2l-48 -138q-8 -21 -23 -33.5t-41 -12.5h-38q-51 0 -65 46l-103 355q-3 9 -3 18q0 26 19.5 41t45.5 15q39 0 53 -40l73 -287h3l72 195
l-20 58q-3 9 -3 18q0 26 19.5 41t45.5 15q39 0 53 -40l92 -286h2z" />
    <glyph glyph-name="x" unicode="x" horiz-adv-x="495" 
d="M344 460q7 9 16.5 13.5t20.5 4.5q16 0 29 -6.5t22.5 -16.5t14.5 -22t5 -22q0 -14 -8 -24l-121 -147l133 -156q7 -8 7 -24q0 -9 -4 -21t-12 -22.5t-20.5 -17.5t-28.5 -7q-13 0 -24.5 4.5t-18.5 13.5l-109 139l-110 -141q-14 -18 -39 -18q-17 0 -30 7t-22 17t-13.5 22
t-4.5 21q0 15 8 25l133 158l-121 147q-8 11 -8 25q0 9 5 20.5t14 21.5t22 17t29 7q11 0 20.5 -4t17.5 -14l99 -131z" />
    <glyph glyph-name="y" unicode="y" horiz-adv-x="524" 
d="M479 -18q0 -49 -16 -83.5t-43 -57t-63 -33t-76 -10.5h-148q-17 0 -32.5 15t-15.5 43q0 29 15.5 42t32.5 13h147q40 0 59 20.5t19 55.5v13h-124q-91 0 -142.5 46t-51.5 139v239q0 17 14.5 32t45.5 15q29 0 45 -15t16 -32v-239q0 -39 23 -54t57 -15h117v308q0 17 15 32
t45 15q29 0 45 -15t16 -32v-442v0z" />
    <glyph glyph-name="z" unicode="z" horiz-adv-x="477" 
d="M88 0q-53 0 -53 59q0 14 6 24.5t11 16.5l224 253h-186q-17 0 -32.5 13.5t-15.5 42.5q0 27 15.5 42.5t32.5 15.5h306q26 0 41.5 -15t15.5 -44q0 -13 -5 -24t-11 -17l-221 -253h186q15 0 25 -5.5t16 -14t8 -18.5t2 -19q0 -8 -2 -18t-8 -18.5t-16 -14.5t-25 -6h-314z" />
    <glyph glyph-name="braceleft" unicode="{" horiz-adv-x="401" 
d="M239 436q0 -31 -15 -63t-47 -49q34 -19 48 -54t14 -67v-106q0 -33 16.5 -52.5t56.5 -19.5h14q4 0 10.5 -2.5t12.5 -8.5t10.5 -16t4.5 -26q0 -31 -13 -42.5t-25 -11.5h-32q-81 0 -127 44.5t-46 127.5v103q0 59 -44 76q-9 3 -16 6t-11 8.5t-6 14t-2 23.5q0 29 7.5 38
t23.5 16q26 11 37 30t11 48v103q0 81 46 125.5t127 44.5h32q10 0 24 -11t14 -41q0 -16 -4.5 -26t-10.5 -16t-12.5 -8.5t-10.5 -2.5h-14q-38 0 -55.5 -19.5t-17.5 -52.5v-113z" />
    <glyph glyph-name="bar" unicode="|" horiz-adv-x="519" 
d="M260 -124q-31 0 -45.5 13t-14.5 42v799q0 55 60 55q59 0 59 -55v-799q0 -29 -14.5 -42t-44.5 -13z" />
    <glyph glyph-name="braceright" unicode="}" horiz-adv-x="401" 
d="M158 549q0 33 -17.5 52.5t-55.5 19.5h-14q-4 0 -10.5 2.5t-12.5 8.5t-10.5 16t-4.5 26q0 30 14 41t24 11h32q81 0 127 -44.5t46 -125.5v-103q0 -29 11 -48t37 -30q16 -7 23.5 -16t7.5 -38q0 -15 -2 -23.5t-6 -14t-11 -8.5t-16 -6q-44 -17 -44 -76v-103q0 -83 -46 -127.5
t-127 -44.5h-32q-12 0 -25 11.5t-13 42.5q0 16 4 26t10 16t12.5 8.5t11.5 2.5h14q40 0 56.5 19.5t16.5 52.5v106q0 32 14 67t48 54q-32 17 -47 49t-15 63v113z" />
    <glyph glyph-name="asciitilde" unicode="~" horiz-adv-x="520" 
d="M164 399q29 0 55.5 -9t50.5 -20q20 -10 44 -19.5t42 -10.5q14 -1 23.5 5t16.5 14q6 7 15.5 15t23.5 8q8 0 16 -2.5t16 -10.5q15 -12 20.5 -22.5t5 -19.5t-4.5 -16t-7 -11q-26 -34 -56.5 -47t-67.5 -13q-32 0 -62 8t-58 22q-15 9 -36.5 18.5t-35.5 9.5t-26.5 -5t-24.5 -19
q-8 -8 -16.5 -13.5t-19.5 -5.5q-18 0 -34 15q-17 16 -17 38q0 17 12 31q32 38 65 49t60 11z" />
    <glyph glyph-name="sterling" unicode="&#xa3;" horiz-adv-x="520" 
d="M389 353q14 0 27 -12t13 -39q0 -24 -13 -38t-27 -14h-188v-134h254q17 0 32.5 -14.5t15.5 -43.5q0 -28 -15.5 -43t-32.5 -15h-310q-19 0 -31.5 6.5t-19.5 16t-10 20.5t-3 19v188h-25q-14 0 -27 14t-13 38q0 27 13 39t27 12h25v108q0 52 18 91t45.5 64.5t62 38.5t67.5 13
h162q29 0 42.5 -15.5t13.5 -42.5t-14 -42.5t-42 -15.5h-145q-42 0 -65.5 -23t-24.5 -65v-111h188z" />
    <glyph glyph-name="yen" unicode="&#xa5;" horiz-adv-x="520" 
d="M456 283q13 0 25 -11t12 -36q0 -23 -12 -35.5t-25 -12.5h-134v-138q0 -56 -60 -56q-28 0 -43.5 14.5t-15.5 41.5v138h-129q-13 0 -25 12.5t-12 35.5q0 25 12 36t25 11h382zM75 327q-13 0 -25 12.5t-12 35.5q0 25 12 36t25 11h36l-94 175q-5 10 -5 19q0 12 6 22.5t16 18.5
t22.5 13t25.5 5q29 0 47 -31l131 -259h4l130 259q19 31 48 31q25 0 44.5 -18t19.5 -41q0 -12 -6 -24l-89 -170h45q13 0 25 -11t12 -36q0 -23 -12 -35.5t-25 -12.5h-381z" />
    <glyph glyph-name="section" unicode="&#xa7;" horiz-adv-x="499" 
d="M310 345q0 25 -47 44l-90 37q-23 9 -44 19.5t-37.5 26t-26.5 38.5t-10 57q0 61 38.5 102t109.5 41h163q9 0 18.5 -4t17.5 -11t13 -18t5 -24q0 -18 -5 -29.5t-13 -18t-17.5 -9t-18.5 -2.5h-161q-10 0 -18.5 -6t-8.5 -20q0 -10 8.5 -18.5t20.5 -13.5l97 -38q24 -9 47 -19.5
t40 -26t27.5 -38.5t10.5 -58v-107q0 -20 -14 -37t-45 -17q-18 0 -29.5 5t-18 13t-9.5 17.5t-3 18.5v96zM194 236q0 -25 47 -44l87 -35q22 -9 43.5 -19t38 -25.5t26.5 -38.5t10 -57q0 -61 -38.5 -102t-109.5 -41h-164q-9 0 -18.5 4t-17.5 11t-13 17.5t-5 24.5q0 18 5 29.5
t13 18t17.5 9t18.5 2.5h162q10 0 18.5 6t8.5 20q0 10 -8.5 18.5t-20.5 13.5l-94 38q-24 9 -47 19.5t-40 26t-27.5 38.5t-10.5 58v103q0 20 14 37t45 17q18 0 29.5 -5t18 -13t9.5 -17.5t3 -18.5v-95z" />
    <glyph glyph-name="quotesingle" unicode="'" horiz-adv-x="163" 
d="M83 430q-19 0 -30.5 6t-17.5 14.5t-8 18t-2 17.5v135q0 6 2 15t8 17.5t17.5 14t31.5 5.5q26 0 40 -17.5t14 -41.5v-129q0 -24 -13.5 -39.5t-41.5 -15.5z" />
    <glyph glyph-name="quotedblleft" unicode="&#x201c;" horiz-adv-x="385" 
d="M87 662q5 11 17 20.5t30 9.5q16 0 26.5 -5t17.5 -12.5t10 -16t3 -15.5q0 -6 -1 -9l-27 -139q-4 -20 -21 -37t-46 -17q-36 0 -53.5 20.5t-17.5 44.5q0 14 4 22zM256 662q5 11 17 20.5t30 9.5q16 0 26.5 -5t17.5 -12.5t10 -16t3 -15.5q0 -6 -1 -9l-27 -139q-4 -20 -21 -37
t-46 -17q-36 0 -53.5 20.5t-17.5 44.5q0 14 4 22z" />
    <glyph glyph-name="guillemotleft" unicode="&#xab;" horiz-adv-x="515" 
d="M36 238q0 10 3 20t11 18l125 126q15 15 35 15q13 0 23.5 -5.5t18 -14t11.5 -18t4 -18.5q0 -20 -15 -35l-90 -89l90 -93q7 -7 9 -15t3 -16q0 -26 -19.5 -42.5t-41.5 -16.5q-16 0 -31 15l-122 129q-9 9 -11 20t-3 20zM244 238q0 10 3 20t11 18l125 126q15 15 35 15
q13 0 23.5 -5.5t18 -14t11.5 -18t4 -18.5q0 -20 -15 -35l-90 -89l90 -93q7 -7 9 -15t3 -16q0 -26 -19.5 -42.5t-41.5 -16.5q-16 0 -31 15l-122 129q-9 9 -11 20t-3 20z" />
    <glyph glyph-name="endash" unicode="&#x2013;" horiz-adv-x="500" 
d="M82 194q-28 0 -44.5 11t-16.5 37t16.5 37.5t44.5 11.5h338q28 0 44.5 -11.5t16.5 -37.5t-16.5 -37t-44.5 -11h-338z" />
    <glyph glyph-name="dagger" unicode="&#x2020;" horiz-adv-x="476" 
d="M293 425v-439q0 -23 -13 -37.5t-42 -14.5q-55 0 -55 52v439h-92q-23 0 -37 13t-14 41q0 27 13.5 40t37.5 13h92v120q0 23 13 36t42 13t42 -13.5t13 -35.5v-120h91q24 0 38 -13t14 -40q0 -54 -52 -54h-91z" />
    <glyph glyph-name="periodcentered" unicode="&#xb7;" horiz-adv-x="213" 
d="M106 179q-30 0 -50 20t-20 47q0 34 21.5 50.5t47.5 16.5t48 -16.5t22 -50.5q0 -26 -19.5 -46.5t-49.5 -20.5z" />
    <glyph glyph-name="bullet" unicode="&#x2022;" horiz-adv-x="275" 
d="M15 261q0 25 9.5 47t26 38t38.5 25.5t47 9.5t47 -9.5t38.5 -25.5t26 -38t9.5 -47q0 -26 -9.5 -48t-26 -38t-38.5 -25.5t-47 -9.5t-47 9.5t-38.5 25.5t-26 38t-9.5 48z" />
    <glyph glyph-name="quotedblright" unicode="&#x201d;" horiz-adv-x="385" 
d="M297 472q-5 -11 -16.5 -20.5t-30.5 -9.5q-15 0 -26 5t-18 12.5t-10 16t-3 15.5q0 2 0.5 4.5t0.5 4.5l27 139q4 20 21 37.5t46 17.5q36 0 53.5 -21t17.5 -45q0 -13 -4 -22zM128 472q-5 -11 -16.5 -20.5t-30.5 -9.5q-15 0 -26 5t-18 12.5t-10 16t-3 15.5q0 2 0.5 4.5
t0.5 4.5l27 139q4 20 21 37.5t46 17.5q36 0 53.5 -21t17.5 -45q0 -13 -4 -22z" />
    <glyph glyph-name="guillemotright" unicode="&#xbb;" horiz-adv-x="515" 
d="M476 238q0 -9 -2.5 -20t-11.5 -20l-122 -129q-15 -15 -31 -15q-21 0 -41 16.5t-20 42.5q1 8 3 16t9 15l90 93l-90 89q-15 15 -15 35q0 9 4 18.5t11.5 18t18 14t23.5 5.5q20 0 35 -15l125 -126q9 -8 11.5 -18t2.5 -20zM268 238q0 -9 -2.5 -20t-11.5 -20l-122 -129
q-15 -15 -31 -15q-21 0 -41 16.5t-20 42.5q1 8 3 16t9 15l90 93l-90 89q-15 15 -15 35q0 9 4 18.5t11.5 18t18 14t23.5 5.5q20 0 35 -15l125 -126q9 -8 11.5 -18t2.5 -20z" />
    <glyph glyph-name="ellipsis" unicode="&#x2026;" horiz-adv-x="694" 
d="M346 0q-30 0 -50 20t-20 47q0 34 21.5 50.5t47.5 16.5t47.5 -16.5t21.5 -50.5q0 -26 -19 -46.5t-49 -20.5zM109 0q-30 0 -50 20t-20 47q0 34 21.5 50.5t47.5 16.5t47.5 -16.5t21.5 -50.5q0 -26 -19 -46.5t-49 -20.5zM586 0q-30 0 -50 20t-20 47q0 34 21.5 50.5t47.5 16.5
t47.5 -16.5t21.5 -50.5q0 -26 -19 -46.5t-49 -20.5z" />
    <glyph glyph-name="perthousand" unicode="&#x2030;" horiz-adv-x="1132" 
d="M192 668q60 0 96 -32.5t36 -98.5v-143q0 -33 -10.5 -57.5t-28.5 -41t-42 -24.5t-51 -8h-15q-58 0 -96.5 32.5t-38.5 98.5v143q0 33 11 57.5t30 41t43 24.5t51 8h15zM229 543q0 19 -11 30.5t-31 11.5h-6q-20 0 -32 -11.5t-12 -30.5v-155q0 -20 12 -31.5t32 -11.5h6
q18 0 30 12.5t12 30.5v155zM647 405q60 0 96 -32.5t36 -98.5v-143q0 -33 -10.5 -57.5t-28.5 -41t-42 -24.5t-51 -8h-15q-58 0 -96.5 32.5t-38.5 98.5v143q0 33 11 57.5t30 41t43 24.5t51 8h15zM684 280q0 19 -11 30.5t-31 11.5h-6q-20 0 -32 -11.5t-12 -30.5v-155
q0 -20 12 -31.5t32 -11.5h6q18 0 30 12.5t12 30.5v155zM486 661q6 16 17.5 22.5t25.5 6.5q6 0 14.5 -2t16.5 -6.5t13.5 -13.5t5.5 -22q0 -10 -4 -19l-235 -609q-14 -35 -45 -35q-26 0 -39 13t-13 30q0 11 5 23zM958 405q60 0 96 -32.5t36 -98.5v-143q0 -33 -10.5 -57.5
t-28.5 -41t-42 -24.5t-51 -8h-15q-58 0 -96.5 32.5t-38.5 98.5v143q0 33 11 57.5t30 41t43 24.5t51 8h15zM995 280q0 19 -11 30.5t-31 11.5h-6q-20 0 -32 -11.5t-12 -30.5v-155q0 -20 12 -31.5t32 -11.5h6q18 0 30 12.5t12 30.5v155z" />
    <glyph glyph-name="grave" unicode="`" horiz-adv-x="523" 
d="M207 639q-17 19 -17 44q0 23 17 40.5t42 17.5q20 0 34.5 -11.5t22.5 -26.5l63 -112q8 -13 8 -29q0 -12 -9.5 -25t-29.5 -13q-24 0 -39 17z" />
    <glyph glyph-name="dieresis" unicode="&#xa8;" horiz-adv-x="532" 
d="M370 535q-27 0 -45.5 18t-18.5 43q0 32 20 46.5t43 14.5q24 0 44 -14.5t20 -46.5q0 -24 -18 -42.5t-45 -18.5zM163 535q-27 0 -45.5 18t-18.5 43q0 32 20 46.5t43 14.5q24 0 44.5 -14.5t20.5 -46.5q0 -24 -18.5 -42.5t-45.5 -18.5z" />
    <glyph glyph-name="emdash" unicode="&#x2014;" horiz-adv-x="1000" 
d="M89 194q-28 0 -44.5 11t-16.5 37t16.5 37.5t44.5 11.5h824q28 0 44.5 -11.5t16.5 -37.5t-16.5 -37t-44.5 -11h-824z" />
    <glyph glyph-name="oe" unicode="&#x153;" horiz-adv-x="799" 
d="M459 179v-6q0 -29 21.5 -46t57.5 -17h133q17 0 33 -12t16 -41q0 -27 -16 -42t-33 -15h-147q-77 0 -126 40q-25 -20 -57 -30t-68 -10h-48q-39 0 -72.5 11t-58.5 33.5t-39.5 57t-14.5 80.5v99q0 46 14 80.5t38.5 57.5t59 35t76.5 12h42q81 0 131 -42q51 42 127 42h47
q40 0 74.5 -12.5t60 -36t40 -58.5t14.5 -80v-38q0 -8 -3 -18.5t-10.5 -19.5t-19.5 -15.5t-31 -6.5zM235 350q-41 0 -58 -20t-17 -55v-89q0 -32 16.5 -51.5t57.5 -19.5h30q41 0 57.5 19.5t16.5 51.5v89q0 35 -17 55t-58 20h-28zM644 278q0 34 -19 53t-57 19h-36
q-32 0 -52.5 -19t-20.5 -53v-6h185v6z" />
    <glyph glyph-name="germandbls" unicode="&#xdf;" horiz-adv-x="505" 
d="M254 -7q-15 0 -25 5.5t-16 13.5t-8 18t-2 18q0 9 2 18.5t8 18t16 14t25 5.5h20q29 0 49.5 17t20.5 55v56q0 38 -19.5 58t-50.5 20h-18q-20 0 -32.5 12t-12.5 41q0 32 14.5 42.5t30.5 10.5h10q29 0 49.5 22t20.5 57q0 38 -23.5 58.5t-55.5 20.5h-24q-34 0 -56 -23.5
t-22 -62.5v-499q0 -20 -14.5 -34t-46.5 -14q-31 0 -45 13.5t-14 34.5v505q0 44 15.5 80t43 61.5t64 39.5t78.5 15h16q41 0 78.5 -13.5t65.5 -38.5t44.5 -61t16.5 -82q0 -18 -3 -36.5t-10 -36t-18.5 -32t-27.5 -23.5q22 -10 35 -24.5t20 -32t9.5 -37.5t2.5 -41v-56
q0 -46 -14.5 -80.5t-40 -57t-59.5 -34t-72 -11.5h-25z" />
    <glyph glyph-name="trademark" unicode="&#x2122;" horiz-adv-x="697" 
d="M328 626q0 42 43 42h22q21 0 28.5 -8.5t15.5 -22.5l55 -119h3l59 128q7 10 16 16t24 6h20q43 0 43 -42v-262q0 -40 -43 -40t-43 40v140h-2l-26 -59q-4 -8 -12.5 -18t-28.5 -10h-19q-20 0 -28.5 9.5t-12.5 18.5l-25 58h-2v-139q0 -40 -43 -40q-44 0 -44 40v262zM206 584
v-222q0 -20 -13.5 -29t-30.5 -9q-16 0 -29.5 9t-13.5 29v222h-64q-20 0 -30 11.5t-10 30.5q0 17 9 29.5t31 12.5h215q22 0 31 -12.5t9 -29.5q0 -19 -10 -30.5t-30 -11.5h-64z" />
    <glyph glyph-name="degree" unicode="&#xb0;" horiz-adv-x="335" 
d="M108 568q0 -25 17 -41.5t43 -16.5q24 0 41 16.5t17 41.5q0 26 -17 43t-41 17q-26 0 -43 -17t-17 -43zM30 568q0 29 10.5 54t29 44t44 29.5t54.5 10.5q28 0 53 -10.5t44 -29.5t29.5 -44t10.5 -54t-10.5 -53.5t-29.5 -43.5t-44 -29.5t-53 -10.5q-29 0 -54.5 10.5t-44 29.5
t-29 43.5t-10.5 53.5z" />
    <glyph glyph-name="registered" unicode="&#xae;" horiz-adv-x="608" 
d="M256 526v-79h76q14 0 21.5 12t7.5 29q0 21 -11.5 29.5t-20.5 8.5h-73zM425 488q0 -29 -12.5 -56.5t-41.5 -41.5l42 -76q6 -9 6 -18q0 -13 -9.5 -21.5t-22.5 -8.5q-20 0 -30 17l-56 101h-45v-89q0 -30 -33 -30t-33 30v262q0 33 33 33h99q47 0 75 -28t28 -74zM301 638
q-39 0 -75 -15t-64.5 -42.5t-45.5 -66.5t-17 -86q0 -39 14.5 -76t42 -66t67 -46.5t90.5 -17.5q36 0 71 15t63 43t45 68t17 89q0 36 -14.5 71.5t-41.5 64.5t-65.5 47t-86.5 18zM301 699q61 0 110 -23.5t84 -61t54 -83.5t19 -91q0 -64 -22 -115.5t-57.5 -88t-81 -56
t-91.5 -19.5q-66 0 -117 23t-86.5 60.5t-54 85.5t-18.5 98q0 61 22 111t58 85.5t83 55t98 19.5z" />
    <glyph glyph-name="copyright" unicode="&#xa9;" horiz-adv-x="774" 
d="M373 113q-28 0 -53 9t-43.5 27t-29 45t-10.5 64v143q0 37 11 64.5t29.5 46t43 28t52.5 9.5h101q21 0 32 -12t11 -32q0 -21 -11 -33t-32 -12h-98q-23 0 -36 -15t-13 -40v-149q0 -25 13 -39t36 -14l98 -1q21 0 32 -12t11 -32q0 -21 -11 -33t-32 -12h-101zM395 -17
q-82 0 -148 27.5t-112.5 75t-72 110.5t-25.5 134q0 70 26.5 134t75 112.5t116 77t148.5 28.5q67 0 129.5 -26.5t109.5 -72.5t75.5 -109t28.5 -136q0 -77 -29.5 -142t-78.5 -112.5t-112.5 -74t-130.5 -26.5zM395 75q52 0 98.5 19.5t82 55t56 83.5t20.5 105q0 53 -20 99
t-54 80t-79.5 53.5t-97.5 19.5q-62 0 -112 -21t-85 -57t-54 -83t-19 -99t18.5 -98.5t53 -81t83 -55t109.5 -20.5z" />
    <glyph glyph-name="pi" unicode="&#x3c0;" horiz-adv-x="527" 
d="M362 353h-197v-312q0 -16 -14.5 -31t-45.5 -15q-29 0 -44.5 14.5t-15.5 32.5v363q0 9 3 19.5t10.5 20t19.5 16t31 6.5h309q19 0 31 -6.5t19.5 -16t10.5 -20t3 -19.5v-364q0 -16 -14.5 -31t-45.5 -15q-30 0 -45 14t-15 32v312z" />
    <glyph glyph-name="dieresistonos" unicode="&#x385;" horiz-adv-x="532" 
d="M420 535q-27 0 -45.5 18t-18.5 43q0 32 20 46.5t43 14.5q24 0 44 -14.5t20 -46.5q0 -24 -18 -42.5t-45 -18.5zM113 535q-27 0 -45.5 18t-18.5 43q0 32 20 46.5t43 14.5q24 0 44.5 -14.5t20.5 -46.5q0 -24 -18.5 -42.5t-45.5 -18.5zM262 541q-15 -17 -38 -17
q-21 0 -30.5 13t-9.5 25q0 16 8 29l63 112q8 15 22.5 26.5t34.5 11.5q25 0 42 -17.5t17 -40.5q0 -11 -4 -23t-13 -21z" />
    <glyph glyph-name="tonos" unicode="&#x384;" horiz-adv-x="523" 
d="M269 541q-15 -17 -38 -17q-21 0 -30.5 13t-9.5 25q0 16 8 29l63 112q8 15 22.5 26.5t34.5 11.5q25 0 42 -17.5t17 -40.5q0 -11 -4 -23t-13 -21z" />
    <glyph glyph-name="sfthyphen" unicode="&#xad;" horiz-adv-x="383" 
d="M298 298q60 0 60 -57q0 -56 -60 -56h-213q-60 0 -60 56q0 57 60 57h213z" />
    <glyph glyph-name="Gamma" unicode="&#x393;" horiz-adv-x="527" 
d="M180 48q0 -29 -15 -41t-44 -12q-31 0 -46 12t-15 41v562q0 58 61 58h331q27 0 40.5 -15.5t13.5 -42.5t-13.5 -42.5t-40.5 -15.5h-272v-504z" />
    <glyph glyph-name="Delta" unicode="&#x394;" horiz-adv-x="581" 
d="M289 474l-123 -359h247l-120 359h-4zM306 668q27 0 40 -13.5t21 -35.5l195 -548q6 -15 6 -27q0 -19 -11.5 -31.5t-35.5 -12.5h-466q-19 0 -29 13t-10 34q0 14 4 25l195 547q8 21 21 35t40 14h30z" />
    <glyph glyph-name="Delta" unicode="&#x2206;" horiz-adv-x="581" 
d="M289 474l-123 -359h247l-120 359h-4zM306 668q27 0 40 -13.5t21 -35.5l195 -548q6 -15 6 -27q0 -19 -11.5 -31.5t-35.5 -12.5h-466q-19 0 -29 13t-10 34q0 14 4 25l195 547q8 21 21 35t40 14h30z" />
    <glyph glyph-name="Theta" unicode="&#x398;" horiz-adv-x="588" 
d="M250 288q-27 0 -38 15t-11 42t11 42.5t38 15.5h92q27 0 38 -15.5t11 -42.5t-11 -42t-38 -15h-92zM347 668q43 0 79 -13t61.5 -39.5t39.5 -65.5t14 -91v-251q0 -52 -15.5 -91t-41.5 -65t-61 -39t-75 -13h-106q-39 0 -74 12.5t-61.5 37.5t-41.5 63.5t-15 91.5v254
q0 52 15.5 91t41.5 65.5t61.5 39.5t74.5 13h104zM423 464q0 40 -21 64t-59 24h-96q-38 0 -58 -24t-20 -64v-261q0 -41 20.5 -63.5t57.5 -22.5h96q38 0 59 25t21 63v259z" />
    <glyph glyph-name="Lambda" unicode="&#x39b;" horiz-adv-x="567" 
d="M285 474h-4l-152 -440q-13 -40 -53 -40q-32 0 -49 17t-17 39q0 5 1 11t3 11l193 547q8 21 20.5 35t40.5 14h30q27 0 40 -13.5t21 -35.5l194 -547q4 -9 4 -21q0 -23 -19 -40t-49 -17q-38 0 -52 41z" />
    <glyph glyph-name="Xi" unicode="&#x39e;" horiz-adv-x="542" 
d="M94 552q-27 0 -40.5 15.5t-13.5 42.5t13.5 42.5t40.5 15.5h354q27 0 40.5 -15.5t13.5 -42.5t-13.5 -42.5t-40.5 -15.5h-354zM136 295q-27 0 -39.5 15t-12.5 42t12.5 42.5t39.5 15.5h268q27 0 39.5 -15.5t12.5 -42.5t-12.5 -42t-39.5 -15h-268zM94 0q-27 0 -40.5 15.5
t-13.5 42.5t13.5 42.5t40.5 15.5h354q27 0 40.5 -15.5t13.5 -42.5t-13.5 -42.5t-40.5 -15.5h-354z" />
    <glyph glyph-name="Pi" unicode="&#x3a0;" horiz-adv-x="592" 
d="M477 -5q-30 0 -44.5 13t-14.5 42v503h-244v-503q0 -29 -14.5 -42t-44.5 -13q-31 0 -45.5 13t-14.5 42v563q0 55 60 55h362q60 0 60 -55v-563q0 -29 -14.5 -42t-45.5 -13z" />
    <glyph glyph-name="Sigma" unicode="&#x3a3;" horiz-adv-x="551" 
d="M207 552l120 -149q10 -12 14.5 -24.5t4.5 -22.5q0 -23 -18 -49l-127 -191h267q29 0 40.5 -17t11.5 -41q0 -23 -11.5 -40.5t-40.5 -17.5h-365q-30 0 -46 16t-16 38q0 14 5.5 27.5t10.5 22.5l159 250l-162 207q-7 9 -12.5 21t-5.5 26q0 22 14.5 41t44.5 19h372
q27 0 40.5 -15.5t13.5 -42.5t-13.5 -42.5t-40.5 -15.5h-260z" />
    <glyph glyph-name="Iotadieresis" unicode="&#x3aa;" horiz-adv-x="269" 
d="M135 -5q-31 0 -45.5 13t-14.5 42v568q0 55 60 55q59 0 59 -55v-568q0 -29 -14.5 -42t-44.5 -13zM239 690q-27 0 -45.5 18t-18.5 43q0 32 20 46.5t43 14.5q24 0 44 -14.5t20 -46.5q0 -24 -18 -42.5t-45 -18.5zM32 690q-27 0 -45.5 18t-18.5 43q0 32 20 46.5t43 14.5
q24 0 44.5 -14.5t20.5 -46.5q0 -24 -18.5 -42.5t-45.5 -18.5z" />
    <glyph glyph-name="Alpha" unicode="&#x391;" horiz-adv-x="567" 
d="M281 474l-72 -214h148q-18 53 -35.5 106.5t-36.5 107.5h-4zM169 149l-40 -115q-13 -40 -53 -40q-32 0 -49 17t-17 39q0 5 1 11t3 11l193 547q8 21 20.5 35t40.5 14h30q27 0 40 -13.5t21 -35.5l194 -547q4 -9 4 -21q0 -23 -19 -40t-49 -17q-36 0 -52 41l-42 114h-226z" />
    <glyph glyph-name="Beta" unicode="&#x392;" horiz-adv-x="611" 
d="M180 552v-139h183q9 0 18.5 4.5t17.5 14t13.5 23t5.5 31.5q0 33 -19.5 49.5t-40.5 16.5h-178zM180 302v-186h189q11 0 23.5 5t23.5 16t18.5 28.5t7.5 43.5q0 16 -6 32.5t-17 30t-27 22t-36 8.5h-176zM120 0q-60 0 -60 60v550q0 58 60 58h255q32 0 62 -12.5t52.5 -35.5
t36 -56t13.5 -75q0 -32 -12.5 -66.5t-43.5 -59.5q18 -13 32.5 -27.5t24.5 -33t15.5 -42t5.5 -53.5q0 -51 -17.5 -89.5t-45.5 -65t-63 -39.5t-69 -13h-246z" />
    <glyph glyph-name="Epsilon" unicode="&#x395;" horiz-adv-x="534" 
d="M121 0q-61 0 -61 58v552q0 58 61 58h331q27 0 40.5 -15.5t13.5 -42.5t-13.5 -42.5t-40.5 -15.5h-272v-142h230q27 0 39.5 -15.5t12.5 -42.5t-12.5 -42t-39.5 -15h-230v-179h272q27 0 40.5 -15.5t13.5 -42.5t-13.5 -42.5t-40.5 -15.5h-331z" />
    <glyph glyph-name="Zeta" unicode="&#x396;" horiz-adv-x="541" 
d="M92 0q-38 0 -50 16t-12 36q0 17 5 30.5t11 22.5l301 447h-242q-27 0 -40.5 15.5t-13.5 42.5t13.5 42.5t40.5 15.5h348q32 0 44 -16.5t12 -37.5q0 -17 -4.5 -29t-11.5 -22l-301 -447h269q29 0 40.5 -17t11.5 -41q0 -23 -11.5 -40.5t-40.5 -17.5h-369z" />
    <glyph glyph-name="Eta" unicode="&#x397;" horiz-adv-x="592" 
d="M477 -5q-30 0 -44.5 13t-14.5 42v245h-244v-245q0 -29 -14.5 -42t-44.5 -13q-31 0 -45.5 13t-14.5 42v568q0 55 60 55q59 0 59 -55v-208h244v208q0 55 59 55q60 0 60 -55v-568q0 -29 -14.5 -42t-45.5 -13z" />
    <glyph glyph-name="Iota" unicode="&#x399;" horiz-adv-x="269" 
d="M135 -5q-31 0 -45.5 13t-14.5 42v568q0 55 60 55q59 0 59 -55v-568q0 -29 -14.5 -42t-44.5 -13z" />
    <glyph glyph-name="Kappa" unicode="&#x39a;" horiz-adv-x="555" 
d="M182 411l251 234q27 25 54 25q9 0 19 -4t18.5 -11.5t14 -18t5.5 -23.5q0 -23 -16 -38l-214 -195q53 -71 107.5 -145.5t107.5 -146.5q13 -18 13 -36q0 -13 -5.5 -23t-14.5 -17.5t-19.5 -11.5t-20.5 -4q-15 0 -29 7t-24 21l-203 279l-47 -42v-208q0 -58 -59 -58
q-60 0 -60 58v562q0 58 60 58q59 0 59 -58v-204h3z" />
    <glyph glyph-name="Mu" unicode="&#x39c;" horiz-adv-x="674" 
d="M340 388l125 249q16 31 55 31h34q60 0 60 -58v-560q0 -29 -14.5 -42t-45.5 -13q-30 0 -44.5 13t-14.5 42v384h-4l-78 -157q-7 -13 -19.5 -27.5t-40.5 -14.5h-33q-27 0 -40 15t-20 28l-77 156h-4v-384q0 -29 -14.5 -42t-44.5 -13q-31 0 -45.5 13t-14.5 42v560q0 58 60 58
h34q15 0 24.5 -3.5t16.5 -10t12 -15.5t10 -19l117 -232h6z" />
    <glyph glyph-name="Phi" unicode="&#x3a6;" horiz-adv-x="680" 
d="M338 -5q-31 0 -45.5 13t-14.5 42v28h-21q-39 0 -76.5 13t-66.5 38.5t-46.5 64.5t-17.5 92v113q0 52 17.5 91.5t46.5 66t66.5 40t77.5 13.5h20v8q0 55 60 55q59 0 59 -55v-8h24q43 0 81 -13.5t66 -40t44.5 -66t16.5 -91.5v-113q0 -53 -17.5 -92t-46.5 -64.5t-66.5 -38.5
t-76.5 -13h-25v-28q0 -29 -14.5 -42t-44.5 -13zM427 184q21 0 36.5 8.5t26 22.5t15.5 32.5t5 38.5v115q0 20 -4.5 38t-14.5 32t-26 22.5t-38 8.5h-30v-318h30zM169 286q0 -20 5 -38.5t15.5 -32.5t26 -22.5t36.5 -8.5h26v318h-26q-21 0 -37 -8.5t-26 -22.5t-15 -32t-5 -38
v-115z" />
    <glyph glyph-name="Upsilondieresis" unicode="&#x3ab;" horiz-adv-x="553" 
d="M282 385l150 259q9 16 21.5 23.5t26.5 7.5q25 0 44.5 -18t19.5 -41q0 -12 -6 -24l-198 -334v-208q0 -56 -60 -56q-28 0 -43.5 14.5t-15.5 41.5v210l-206 337q-5 10 -5 19q0 12 6 22.5t16 18.5t22.5 13t25.5 5q29 0 47 -31l151 -259h4zM384 691q-27 0 -45.5 18t-18.5 43
q0 32 20 46.5t43 14.5q24 0 44 -14.5t20 -46.5q0 -24 -18 -42.5t-45 -18.5zM177 691q-27 0 -45.5 18t-18.5 43q0 32 20 46.5t43 14.5q24 0 44.5 -14.5t20.5 -46.5q0 -24 -18.5 -42.5t-45.5 -18.5z" />
    <glyph glyph-name="Psi" unicode="&#x3a8;" horiz-adv-x="680" 
d="M397 147v-97q0 -29 -14.5 -42t-44.5 -13q-31 0 -45.5 13t-14.5 42v97h-21q-39 0 -76.5 12.5t-66.5 37.5t-46.5 63.5t-17.5 91.5v266q0 55 60 55q59 0 59 -55v-263q0 -41 20.5 -69.5t62.5 -28.5h26v370q0 55 60 55q59 0 59 -55v-370h30q42 0 62.5 28.5t20.5 69.5v263
q0 55 60 55q59 0 59 -55v-266q0 -53 -17.5 -91.5t-46.5 -63.5t-66.5 -37.5t-76.5 -12.5h-25z" />
    <glyph glyph-name="Omega" unicode="&#x3a9;" horiz-adv-x="613" 
d="M183 230q0 -35 16.5 -60t46.5 -38q21 -9 31 -20t10 -37v-21q0 -20 -12.5 -37t-41.5 -17h-146q-29 0 -40.5 17.5t-11.5 40.5q0 24 11.5 41t40.5 17h19l1 1q-17 15 -30 41.5t-13 82.5v213q0 52 16.5 92t44 67t64 41t75.5 14h88q43 0 79.5 -14t63.5 -41t42 -67t15 -92v-210
q0 -38 -12 -74t-33 -52l1 -2h18q29 0 40.5 -17t11.5 -41q0 -23 -11.5 -40.5t-40.5 -17.5h-143q-29 0 -41.5 17t-12.5 37v21q0 26 10 36.5t31 20.5q31 15 47.5 39t16.5 59v232q0 40 -21 66.5t-65 26.5h-80q-42 0 -63.5 -26.5t-21.5 -66.5v-232z" />
    <glyph glyph-name="alphatonos" unicode="&#x3ac;" horiz-adv-x="533" 
d="M272 113q21 0 37.5 -12.5t16.5 -43.5q0 -28 -16.5 -42.5t-37.5 -14.5h-51q-36 0 -68.5 10.5t-57.5 32t-40 54.5t-15 78v105q0 45 14 80t38.5 58.5t59 36t76.5 12.5h196q25 0 44.5 -16.5t19.5 -54.5l-1 -351q0 -19 -15 -34.5t-46 -15.5q-32 0 -45 15t-13 35v306h-136
q-30 0 -51 -16.5t-21 -54.5v-96q0 -38 18.5 -54.5t41.5 -16.5h52zM311 541q-15 -17 -38 -17q-21 0 -30.5 13t-9.5 25q0 16 8 29l63 112q8 15 22.5 26.5t34.5 11.5q25 0 42 -17.5t17 -40.5q0 -11 -4 -23t-13 -21z" />
    <glyph glyph-name="Nu" unicode="&#x39d;" horiz-adv-x="619" 
d="M439 233v386q0 55 60 55t60 -55v-561q0 -58 -60 -58h-30q-26 0 -37 10.5t-21 27.5l-228 407h-3v-396q0 -29 -15 -42t-45 -13t-45 13t-15 42v561q0 58 60 58h32q27 0 40 -14t24 -33q56 -98 109 -193t110 -195h4z" />
    <glyph glyph-name="Omicron" unicode="&#x39f;" horiz-adv-x="588" 
d="M339 668q101 0 150 -54.5t49 -159.5v-241q0 -52 -15 -92t-41.5 -67t-62.5 -40.5t-79 -13.5h-93q-43 0 -79 11.5t-62.5 36.5t-41 65t-14.5 97v244q0 52 14.5 92t40.5 67t62.5 41t80.5 14h91zM420 466q0 40 -22 66.5t-73 26.5h-63q-48 0 -70.5 -26.5t-22.5 -66.5v-267
q0 -41 22.5 -66t70.5 -25h63q48 0 71.5 27.5t23.5 65.5v265z" />
    <glyph glyph-name="Rho" unicode="&#x3a1;" horiz-adv-x="573" 
d="M179 552v-188h164q22 0 37.5 8.5t25 22t14 31t4.5 35.5q0 25 -7.5 42.5t-19.5 28.5t-27 15.5t-29 4.5h-162zM179 249v-199q0 -29 -14.5 -42t-44.5 -13q-31 0 -45.5 13t-14.5 42v560q0 58 60 58h214q48 0 86.5 -14.5t66 -41.5t42 -65.5t14.5 -85.5q0 -48 -12 -87
t-37 -66.5t-64 -43t-93 -15.5h-158z" />
    <glyph glyph-name="Tau" unicode="&#x3a4;" horiz-adv-x="526" 
d="M322 552v-501q0 -56 -60 -56q-59 0 -59 56v501h-141q-27 0 -40.5 15.5t-13.5 42.5t13.5 42.5t40.5 15.5h400q27 0 41 -15.5t14 -42.5t-14 -42.5t-41 -15.5h-140z" />
    <glyph glyph-name="Upsilon" unicode="&#x3a5;" horiz-adv-x="553" 
d="M282 385l150 259q9 16 21.5 23.5t26.5 7.5q25 0 44.5 -18t19.5 -41q0 -12 -6 -24l-198 -334v-208q0 -56 -60 -56q-28 0 -43.5 14.5t-15.5 41.5v210l-206 337q-5 10 -5 19q0 12 6 22.5t16 18.5t22.5 13t25.5 5q29 0 47 -31l151 -259h4z" />
    <glyph glyph-name="Chi" unicode="&#x3a7;" horiz-adv-x="550" 
d="M519 7q-17 -12 -33 -12q-15 0 -28 7.5t-22 20.5l-162 230l-158 -227q-10 -14 -23.5 -22t-28.5 -8q-25 0 -40 17.5t-15 37.5q0 21 13 41l182 255l-164 233q-13 19 -13 36q0 8 4.5 18t12.5 19t19 15t23 6q29 0 48 -28l141 -205l143 205q20 28 47 28q12 0 22.5 -5.5t19 -14
t13 -19t4.5 -20.5q0 -19 -12 -35l-166 -233l184 -258q11 -16 11 -36q0 -28 -22 -46z" />
    <glyph glyph-name="Alphatonos" unicode="&#x386;" horiz-adv-x="567" 
d="M281 474l-72 -214h148q-18 53 -35.5 106.5t-36.5 107.5h-4zM169 149l-40 -115q-13 -40 -53 -40q-32 0 -49 17t-17 39q0 5 1 11t3 11l193 547q8 21 20.5 35t40.5 14h30q27 0 40 -13.5t21 -35.5l194 -547q4 -9 4 -21q0 -23 -19 -40t-49 -17q-36 0 -52 41l-42 114h-226z
M4 501q-15 -17 -38 -17q-21 0 -30.5 13t-9.5 25q0 16 8 29l63 112q8 15 22.5 26.5t34.5 11.5q25 0 42 -17.5t17 -40.5q0 -11 -4 -23t-13 -21z" />
    <glyph glyph-name="Epsilontonos" unicode="&#x388;" horiz-adv-x="534" 
d="M121 0q-61 0 -61 58v552q0 58 61 58h331q27 0 40.5 -15.5t13.5 -42.5t-13.5 -42.5t-40.5 -15.5h-272v-142h230q27 0 39.5 -15.5t12.5 -42.5t-12.5 -42t-39.5 -15h-230v-179h272q27 0 40.5 -15.5t13.5 -42.5t-13.5 -42.5t-40.5 -15.5h-331zM-76 501q-15 -17 -38 -17
q-21 0 -30.5 13t-9.5 25q0 16 8 29l63 112q8 15 22.5 26.5t34.5 11.5q25 0 42 -17.5t17 -40.5q0 -11 -4 -23t-13 -21z" />
    <glyph glyph-name="afii00208" unicode="&#x2015;" horiz-adv-x="1000" 
d="M89 194q-28 0 -44.5 11t-16.5 37t16.5 37.5t44.5 11.5h824q28 0 44.5 -11.5t16.5 -37.5t-16.5 -37t-44.5 -11h-824z" />
    <glyph glyph-name="Etatonos" unicode="&#x389;" horiz-adv-x="592" 
d="M477 -5q-30 0 -44.5 13t-14.5 42v245h-244v-245q0 -29 -14.5 -42t-44.5 -13q-31 0 -45.5 13t-14.5 42v568q0 55 60 55q59 0 59 -55v-208h244v208q0 55 59 55q60 0 60 -55v-568q0 -29 -14.5 -42t-45.5 -13zM-81 501q-15 -17 -38 -17q-21 0 -30.5 13t-9.5 25q0 16 8 29
l63 112q8 15 22.5 26.5t34.5 11.5q25 0 42 -17.5t17 -40.5q0 -11 -4 -23t-13 -21z" />
    <glyph glyph-name="Iotatonos" unicode="&#x38a;" horiz-adv-x="269" 
d="M135 -5q-31 0 -45.5 13t-14.5 42v568q0 55 60 55q59 0 59 -55v-568q0 -29 -14.5 -42t-44.5 -13zM-57 501q-15 -17 -38 -17q-21 0 -30.5 13t-9.5 25q0 16 8 29l63 112q8 15 22.5 26.5t34.5 11.5q25 0 42 -17.5t17 -40.5q0 -11 -4 -23t-13 -21z" />
    <glyph glyph-name="Omicrontonos" unicode="&#x38c;" horiz-adv-x="588" 
d="M339 668q101 0 150 -54.5t49 -159.5v-241q0 -52 -15 -92t-41.5 -67t-62.5 -40.5t-79 -13.5h-93q-43 0 -79 11.5t-62.5 36.5t-41 65t-14.5 97v244q0 52 14.5 92t40.5 67t62.5 41t80.5 14h91zM420 466q0 40 -22 66.5t-73 26.5h-63q-48 0 -70.5 -26.5t-22.5 -66.5v-267
q0 -41 22.5 -66t70.5 -25h63q48 0 71.5 27.5t23.5 65.5v265zM-56 501q-15 -17 -38 -17q-21 0 -30.5 13t-9.5 25q0 16 8 29l63 112q8 15 22.5 26.5t34.5 11.5q25 0 42 -17.5t17 -40.5q0 -11 -4 -23t-13 -21z" />
    <glyph glyph-name="Upsilontonos" unicode="&#x38e;" horiz-adv-x="553" 
d="M282 385l150 259q9 16 21.5 23.5t26.5 7.5q25 0 44.5 -18t19.5 -41q0 -12 -6 -24l-198 -334v-208q0 -56 -60 -56q-28 0 -43.5 14.5t-15.5 41.5v210l-206 337q-5 10 -5 19q0 12 6 22.5t16 18.5t22.5 13t25.5 5q29 0 47 -31l151 -259h4zM-131 501q-15 -17 -38 -17
q-21 0 -30.5 13t-9.5 25q0 16 8 29l63 112q8 15 22.5 26.5t34.5 11.5q25 0 42 -17.5t17 -40.5q0 -11 -4 -23t-13 -21z" />
    <glyph glyph-name="epsilontonos" unicode="&#x3ad;" horiz-adv-x="443" 
d="M194 353q-14 0 -24 -8t-10 -20q0 -10 8 -20.5t26 -10.5h152q21 0 35 -13t14 -40t-14 -39t-35 -12h-151q-14 0 -25.5 -9.5t-11.5 -26.5q0 -16 9 -28t30 -12h163q23 0 38 -14t15 -42q0 -30 -15 -44t-38 -14h-179q-30 0 -55.5 8.5t-44.5 26.5t-30 45.5t-11 64.5
q0 24 12 51.5t36 44.5q-23 13 -34 38.5t-11 48.5q0 28 9 53t27.5 44t46 30.5t64.5 11.5h138q22 0 37.5 -14t15.5 -43t-15.5 -43t-37.5 -14h-134zM250 541q-15 -17 -38 -17q-21 0 -30.5 13t-9.5 25q0 16 8 29l63 112q8 15 22.5 26.5t34.5 11.5q25 0 42 -17.5t17 -40.5
q0 -11 -4 -23t-13 -21z" />
    <glyph glyph-name="etatonos" unicode="&#x3ae;" horiz-adv-x="523" 
d="M423 -5q-30 0 -45 14t-15 32v242q0 38 -23.5 52.5t-57.5 14.5h-116v-309q0 -16 -14.5 -31t-45.5 -15q-29 0 -45 14.5t-16 32.5v362q0 9 3 19.5t10.5 20t19.5 16t31 6.5h181q88 0 140.5 -46.5t52.5 -136.5v-242q0 -16 -14.5 -31t-45.5 -15zM264 541q-15 -17 -38 -17
q-21 0 -30.5 13t-9.5 25q0 16 8 29l63 112q8 15 22.5 26.5t34.5 11.5q25 0 42 -17.5t17 -40.5q0 -11 -4 -23t-13 -21z" />
    <glyph glyph-name="iotatonos" unicode="&#x3af;" horiz-adv-x="340" 
d="M197 -5q-30 0 -45 15t-15 32v312h-42q-17 0 -33 14.5t-16 41.5q0 29 16 42.5t33 13.5h103q28 0 43.5 -16t15.5 -36v-372q0 -17 -14.5 -32t-45.5 -15zM204 541q-15 -17 -38 -17q-21 0 -30.5 13t-9.5 25q0 16 8 29l63 112q8 15 22.5 26.5t34.5 11.5q25 0 42 -17.5t17 -40.5
q0 -11 -4 -23t-13 -21z" />
    <glyph glyph-name="omicrontonos" unicode="&#x3cc;" horiz-adv-x="518" 
d="M235 358q-41 0 -58 -20t-17 -55v-104q0 -32 16.5 -51.5t57.5 -19.5h50q41 0 57.5 19.5t16.5 51.5v104q0 35 -17 55t-58 20h-48zM225 0q-39 0 -72.5 11t-58.5 33.5t-39.5 57t-14.5 80.5v99q0 46 14 80.5t38.5 57.5t59 35t76.5 12h62q42 0 76.5 -12t59 -35t38.5 -57.5
t14 -80.5v-99q0 -46 -14.5 -80.5t-39.5 -57t-58.5 -33.5t-72.5 -11h-68zM289 541q-15 -17 -38 -17q-21 0 -30.5 13t-9.5 25q0 16 8 29l63 112q8 15 22.5 26.5t34.5 11.5q25 0 42 -17.5t17 -40.5q0 -11 -4 -23t-13 -21z" />
    <glyph glyph-name="Omegatonos" unicode="&#x38f;" horiz-adv-x="613" 
d="M183 230q0 -35 16.5 -60t46.5 -38q21 -9 31 -20t10 -37v-21q0 -20 -12.5 -37t-41.5 -17h-146q-29 0 -40.5 17.5t-11.5 40.5q0 24 11.5 41t40.5 17h19l1 1q-17 15 -30 41.5t-13 82.5v213q0 52 16.5 92t44 67t64 41t75.5 14h88q43 0 79.5 -14t63.5 -41t42 -67t15 -92v-210
q0 -38 -12 -74t-33 -52l1 -2h18q29 0 40.5 -17t11.5 -41q0 -23 -11.5 -40.5t-40.5 -17.5h-143q-29 0 -41.5 17t-12.5 37v21q0 26 10 36.5t31 20.5q31 15 47.5 39t16.5 59v232q0 40 -21 66.5t-65 26.5h-80q-42 0 -63.5 -26.5t-21.5 -66.5v-232zM-44 501q-15 -17 -38 -17
q-21 0 -30.5 13t-9.5 25q0 16 8 29l63 112q8 15 22.5 26.5t34.5 11.5q25 0 42 -17.5t17 -40.5q0 -11 -4 -23t-13 -21z" />
    <glyph glyph-name="upsilontonos" unicode="&#x3cd;" horiz-adv-x="528" 
d="M238 0q-88 0 -140.5 46.5t-52.5 136.5v242q0 16 14.5 31t45.5 15q30 0 45 -14t15 -32v-242q0 -38 23.5 -52.5t57.5 -14.5h36q34 0 57.5 14.5t23.5 52.5v242q0 18 15 32t45 14q31 0 45.5 -15t14.5 -31v-242q0 -90 -52.5 -136.5t-140.5 -46.5h-52zM283 541q-15 -17 -38 -17
q-21 0 -30.5 13t-9.5 25q0 16 8 29l63 112q8 15 22.5 26.5t34.5 11.5q25 0 42 -17.5t17 -40.5q0 -11 -4 -23t-13 -21z" />
    <glyph glyph-name="alpha" unicode="&#x3b1;" horiz-adv-x="533" 
d="M272 113q21 0 37.5 -12.5t16.5 -43.5q0 -28 -16.5 -42.5t-37.5 -14.5h-51q-36 0 -68.5 10.5t-57.5 32t-40 54.5t-15 78v105q0 45 14 80t38.5 58.5t59 36t76.5 12.5h196q25 0 44.5 -16.5t19.5 -54.5l-1 -351q0 -19 -15 -34.5t-46 -15.5q-32 0 -45 15t-13 35v306h-136
q-30 0 -51 -16.5t-21 -54.5v-96q0 -38 18.5 -54.5t41.5 -16.5h52z" />
    <glyph glyph-name="beta" unicode="&#x3b2;" horiz-adv-x="505" 
d="M155 111h119q26 0 48 17t22 55v49q0 38 -19.5 58t-50.5 20h-35q-20 0 -32.5 12t-12.5 41q0 32 14.5 42.5t30.5 10.5h27q29 0 49.5 22t20.5 57q0 38 -23.5 58.5t-55.5 20.5h-24q-34 0 -56 -23.5t-22 -62.5v-377zM35 494q0 44 15.5 80t43 61.5t64 39.5t78.5 15h16
q41 0 78.5 -13.5t65.5 -38.5t44.5 -61t16.5 -82q0 -18 -3 -36.5t-10 -36t-18.5 -32t-27.5 -23.5q22 -10 35 -24.5t20 -32t9.5 -37.5t2.5 -41v-49q0 -47 -16 -81t-43 -57t-62 -34t-72 -11h-117v-99q0 -20 -14.5 -34t-46.5 -14q-31 0 -45 13.5t-14 34.5v593z" />
    <glyph glyph-name="psi" unicode="&#x3c8;" horiz-adv-x="648" 
d="M163 180q0 -37 21.5 -52.5t48.5 -15.5h28v335q0 17 15.5 32t44.5 15q31 0 44.5 -15t13.5 -32v-335h36q13 0 25.5 3.5t22.5 12t16 21.5t6 31v246q0 17 15.5 32t44.5 15q31 0 44.5 -15t13.5 -32v-241q0 -45 -15.5 -79.5t-41.5 -58t-60 -35.5t-72 -12h-35v-163
q0 -20 -14 -34.5t-46 -14.5t-45.5 14.5t-13.5 34.5v163h-28q-38 0 -71.5 12t-59.5 35.5t-41 58t-15 79.5v241q0 17 15.5 32t44.5 15q31 0 44.5 -15t13.5 -32v-246z" />
    <glyph glyph-name="delta" unicode="&#x3b4;" horiz-adv-x="518" 
d="M225 0q-83 0 -134 45t-51 137v78q0 63 22 109.5t67 71.5q-22 16 -35.5 41t-13.5 68q0 29 9.5 54.5t28 45t46.5 31t64 11.5h154q7 0 16 -2.5t17 -8.5t13.5 -17t5.5 -27q0 -17 -5 -28.5t-12.5 -18.5t-16.5 -10t-17 -3h-147q-30 0 -30 -25q0 -5 2 -9t10.5 -10t24.5 -14
t43 -20l88 -39q51 -23 77.5 -68.5t26.5 -110.5v-99q0 -46 -14.5 -80.5t-39.5 -57t-58.5 -33.5t-72.5 -11h-68zM358 274q0 39 -18.5 60t-46.5 33q-10 5 -20 8t-22 7q-27 -5 -45 -18t-28 -30.5t-14 -37t-4 -37.5v-75q0 -32 16.5 -51.5t57.5 -19.5h50q41 0 57.5 19.5t16.5 51.5
v90z" />
    <glyph glyph-name="epsilon" unicode="&#x3b5;" horiz-adv-x="443" 
d="M194 353q-14 0 -24 -8t-10 -20q0 -10 8 -20.5t26 -10.5h152q21 0 35 -13t14 -40t-14 -39t-35 -12h-151q-14 0 -25.5 -9.5t-11.5 -26.5q0 -16 9 -28t30 -12h163q23 0 38 -14t15 -42q0 -30 -15 -44t-38 -14h-179q-30 0 -55.5 8.5t-44.5 26.5t-30 45.5t-11 64.5
q0 24 12 51.5t36 44.5q-23 13 -34 38.5t-11 48.5q0 28 9 53t27.5 44t46 30.5t64.5 11.5h138q22 0 37.5 -14t15.5 -43t-15.5 -43t-37.5 -14h-134z" />
    <glyph glyph-name="phi" unicode="&#x3c6;" horiz-adv-x="639" 
d="M374 112h36q13 0 25.5 3.5t22.5 12t16 21.5t6 31v99q0 39 -21.5 55t-48.5 16h-36v-238zM374 0v-163q0 -20 -14 -34.5t-46 -14.5t-45.5 14.5t-13.5 34.5v163h-28q-38 0 -71.5 12t-59.5 35.5t-41 58t-15 79.5v96q0 57 23 99t65 63q13 7 26 7q14 0 27 -7.5t22 -20.5
q9 -14 9 -31q0 -14 -6 -27t-17 -21q-12 -8 -21.5 -21.5t-9.5 -35.5v-106q0 -37 21.5 -52.5t48.5 -15.5h27v297q0 22 15 40t44 18h95q40 0 75 -12t60.5 -35.5t40 -59t14.5 -81.5v-94q0 -45 -15.5 -79.5t-41.5 -58t-60.5 -35.5t-72.5 -12h-35z" />
    <glyph glyph-name="gamma" unicode="&#x3b3;" horiz-adv-x="464" 
d="M235 141l107 299q7 18 20 26t30 8q26 0 45 -14t19 -41q0 -9 -3 -18l-165 -422v-146q0 -17 -14.5 -30.5t-44.5 -13.5q-29 0 -45 13.5t-16 30.5v166l-158 402q-3 9 -3 18q0 26 19.5 41t45.5 15q39 0 53 -40l108 -294h2z" />
    <glyph glyph-name="eta" unicode="&#x3b7;" horiz-adv-x="523" 
d="M423 -5q-30 0 -45 14t-15 32v242q0 38 -23.5 52.5t-57.5 14.5h-116v-309q0 -16 -14.5 -31t-45.5 -15q-29 0 -45 14.5t-16 32.5v362q0 9 3 19.5t10.5 20t19.5 16t31 6.5h181q88 0 140.5 -46.5t52.5 -136.5v-242q0 -16 -14.5 -31t-45.5 -15z" />
    <glyph glyph-name="iota" unicode="&#x3b9;" horiz-adv-x="340" 
d="M197 -5q-30 0 -45 15t-15 32v312h-42q-17 0 -33 14.5t-16 41.5q0 29 16 42.5t33 13.5h103q28 0 43.5 -16t15.5 -36v-372q0 -17 -14.5 -32t-45.5 -15z" />
    <glyph glyph-name="xi" unicode="&#x3be;" horiz-adv-x="456" 
d="M235 306q-27 0 -48.5 -19t-21.5 -57v-46q0 -38 22 -53.5t48 -15.5h130q18 0 29.5 -6t18.5 -14.5t10 -19t3 -19.5v-142q0 -17 -13.5 -33t-43.5 -16q-32 0 -45 14.5t-13 34.5v86h-77q-41 0 -75.5 12t-60 35.5t-39.5 57.5t-14 79v46q0 40 16 76.5t51 56.5q-30 17 -44.5 51.5
t-14.5 69.5q0 46 14 80.5t39 57.5t60 35t77 12h132q20 0 35 -14t15 -45q0 -29 -16.5 -43t-33.5 -14h-133q-26 0 -48 -15.5t-22 -53.5q0 -35 21 -52t49 -17h137q17 0 32 -11t15 -43q0 -29 -16 -42t-31 -13h-144z" />
    <glyph glyph-name="kappa" unicode="&#x3ba;" horiz-adv-x="461" 
d="M430 7q-20 -12 -38 -12q-17 0 -30.5 8t-21.5 22l-119 216l-57 -39v-160q0 -17 -14 -32t-45 -15q-29 0 -44.5 15t-15.5 32v387q0 17 15.5 32t44.5 15q31 0 45 -15t14 -32v-96l178 129q9 7 19.5 10t19.5 3q23 0 41.5 -16t18.5 -41q-1 -11 -6.5 -23t-17.5 -20l-98 -68
l129 -229q7 -11 7 -24q0 -16 -8 -28.5t-17 -18.5z" />
    <glyph glyph-name="lambda" unicode="&#x3bb;" horiz-adv-x="529" 
d="M423 -7q-30 0 -44.5 15t-14.5 32v311h-123q-34 0 -57.5 -15.5t-23.5 -53.5v-242q0 -17 -15.5 -32t-44.5 -15q-31 0 -45.5 15t-14.5 32v242q0 46 14.5 80.5t40 57.5t61 35t77.5 12h130v44q0 38 -23 53t-55 15h-147q-17 0 -32.5 14t-15.5 43q0 27 15.5 42t32.5 15h161
q40 0 74 -12t58.5 -35t38.5 -57t14 -78v-471q0 -17 -16 -32t-45 -15z" />
    <glyph glyph-name="nu" unicode="&#x3bd;" horiz-adv-x="476" 
d="M239 141l107 299q7 18 20 26t30 8q26 0 45 -14t19 -41q0 -9 -3 -18l-138 -355q-8 -21 -22.5 -33.5t-41.5 -12.5h-38q-26 0 -41.5 12t-23.5 34l-138 355q-3 9 -3 18q0 26 19.5 41t45.5 15q39 0 53 -40l108 -294h2z" />
    <glyph glyph-name="omicron" unicode="&#x3bf;" horiz-adv-x="518" 
d="M235 352q-41 0 -58 -20t-17 -55v-93q0 -32 16.5 -51.5t57.5 -19.5h50q41 0 57.5 19.5t16.5 51.5v93q0 35 -17 55t-58 20h-48zM225 0q-39 0 -72.5 11t-58.5 33.5t-39.5 57t-14.5 80.5v99q0 46 14 80.5t38.5 57.5t59 35t76.5 12h62q42 0 76.5 -12t59 -35t38.5 -57.5
t14 -80.5v-99q0 -46 -14.5 -80.5t-39.5 -57t-58.5 -33.5t-72.5 -11h-68z" />
    <glyph glyph-name="omegatonos" unicode="&#x3ce;" horiz-adv-x="687" 
d="M344 374q32 0 46 -16.5t14 -36.5v-143q0 -34 18 -52t46 -18q25 0 41.5 16t16.5 44v148q0 21 -10 35t-23 25t-18.5 23.5t-5.5 25.5q0 19 10 33q7 10 19.5 18.5t29.5 8.5q14 0 28 -7q41 -21 64.5 -63t23.5 -97v-156q0 -33 -10 -63t-31 -53t-54.5 -36.5t-80.5 -13.5
q-35 0 -69.5 13.5t-54.5 37.5q-11 -13 -25.5 -22.5t-31 -16t-33.5 -9.5t-32 -3q-49 0 -83 13t-55.5 35.5t-31 52t-9.5 62.5v157q0 54 24.5 97t66.5 65q13 7 27 7q16 0 28 -8.5t20 -18.5q11 -14 11 -32q0 -14 -6.5 -27t-18.5 -23q-16 -13 -24 -27.5t-8 -35.5v-147
q0 -28 16.5 -43t42.5 -15q29 0 46.5 19t17.5 51v143q0 17 13 35t45 18zM366 541q-15 -17 -38 -17q-21 0 -30.5 13t-9.5 25q0 16 8 29l63 112q8 15 22.5 26.5t34.5 11.5q25 0 42 -17.5t17 -40.5q0 -11 -4 -23t-13 -21z" />
    <glyph glyph-name="rho" unicode="&#x3c1;" horiz-adv-x="523" 
d="M101 -211q-29 0 -45 13.5t-16 30.5v448q0 46 14 80.5t38.5 58t59 35.5t76.5 12h63q41 0 76.5 -11.5t61 -34.5t40 -57t14.5 -79v-99q0 -46 -14 -80.5t-38.5 -58t-59 -35t-76.5 -11.5h-135v-168q0 -17 -14.5 -30.5t-44.5 -13.5zM288 113q41 0 58 20t17 55v93
q0 32 -16.5 51.5t-57.5 19.5h-54q-41 0 -58 -20t-17 -55v-164h128z" />
    <glyph glyph-name="sigma" unicode="&#x3c3;" horiz-adv-x="560" 
d="M225 0q-39 0 -72.5 11t-58.5 33.5t-39.5 57t-14.5 80.5v89q0 46 14.5 82t40.5 61t62.5 38.5t80.5 13.5h266q17 0 31.5 -13.5t14.5 -40.5q0 -29 -14.5 -43.5t-31.5 -14.5h-49q16 -17 19.5 -35t3.5 -38v-99q0 -46 -14.5 -80.5t-39.5 -57t-58.5 -33.5t-72.5 -11h-68z
M245 352q-46 0 -65.5 -25t-19.5 -60v-83q0 -32 16.5 -51.5t57.5 -19.5h50q41 0 57.5 19.5t16.5 51.5v93q0 35 -17 55t-58 20h-38z" />
    <glyph glyph-name="tau" unicode="&#x3c4;" horiz-adv-x="430" 
d="M339 466q17 0 32.5 -13.5t15.5 -40.5q0 -29 -15.5 -43.5t-32.5 -14.5h-99v-172q0 -38 18.5 -55t55.5 -17h52q18 0 36 -14.5t18 -41.5q0 -14 -5 -24.5t-13 -18t-17.5 -11t-18.5 -3.5h-81q-34 0 -64 10t-52 32t-35 55t-13 80v180h-59q-17 0 -33 14.5t-16 43.5q0 28 16 41
t33 13h277z" />
    <glyph glyph-name="theta" unicode="&#x3b8;" horiz-adv-x="522" 
d="M235 0q-39 0 -73.5 12t-60.5 35.5t-41 58.5t-15 81v315q0 46 14.5 81.5t40.5 59.5t61 36.5t77 12.5h46q42 0 77 -12.5t61 -36.5t40.5 -59.5t14.5 -81.5v-315q0 -46 -15 -81t-41 -58.5t-60.5 -35.5t-73.5 -12h-52zM278 113q41 0 60 22t19 54v109h-192v-109q0 -32 18 -54
t61 -22h34zM245 578q-41 0 -60.5 -22.5t-19.5 -57.5v-88h192v88q0 35 -19.5 57.5t-60.5 22.5h-32z" />
    <glyph glyph-name="omega" unicode="&#x3c9;" horiz-adv-x="687" 
d="M344 374q32 0 46 -16.5t14 -36.5v-143q0 -34 18 -52t46 -18q25 0 41.5 16t16.5 44v148q0 21 -10 35t-23 25t-18.5 23.5t-5.5 25.5q0 19 10 33q7 10 19.5 18.5t29.5 8.5q14 0 28 -7q41 -21 64.5 -63t23.5 -97v-156q0 -33 -10 -63t-31 -53t-54.5 -36.5t-80.5 -13.5
q-35 0 -69.5 13.5t-54.5 37.5q-11 -13 -25.5 -22.5t-31 -16t-33.5 -9.5t-32 -3q-49 0 -83 13t-55.5 35.5t-31 52t-9.5 62.5v157q0 54 24.5 97t66.5 65q13 7 27 7q16 0 28 -8.5t20 -18.5q11 -14 11 -32q0 -14 -6.5 -27t-18.5 -23q-16 -13 -24 -27.5t-8 -35.5v-147
q0 -28 16.5 -43t42.5 -15q29 0 46.5 19t17.5 51v143q0 17 13 35t45 18z" />
    <glyph glyph-name="sigma1" unicode="&#x3c2;" horiz-adv-x="459" 
d="M92 0q-8 0 -17 3t-17 10t-13 18.5t-5 28.5t6 28.5t14.5 18t17.5 9.5t14 3h188q28 0 28 21q0 14 -36 25l-108 31q-27 7 -50.5 17t-41 25t-27.5 37.5t-10 56.5q0 58 37.5 95.5t110.5 37.5h171q7 0 16 -2.5t17 -8.5t13.5 -17t5.5 -27q0 -17 -5 -28.5t-13 -18.5t-17 -10
t-17 -3h-171q-11 0 -18 -3.5t-7 -13.5q0 -5 9 -10.5t23 -9.5l110 -30q28 -8 51.5 -18t41 -26t27 -39.5t9.5 -57.5q0 -29 -9 -54.5t-27.5 -45t-46.5 -31t-66 -11.5h-188z" />
    <glyph glyph-name="chi" unicode="&#x3c7;" horiz-adv-x="495" 
d="M344 460q15 18 37 18q16 0 29 -6.5t22.5 -16.5t14.5 -22t5 -22q0 -14 -8 -24l-121 -147l133 -156q7 -8 7 -24q0 -9 -4 -21t-12 -22.5t-20.5 -17.5t-28.5 -7q-13 0 -24.5 4.5t-18.5 13.5l-109 134l-110 -136q-15 -18 -39 -18q-17 0 -30 7t-22 17t-13.5 22t-4.5 21
q0 15 8 25l133 158l-121 147q-8 11 -8 25q0 9 5 20.5t14 21.5t22 17t29 7q24 0 38 -18l99 -127z" />
    <glyph glyph-name="upsilon" unicode="&#x3c5;" horiz-adv-x="528" 
d="M238 0q-88 0 -140.5 46.5t-52.5 136.5v242q0 16 14.5 31t45.5 15q30 0 45 -14t15 -32v-242q0 -38 23.5 -52.5t57.5 -14.5h36q34 0 57.5 14.5t23.5 52.5v242q0 18 15 32t45 14q31 0 45.5 -15t14.5 -31v-242q0 -90 -52.5 -136.5t-140.5 -46.5h-52z" />
    <glyph glyph-name="zeta" unicode="&#x3b6;" horiz-adv-x="447" 
d="M38 148q0 26 13.5 52.5t36.5 52.5t53.5 51t64.5 49h-111q-15 0 -31.5 12.5t-16.5 44.5q0 16 5.5 26.5t13 17.5t16 10t13.5 3h287q23 0 40 -10.5t17 -35.5v-19q0 -34 -25 -46q-36 -20 -78.5 -45.5t-78.5 -52.5t-60.5 -53t-24.5 -45t24.5 -28t78.5 -20q22 -5 49.5 -12
t51.5 -20t40.5 -32.5t16.5 -48.5q0 -45 -69 -129q-6 -8 -16.5 -15.5t-25.5 -7.5q-13 0 -31 9q-17 9 -24.5 20.5t-7.5 23.5q0 18 13 36q24 31 24 43q0 11 -20 16t-49 11q-39 7 -73 16t-60 24.5t-41 39.5t-15 62z" />
    <glyph glyph-name="iotadieresis" unicode="&#x3ca;" horiz-adv-x="340" 
d="M197 -5q-30 0 -45 15t-15 32v312h-42q-17 0 -33 14.5t-16 41.5q0 29 16 42.5t33 13.5h103q28 0 43.5 -16t15.5 -36v-372q0 -17 -14.5 -32t-45.5 -15zM286 535q-27 0 -45.5 18t-18.5 43q0 32 20 46.5t43 14.5q24 0 44 -14.5t20 -46.5q0 -24 -18 -42.5t-45 -18.5zM79 535
q-27 0 -45.5 18t-18.5 43q0 32 20 46.5t43 14.5q24 0 44.5 -14.5t20.5 -46.5q0 -24 -18.5 -42.5t-45.5 -18.5z" />
    <glyph glyph-name="upsilondieresis" unicode="&#x3cb;" horiz-adv-x="528" 
d="M238 0q-88 0 -140.5 46.5t-52.5 136.5v242q0 16 14.5 31t45.5 15q30 0 45 -14t15 -32v-242q0 -38 23.5 -52.5t57.5 -14.5h36q34 0 57.5 14.5t23.5 52.5v242q0 18 15 32t45 14q31 0 45.5 -15t14.5 -31v-242q0 -90 -52.5 -136.5t-140.5 -46.5h-52zM365 535q-27 0 -45.5 18
t-18.5 43q0 32 20 46.5t43 14.5q24 0 44 -14.5t20 -46.5q0 -24 -18 -42.5t-45 -18.5zM158 535q-27 0 -45.5 18t-18.5 43q0 32 20 46.5t43 14.5q24 0 44.5 -14.5t20.5 -46.5q0 -24 -18.5 -42.5t-45.5 -18.5z" />
    <glyph glyph-name="iotadieresistonos" unicode="&#x390;" horiz-adv-x="340" 
d="M197 -5q-30 0 -45 15t-15 32v312h-42q-17 0 -33 14.5t-16 41.5q0 29 16 42.5t33 13.5h103q28 0 43.5 -16t15.5 -36v-372q0 -17 -14.5 -32t-45.5 -15zM332 535q-27 0 -45.5 18t-18.5 43q0 32 20 46.5t43 14.5q24 0 44 -14.5t20 -46.5q0 -24 -18 -42.5t-45 -18.5zM25 535
q-27 0 -45.5 18t-18.5 43q0 32 20 46.5t43 14.5q24 0 44.5 -14.5t20.5 -46.5q0 -24 -18.5 -42.5t-45.5 -18.5zM174 541q-15 -17 -38 -17q-21 0 -30.5 13t-9.5 25q0 16 8 29l63 112q8 15 22.5 26.5t34.5 11.5q25 0 42 -17.5t17 -40.5q0 -11 -4 -23t-13 -21z" />
    <glyph glyph-name="upsilondieresistonos" unicode="&#x3b0;" horiz-adv-x="528" 
d="M238 0q-88 0 -140.5 46.5t-52.5 136.5v242q0 16 14.5 31t45.5 15q30 0 45 -14t15 -32v-242q0 -38 23.5 -52.5t57.5 -14.5h36q34 0 57.5 14.5t23.5 52.5v242q0 18 15 32t45 14q31 0 45.5 -15t14.5 -31v-242q0 -90 -52.5 -136.5t-140.5 -46.5h-52zM419 535q-27 0 -45.5 18
t-18.5 43q0 32 20 46.5t43 14.5q24 0 44 -14.5t20 -46.5q0 -24 -18 -42.5t-45 -18.5zM112 535q-27 0 -45.5 18t-18.5 43q0 32 20 46.5t43 14.5q24 0 44.5 -14.5t20.5 -46.5q0 -24 -18.5 -42.5t-45.5 -18.5zM261 541q-15 -17 -38 -17q-21 0 -30.5 13t-9.5 25q0 16 8 29
l63 112q8 15 22.5 26.5t34.5 11.5q25 0 42 -17.5t17 -40.5q0 -11 -4 -23t-13 -21z" />
    <glyph glyph-name="Euro" unicode="&#x20ac;" horiz-adv-x="520" 
d="M394 310q13 0 25 -11t12 -36q0 -23 -12 -35.5t-25 -12.5h-191v-12q0 -41 20.5 -63.5t57.5 -22.5l167 -1q27 0 40.5 -15.5t13.5 -42.5t-13.5 -42.5t-40.5 -15.5h-172q-39 0 -74 12.5t-61.5 37.5t-41.5 63.5t-15 91.5v10h-30q-13 0 -25 12.5t-12 35.5q0 25 12 36t25 11h340
zM54 357q-13 0 -25 12.5t-12 35.5q0 25 12 36t25 11h30v7q0 52 15.5 91t41.5 65.5t61.5 39.5t74.5 13h171q28 0 41 -15.5t13 -42.5t-13 -42.5t-41 -15.5h-167q-38 0 -58 -24t-20 -64v-12h191q13 0 25 -11t12 -36q0 -23 -12 -35.5t-25 -12.5h-340z" />
    <glyph glyph-name="adieresis" unicode="&#xe4;" horiz-adv-x="529" 
d="M190 190q-16 0 -25 -11t-9 -24v-3q0 -14 8.5 -25.5t25.5 -11.5h175v75h-175zM364 293v8q0 20 -14.5 37.5t-51.5 17.5h-137q-17 0 -33 11.5t-16 40.5t16 43.5t33 14.5h143q90 0 135.5 -45.5t45.5 -132.5v-227q0 -7 -3 -17.5t-10 -20t-18 -16.5t-27 -7h-257
q-27 0 -51.5 10.5t-43 30t-29 46.5t-10.5 61v9q0 27 9.5 51.5t27.5 43t44 30t60 11.5h187zM384 535q-27 0 -45.5 18t-18.5 43q0 32 20 46.5t43 14.5q24 0 44 -14.5t20 -46.5q0 -24 -18 -42.5t-45 -18.5zM177 535q-27 0 -45.5 18t-18.5 43q0 32 20 46.5t43 14.5
q24 0 44.5 -14.5t20.5 -46.5q0 -24 -18.5 -42.5t-45.5 -18.5z" />
    <glyph glyph-name="acute" unicode="&#xb4;" horiz-adv-x="523" 
d="M269 541q-15 -17 -38 -17q-21 0 -30.5 13t-9.5 25q0 16 8 29l63 112q8 15 22.5 26.5t34.5 11.5q25 0 42 -17.5t17 -40.5q0 -11 -4 -23t-13 -21z" />
    <glyph glyph-name="mu" unicode="&#xb5;" horiz-adv-x="528" 
d="M105 471q30 0 45 -14t15 -32v-242q0 -38 23.5 -52.5t57.5 -14.5h116v309q0 16 14.5 31t45.5 15q29 0 45 -14.5t16 -32.5v-362q0 -9 -3 -19.5t-10.5 -20t-19.5 -16t-31 -6.5h-181q-40 0 -73 9v-176q0 -17 -14.5 -30.5t-44.5 -13.5q-29 0 -45 13.5t-16 30.5v592
q0 16 14.5 31t45.5 15z" />
    <glyph glyph-name="mu" unicode="&#x3bc;" horiz-adv-x="528" 
d="M105 471q30 0 45 -14t15 -32v-242q0 -38 23.5 -52.5t57.5 -14.5h116v309q0 16 14.5 31t45.5 15q29 0 45 -14.5t16 -32.5v-362q0 -9 -3 -19.5t-10.5 -20t-19.5 -16t-31 -6.5h-181q-40 0 -73 9v-176q0 -17 -14.5 -30.5t-44.5 -13.5q-29 0 -45 13.5t-16 30.5v592
q0 16 14.5 31t45.5 15z" />
    <glyph glyph-name="tilde" unicode="&#x2dc;" horiz-adv-x="454" 
d="M155 647q19 0 39.5 -6.5t40 -14t35.5 -13.5t27 -6q12 0 19 6.5t13.5 14t14 14t21.5 6.5t24 -5.5t17 -13.5t10 -16t3 -12q0 -11 -4 -18q-19 -39 -50 -53.5t-57 -14.5q-18 0 -37 6t-37.5 13.5t-35.5 13.5t-32 6q-9 0 -15.5 -6t-13.5 -13.5t-15 -13.5t-20 -6q-13 0 -23 5
t-16.5 12.5t-10 15t-3.5 13.5q0 18 11 34t27 27.5t34.5 18t33.5 6.5z" />
    <glyph glyph-name="circumflex" unicode="&#x2c6;" horiz-adv-x="500" 
d="M261 719q8 0 16 -2t16 -9l128 -115q14 -12 14 -28q0 -20 -17.5 -33t-32.5 -13t-29 11l-98 81l-108 -83q-12 -9 -26 -9q-25 0 -38 15.5t-13 32.5q0 14 13 26l140 115q9 8 17.5 9.5t17.5 1.5z" />
    <glyph glyph-name="cedilla" unicode="&#xb8;" horiz-adv-x="474" 
d="M386 -133q0 -15 -6.5 -31t-20 -28.5t-34.5 -21t-49 -8.5q-15 0 -32 2.5t-30.5 8t-22.5 14t-9 19.5q0 13 9.5 24t20.5 11q10 0 28 -9t34 -9q19 0 27 8.5t8 19.5q0 6 -5.5 15t-26.5 9h-38q-17 0 -26.5 9t-9.5 22q0 6 3 14l31 79h59l-28 -64h29q38 0 63.5 -22.5t25.5 -61.5z
" />
    <glyph glyph-name="Ccedilla" unicode="&#xc7;" horiz-adv-x="531" 
d="M423 -133q0 -15 -6.5 -31t-20 -28.5t-34.5 -21t-49 -8.5q-15 0 -32 2.5t-30.5 8t-22.5 14t-9 19.5q0 13 9.5 24t20.5 11q10 0 28 -9t34 -9q19 0 27 8.5t8 19.5q0 6 -5.5 15t-26.5 9h-38q-17 0 -26.5 9t-9.5 22q0 6 3 14l25 64h-26q-39 0 -74 12.5t-61.5 37.5t-41.5 63.5
t-15 91.5v254q0 52 15.5 91t41.5 65.5t61.5 39.5t74.5 13h209q28 0 41 -15.5t13 -42.5t-13 -42.5t-41 -15.5h-205q-38 0 -58 -24t-20 -64v-261q0 -41 20.5 -63.5t57.5 -22.5l205 -1q27 0 40.5 -15.5t13.5 -42.5t-13.5 -42.5t-40.5 -15.5h-126l-21 -49h29q38 0 63.5 -22.5
t25.5 -61.5z" />
    <glyph glyph-name="ccedilla" unicode="&#xe7;" horiz-adv-x="443" 
d="M371 -133q0 -15 -6.5 -31t-20 -28.5t-34.5 -21t-49 -8.5q-15 0 -32 2.5t-30.5 8t-22.5 14t-9 19.5q0 13 9.5 24t20.5 11q10 0 28 -9t34 -9q19 0 27 8.5t8 19.5q0 6 -5.5 15t-26.5 9h-38q-17 0 -26.5 9t-9.5 22q0 6 3 14l25 64q-79 4 -127.5 48.5t-48.5 133.5v99
q0 46 14 80.5t38.5 57.5t59 35t76.5 12h141q17 0 33 -15.5t16 -42.5q0 -29 -16 -43.5t-33 -14.5h-134q-41 0 -58 -20t-17 -55v-88q0 -32 16 -52t58 -20h140q17 0 33 -14.5t16 -43.5q0 -27 -15.5 -42t-34.5 -15h-99l-21 -49h29q38 0 63.5 -22.5t25.5 -61.5z" />
    <glyph glyph-name="ecircumflex" unicode="&#xea;" horiz-adv-x="500" 
d="M345 278q0 34 -19 53t-57 19h-36q-32 0 -52.5 -19t-20.5 -53v-6h185v6zM276 466q40 0 74.5 -12.5t60 -36t40 -58.5t14.5 -80v-39q0 -8 -3 -18.5t-10.5 -19.5t-19.5 -15.5t-31 -6.5h-241v-7q0 -29 21.5 -46t57.5 -17h133q17 0 33 -12t16 -41q0 -27 -16 -42t-33 -15h-147
q-40 0 -74 12t-58.5 34.5t-38.5 56t-14 76.5v100q0 44 14.5 79t39.5 59t59.5 36.5t75.5 12.5h47zM267 719q8 0 16 -2t16 -9l128 -115q14 -12 14 -28q0 -20 -17.5 -33t-32.5 -13t-29 11l-98 81l-108 -83q-12 -9 -26 -9q-25 0 -38 15.5t-13 32.5q0 14 13 26l140 115
q9 8 17.5 9.5t17.5 1.5z" />
    <glyph glyph-name="otilde" unicode="&#xf5;" horiz-adv-x="518" 
d="M235 358q-41 0 -58 -20t-17 -55v-104q0 -32 16.5 -51.5t57.5 -19.5h50q41 0 57.5 19.5t16.5 51.5v104q0 35 -17 55t-58 20h-48zM225 0q-39 0 -72.5 11t-58.5 33.5t-39.5 57t-14.5 80.5v99q0 46 14 80.5t38.5 57.5t59 35t76.5 12h62q42 0 76.5 -12t59 -35t38.5 -57.5
t14 -80.5v-99q0 -46 -14.5 -80.5t-39.5 -57t-58.5 -33.5t-72.5 -11h-68zM181 657q19 0 39.5 -6.5t40 -14t35.5 -13.5t27 -6q12 0 19 6.5t13.5 14t14 14t21.5 6.5t24 -5.5t17 -13.5t10 -16t3 -12q0 -11 -4 -18q-19 -39 -50 -53.5t-57 -14.5q-18 0 -37 6t-37.5 13.5
t-35.5 13.5t-32 6q-9 0 -15.5 -6t-13.5 -13.5t-15 -13.5t-20 -6q-13 0 -23 5t-16.5 12.5t-10 15t-3.5 13.5q0 18 11 34t27 27.5t34.5 18t33.5 6.5z" />
    <glyph glyph-name="Adieresis" unicode="&#xc4;" horiz-adv-x="567" 
d="M281 474l-72 -214h148q-18 53 -35.5 106.5t-36.5 107.5h-4zM169 149l-40 -115q-13 -40 -53 -40q-32 0 -49 17t-17 39q0 5 1 11t3 11l193 547q8 21 20.5 35t40.5 14h30q27 0 40 -13.5t21 -35.5l194 -547q4 -9 4 -21q0 -23 -19 -40t-49 -17q-36 0 -52 41l-42 114h-226z
M387 708q-27 0 -45.5 18t-18.5 43q0 32 20 46.5t43 14.5q24 0 44 -14.5t20 -46.5q0 -24 -18 -42.5t-45 -18.5zM180 708q-27 0 -45.5 18t-18.5 43q0 32 20 46.5t43 14.5q24 0 44.5 -14.5t20.5 -46.5q0 -24 -18.5 -42.5t-45.5 -18.5z" />
    <glyph glyph-name="Eacute" unicode="&#xc9;" horiz-adv-x="534" 
d="M121 0q-61 0 -61 58v552q0 58 61 58h331q27 0 40.5 -15.5t13.5 -42.5t-13.5 -42.5t-40.5 -15.5h-272v-142h230q27 0 39.5 -15.5t12.5 -42.5t-12.5 -42t-39.5 -15h-230v-179h272q27 0 40.5 -15.5t13.5 -42.5t-13.5 -42.5t-40.5 -15.5h-331zM273 694q-8 -3 -17 -3
q-16 0 -31.5 10t-15.5 30q0 13 7.5 23.5t17.5 16.5l108 70q9 6 19.5 10t22.5 4q8 0 18 -3.5t18.5 -11t14.5 -18.5t6 -26q0 -19 -11 -35t-31 -23z" />
    <glyph glyph-name="Ntilde" unicode="&#xd1;" horiz-adv-x="619" 
d="M439 233v386q0 55 60 55t60 -55v-561q0 -58 -60 -58h-30q-26 0 -37 10.5t-21 27.5l-228 407h-3v-396q0 -29 -15 -42t-45 -13t-45 13t-15 42v561q0 58 60 58h32q27 0 40 -14t24 -33q56 -98 109 -193t110 -195h4zM236 831q19 0 39.5 -6.5t40 -14t35.5 -13.5t27 -6
q12 0 19 6.5t13.5 14t14 14t21.5 6.5t24 -5.5t17 -13.5t10 -16t3 -12q0 -11 -4 -18q-19 -39 -50 -53.5t-57 -14.5q-18 0 -37 6t-37.5 13.5t-35.5 13.5t-32 6q-9 0 -15.5 -6t-13.5 -13.5t-15 -13.5t-20 -6q-13 0 -23 5t-16.5 12.5t-10 15t-3.5 13.5q0 18 11 34t27 27.5
t34.5 18t33.5 6.5z" />
    <glyph glyph-name="Odieresis" unicode="&#xd6;" horiz-adv-x="588" 
d="M339 668q101 0 150 -54.5t49 -159.5v-241q0 -52 -15 -92t-41.5 -67t-62.5 -40.5t-79 -13.5h-93q-43 0 -79 11.5t-62.5 36.5t-41 65t-14.5 97v244q0 52 14.5 92t40.5 67t62.5 41t80.5 14h91zM420 466q0 40 -22 66.5t-73 26.5h-63q-48 0 -70.5 -26.5t-22.5 -66.5v-267
q0 -41 22.5 -66t70.5 -25h63q48 0 71.5 27.5t23.5 65.5v265zM405 708q-27 0 -45.5 18t-18.5 43q0 32 20 46.5t43 14.5q24 0 44 -14.5t20 -46.5q0 -24 -18 -42.5t-45 -18.5zM198 708q-27 0 -45.5 18t-18.5 43q0 32 20 46.5t43 14.5q24 0 44.5 -14.5t20.5 -46.5
q0 -24 -18.5 -42.5t-45.5 -18.5z" />
    <glyph glyph-name="Udieresis" unicode="&#xdc;" horiz-adv-x="611" 
d="M433 619q0 16 6 27t14.5 17t19 8.5t19.5 2.5q8 0 18.5 -2.5t19.5 -8.5t15 -17t6 -28v-410q0 -52 -15.5 -91t-41.5 -65t-61 -39t-75 -13h-106q-39 0 -74 12.5t-61.5 37.5t-41.5 63.5t-15 91.5v413q0 17 6 28t15 17t19.5 8.5t19.5 2.5t19 -2.5t19 -9t15 -17.5t6 -27v-415
q0 -41 20.5 -63.5t57.5 -22.5h96q38 0 59 25t21 63v414zM207 708q-27 0 -45.5 18t-18.5 43q0 32 20 46.5t43 14.5q24 0 44.5 -14.5t20.5 -46.5q0 -24 -18.5 -42.5t-45.5 -18.5zM414 708q-27 0 -45.5 18t-18.5 43q0 32 20 46.5t43 14.5q24 0 44 -14.5t20 -46.5
q0 -24 -18 -42.5t-45 -18.5z" />
    <glyph glyph-name="agrave" unicode="&#xe0;" horiz-adv-x="529" 
d="M190 190q-16 0 -25 -11t-9 -24v-3q0 -14 8.5 -25.5t25.5 -11.5h175v75h-175zM364 293v8q0 20 -14.5 37.5t-51.5 17.5h-137q-17 0 -33 11.5t-16 40.5t16 43.5t33 14.5h143q90 0 135.5 -45.5t45.5 -132.5v-227q0 -7 -3 -17.5t-10 -20t-18 -16.5t-27 -7h-257
q-27 0 -51.5 10.5t-43 30t-29 46.5t-10.5 61v9q0 27 9.5 51.5t27.5 43t44 30t60 11.5h187zM177 639q-17 19 -17 44q0 23 17 40.5t42 17.5q20 0 34.5 -11.5t22.5 -26.5l63 -112q8 -13 8 -29q0 -12 -9.5 -25t-29.5 -13q-24 0 -39 17z" />
    <glyph glyph-name="acircumflex" unicode="&#xe2;" horiz-adv-x="529" 
d="M190 190q-16 0 -25 -11t-9 -24v-3q0 -14 8.5 -25.5t25.5 -11.5h175v75h-175zM364 293v8q0 20 -14.5 37.5t-51.5 17.5h-137q-17 0 -33 11.5t-16 40.5t16 43.5t33 14.5h143q90 0 135.5 -45.5t45.5 -132.5v-227q0 -7 -3 -17.5t-10 -20t-18 -16.5t-27 -7h-257
q-27 0 -51.5 10.5t-43 30t-29 46.5t-10.5 61v9q0 27 9.5 51.5t27.5 43t44 30t60 11.5h187zM288 719q8 0 16 -2t16 -9l128 -115q14 -12 14 -28q0 -20 -17.5 -33t-32.5 -13t-29 11l-98 81l-108 -83q-12 -9 -26 -9q-25 0 -38 15.5t-13 32.5q0 14 13 26l140 115q9 8 17.5 9.5
t17.5 1.5z" />
    <glyph glyph-name="egrave" unicode="&#xe8;" horiz-adv-x="500" 
d="M345 278q0 34 -19 53t-57 19h-36q-32 0 -52.5 -19t-20.5 -53v-6h185v6zM276 466q40 0 74.5 -12.5t60 -36t40 -58.5t14.5 -80v-39q0 -8 -3 -18.5t-10.5 -19.5t-19.5 -15.5t-31 -6.5h-241v-7q0 -29 21.5 -46t57.5 -17h133q17 0 33 -12t16 -41q0 -27 -16 -42t-33 -15h-147
q-40 0 -74 12t-58.5 34.5t-38.5 56t-14 76.5v100q0 44 14.5 79t39.5 59t59.5 36.5t75.5 12.5h47zM142 639q-17 19 -17 44q0 23 17 40.5t42 17.5q20 0 34.5 -11.5t22.5 -26.5l63 -112q8 -13 8 -29q0 -12 -9.5 -25t-29.5 -13q-24 0 -39 17z" />
    <glyph glyph-name="eacute" unicode="&#xe9;" horiz-adv-x="500" 
d="M345 278q0 34 -19 53t-57 19h-36q-32 0 -52.5 -19t-20.5 -53v-6h185v6zM276 466q40 0 74.5 -12.5t60 -36t40 -58.5t14.5 -80v-39q0 -8 -3 -18.5t-10.5 -19.5t-19.5 -15.5t-31 -6.5h-241v-7q0 -29 21.5 -46t57.5 -17h133q17 0 33 -12t16 -41q0 -27 -16 -42t-33 -15h-147
q-40 0 -74 12t-58.5 34.5t-38.5 56t-14 76.5v100q0 44 14.5 79t39.5 59t59.5 36.5t75.5 12.5h47zM283 541q-15 -17 -38 -17q-21 0 -30.5 13t-9.5 25q0 16 8 29l63 112q8 15 22.5 26.5t34.5 11.5q25 0 42 -17.5t17 -40.5q0 -11 -4 -23t-13 -21z" />
    <glyph glyph-name="edieresis" unicode="&#xeb;" horiz-adv-x="500" 
d="M345 278q0 34 -19 53t-57 19h-36q-32 0 -52.5 -19t-20.5 -53v-6h185v6zM276 466q40 0 74.5 -12.5t60 -36t40 -58.5t14.5 -80v-39q0 -8 -3 -18.5t-10.5 -19.5t-19.5 -15.5t-31 -6.5h-241v-7q0 -29 21.5 -46t57.5 -17h133q17 0 33 -12t16 -41q0 -27 -16 -42t-33 -15h-147
q-40 0 -74 12t-58.5 34.5t-38.5 56t-14 76.5v100q0 44 14.5 79t39.5 59t59.5 36.5t75.5 12.5h47zM361 535q-27 0 -45.5 18t-18.5 43q0 32 20 46.5t43 14.5q24 0 44 -14.5t20 -46.5q0 -24 -18 -42.5t-45 -18.5zM154 535q-27 0 -45.5 18t-18.5 43q0 32 20 46.5t43 14.5
q24 0 44.5 -14.5t20.5 -46.5q0 -24 -18.5 -42.5t-45.5 -18.5z" />
    <glyph glyph-name="ocircumflex" unicode="&#xf4;" horiz-adv-x="518" 
d="M235 358q-41 0 -58 -20t-17 -55v-104q0 -32 16.5 -51.5t57.5 -19.5h50q41 0 57.5 19.5t16.5 51.5v104q0 35 -17 55t-58 20h-48zM225 0q-39 0 -72.5 11t-58.5 33.5t-39.5 57t-14.5 80.5v99q0 46 14 80.5t38.5 57.5t59 35t76.5 12h62q42 0 76.5 -12t59 -35t38.5 -57.5
t14 -80.5v-99q0 -46 -14.5 -80.5t-39.5 -57t-58.5 -33.5t-72.5 -11h-68zM269 719q8 0 16 -2t16 -9l128 -115q14 -12 14 -28q0 -20 -17.5 -33t-32.5 -13t-29 11l-98 81l-108 -83q-12 -9 -26 -9q-25 0 -38 15.5t-13 32.5q0 14 13 26l140 115q9 8 17.5 9.5t17.5 1.5z" />
    <glyph glyph-name="odieresis" unicode="&#xf6;" horiz-adv-x="518" 
d="M235 358q-41 0 -58 -20t-17 -55v-104q0 -32 16.5 -51.5t57.5 -19.5h50q41 0 57.5 19.5t16.5 51.5v104q0 35 -17 55t-58 20h-48zM225 0q-39 0 -72.5 11t-58.5 33.5t-39.5 57t-14.5 80.5v99q0 46 14 80.5t38.5 57.5t59 35t76.5 12h62q42 0 76.5 -12t59 -35t38.5 -57.5
t14 -80.5v-99q0 -46 -14.5 -80.5t-39.5 -57t-58.5 -33.5t-72.5 -11h-68zM365 535q-27 0 -45.5 18t-18.5 43q0 32 20 46.5t43 14.5q24 0 44 -14.5t20 -46.5q0 -24 -18 -42.5t-45 -18.5zM158 535q-27 0 -45.5 18t-18.5 43q0 32 20 46.5t43 14.5q24 0 44.5 -14.5t20.5 -46.5
q0 -24 -18.5 -42.5t-45.5 -18.5z" />
    <glyph glyph-name="ugrave" unicode="&#xf9;" horiz-adv-x="523" 
d="M100 471q30 0 45 -14t15 -32v-242q0 -38 23.5 -52.5t57.5 -14.5h116v309q0 16 14.5 31t45.5 15q29 0 45 -14.5t16 -32.5v-362q0 -9 -3 -19.5t-10.5 -20t-19.5 -16t-31 -6.5h-181q-88 0 -140.5 46.5t-52.5 136.5v242q0 16 14.5 31t45.5 15zM136 639q-17 19 -17 44
q0 23 17 40.5t42 17.5q20 0 34.5 -11.5t22.5 -26.5l63 -112q8 -13 8 -29q0 -12 -9.5 -25t-29.5 -13q-24 0 -39 17z" />
    <glyph glyph-name="ucircumflex" unicode="&#xfb;" horiz-adv-x="523" 
d="M100 471q30 0 45 -14t15 -32v-242q0 -38 23.5 -52.5t57.5 -14.5h116v309q0 16 14.5 31t45.5 15q29 0 45 -14.5t16 -32.5v-362q0 -9 -3 -19.5t-10.5 -20t-19.5 -16t-31 -6.5h-181q-88 0 -140.5 46.5t-52.5 136.5v242q0 16 14.5 31t45.5 15zM265 719q8 0 16 -2t16 -9
l128 -115q14 -12 14 -28q0 -20 -17.5 -33t-32.5 -13t-29 11l-98 81l-108 -83q-12 -9 -26 -9q-25 0 -38 15.5t-13 32.5q0 14 13 26l140 115q9 8 17.5 9.5t17.5 1.5z" />
    <glyph glyph-name="udieresis" unicode="&#xfc;" horiz-adv-x="523" 
d="M100 471q30 0 45 -14t15 -32v-242q0 -38 23.5 -52.5t57.5 -14.5h116v309q0 16 14.5 31t45.5 15q29 0 45 -14.5t16 -32.5v-362q0 -9 -3 -19.5t-10.5 -20t-19.5 -16t-31 -6.5h-181q-88 0 -140.5 46.5t-52.5 136.5v242q0 16 14.5 31t45.5 15zM365 535q-27 0 -45.5 18
t-18.5 43q0 32 20 46.5t43 14.5q24 0 44 -14.5t20 -46.5q0 -24 -18 -42.5t-45 -18.5zM158 535q-27 0 -45.5 18t-18.5 43q0 32 20 46.5t43 14.5q24 0 44.5 -14.5t20.5 -46.5q0 -24 -18.5 -42.5t-45.5 -18.5z" />
    <glyph glyph-name="dotlessi" unicode="&#x131;" horiz-adv-x="340" 
d="M197 -5q-30 0 -45 15t-15 32v312h-62q-17 0 -33 14.5t-16 41.5q0 29 16 42.5t33 13.5h123q28 0 43.5 -16t15.5 -36v-372q0 -17 -14.5 -32t-45.5 -15z" />
    <glyph glyph-name="icircumflex" unicode="&#xee;" horiz-adv-x="352" 
d="M203 -5q-30 0 -45 15t-15 32v312h-62q-17 0 -33 14.5t-16 41.5q0 29 16 42.5t33 13.5h123q28 0 43.5 -16t15.5 -36v-372q0 -17 -14.5 -32t-45.5 -15zM183 719q8 0 16 -2t16 -9l128 -115q14 -12 14 -28q0 -20 -17.5 -33t-32.5 -13t-29 11l-98 81l-108 -83q-12 -9 -26 -9
q-25 0 -38 15.5t-13 32.5q0 14 13 26l140 115q9 8 17.5 9.5t17.5 1.5z" />
    <glyph glyph-name="idieresis" unicode="&#xef;" horiz-adv-x="340" 
d="M283 535q-27 0 -45.5 18t-18.5 43q0 32 20 46.5t43 14.5q24 0 44 -14.5t20 -46.5q0 -24 -18 -42.5t-45 -18.5zM76 535q-27 0 -45.5 18t-18.5 43q0 32 20 46.5t43 14.5q24 0 44.5 -14.5t20.5 -46.5q0 -24 -18.5 -42.5t-45.5 -18.5zM197 -5q-30 0 -45 15t-15 32v312h-62
q-17 0 -33 14.5t-16 41.5q0 29 16 42.5t33 13.5h123q28 0 43.5 -16t15.5 -36v-372q0 -17 -14.5 -32t-45.5 -15z" />
    <glyph glyph-name="daggerdbl" unicode="&#x2021;" horiz-adv-x="476" 
d="M293 425v-113h91q24 0 38 -13t14 -40q0 -54 -52 -54h-91v-219q0 -23 -13 -37.5t-42 -14.5q-55 0 -55 52v219h-92q-23 0 -37 13t-14 41q0 27 13.5 40t37.5 13h92v113h-92q-23 0 -37 13t-14 41q0 27 13.5 40t37.5 13h92v120q0 23 13 36t42 13t42 -13.5t13 -35.5v-120h91
q24 0 38 -13t14 -40q0 -54 -52 -54h-91z" />
    <glyph glyph-name="logicalnot" unicode="&#xac;" horiz-adv-x="520" 
d="M487 161q0 -22 -12.5 -37t-42.5 -15q-28 0 -40 15.5t-12 36.5v108h-292q-24 0 -40 13t-16 39q0 27 16.5 40t39.5 13h344q23 0 39.5 -13t16.5 -40z" />
    <glyph glyph-name="brokenbar" unicode="&#xa6;" horiz-adv-x="519" 
d="M260 354q-31 0 -45.5 13t-14.5 42v321q0 55 60 55q59 0 59 -55v-321q0 -29 -14.5 -42t-44.5 -13zM260 -124q-31 0 -45.5 13t-14.5 42v322q0 55 60 55q59 0 59 -55v-322q0 -29 -14.5 -42t-44.5 -13z" />
    <glyph glyph-name="quotesinglbase" unicode="&#x201a;" horiz-adv-x="188" 
d="M110 -87q-5 -11 -16.5 -20.5t-30.5 -9.5q-15 0 -26 5t-18 12.5t-10 16t-3 15.5q0 2 0.5 4.5t0.5 4.5l27 139q4 20 21 37.5t46 17.5q36 0 53.5 -21t17.5 -45q0 -13 -4 -22z" />
    <glyph glyph-name="quotedblbase" unicode="&#x201e;" horiz-adv-x="385" 
d="M297 -88q-5 -11 -16.5 -20.5t-30.5 -9.5q-15 0 -26 5t-18 12.5t-10 16t-3 15.5q0 2 0.5 4.5t0.5 4.5l27 139q4 20 21 37.5t46 17.5q36 0 53.5 -21t17.5 -45q0 -13 -4 -22zM128 -88q-5 -11 -16.5 -20.5t-30.5 -9.5q-15 0 -26 5t-18 12.5t-10 16t-3 15.5q0 2 0.5 4.5
t0.5 4.5l27 139q4 20 21 37.5t46 17.5q36 0 53.5 -21t17.5 -45q0 -13 -4 -22z" />
    <glyph glyph-name="guilsinglright" unicode="&#x203a;" horiz-adv-x="307" 
d="M268 238q0 -9 -2.5 -20t-11.5 -20l-122 -129q-15 -15 -31 -15q-21 0 -41 16.5t-20 42.5q1 8 3 16t9 15l90 93l-90 89q-15 15 -15 35q0 9 4 18.5t11.5 18t18 14t23.5 5.5q20 0 35 -15l125 -126q9 -8 11.5 -18t2.5 -20z" />
    <glyph glyph-name="guilsinglleft" unicode="&#x2039;" horiz-adv-x="307" 
d="M38 238q0 10 3 20t11 18l125 126q15 15 35 15q13 0 23.5 -5.5t18 -14t11.5 -18t4 -18.5q0 -20 -15 -35l-90 -89l90 -93q7 -7 9 -15t3 -16q0 -26 -19.5 -42.5t-41.5 -16.5q-16 0 -31 15l-122 129q-9 9 -11 20t-3 20z" />
    <glyph glyph-name="exclamdown" unicode="&#xa1;" horiz-adv-x="233" 
d="M116 471q27 0 47 -18.5t20 -45.5q0 -32 -20.5 -48t-45.5 -16t-45.5 16t-20.5 48q0 27 18.5 45.5t46.5 18.5zM117 288q32 0 46 -17.5t14 -44.5v-361q0 -27 -14 -44.5t-46 -17.5t-45.5 17.5t-13.5 44.5v361q0 27 13.5 44.5t45.5 17.5z" />
    <glyph glyph-name="questiondown" unicode="&#xbf;" horiz-adv-x="470" 
d="M221 471q28 0 47 -18.5t19 -45.5q0 -32 -20.5 -48t-45.5 -16t-45.5 16t-20.5 48q0 27 18.5 45.5t47.5 18.5zM227 -197q-189 0 -189 152q0 23 12 52t29 49l46 52q19 24 26 41.5t7 35.5v53q0 18 15.5 34t47.5 16q7 0 16.5 -2.5t18.5 -8.5t15.5 -15.5t6.5 -23.5v-80
q1 -21 -9.5 -40.5t-25.5 -39.5l-56 -71q-9 -12 -15 -22t-6 -26q0 -21 21.5 -31.5t53.5 -10.5q25 0 48 7t55 18q15 5 26 5q18 0 34 -15t16 -47q0 -23 -20.5 -38.5t-50.5 -25t-63.5 -14t-58.5 -4.5z" />
    <glyph glyph-name="plusminus" unicode="&#xb1;" horiz-adv-x="520" 
d="M316 289v-108q0 -22 -13.5 -37t-43.5 -15q-28 0 -41 15.5t-13 36.5v108h-117q-24 0 -40 13t-16 39q0 27 16.5 40t39.5 13h117v110q0 21 12.5 36t41.5 15q30 0 43.5 -13.5t13.5 -37.5v-110h116q23 0 39.5 -13t16.5 -40q0 -26 -15 -39t-41 -13h-116zM432 105q23 0 39.5 -13
t16.5 -40q0 -26 -15 -39t-41 -13h-344q-24 0 -40 13t-16 39q0 27 16.5 40t39.5 13h344z" />
    <glyph glyph-name="thorn" unicode="&#xfe;" horiz-adv-x="528" 
d="M165 467h131q41 0 76.5 -11.5t61 -34.5t40 -57t14.5 -79v-99q0 -46 -14 -80.5t-38.5 -58t-59 -35.5t-76.5 -12h-135v-167q0 -17 -14.5 -30.5t-44.5 -13.5q-29 0 -45 13.5t-16 30.5v817q0 17 14.5 32t45.5 15q29 0 44.5 -15t15.5 -32v-183zM368 281q0 32 -16.5 51.5
t-57.5 19.5h-129v-240h128q41 0 58 20.5t17 55.5v93z" />
    <glyph glyph-name="ae" unicode="&#xe6;" horiz-adv-x="825" 
d="M485 182v-9q0 -29 21.5 -46t57.5 -17h133q17 0 33 -12t16 -41q0 -27 -16 -42t-33 -15h-147q-36 0 -67 11.5t-54 31.5q-51 -43 -129 -43h-130q-27 0 -51.5 9t-43 26.5t-29 43t-10.5 59.5v15q0 54 36.5 87t104.5 33h187v28q0 20 -14.5 34.5t-51.5 14.5h-137q-17 0 -33 13
t-16 42t16 45t33 16h143q80 0 126 -38q50 38 124 38h47q40 0 74.5 -12.5t60 -36t40 -58.5t14.5 -80v-38q0 -8 -3 -18.5t-10.5 -19.5t-19.5 -15t-31 -6h-241zM365 181h-175q-16 0 -25 -8t-9 -21v-8q0 -14 8.5 -24t25.5 -10h96q36 0 57.5 17t21.5 46v8zM670 279q0 34 -19 52.5
t-57 18.5h-36q-32 0 -52.5 -18.5t-20.5 -52.5v-6h185v6z" />
    <glyph glyph-name="OE" unicode="&#x152;" horiz-adv-x="846" 
d="M247 0q-39 0 -75 13t-63 39.5t-43 65.5t-16 92v244q0 52 16 92t43.5 67t63.5 41t75 14h516q27 0 40.5 -15.5t13.5 -42.5t-13.5 -42.5t-40.5 -15.5h-272v-142h230q27 0 39.5 -15.5t12.5 -42.5t-12.5 -42t-39.5 -15h-230v-179h272q27 0 40.5 -15.5t13.5 -42.5t-13.5 -42.5
t-40.5 -15.5h-517zM252 555q-41 0 -62 -26.5t-21 -66.5v-258q0 -41 21.5 -66t61.5 -25h120v442h-120z" />
    <glyph glyph-name="caron" unicode="&#x2c7;" horiz-adv-x="529" 
d="M272 519q-9 0 -17.5 1.5t-17.5 9.5l-140 115q-14 12 -14 28t14 31.5t37 15.5q16 0 27 -10l108 -83l98 81q15 12 31 12q15 0 31.5 -13.5t16.5 -32.5q0 -17 -14 -29l-128 -115q-8 -7 -16 -9t-16 -2z" />
    <glyph glyph-name="breve" unicode="&#x2d8;" horiz-adv-x="529" 
d="M271 608q26 0 49 18t44 49q8 12 19 17t22 5q22 0 35 -14t13 -28q0 -7 -2 -11q-15 -33 -36.5 -57t-45.5 -39.5t-49 -22.5t-46 -7q-24 0 -48.5 5t-48 18.5t-44.5 37.5t-37 61q-3 7 -3 14q0 13 13.5 29t36.5 16q11 0 22.5 -5t18.5 -16q23 -35 40.5 -52.5t46.5 -17.5z" />
    <glyph glyph-name="dotaccent" unicode="&#x2d9;" horiz-adv-x="529" 
d="M277 531q-27 0 -47 18.5t-20 45.5q0 32 21 48t45 16q26 0 47 -16t21 -48q0 -27 -19 -45.5t-48 -18.5z" />
    <glyph glyph-name="ring" unicode="&#x2da;" horiz-adv-x="529" 
d="M247 611q0 -18 12.5 -30.5t31.5 -12.5q17 0 29.5 12.5t12.5 30.5t-12.5 31t-29.5 13q-19 0 -31.5 -13t-12.5 -31zM171 611q0 25 9 46.5t25.5 37.5t38 25.5t47.5 9.5q24 0 45.5 -9.5t37.5 -25.5t25.5 -37.5t9.5 -46.5t-9.5 -46.5t-25.5 -37.5t-37.5 -25.5t-45.5 -9.5
q-26 0 -47.5 9.5t-38 25.5t-25.5 37.5t-9 46.5z" />
    <glyph glyph-name="ogonek" unicode="&#x2db;" horiz-adv-x="555" 
d="M409 35v-23q-28 -25 -42.5 -55.5t-14.5 -53.5q0 -16 10 -28t36 -12q6 0 14 2.5t16 5.5t15 5.5t11 2.5q13 0 23 -12t10 -24q0 -14 -12 -23.5t-28 -15t-31.5 -8t-22.5 -2.5q-33 0 -56 9.5t-37.5 24.5t-21 33t-6.5 35q0 32 16.5 67t57.5 72h63z" />
    <glyph glyph-name="hungarumlaut" unicode="&#x2dd;" horiz-adv-x="529" 
d="M235 541q-15 -17 -38 -17q-21 0 -30.5 13t-9.5 25q0 16 8 29l63 112q8 15 22.5 26.5t34.5 11.5q25 0 42 -17.5t17 -40.5q0 -24 -17 -44zM393 541q-15 -17 -38 -17q-21 0 -30.5 13t-9.5 25q0 16 8 29l63 112q8 15 22.5 26.5t34.5 11.5q25 0 42 -17.5t17 -40.5
q0 -11 -4 -23t-13 -21z" />
    <glyph glyph-name="anoteleia" unicode="&#x387;" horiz-adv-x="203" 
d="M104 229q-30 0 -50 20t-20 47q0 34 21.5 50.5t47.5 16.5t47.5 -16.5t21.5 -50.5q0 -26 -19 -46.5t-49 -20.5z" />
    <glyph glyph-name="Circumflex" unicode="&#xf6c0;" horiz-adv-x="567" 
d="M284 882q17 0 37 -12l143 -91q18 -12 18 -32q0 -10 -4.5 -20t-11.5 -17.5t-16 -12t-17 -4.5q-15 0 -35 10l-114 60l-120 -64q-8 -5 -15.5 -6.5t-15.5 -1.5q-25 0 -38 17.5t-13 36.5q0 22 19 34l146 91q11 7 19 9.5t18 2.5z" />
    <glyph glyph-name="commaaccent" unicode="&#xf6c3;" horiz-adv-x="587" 
d="M337 -224q-4 -9 -14.5 -17.5t-26.5 -8.5q-27 0 -38 15.5t-11 28.5v7l24 120q4 18 18 33t40 15q32 0 47 -18.5t15 -38.5q0 -11 -4 -19z" />
    <glyph glyph-name="Acute" unicode="&#xf6c9;" horiz-adv-x="567" 
d="M273 694q-8 -3 -17 -3q-16 0 -31.5 10t-15.5 30q0 13 7.5 23.5t17.5 16.5l108 70q9 6 19.5 10t22.5 4q8 0 18 -3.5t18.5 -11t14.5 -18.5t6 -26q0 -19 -11 -35t-31 -23z" />
    <glyph glyph-name="Caron" unicode="&#xf6ca;" horiz-adv-x="567" 
d="M286 694q-9 1 -16 2.5t-17 7.5l-132 83q-18 11 -18 31q0 17 12.5 32.5t34.5 15.5q15 0 28 -7l108 -58l102 54q16 9 32 9q15 0 29.5 -14.5t14.5 -33.5t-16 -29l-129 -83q-16 -10 -33 -10z" />
    <glyph glyph-name="Dieresis" unicode="&#xf6cb;" horiz-adv-x="567" 
d="M387 708q-27 0 -45.5 18t-18.5 43q0 32 20 46.5t43 14.5q24 0 44 -14.5t20 -46.5q0 -24 -18 -42.5t-45 -18.5zM180 708q-27 0 -45.5 18t-18.5 43q0 32 20 46.5t43 14.5q24 0 44.5 -14.5t20.5 -46.5q0 -24 -18.5 -42.5t-45.5 -18.5z" />
    <glyph glyph-name="DieresisAcute" unicode="&#xf6cc;" horiz-adv-x="567" 
d="M205 773q-15 10 -22.5 23.5t-7.5 27.5q0 12 5.5 22.5t14 19t19 13t19.5 4.5q15 0 27.5 -7t21.5 -18l84 -94q6 -7 10.5 -16.5t4.5 -20.5q0 -17 -11.5 -27t-28.5 -10q-19 0 -29 9zM451 688q-27 0 -45.5 18t-18.5 43q0 32 20 46.5t43 14.5q24 0 44 -14.5t20 -46.5
q0 -24 -18 -42.5t-45 -18.5zM126 688q-27 0 -45.5 18t-18.5 43q0 32 20 46.5t43 14.5q24 0 44.5 -14.5t20.5 -46.5q0 -24 -18.5 -42.5t-45.5 -18.5z" />
    <glyph glyph-name="DieresisGrave" unicode="&#xf6cd;" horiz-adv-x="567" 
d="M451 688q-27 0 -45.5 18t-18.5 43q0 32 20 46.5t43 14.5q24 0 44 -14.5t20 -46.5q0 -24 -18 -42.5t-45 -18.5zM126 688q-27 0 -45.5 18t-18.5 43q0 32 20 46.5t43 14.5q24 0 44.5 -14.5t20.5 -46.5q0 -24 -18.5 -42.5t-45.5 -18.5zM266 699q-11 -9 -29 -9q-17 0 -28.5 10
t-11.5 27q0 11 4.5 20.5t10.5 16.5l84 94q10 11 22.5 18t26.5 7q9 0 19.5 -4.5t19 -13t14 -19t5.5 -22.5q0 -30 -30 -51z" />
    <glyph glyph-name="Grave" unicode="&#xf6ce;" horiz-adv-x="567" 
d="M162 738q-20 7 -31 23t-11 35q0 15 6 26t14.5 18.5t18.5 11t18 3.5q12 0 22.5 -4t19.5 -10l108 -70q10 -6 18 -16.5t8 -23.5q0 -20 -15.5 -30t-32.5 -10q-10 0 -17 3z" />
    <glyph glyph-name="Hungarumlaut" unicode="&#xf6cf;" horiz-adv-x="567" 
d="M385 699q-11 -9 -30 -9q-18 0 -30 10.5t-12 26.5q0 11 5 20.5t11 16.5l87 94q10 11 23 18.5t28 7.5q10 0 20.5 -4.5t19 -12.5t14 -19t5.5 -23q0 -15 -8 -29t-22 -23zM213 699q-11 -9 -30 -9q-18 0 -30 10.5t-12 26.5q0 11 5 20.5t11 16.5l87 94q10 11 23 18.5t28 7.5
q10 0 20.5 -4.5t19 -12.5t14 -19t5.5 -23q0 -31 -30 -52z" />
    <glyph glyph-name="Macron" unicode="&#xf6d0;" horiz-adv-x="567" 
d="M181 706q-28 0 -44.5 11t-16.5 37t16.5 37.5t44.5 11.5h204q28 0 44.5 -11t16.5 -37t-16.5 -37.5t-44.5 -11.5h-204z" />
    <glyph glyph-name="cyrBreve" unicode="&#xf6d1;" horiz-adv-x="567" 
d="M277 800q26 0 49 18t44 49q8 12 19 17t22 5q22 0 35 -14t13 -28q0 -7 -2 -11q-15 -33 -36.5 -57t-45.5 -39.5t-49 -22.5t-46 -7q-24 0 -48.5 5t-48 18.5t-44.5 37.5t-37 61q-3 7 -3 14q0 13 13.5 29t36.5 16q11 0 22.5 -5t18.5 -16q23 -35 40.5 -52.5t46.5 -17.5z" />
    <glyph glyph-name="cyrbreve" unicode="&#xf6d4;" horiz-adv-x="529" 
d="M270 611q26 0 49 18t44 49q8 12 19 17t22 5q22 0 35 -14t13 -28q0 -7 -2 -11q-15 -33 -36.5 -57t-45.5 -39.5t-49 -22.5t-46 -7q-24 0 -48.5 5t-48 18.5t-44.5 37.5t-37 61q-3 7 -3 14q0 13 13.5 29t36.5 16q11 0 22.5 -5t18.5 -16q23 -35 40.5 -52.5t46.5 -17.5z" />
    <glyph glyph-name="macron" unicode="&#xaf;" horiz-adv-x="529" 
d="M172 515q-28 0 -44.5 11t-16.5 37t16.5 37.5t44.5 11.5h204q28 0 44.5 -11t16.5 -37t-16.5 -37.5t-44.5 -11.5h-204z" />
    <glyph glyph-name="Thorn" unicode="&#xde;" horiz-adv-x="573" 
d="M60 618q0 55 60 55q59 0 59 -55v-78h155q48 0 86.5 -14.5t66 -41.5t42 -65.5t14.5 -85.5q0 -48 -12 -87t-37 -66.5t-64 -43t-93 -15.5h-158v-71q0 -29 -14.5 -42t-44.5 -13q-31 0 -45.5 13t-14.5 42v568zM179 424v-188h164q22 0 37.5 8.5t25 22t14 31t4.5 35.5
q0 25 -7.5 42.5t-19.5 28.5t-27 15.5t-29 4.5h-162z" />
    <glyph glyph-name="divide" unicode="&#xf7;" horiz-adv-x="520" 
d="M88 269q-24 0 -40 13t-16 39q0 27 16.5 40t39.5 13h344q23 0 39.5 -13t16.5 -40q0 -26 -15 -39t-41 -13h-344zM262 95q-30 0 -50 20t-20 47q0 34 21.5 50.5t47.5 16.5t47.5 -16.5t21.5 -50.5q0 -26 -19 -46.5t-49 -20.5zM262 414q-30 0 -50 20t-20 47q0 34 21.5 50.5
t47.5 16.5t47.5 -16.5t21.5 -50.5q0 -26 -19 -46.5t-49 -20.5z" />
    <glyph glyph-name="multiply" unicode="&#xd7;" horiz-adv-x="520" 
d="M107 396q-8 8 -12.5 17t-4.5 19t5.5 20.5t13.5 19t18.5 14t21.5 5.5q20 0 36 -16l75 -75l76 75q17 17 35 17q10 0 20.5 -6t19.5 -15t14.5 -19.5t5.5 -19.5q0 -18 -17 -35l-76 -76l75 -75q17 -15 17 -35q0 -10 -6 -20.5t-15 -19.5t-19.5 -14.5t-19.5 -5.5q-18 0 -35 17
l-75 75l-74 -74q-8 -8 -17 -12.5t-19 -4.5q-9 0 -19.5 5.5t-19.5 13.5t-14.5 18.5t-5.5 21.5q0 20 16 36l75 74z" />
    <glyph glyph-name="Eth" unicode="&#xd0;" horiz-adv-x="622" 
d="M121 0q-61 0 -61 58v220h-12q-29 0 -47 12t-18 39q0 28 18 40.5t47 12.5h12v228q0 58 61 58h267q40 0 73.5 -13t58 -38.5t38.5 -64.5t14 -91v-254q0 -51 -14.5 -89.5t-40.5 -65t-61 -39.5t-77 -13h-258zM180 278v-162h185q46 0 66.5 22.5t20.5 64.5v261q0 42 -21 65
t-68 23h-183v-170h87q30 0 48 -12t18 -39q0 -28 -18 -40.5t-48 -12.5h-87z" />
    <glyph glyph-name="Scaron" unicode="&#x160;" horiz-adv-x="531" 
d="M105 0q-7 0 -15.5 2.5t-16 9.5t-12.5 18t-5 28q0 16 5.5 27.5t13.5 18t16.5 9.5t13.5 3h213q24 0 42 17t18 51q0 26 -18.5 44.5t-50.5 32.5l-127 54q-30 13 -55.5 26t-45 32.5t-30.5 47.5t-11 70q0 37 11.5 69.5t34 56.5t55 38t75.5 14h197q15 0 32 -14t17 -44
q0 -18 -5 -29t-12 -17.5t-16 -9t-16 -2.5h-197q-25 0 -42 -15.5t-17 -45.5q0 -25 14 -40t41 -26l121 -51q29 -12 58 -27t52.5 -36t38 -51t14.5 -72q0 -38 -11.5 -72t-34 -60t-55.5 -41.5t-75 -15.5h-215zM274 694q-9 1 -16 2.5t-17 7.5l-132 83q-18 11 -18 31
q0 17 12.5 32.5t34.5 15.5q15 0 28 -7l108 -58l102 54q16 9 32 9q15 0 29.5 -14.5t14.5 -33.5t-16 -29l-129 -83q-16 -10 -33 -10z" />
    <glyph glyph-name="Zcaron" unicode="&#x17d;" horiz-adv-x="541" 
d="M92 0q-38 0 -50 16t-12 36q0 17 5 30.5t11 22.5l301 447h-242q-27 0 -40.5 15.5t-13.5 42.5t13.5 42.5t40.5 15.5h348q32 0 44 -16.5t12 -37.5q0 -17 -4.5 -29t-11.5 -22l-301 -447h269q29 0 40.5 -17t11.5 -41q0 -23 -11.5 -40.5t-40.5 -17.5h-369zM294 694
q-9 1 -16 2.5t-17 7.5l-132 83q-18 11 -18 31q0 17 12.5 32.5t34.5 15.5q15 0 28 -7l108 -58l102 54q16 9 32 9q15 0 29.5 -14.5t14.5 -33.5t-16 -29l-129 -83q-16 -10 -33 -10z" />
    <glyph glyph-name="scaron" unicode="&#x161;" horiz-adv-x="459" 
d="M92 0q-8 0 -17 3t-17 10t-13 18.5t-5 28.5t6 28.5t14.5 18t17.5 9.5t14 3h188q28 0 28 21q0 14 -36 25l-108 31q-27 7 -50.5 17t-41 25t-27.5 37.5t-10 56.5q0 58 37.5 95.5t110.5 37.5h171q7 0 16 -2.5t17 -8.5t13.5 -17t5.5 -27q0 -17 -5 -28.5t-13 -18.5t-17 -10
t-17 -3h-171q-11 0 -18 -3.5t-7 -13.5q0 -5 9 -10.5t23 -9.5l110 -30q28 -8 51.5 -18t41 -26t27 -39.5t9.5 -57.5q0 -29 -9 -54.5t-27.5 -45t-46.5 -31t-66 -11.5h-188zM239 519q-9 0 -17.5 1.5t-17.5 9.5l-140 115q-14 12 -14 28t14 31.5t37 15.5q16 0 27 -10l108 -83
l98 81q15 12 31 12q15 0 31.5 -13.5t16.5 -32.5q0 -17 -14 -29l-128 -115q-8 -7 -16 -9t-16 -2z" />
    <glyph glyph-name="zcaron" unicode="&#x17e;" horiz-adv-x="477" 
d="M88 0q-53 0 -53 59q0 14 6 24.5t11 16.5l224 253h-186q-17 0 -32.5 13.5t-15.5 42.5q0 27 15.5 42.5t32.5 15.5h306q26 0 41.5 -15t15.5 -44q0 -13 -5 -24t-11 -17l-221 -253h186q15 0 25 -5.5t16 -14t8 -18.5t2 -19q0 -8 -2 -18t-8 -18.5t-16 -14.5t-25 -6h-314z
M260 519q-9 0 -17.5 1.5t-17.5 9.5l-140 115q-14 12 -14 28t14 31.5t37 15.5q16 0 27 -10l108 -83l98 81q15 12 31 12q15 0 31.5 -13.5t16.5 -32.5q0 -17 -14 -29l-128 -115q-8 -7 -16 -9t-16 -2z" />
    <glyph glyph-name="Ydieresis" unicode="&#x178;" horiz-adv-x="553" 
d="M282 385l150 259q9 16 21.5 23.5t26.5 7.5q25 0 44.5 -18t19.5 -41q0 -12 -6 -24l-198 -334v-208q0 -56 -60 -56q-28 0 -43.5 14.5t-15.5 41.5v210l-206 337q-5 10 -5 19q0 12 6 22.5t16 18.5t22.5 13t25.5 5q29 0 47 -31l151 -259h4zM387 708q-27 0 -45.5 18t-18.5 43
q0 32 20 46.5t43 14.5q24 0 44 -14.5t20 -46.5q0 -24 -18 -42.5t-45 -18.5zM180 708q-27 0 -45.5 18t-18.5 43q0 32 20 46.5t43 14.5q24 0 44.5 -14.5t20.5 -46.5q0 -24 -18.5 -42.5t-45.5 -18.5z" />
    <glyph glyph-name="Agrave" unicode="&#xc0;" horiz-adv-x="567" 
d="M281 474l-72 -214h148q-18 53 -35.5 106.5t-36.5 107.5h-4zM169 149l-40 -115q-13 -40 -53 -40q-32 0 -49 17t-17 39q0 5 1 11t3 11l193 547q8 21 20.5 35t40.5 14h30q27 0 40 -13.5t21 -35.5l194 -547q4 -9 4 -21q0 -23 -19 -40t-49 -17q-36 0 -52 41l-42 114h-226z
M162 738q-20 7 -31 23t-11 35q0 15 6 26t14.5 18.5t18.5 11t18 3.5q12 0 22.5 -4t19.5 -10l108 -70q10 -6 18 -16.5t8 -23.5q0 -20 -15.5 -30t-32.5 -10q-10 0 -17 3z" />
    <glyph glyph-name="Aacute" unicode="&#xc1;" horiz-adv-x="567" 
d="M281 474l-72 -214h148q-18 53 -35.5 106.5t-36.5 107.5h-4zM169 149l-40 -115q-13 -40 -53 -40q-32 0 -49 17t-17 39q0 5 1 11t3 11l193 547q8 21 20.5 35t40.5 14h30q27 0 40 -13.5t21 -35.5l194 -547q4 -9 4 -21q0 -23 -19 -40t-49 -17q-36 0 -52 41l-42 114h-226z
M273 694q-8 -3 -17 -3q-16 0 -31.5 10t-15.5 30q0 13 7.5 23.5t17.5 16.5l108 70q9 6 19.5 10t22.5 4q8 0 18 -3.5t18.5 -11t14.5 -18.5t6 -26q0 -19 -11 -35t-31 -23z" />
    <glyph glyph-name="Acircumflex" unicode="&#xc2;" horiz-adv-x="567" 
d="M281 474l-72 -214h148q-18 53 -35.5 106.5t-36.5 107.5h-4zM169 149l-40 -115q-13 -40 -53 -40q-32 0 -49 17t-17 39q0 5 1 11t3 11l193 547q8 21 20.5 35t40.5 14h30q27 0 40 -13.5t21 -35.5l194 -547q4 -9 4 -21q0 -23 -19 -40t-49 -17q-36 0 -52 41l-42 114h-226z
M284 882q17 0 37 -12l143 -91q18 -12 18 -32q0 -10 -4.5 -20t-11.5 -17.5t-16 -12t-17 -4.5q-15 0 -35 10l-114 60l-120 -64q-8 -5 -15.5 -6.5t-15.5 -1.5q-25 0 -38 17.5t-13 36.5q0 22 19 34l146 91q11 7 19 9.5t18 2.5z" />
    <glyph glyph-name="Atilde" unicode="&#xc3;" horiz-adv-x="567" 
d="M281 474l-72 -214h148q-18 53 -35.5 106.5t-36.5 107.5h-4zM169 149l-40 -115q-13 -40 -53 -40q-32 0 -49 17t-17 39q0 5 1 11t3 11l193 547q8 21 20.5 35t40.5 14h30q27 0 40 -13.5t21 -35.5l194 -547q4 -9 4 -21q0 -23 -19 -40t-49 -17q-36 0 -52 41l-42 114h-226z
M196 843q19 0 39.5 -6.5t40 -14t35.5 -13.5t27 -6q12 0 19 6.5t13.5 14t14 14t21.5 6.5t24 -5.5t17 -13.5t10 -16t3 -12q0 -11 -4 -18q-19 -39 -50 -53.5t-57 -14.5q-18 0 -37 6t-37.5 13.5t-35.5 13.5t-32 6q-9 0 -15.5 -6t-13.5 -13.5t-15 -13.5t-20 -6q-13 0 -23 5
t-16.5 12.5t-10 15t-3.5 13.5q0 18 11 34t27 27.5t34.5 18t33.5 6.5z" />
    <glyph glyph-name="AE" unicode="&#xc6;" horiz-adv-x="846" 
d="M451 0q-61 0 -61 58v110h-199l-64 -134q-19 -40 -58 -40q-29 0 -43.5 14t-14.5 34q0 16 7 30l266 547q11 22 25.5 35.5t42.5 13.5h430q27 0 40.5 -15.5t13.5 -42.5t-13.5 -42.5t-40.5 -15.5h-272v-142h230q27 0 39.5 -15.5t12.5 -42.5t-12.5 -42t-39.5 -15h-230v-179h272
q27 0 40.5 -15.5t13.5 -42.5t-13.5 -42.5t-40.5 -15.5h-331zM338 474l-92 -195h144v272h-17z" />
    <glyph glyph-name="Egrave" unicode="&#xc8;" horiz-adv-x="534" 
d="M121 0q-61 0 -61 58v552q0 58 61 58h331q27 0 40.5 -15.5t13.5 -42.5t-13.5 -42.5t-40.5 -15.5h-272v-142h230q27 0 39.5 -15.5t12.5 -42.5t-12.5 -42t-39.5 -15h-230v-179h272q27 0 40.5 -15.5t13.5 -42.5t-13.5 -42.5t-40.5 -15.5h-331zM176 738q-20 7 -31 23t-11 35
q0 15 6 26t14.5 18.5t18.5 11t18 3.5q12 0 22.5 -4t19.5 -10l108 -70q10 -6 18 -16.5t8 -23.5q0 -20 -15.5 -30t-32.5 -10q-10 0 -17 3z" />
    <glyph glyph-name="Ecircumflex" unicode="&#xca;" horiz-adv-x="534" 
d="M121 0q-61 0 -61 58v552q0 58 61 58h331q27 0 40.5 -15.5t13.5 -42.5t-13.5 -42.5t-40.5 -15.5h-272v-142h230q27 0 39.5 -15.5t12.5 -42.5t-12.5 -42t-39.5 -15h-230v-179h272q27 0 40.5 -15.5t13.5 -42.5t-13.5 -42.5t-40.5 -15.5h-331zM277 882q17 0 37 -12l143 -91
q18 -12 18 -32q0 -10 -4.5 -20t-11.5 -17.5t-16 -12t-17 -4.5q-15 0 -35 10l-114 60l-120 -64q-8 -5 -15.5 -6.5t-15.5 -1.5q-25 0 -38 17.5t-13 36.5q0 22 19 34l146 91q11 7 19 9.5t18 2.5z" />
    <glyph glyph-name="Edieresis" unicode="&#xcb;" horiz-adv-x="534" 
d="M121 0q-61 0 -61 58v552q0 58 61 58h331q27 0 40.5 -15.5t13.5 -42.5t-13.5 -42.5t-40.5 -15.5h-272v-142h230q27 0 39.5 -15.5t12.5 -42.5t-12.5 -42t-39.5 -15h-230v-179h272q27 0 40.5 -15.5t13.5 -42.5t-13.5 -42.5t-40.5 -15.5h-331zM378 708q-27 0 -45.5 18
t-18.5 43q0 32 20 46.5t43 14.5q24 0 44 -14.5t20 -46.5q0 -24 -18 -42.5t-45 -18.5zM171 708q-27 0 -45.5 18t-18.5 43q0 32 20 46.5t43 14.5q24 0 44.5 -14.5t20.5 -46.5q0 -24 -18.5 -42.5t-45.5 -18.5z" />
    <glyph glyph-name="Igrave" unicode="&#xcc;" horiz-adv-x="269" 
d="M135 -5q-31 0 -45.5 13t-14.5 42v568q0 55 60 55q59 0 59 -55v-568q0 -29 -14.5 -42t-44.5 -13zM14 738q-20 7 -31 23t-11 35q0 15 6 26t14.5 18.5t18.5 11t18 3.5q12 0 22.5 -4t19.5 -10l108 -70q10 -6 18 -16.5t8 -23.5q0 -20 -15.5 -30t-32.5 -10q-10 0 -17 3z" />
    <glyph glyph-name="Iacute" unicode="&#xcd;" horiz-adv-x="269" 
d="M135 -5q-31 0 -45.5 13t-14.5 42v568q0 55 60 55q59 0 59 -55v-568q0 -29 -14.5 -42t-44.5 -13zM118 694q-8 -3 -17 -3q-16 0 -31.5 10t-15.5 30q0 13 7.5 23.5t17.5 16.5l108 70q9 6 19.5 10t22.5 4q8 0 18 -3.5t18.5 -11t14.5 -18.5t6 -26q0 -19 -11 -35t-31 -23z" />
    <glyph glyph-name="Icircumflex" unicode="&#xce;" horiz-adv-x="269" 
d="M135 -5q-31 0 -45.5 13t-14.5 42v568q0 55 60 55q59 0 59 -55v-568q0 -29 -14.5 -42t-44.5 -13zM139 882q17 0 37 -12l143 -91q18 -12 18 -32q0 -10 -4.5 -20t-11.5 -17.5t-16 -12t-17 -4.5q-15 0 -35 10l-114 60l-120 -64q-8 -5 -15.5 -6.5t-15.5 -1.5q-25 0 -38 17.5
t-13 36.5q0 22 19 34l146 91q11 7 19 9.5t18 2.5z" />
    <glyph glyph-name="Idieresis" unicode="&#xcf;" horiz-adv-x="269" 
d="M135 -5q-31 0 -45.5 13t-14.5 42v568q0 55 60 55q59 0 59 -55v-568q0 -29 -14.5 -42t-44.5 -13zM237 708q-27 0 -45.5 18t-18.5 43q0 32 20 46.5t43 14.5q24 0 44 -14.5t20 -46.5q0 -24 -18 -42.5t-45 -18.5zM30 708q-27 0 -45.5 18t-18.5 43q0 32 20 46.5t43 14.5
q24 0 44.5 -14.5t20.5 -46.5q0 -24 -18.5 -42.5t-45.5 -18.5z" />
    <glyph glyph-name="Ograve" unicode="&#xd2;" horiz-adv-x="588" 
d="M339 668q101 0 150 -54.5t49 -159.5v-241q0 -52 -15 -92t-41.5 -67t-62.5 -40.5t-79 -13.5h-93q-43 0 -79 11.5t-62.5 36.5t-41 65t-14.5 97v244q0 52 14.5 92t40.5 67t62.5 41t80.5 14h91zM420 466q0 40 -22 66.5t-73 26.5h-63q-48 0 -70.5 -26.5t-22.5 -66.5v-267
q0 -41 22.5 -66t70.5 -25h63q48 0 71.5 27.5t23.5 65.5v265zM187 738q-20 7 -31 23t-11 35q0 15 6 26t14.5 18.5t18.5 11t18 3.5q12 0 22.5 -4t19.5 -10l108 -70q10 -6 18 -16.5t8 -23.5q0 -20 -15.5 -30t-32.5 -10q-10 0 -17 3z" />
    <glyph glyph-name="Oacute" unicode="&#xd3;" horiz-adv-x="588" 
d="M339 668q101 0 150 -54.5t49 -159.5v-241q0 -52 -15 -92t-41.5 -67t-62.5 -40.5t-79 -13.5h-93q-43 0 -79 11.5t-62.5 36.5t-41 65t-14.5 97v244q0 52 14.5 92t40.5 67t62.5 41t80.5 14h91zM420 466q0 40 -22 66.5t-73 26.5h-63q-48 0 -70.5 -26.5t-22.5 -66.5v-267
q0 -41 22.5 -66t70.5 -25h63q48 0 71.5 27.5t23.5 65.5v265zM256 694q-8 -3 -17 -3q-16 0 -31.5 10t-15.5 30q0 13 7.5 23.5t17.5 16.5l108 70q9 6 19.5 10t22.5 4q8 0 18 -3.5t18.5 -11t14.5 -18.5t6 -26q0 -19 -11 -35t-31 -23z" />
    <glyph glyph-name="Ocircumflex" unicode="&#xd4;" horiz-adv-x="588" 
d="M339 668q101 0 150 -54.5t49 -159.5v-241q0 -52 -15 -92t-41.5 -67t-62.5 -40.5t-79 -13.5h-93q-43 0 -79 11.5t-62.5 36.5t-41 65t-14.5 97v244q0 52 14.5 92t40.5 67t62.5 41t80.5 14h91zM420 466q0 40 -22 66.5t-73 26.5h-63q-48 0 -70.5 -26.5t-22.5 -66.5v-267
q0 -41 22.5 -66t70.5 -25h63q48 0 71.5 27.5t23.5 65.5v265zM303 882q17 0 37 -12l143 -91q18 -12 18 -32q0 -10 -4.5 -20t-11.5 -17.5t-16 -12t-17 -4.5q-15 0 -35 10l-114 60l-120 -64q-8 -5 -15.5 -6.5t-15.5 -1.5q-25 0 -38 17.5t-13 36.5q0 22 19 34l146 91
q11 7 19 9.5t18 2.5z" />
    <glyph glyph-name="Otilde" unicode="&#xd5;" horiz-adv-x="588" 
d="M339 668q101 0 150 -54.5t49 -159.5v-241q0 -52 -15 -92t-41.5 -67t-62.5 -40.5t-79 -13.5h-93q-43 0 -79 11.5t-62.5 36.5t-41 65t-14.5 97v244q0 52 14.5 92t40.5 67t62.5 41t80.5 14h91zM420 466q0 40 -22 66.5t-73 26.5h-63q-48 0 -70.5 -26.5t-22.5 -66.5v-267
q0 -41 22.5 -66t70.5 -25h63q48 0 71.5 27.5t23.5 65.5v265zM218 827q19 0 39.5 -6.5t40 -14t35.5 -13.5t27 -6q12 0 19 6.5t13.5 14t14 14t21.5 6.5t24 -5.5t17 -13.5t10 -16t3 -12q0 -11 -4 -18q-19 -39 -50 -53.5t-57 -14.5q-18 0 -37 6t-37.5 13.5t-35.5 13.5t-32 6
q-9 0 -15.5 -6t-13.5 -13.5t-15 -13.5t-20 -6q-13 0 -23 5t-16.5 12.5t-10 15t-3.5 13.5q0 18 11 34t27 27.5t34.5 18t33.5 6.5z" />
    <glyph glyph-name="Oslash" unicode="&#xd8;" horiz-adv-x="588" 
d="M339 668q80 0 127 -35l13 17q10 14 24 14q15 0 25.5 -11.5t10.5 -20.5t-8 -20l-21 -29q28 -50 28 -129v-241q0 -52 -15 -92t-41.5 -67t-62.5 -40.5t-79 -13.5h-93q-37 0 -69 8t-57 27l-16 -22q-11 -14 -24 -14q-14 0 -24.5 10.5t-10.5 24.5q0 11 6 20l24 33
q-26 47 -26 123v244q0 52 14.5 92t40.5 67t62.5 41t80.5 14h91zM420 456l-229 -322q23 -26 71 -26h63q48 0 71.5 27.5t23.5 65.5v255zM169 217l227 317q-25 25 -71 25h-63q-48 0 -70.5 -26.5t-22.5 -66.5v-249z" />
    <glyph glyph-name="Ugrave" unicode="&#xd9;" horiz-adv-x="611" 
d="M433 619q0 16 6 27t14.5 17t19 8.5t19.5 2.5q8 0 18.5 -2.5t19.5 -8.5t15 -17t6 -28v-410q0 -52 -15.5 -91t-41.5 -65t-61 -39t-75 -13h-106q-39 0 -74 12.5t-61.5 37.5t-41.5 63.5t-15 91.5v413q0 17 6 28t15 17t19.5 8.5t19.5 2.5t19 -2.5t19 -9t15 -17.5t6 -27v-415
q0 -41 20.5 -63.5t57.5 -22.5h96q38 0 59 25t21 63v414zM206 738q-20 7 -31 23t-11 35q0 15 6 26t14.5 18.5t18.5 11t18 3.5q12 0 22.5 -4t19.5 -10l108 -70q10 -6 18 -16.5t8 -23.5q0 -20 -15.5 -30t-32.5 -10q-10 0 -17 3z" />
    <glyph glyph-name="Uacute" unicode="&#xda;" horiz-adv-x="611" 
d="M433 619q0 16 6 27t14.5 17t19 8.5t19.5 2.5q8 0 18.5 -2.5t19.5 -8.5t15 -17t6 -28v-410q0 -52 -15.5 -91t-41.5 -65t-61 -39t-75 -13h-106q-39 0 -74 12.5t-61.5 37.5t-41.5 63.5t-15 91.5v413q0 17 6 28t15 17t19.5 8.5t19.5 2.5t19 -2.5t19 -9t15 -17.5t6 -27v-415
q0 -41 20.5 -63.5t57.5 -22.5h96q38 0 59 25t21 63v414zM301 694q-8 -3 -17 -3q-16 0 -31.5 10t-15.5 30q0 13 7.5 23.5t17.5 16.5l108 70q9 6 19.5 10t22.5 4q8 0 18 -3.5t18.5 -11t14.5 -18.5t6 -26q0 -19 -11 -35t-31 -23z" />
    <glyph glyph-name="Ucircumflex" unicode="&#xdb;" horiz-adv-x="611" 
d="M433 619q0 16 6 27t14.5 17t19 8.5t19.5 2.5q8 0 18.5 -2.5t19.5 -8.5t15 -17t6 -28v-410q0 -52 -15.5 -91t-41.5 -65t-61 -39t-75 -13h-106q-39 0 -74 12.5t-61.5 37.5t-41.5 63.5t-15 91.5v413q0 17 6 28t15 17t19.5 8.5t19.5 2.5t19 -2.5t19 -9t15 -17.5t6 -27v-415
q0 -41 20.5 -63.5t57.5 -22.5h96q38 0 59 25t21 63v414zM308 882q17 0 37 -12l143 -91q18 -12 18 -32q0 -10 -4.5 -20t-11.5 -17.5t-16 -12t-17 -4.5q-15 0 -35 10l-114 60l-120 -64q-8 -5 -15.5 -6.5t-15.5 -1.5q-25 0 -38 17.5t-13 36.5q0 22 19 34l146 91q11 7 19 9.5
t18 2.5z" />
    <glyph glyph-name="Yacute" unicode="&#xdd;" horiz-adv-x="553" 
d="M282 385l150 259q9 16 21.5 23.5t26.5 7.5q25 0 44.5 -18t19.5 -41q0 -12 -6 -24l-198 -334v-208q0 -56 -60 -56q-28 0 -43.5 14.5t-15.5 41.5v210l-206 337q-5 10 -5 19q0 12 6 22.5t16 18.5t22.5 13t25.5 5q29 0 47 -31l151 -259h4zM268 694q-8 -3 -17 -3
q-16 0 -31.5 10t-15.5 30q0 13 7.5 23.5t17.5 16.5l108 70q9 6 19.5 10t22.5 4q8 0 18 -3.5t18.5 -11t14.5 -18.5t6 -26q0 -19 -11 -35t-31 -23z" />
    <glyph glyph-name="aacute" unicode="&#xe1;" horiz-adv-x="529" 
d="M190 190q-16 0 -25 -11t-9 -24v-3q0 -14 8.5 -25.5t25.5 -11.5h175v75h-175zM364 293v8q0 20 -14.5 37.5t-51.5 17.5h-137q-17 0 -33 11.5t-16 40.5t16 43.5t33 14.5h143q90 0 135.5 -45.5t45.5 -132.5v-227q0 -7 -3 -17.5t-10 -20t-18 -16.5t-27 -7h-257
q-27 0 -51.5 10.5t-43 30t-29 46.5t-10.5 61v9q0 27 9.5 51.5t27.5 43t44 30t60 11.5h187zM269 541q-15 -17 -38 -17q-21 0 -30.5 13t-9.5 25q0 16 8 29l63 112q8 15 22.5 26.5t34.5 11.5q25 0 42 -17.5t17 -40.5q0 -11 -4 -23t-13 -21z" />
    <glyph glyph-name="atilde" unicode="&#xe3;" horiz-adv-x="529" 
d="M190 190q-16 0 -25 -11t-9 -24v-3q0 -14 8.5 -25.5t25.5 -11.5h175v75h-175zM364 293v8q0 20 -14.5 37.5t-51.5 17.5h-137q-17 0 -33 11.5t-16 40.5t16 43.5t33 14.5h143q90 0 135.5 -45.5t45.5 -132.5v-227q0 -7 -3 -17.5t-10 -20t-18 -16.5t-27 -7h-257
q-27 0 -51.5 10.5t-43 30t-29 46.5t-10.5 61v9q0 27 9.5 51.5t27.5 43t44 30t60 11.5h187zM203 647q19 0 39.5 -6.5t40 -14t35.5 -13.5t27 -6q12 0 19 6.5t13.5 14t14 14t21.5 6.5t24 -5.5t17 -13.5t10 -16t3 -12q0 -11 -4 -18q-19 -39 -50 -53.5t-57 -14.5q-18 0 -37 6
t-37.5 13.5t-35.5 13.5t-32 6q-9 0 -15.5 -6t-13.5 -13.5t-15 -13.5t-20 -6q-13 0 -23 5t-16.5 12.5t-10 15t-3.5 13.5q0 18 11 34t27 27.5t34.5 18t33.5 6.5z" />
    <glyph glyph-name="aring" unicode="&#xe5;" horiz-adv-x="529" 
d="M190 190q-16 0 -25 -11t-9 -24v-3q0 -14 8.5 -25.5t25.5 -11.5h175v75h-175zM364 293v8q0 20 -14.5 37.5t-51.5 17.5h-137q-17 0 -33 11.5t-16 40.5t16 43.5t33 14.5h143q90 0 135.5 -45.5t45.5 -132.5v-227q0 -7 -3 -17.5t-10 -20t-18 -16.5t-27 -7h-257
q-27 0 -51.5 10.5t-43 30t-29 46.5t-10.5 61v9q0 27 9.5 51.5t27.5 43t44 30t60 11.5h187zM225 611q0 -18 12.5 -30.5t31.5 -12.5q17 0 29.5 12.5t12.5 30.5t-12.5 31t-29.5 13q-19 0 -31.5 -13t-12.5 -31zM149 611q0 25 9 46.5t25.5 37.5t38 25.5t47.5 9.5q24 0 45.5 -9.5
t37.5 -25.5t25.5 -37.5t9.5 -46.5t-9.5 -46.5t-25.5 -37.5t-37.5 -25.5t-45.5 -9.5q-26 0 -47.5 9.5t-38 25.5t-25.5 37.5t-9 46.5z" />
    <glyph glyph-name="igrave" unicode="&#xec;" horiz-adv-x="340" 
d="M197 -5q-30 0 -45 15t-15 32v312h-62q-17 0 -33 14.5t-16 41.5q0 29 16 42.5t33 13.5h123q28 0 43.5 -16t15.5 -36v-372q0 -17 -14.5 -32t-45.5 -15zM76 639q-17 19 -17 44q0 23 17 40.5t42 17.5q20 0 34.5 -11.5t22.5 -26.5l63 -112q8 -13 8 -29q0 -12 -9.5 -25
t-29.5 -13q-24 0 -39 17z" />
    <glyph glyph-name="iacute" unicode="&#xed;" horiz-adv-x="340" 
d="M197 -5q-30 0 -45 15t-15 32v312h-62q-17 0 -33 14.5t-16 41.5q0 29 16 42.5t33 13.5h123q28 0 43.5 -16t15.5 -36v-372q0 -17 -14.5 -32t-45.5 -15zM201 541q-15 -17 -38 -17q-21 0 -30.5 13t-9.5 25q0 16 8 29l63 112q8 15 22.5 26.5t34.5 11.5q25 0 42 -17.5t17 -40.5
q0 -11 -4 -23t-13 -21z" />
    <glyph glyph-name="eth" unicode="&#xf0;" horiz-adv-x="508" 
d="M439 603q22 -29 30.5 -64.5t8.5 -75.5v-281q0 -46 -16 -80.5t-42.5 -57t-61.5 -33.5t-74 -11h-59q-39 0 -72.5 11t-58.5 33.5t-39.5 57t-14.5 80.5v54q0 46 15 80.5t41 57.5t61.5 35t77.5 12h25q23 0 49.5 -5t48.5 -19v72q0 15 -2 28t-8 25l-36 -33q-19 -17 -34 -17
q-13 0 -25 12t-12 26q1 8 5.5 18t13.5 18l25 22q-16 5 -36 8.5t-46 5.5q-16 2 -32 13t-16 45q0 15 6 25t15 16t19.5 8.5t20.5 2.5q51 0 93.5 -12.5t69.5 -27.5l39 35q19 17 35 17q14 0 24.5 -11.5t10.5 -24.5q0 -9 -4.5 -19.5t-14.5 -18.5zM235 307q-41 0 -58 -20t-17 -55
v-48q0 -32 16.5 -51.5t57.5 -19.5h50q41 0 57.5 19.5t16.5 51.5v48q0 35 -17 55t-58 20h-48z" />
    <glyph glyph-name="ograve" unicode="&#xf2;" horiz-adv-x="518" 
d="M235 358q-41 0 -58 -20t-17 -55v-104q0 -32 16.5 -51.5t57.5 -19.5h50q41 0 57.5 19.5t16.5 51.5v104q0 35 -17 55t-58 20h-48zM225 0q-39 0 -72.5 11t-58.5 33.5t-39.5 57t-14.5 80.5v99q0 46 14 80.5t38.5 57.5t59 35t76.5 12h62q42 0 76.5 -12t59 -35t38.5 -57.5
t14 -80.5v-99q0 -46 -14.5 -80.5t-39.5 -57t-58.5 -33.5t-72.5 -11h-68zM150 639q-17 19 -17 44q0 23 17 40.5t42 17.5q20 0 34.5 -11.5t22.5 -26.5l63 -112q8 -13 8 -29q0 -12 -9.5 -25t-29.5 -13q-24 0 -39 17z" />
    <glyph glyph-name="oacute" unicode="&#xf3;" horiz-adv-x="518" 
d="M235 358q-41 0 -58 -20t-17 -55v-104q0 -32 16.5 -51.5t57.5 -19.5h50q41 0 57.5 19.5t16.5 51.5v104q0 35 -17 55t-58 20h-48zM225 0q-39 0 -72.5 11t-58.5 33.5t-39.5 57t-14.5 80.5v99q0 46 14 80.5t38.5 57.5t59 35t76.5 12h62q42 0 76.5 -12t59 -35t38.5 -57.5
t14 -80.5v-99q0 -46 -14.5 -80.5t-39.5 -57t-58.5 -33.5t-72.5 -11h-68zM271 541q-15 -17 -38 -17q-21 0 -30.5 13t-9.5 25q0 16 8 29l63 112q8 15 22.5 26.5t34.5 11.5q25 0 42 -17.5t17 -40.5q0 -11 -4 -23t-13 -21z" />
    <glyph glyph-name="oslash" unicode="&#xf8;" horiz-adv-x="518" 
d="M225 0q-62 0 -107 27l-17 -19q-12 -13 -22 -13q-9 0 -21.5 11t-12.5 21q0 8 11 21l17 19q-16 22 -24.5 50.5t-8.5 64.5v99q0 46 14 80.5t38.5 57.5t59 35t76.5 12h62q65 0 111 -29l18 20q12 13 24 13t21.5 -10t9.5 -20q0 -12 -10 -23l-19 -21q16 -22 24.5 -51t8.5 -64
v-99q0 -46 -14.5 -80.5t-39.5 -57t-58.5 -33.5t-72.5 -11h-68zM235 358q-41 0 -58 -20t-17 -55v-104v-13l164 184q-18 8 -41 8h-48zM358 283q0 9 -1 14l-162 -183q15 -6 39 -6h50q41 0 57.5 19.5t16.5 51.5v104z" />
    <glyph glyph-name="yacute" unicode="&#xfd;" horiz-adv-x="524" 
d="M479 -18q0 -49 -16 -83.5t-43 -57t-63 -33t-76 -10.5h-148q-17 0 -32.5 15t-15.5 43q0 29 15.5 42t32.5 13h147q40 0 59 20.5t19 55.5v13h-124q-91 0 -142.5 46t-51.5 139v239q0 17 14.5 32t45.5 15q29 0 45 -15t16 -32v-239q0 -39 23 -54t57 -15h117v308q0 17 15 32
t45 15q29 0 45 -15t16 -32v-442zM279 541q-15 -17 -38 -17q-21 0 -30.5 13t-9.5 25q0 16 8 29l63 112q8 15 22.5 26.5t34.5 11.5q25 0 42 -17.5t17 -40.5q0 -11 -4 -23t-13 -21z" />
    <glyph glyph-name="ydieresis" unicode="&#xff;" horiz-adv-x="524" 
d="M479 -18q0 -49 -16 -83.5t-43 -57t-63 -33t-76 -10.5h-148q-17 0 -32.5 15t-15.5 43q0 29 15.5 42t32.5 13h147q40 0 59 20.5t19 55.5v13h-124q-91 0 -142.5 46t-51.5 139v239q0 17 14.5 32t45.5 15q29 0 45 -15t16 -32v-239q0 -39 23 -54t57 -15h117v308q0 17 15 32
t45 15q29 0 45 -15t16 -32v-442zM367 535q-27 0 -45.5 18t-18.5 43q0 32 20 46.5t43 14.5q24 0 44 -14.5t20 -46.5q0 -24 -18 -42.5t-45 -18.5zM160 535q-27 0 -45.5 18t-18.5 43q0 32 20 46.5t43 14.5q24 0 44.5 -14.5t20.5 -46.5q0 -24 -18.5 -42.5t-45.5 -18.5z" />
    <glyph glyph-name="Amacron" unicode="&#x100;" horiz-adv-x="567" 
d="M281 474l-72 -214h148q-18 53 -35.5 106.5t-36.5 107.5h-4zM169 149l-40 -115q-13 -40 -53 -40q-32 0 -49 17t-17 39q0 5 1 11t3 11l193 547q8 21 20.5 35t40.5 14h30q27 0 40 -13.5t21 -35.5l194 -547q4 -9 4 -21q0 -23 -19 -40t-49 -17q-36 0 -52 41l-42 114h-226z
M181 706q-28 0 -44.5 11t-16.5 37t16.5 37.5t44.5 11.5h204q28 0 44.5 -11t16.5 -37t-16.5 -37.5t-44.5 -11.5h-204z" />
    <glyph glyph-name="amacron" unicode="&#x101;" horiz-adv-x="529" 
d="M190 190q-16 0 -25 -11t-9 -24v-3q0 -14 8.5 -25.5t25.5 -11.5h175v75h-175zM364 293v8q0 20 -14.5 37.5t-51.5 17.5h-137q-17 0 -33 11.5t-16 40.5t16 43.5t33 14.5h143q90 0 135.5 -45.5t45.5 -132.5v-227q0 -7 -3 -17.5t-10 -20t-18 -16.5t-27 -7h-257
q-27 0 -51.5 10.5t-43 30t-29 46.5t-10.5 61v9q0 27 9.5 51.5t27.5 43t44 30t60 11.5h187zM189 515q-28 0 -44.5 11t-16.5 37t16.5 37.5t44.5 11.5h204q28 0 44.5 -11t16.5 -37t-16.5 -37.5t-44.5 -11.5h-204z" />
    <glyph glyph-name="Abreve" unicode="&#x102;" horiz-adv-x="567" 
d="M281 474l-72 -214h148q-18 53 -35.5 106.5t-36.5 107.5h-4zM169 149l-40 -115q-13 -40 -53 -40q-32 0 -49 17t-17 39q0 5 1 11t3 11l193 547q8 21 20.5 35t40.5 14h30q27 0 40 -13.5t21 -35.5l194 -547q4 -9 4 -21q0 -23 -19 -40t-49 -17q-36 0 -52 41l-42 114h-226z
M283 800q26 0 49 18t44 49q8 12 19 17t22 5q22 0 35 -14t13 -28q0 -7 -2 -11q-15 -33 -36.5 -57t-45.5 -39.5t-49 -22.5t-46 -7q-24 0 -48.5 5t-48 18.5t-44.5 37.5t-37 61q-3 7 -3 14q0 13 13.5 29t36.5 16q11 0 22.5 -5t18.5 -16q23 -35 40.5 -52.5t46.5 -17.5z" />
    <glyph glyph-name="abreve" unicode="&#x103;" horiz-adv-x="529" 
d="M190 190q-16 0 -25 -11t-9 -24v-3q0 -14 8.5 -25.5t25.5 -11.5h175v75h-175zM364 293v8q0 20 -14.5 37.5t-51.5 17.5h-137q-17 0 -33 11.5t-16 40.5t16 43.5t33 14.5h143q90 0 135.5 -45.5t45.5 -132.5v-227q0 -7 -3 -17.5t-10 -20t-18 -16.5t-27 -7h-257
q-27 0 -51.5 10.5t-43 30t-29 46.5t-10.5 61v9q0 27 9.5 51.5t27.5 43t44 30t60 11.5h187zM271 608q26 0 49 18t44 49q8 12 19 17t22 5q22 0 35 -14t13 -28q0 -7 -2 -11q-15 -33 -36.5 -57t-45.5 -39.5t-49 -22.5t-46 -7q-24 0 -48.5 5t-48 18.5t-44.5 37.5t-37 61
q-3 7 -3 14q0 13 13.5 29t36.5 16q11 0 22.5 -5t18.5 -16q23 -35 40.5 -52.5t46.5 -17.5z" />
    <glyph glyph-name="Aogonek" unicode="&#x104;" horiz-adv-x="567" 
d="M169 149l-40 -115q-13 -40 -53 -40q-32 0 -49 17t-17 39q0 5 1 11t3 11l193 547q8 21 20.5 35t40.5 14h30q27 0 40 -13.5t21 -35.5l194 -547q4 -9 4 -21q0 -28 -23 -43q-25 -24 -38 -52.5t-13 -51.5q0 -16 10 -28t36 -12q6 0 14 2.5t16 5.5t15 5.5t11 2.5q13 0 23 -12
t10 -24q0 -14 -12 -23.5t-28 -15t-31.5 -8t-22.5 -2.5q-33 0 -56 9.5t-37.5 24.5t-21 33t-6.5 35q0 27 11 55.5t37 57.5q-8 9 -14 25l-42 114h-226zM281 474l-72 -214h148q-18 53 -35.5 106.5t-36.5 107.5h-4z" />
    <glyph glyph-name="aogonek" unicode="&#x105;" horiz-adv-x="529" 
d="M364 293v8q0 20 -14.5 37.5t-51.5 17.5h-137q-17 0 -33 11.5t-16 40.5t16 43.5t33 14.5h143q90 0 135.5 -45.5t45.5 -132.5v-227q0 -10 -6 -25.5t-20 -25.5q-26 -24 -40 -53.5t-14 -52.5q0 -16 10 -28t36 -12q6 0 14 2.5t16 5.5t15 5.5t11 2.5q13 0 23 -12t10 -24
q0 -14 -12 -23.5t-28 -15t-31.5 -8t-22.5 -2.5q-33 0 -56 9.5t-37.5 24.5t-21 33t-6.5 35q0 25 9 50.5t31 52.5h-195q-27 0 -51.5 10.5t-43 30t-29 46.5t-10.5 61v9q0 27 9.5 51.5t27.5 43t44 30t60 11.5h187zM190 190q-16 0 -25 -11t-9 -24v-3q0 -14 8.5 -25.5t25.5 -11.5
h175v75h-175z" />
    <glyph glyph-name="Cacute" unicode="&#x106;" horiz-adv-x="531" 
d="M242 0q-39 0 -74 12.5t-61.5 37.5t-41.5 63.5t-15 91.5v254q0 52 15.5 91t41.5 65.5t61.5 39.5t74.5 13h209q28 0 41 -15.5t13 -42.5t-13 -42.5t-41 -15.5h-205q-38 0 -58 -24t-20 -64v-261q0 -41 20.5 -63.5t57.5 -22.5l205 -1q27 0 40.5 -15.5t13.5 -42.5t-13.5 -42.5
t-40.5 -15.5h-210zM263 694q-8 -3 -17 -3q-16 0 -31.5 10t-15.5 30q0 13 7.5 23.5t17.5 16.5l108 70q9 6 19.5 10t22.5 4q8 0 18 -3.5t18.5 -11t14.5 -18.5t6 -26q0 -19 -11 -35t-31 -23z" />
    <glyph glyph-name="cacute" unicode="&#x107;" horiz-adv-x="443" 
d="M232 0q-43 0 -78 11t-60.5 33.5t-39.5 57t-14 80.5v99q0 46 14 80.5t38.5 57.5t59 35t76.5 12h141q17 0 33 -15.5t16 -42.5q0 -29 -16 -43.5t-33 -14.5h-134q-41 0 -58 -20t-17 -55v-88q0 -32 16 -52t58 -20h140q17 0 33 -14.5t16 -43.5q0 -27 -15.5 -42t-34.5 -15h-141z
M264 541q-15 -17 -38 -17q-21 0 -30.5 13t-9.5 25q0 16 8 29l63 112q8 15 22.5 26.5t34.5 11.5q25 0 42 -17.5t17 -40.5q0 -11 -4 -23t-13 -21z" />
    <glyph glyph-name="Ccircumflex" unicode="&#x108;" horiz-adv-x="531" 
d="M242 0q-39 0 -74 12.5t-61.5 37.5t-41.5 63.5t-15 91.5v254q0 52 15.5 91t41.5 65.5t61.5 39.5t74.5 13h209q28 0 41 -15.5t13 -42.5t-13 -42.5t-41 -15.5h-205q-38 0 -58 -24t-20 -64v-261q0 -41 20.5 -63.5t57.5 -22.5l205 -1q27 0 40.5 -15.5t13.5 -42.5t-13.5 -42.5
t-40.5 -15.5h-210zM288 882q17 0 37 -12l143 -91q18 -12 18 -32q0 -10 -4.5 -20t-11.5 -17.5t-16 -12t-17 -4.5q-15 0 -35 10l-114 60l-120 -64q-8 -5 -15.5 -6.5t-15.5 -1.5q-25 0 -38 17.5t-13 36.5q0 22 19 34l146 91q11 7 19 9.5t18 2.5z" />
    <glyph glyph-name="ccircumflex" unicode="&#x109;" horiz-adv-x="443" 
d="M232 0q-43 0 -78 11t-60.5 33.5t-39.5 57t-14 80.5v99q0 46 14 80.5t38.5 57.5t59 35t76.5 12h141q17 0 33 -15.5t16 -42.5q0 -29 -16 -43.5t-33 -14.5h-134q-41 0 -58 -20t-17 -55v-88q0 -32 16 -52t58 -20h140q17 0 33 -14.5t16 -43.5q0 -27 -15.5 -42t-34.5 -15h-141z
M233 719q8 0 16 -2t16 -9l128 -115q14 -12 14 -28q0 -20 -17.5 -33t-32.5 -13t-29 11l-98 81l-108 -83q-12 -9 -26 -9q-25 0 -38 15.5t-13 32.5q0 14 13 26l140 115q9 8 17.5 9.5t17.5 1.5z" />
    <glyph glyph-name="Cdotaccent" unicode="&#x10a;" horiz-adv-x="531" 
d="M242 0q-39 0 -74 12.5t-61.5 37.5t-41.5 63.5t-15 91.5v254q0 52 15.5 91t41.5 65.5t61.5 39.5t74.5 13h209q28 0 41 -15.5t13 -42.5t-13 -42.5t-41 -15.5h-205q-38 0 -58 -24t-20 -64v-261q0 -41 20.5 -63.5t57.5 -22.5l205 -1q27 0 40.5 -15.5t13.5 -42.5t-13.5 -42.5
t-40.5 -15.5h-210zM295 701q-27 0 -47 18.5t-20 45.5q0 32 21 48t45 16q26 0 47 -16t21 -48q0 -27 -19 -45.5t-48 -18.5z" />
    <glyph glyph-name="cdotaccent" unicode="&#x10b;" horiz-adv-x="443" 
d="M232 0q-43 0 -78 11t-60.5 33.5t-39.5 57t-14 80.5v99q0 46 14 80.5t38.5 57.5t59 35t76.5 12h141q17 0 33 -15.5t16 -42.5q0 -29 -16 -43.5t-33 -14.5h-134q-41 0 -58 -20t-17 -55v-88q0 -32 16 -52t58 -20h140q17 0 33 -14.5t16 -43.5q0 -27 -15.5 -42t-34.5 -15h-141z
M249 531q-27 0 -47 18.5t-20 45.5q0 32 21 48t45 16q26 0 47 -16t21 -48q0 -27 -19 -45.5t-48 -18.5z" />
    <glyph glyph-name="Ccaron" unicode="&#x10c;" horiz-adv-x="531" 
d="M242 0q-39 0 -74 12.5t-61.5 37.5t-41.5 63.5t-15 91.5v254q0 52 15.5 91t41.5 65.5t61.5 39.5t74.5 13h209q28 0 41 -15.5t13 -42.5t-13 -42.5t-41 -15.5h-205q-38 0 -58 -24t-20 -64v-261q0 -41 20.5 -63.5t57.5 -22.5l205 -1q27 0 40.5 -15.5t13.5 -42.5t-13.5 -42.5
t-40.5 -15.5h-210zM296 694q-9 1 -16 2.5t-17 7.5l-132 83q-18 11 -18 31q0 17 12.5 32.5t34.5 15.5q15 0 28 -7l108 -58l102 54q16 9 32 9q15 0 29.5 -14.5t14.5 -33.5t-16 -29l-129 -83q-16 -10 -33 -10z" />
    <glyph glyph-name="ccaron" unicode="&#x10d;" horiz-adv-x="443" 
d="M232 0q-43 0 -78 11t-60.5 33.5t-39.5 57t-14 80.5v99q0 46 14 80.5t38.5 57.5t59 35t76.5 12h141q17 0 33 -15.5t16 -42.5q0 -29 -16 -43.5t-33 -14.5h-134q-41 0 -58 -20t-17 -55v-88q0 -32 16 -52t58 -20h140q17 0 33 -14.5t16 -43.5q0 -27 -15.5 -42t-34.5 -15h-141z
M245 519q-9 0 -17.5 1.5t-17.5 9.5l-140 115q-14 12 -14 28t14 31.5t37 15.5q16 0 27 -10l108 -83l98 81q15 12 31 12q15 0 31.5 -13.5t16.5 -32.5q0 -17 -14 -29l-128 -115q-8 -7 -16 -9t-16 -2z" />
    <glyph glyph-name="Dcaron" unicode="&#x10e;" horiz-adv-x="622" 
d="M452 464q0 42 -21 65t-68 23h-183v-436h185q46 0 66.5 22.5t20.5 64.5v261zM121 0q-61 0 -61 58v552q0 58 61 58h267q40 0 73.5 -13t58 -38.5t38.5 -64.5t14 -91v-254q0 -51 -14.5 -89.5t-40.5 -65t-61 -39.5t-77 -13h-258zM298 694q-9 1 -16 2.5t-17 7.5l-132 83
q-18 11 -18 31q0 17 12.5 32.5t34.5 15.5q15 0 28 -7l108 -58l102 54q16 9 32 9q15 0 29.5 -14.5t14.5 -33.5t-16 -29l-129 -83q-16 -10 -33 -10z" />
    <glyph glyph-name="dcaron" unicode="&#x10f;" horiz-adv-x="644" 
d="M231 0q-86 0 -139 44.5t-53 134.5v101q0 46 14 80.5t38.5 58t59 35.5t76.5 12h135v185q0 17 14.5 31.5t44.5 14.5q29 0 45 -14.5t16 -31.5v-589q0 -9 -3 -20t-10 -20.5t-18 -15.5t-27 -6h-193zM159 186q0 -32 16.5 -51.5t57.5 -19.5h129v235h-128q-41 0 -58 -20t-17 -55
v-89zM596 504q-4 -9 -14.5 -17.5t-26.5 -8.5q-27 0 -38 15.5t-11 28.5v7l24 120q4 18 18 33t40 15q32 0 47 -18.5t15 -38.5q0 -11 -4 -19z" />
    <glyph glyph-name="Dcroat" unicode="&#x110;" horiz-adv-x="622" 
d="M121 0q-61 0 -61 58v220h-12q-29 0 -47 12t-18 39q0 28 18 40.5t47 12.5h12v228q0 58 61 58h267q40 0 73.5 -13t58 -38.5t38.5 -64.5t14 -91v-254q0 -51 -14.5 -89.5t-40.5 -65t-61 -39.5t-77 -13h-258zM180 278v-162h185q46 0 66.5 22.5t20.5 64.5v261q0 42 -21 65
t-68 23h-183v-170h87q30 0 48 -12t18 -39q0 -28 -18 -40.5t-48 -12.5h-87z" />
    <glyph glyph-name="dcroat" unicode="&#x111;" horiz-adv-x="528" 
d="M230 0q-86 0 -139 44.5t-53 134.5v71q0 46 14 80.5t38.5 58t59 35.5t76.5 12h135v60h-154q-43 0 -43 47t43 47h154v61q0 17 14.5 31.5t44.5 14.5q29 0 45 -14.5t16 -31.5v-61h12q46 0 46 -47t-46 -47h-12v-434q0 -9 -3 -20t-10 -20.5t-18 -15.5t-27 -6h-193zM158 186
q0 -32 16.5 -51.5t57.5 -19.5h129v205h-128q-41 0 -58 -20t-17 -55v-59z" />
    <glyph glyph-name="Emacron" unicode="&#x112;" horiz-adv-x="534" 
d="M121 0q-61 0 -61 58v552q0 58 61 58h331q27 0 40.5 -15.5t13.5 -42.5t-13.5 -42.5t-40.5 -15.5h-272v-142h230q27 0 39.5 -15.5t12.5 -42.5t-12.5 -42t-39.5 -15h-230v-179h272q27 0 40.5 -15.5t13.5 -42.5t-13.5 -42.5t-40.5 -15.5h-331zM179 706q-28 0 -44.5 11
t-16.5 37t16.5 37.5t44.5 11.5h204q28 0 44.5 -11t16.5 -37t-16.5 -37.5t-44.5 -11.5h-204z" />
    <glyph glyph-name="emacron" unicode="&#x113;" horiz-adv-x="500" 
d="M345 278q0 34 -19 53t-57 19h-36q-32 0 -52.5 -19t-20.5 -53v-6h185v6zM276 466q40 0 74.5 -12.5t60 -36t40 -58.5t14.5 -80v-39q0 -8 -3 -18.5t-10.5 -19.5t-19.5 -15.5t-31 -6.5h-241v-7q0 -29 21.5 -46t57.5 -17h133q17 0 33 -12t16 -41q0 -27 -16 -42t-33 -15h-147
q-40 0 -74 12t-58.5 34.5t-38.5 56t-14 76.5v100q0 44 14.5 79t39.5 59t59.5 36.5t75.5 12.5h47zM149 515q-28 0 -44.5 11t-16.5 37t16.5 37.5t44.5 11.5h204q28 0 44.5 -11t16.5 -37t-16.5 -37.5t-44.5 -11.5h-204z" />
    <glyph glyph-name="Ebreve" unicode="&#x114;" horiz-adv-x="534" 
d="M121 0q-61 0 -61 58v552q0 58 61 58h331q27 0 40.5 -15.5t13.5 -42.5t-13.5 -42.5t-40.5 -15.5h-272v-142h230q27 0 39.5 -15.5t12.5 -42.5t-12.5 -42t-39.5 -15h-230v-179h272q27 0 40.5 -15.5t13.5 -42.5t-13.5 -42.5t-40.5 -15.5h-331zM317 800q26 0 49 18t44 49
q8 12 19 17t22 5q22 0 35 -14t13 -28q0 -7 -2 -11q-15 -33 -36.5 -57t-45.5 -39.5t-49 -22.5t-46 -7q-24 0 -48.5 5t-48 18.5t-44.5 37.5t-37 61q-3 7 -3 14q0 13 13.5 29t36.5 16q11 0 22.5 -5t18.5 -16q23 -35 40.5 -52.5t46.5 -17.5z" />
    <glyph glyph-name="ebreve" unicode="&#x115;" horiz-adv-x="500" 
d="M345 278q0 34 -19 53t-57 19h-36q-32 0 -52.5 -19t-20.5 -53v-6h185v6zM276 466q40 0 74.5 -12.5t60 -36t40 -58.5t14.5 -80v-39q0 -8 -3 -18.5t-10.5 -19.5t-19.5 -15.5t-31 -6.5h-241v-7q0 -29 21.5 -46t57.5 -17h133q17 0 33 -12t16 -41q0 -27 -16 -42t-33 -15h-147
q-40 0 -74 12t-58.5 34.5t-38.5 56t-14 76.5v100q0 44 14.5 79t39.5 59t59.5 36.5t75.5 12.5h47zM251 608q26 0 49 18t44 49q8 12 19 17t22 5q22 0 35 -14t13 -28q0 -7 -2 -11q-15 -33 -36.5 -57t-45.5 -39.5t-49 -22.5t-46 -7q-24 0 -48.5 5t-48 18.5t-44.5 37.5t-37 61
q-3 7 -3 14q0 13 13.5 29t36.5 16q11 0 22.5 -5t18.5 -16q23 -35 40.5 -52.5t46.5 -17.5z" />
    <glyph glyph-name="Edotaccent" unicode="&#x116;" horiz-adv-x="534" 
d="M121 0q-61 0 -61 58v552q0 58 61 58h331q27 0 40.5 -15.5t13.5 -42.5t-13.5 -42.5t-40.5 -15.5h-272v-142h230q27 0 39.5 -15.5t12.5 -42.5t-12.5 -42t-39.5 -15h-230v-179h272q27 0 40.5 -15.5t13.5 -42.5t-13.5 -42.5t-40.5 -15.5h-331zM293 701q-27 0 -47 18.5
t-20 45.5q0 32 21 48t45 16q26 0 47 -16t21 -48q0 -27 -19 -45.5t-48 -18.5z" />
    <glyph glyph-name="edotaccent" unicode="&#x117;" horiz-adv-x="500" 
d="M345 278q0 34 -19 53t-57 19h-36q-32 0 -52.5 -19t-20.5 -53v-6h185v6zM276 466q40 0 74.5 -12.5t60 -36t40 -58.5t14.5 -80v-39q0 -8 -3 -18.5t-10.5 -19.5t-19.5 -15.5t-31 -6.5h-241v-7q0 -29 21.5 -46t57.5 -17h133q17 0 33 -12t16 -41q0 -27 -16 -42t-33 -15h-147
q-40 0 -74 12t-58.5 34.5t-38.5 56t-14 76.5v100q0 44 14.5 79t39.5 59t59.5 36.5t75.5 12.5h47zM256 531q-27 0 -47 18.5t-20 45.5q0 32 21 48t45 16q26 0 47 -16t21 -48q0 -27 -19 -45.5t-48 -18.5z" />
    <glyph glyph-name="Eogonek" unicode="&#x118;" horiz-adv-x="534" 
d="M506 58q0 -40 -27 -53q-27 -24 -41 -54t-14 -53q0 -16 10 -28t36 -12q6 0 14 2.5t16 5.5t15 5.5t11 2.5q13 0 23 -12t10 -24q0 -14 -12 -23.5t-28 -15t-31.5 -8t-22.5 -2.5q-33 0 -56 9.5t-37.5 24.5t-21 33t-6.5 35q0 26 10 53t34 56h-267q-61 0 -61 58v552q0 58 61 58
h331q27 0 40.5 -15.5t13.5 -42.5t-13.5 -42.5t-40.5 -15.5h-272v-142h230q27 0 39.5 -15.5t12.5 -42.5t-12.5 -42t-39.5 -15h-230v-179h272q27 0 40.5 -15.5t13.5 -42.5z" />
    <glyph glyph-name="eogonek" unicode="&#x119;" horiz-adv-x="500" 
d="M276 466q40 0 74.5 -12.5t60 -36t40 -58.5t14.5 -80v-39q0 -8 -3 -18.5t-10.5 -19.5t-19.5 -15.5t-31 -6.5h-241v-7q0 -29 21.5 -46t57.5 -17h133q17 0 33 -12t16 -41q0 -15 -5.5 -26.5t-13.5 -18.5q-28 -25 -42.5 -55.5t-14.5 -53.5q0 -16 10 -28t36 -12q6 0 14 2.5
t16 5.5t15 5.5t11 2.5q13 0 23 -12t10 -24q0 -14 -12 -23.5t-28 -15t-31.5 -8t-22.5 -2.5q-33 0 -56 9.5t-37.5 24.5t-21 33t-6.5 35q0 25 9 51t31 53h-80q-40 0 -74 12t-58.5 34.5t-38.5 56t-14 76.5v100q0 44 14.5 79t39.5 59t59.5 36.5t75.5 12.5h47zM345 278
q0 34 -19 53t-57 19h-36q-32 0 -52.5 -19t-20.5 -53v-6h185v6z" />
    <glyph glyph-name="Ecaron" unicode="&#x11a;" horiz-adv-x="534" 
d="M121 0q-61 0 -61 58v552q0 58 61 58h331q27 0 40.5 -15.5t13.5 -42.5t-13.5 -42.5t-40.5 -15.5h-272v-142h230q27 0 39.5 -15.5t12.5 -42.5t-12.5 -42t-39.5 -15h-230v-179h272q27 0 40.5 -15.5t13.5 -42.5t-13.5 -42.5t-40.5 -15.5h-331zM274 694q-9 1 -16 2.5t-17 7.5
l-132 83q-18 11 -18 31q0 17 12.5 32.5t34.5 15.5q15 0 28 -7l108 -58l102 54q16 9 32 9q15 0 29.5 -14.5t14.5 -33.5t-16 -29l-129 -83q-16 -10 -33 -10z" />
    <glyph glyph-name="ecaron" unicode="&#x11b;" horiz-adv-x="500" 
d="M345 278q0 34 -19 53t-57 19h-36q-32 0 -52.5 -19t-20.5 -53v-6h185v6zM276 466q40 0 74.5 -12.5t60 -36t40 -58.5t14.5 -80v-39q0 -8 -3 -18.5t-10.5 -19.5t-19.5 -15.5t-31 -6.5h-241v-7q0 -29 21.5 -46t57.5 -17h133q17 0 33 -12t16 -41q0 -27 -16 -42t-33 -15h-147
q-40 0 -74 12t-58.5 34.5t-38.5 56t-14 76.5v100q0 44 14.5 79t39.5 59t59.5 36.5t75.5 12.5h47zM260 519q-9 0 -17.5 1.5t-17.5 9.5l-140 115q-14 12 -14 28t14 31.5t37 15.5q16 0 27 -10l108 -83l98 81q15 12 31 12q15 0 31.5 -13.5t16.5 -32.5q0 -17 -14 -29l-128 -115
q-8 -7 -16 -9t-16 -2z" />
    <glyph glyph-name="Gcircumflex" unicode="&#x11c;" horiz-adv-x="587" 
d="M243 0q-39 0 -74.5 13t-61.5 39.5t-41.5 65t-15.5 89.5v254q0 52 16.5 91t43.5 64.5t61.5 38.5t71.5 13h212q28 0 42 -15.5t14 -42.5t-14 -42.5t-42 -15.5h-195q-47 0 -68.5 -23t-21.5 -65v-261q0 -42 22 -64.5t68 -22.5h162v179h-83q-27 0 -41 15.5t-14 42.5t14 42
t41 15h143q27 0 43.5 -11t16.5 -46v-295q0 -27 -14 -42.5t-44 -15.5h-241zM291 882q17 0 37 -12l143 -91q18 -12 18 -32q0 -10 -4.5 -20t-11.5 -17.5t-16 -12t-17 -4.5q-15 0 -35 10l-114 60l-120 -64q-8 -5 -15.5 -6.5t-15.5 -1.5q-25 0 -38 17.5t-13 36.5q0 22 19 34
l146 91q11 7 19 9.5t18 2.5z" />
    <glyph glyph-name="gcircumflex" unicode="&#x11d;" horiz-adv-x="528" 
d="M481 -20q0 -89 -53.5 -135.5t-144.5 -46.5h-146q-17 0 -33.5 15t-16.5 43q0 29 16.5 42t33.5 13h145q79 0 79 74v15h-135q-42 0 -76.5 11.5t-59 35t-38.5 58t-14 80.5v100q0 45 14.5 79t40 57t61 34.5t76.5 11.5h193q16 0 27 -6t18 -15.5t10 -20.5t3 -20v-425zM158 192
q0 -35 17 -55t58 -20h128v235h-129q-41 0 -57.5 -19.5t-16.5 -51.5v-89zM259 719q8 0 16 -2t16 -9l128 -115q14 -12 14 -28q0 -20 -17.5 -33t-32.5 -13t-29 11l-98 81l-108 -83q-12 -9 -26 -9q-25 0 -38 15.5t-13 32.5q0 14 13 26l140 115q9 8 17.5 9.5t17.5 1.5z" />
    <glyph glyph-name="Gbreve" unicode="&#x11e;" horiz-adv-x="587" 
d="M243 0q-39 0 -74.5 13t-61.5 39.5t-41.5 65t-15.5 89.5v254q0 52 16.5 91t43.5 64.5t61.5 38.5t71.5 13h212q28 0 42 -15.5t14 -42.5t-14 -42.5t-42 -15.5h-195q-47 0 -68.5 -23t-21.5 -65v-261q0 -42 22 -64.5t68 -22.5h162v179h-83q-27 0 -41 15.5t-14 42.5t14 42
t41 15h143q27 0 43.5 -11t16.5 -46v-295q0 -27 -14 -42.5t-44 -15.5h-241zM316 800q26 0 49 18t44 49q8 12 19 17t22 5q22 0 35 -14t13 -28q0 -7 -2 -11q-15 -33 -36.5 -57t-45.5 -39.5t-49 -22.5t-46 -7q-24 0 -48.5 5t-48 18.5t-44.5 37.5t-37 61q-3 7 -3 14q0 13 13.5 29
t36.5 16q11 0 22.5 -5t18.5 -16q23 -35 40.5 -52.5t46.5 -17.5z" />
    <glyph glyph-name="gbreve" unicode="&#x11f;" horiz-adv-x="528" 
d="M481 -20q0 -89 -53.5 -135.5t-144.5 -46.5h-146q-17 0 -33.5 15t-16.5 43q0 29 16.5 42t33.5 13h145q79 0 79 74v15h-135q-42 0 -76.5 11.5t-59 35t-38.5 58t-14 80.5v100q0 45 14.5 79t40 57t61 34.5t76.5 11.5h193q16 0 27 -6t18 -15.5t10 -20.5t3 -20v-425zM158 192
q0 -35 17 -55t58 -20h128v235h-129q-41 0 -57.5 -19.5t-16.5 -51.5v-89zM264 608q26 0 49 18t44 49q8 12 19 17t22 5q22 0 35 -14t13 -28q0 -7 -2 -11q-15 -33 -36.5 -57t-45.5 -39.5t-49 -22.5t-46 -7q-24 0 -48.5 5t-48 18.5t-44.5 37.5t-37 61q-3 7 -3 14q0 13 13.5 29
t36.5 16q11 0 22.5 -5t18.5 -16q23 -35 40.5 -52.5t46.5 -17.5z" />
    <glyph glyph-name="Gdotaccent" unicode="&#x120;" horiz-adv-x="587" 
d="M243 0q-39 0 -74.5 13t-61.5 39.5t-41.5 65t-15.5 89.5v254q0 52 16.5 91t43.5 64.5t61.5 38.5t71.5 13h212q28 0 42 -15.5t14 -42.5t-14 -42.5t-42 -15.5h-195q-47 0 -68.5 -23t-21.5 -65v-261q0 -42 22 -64.5t68 -22.5h162v179h-83q-27 0 -41 15.5t-14 42.5t14 42
t41 15h143q27 0 43.5 -11t16.5 -46v-295q0 -27 -14 -42.5t-44 -15.5h-241zM318 701q-27 0 -47 18.5t-20 45.5q0 32 21 48t45 16q26 0 47 -16t21 -48q0 -27 -19 -45.5t-48 -18.5z" />
    <glyph glyph-name="gdotaccent" unicode="&#x121;" horiz-adv-x="528" 
d="M481 -20q0 -89 -53.5 -135.5t-144.5 -46.5h-146q-17 0 -33.5 15t-16.5 43q0 29 16.5 42t33.5 13h145q79 0 79 74v15h-135q-42 0 -76.5 11.5t-59 35t-38.5 58t-14 80.5v100q0 45 14.5 79t40 57t61 34.5t76.5 11.5h193q16 0 27 -6t18 -15.5t10 -20.5t3 -20v-425zM158 192
q0 -35 17 -55t58 -20h128v235h-129q-41 0 -57.5 -19.5t-16.5 -51.5v-89zM287 531q-27 0 -47 18.5t-20 45.5q0 32 21 48t45 16q26 0 47 -16t21 -48q0 -27 -19 -45.5t-48 -18.5z" />
    <glyph glyph-name="Gcommaaccent" unicode="&#x122;" horiz-adv-x="587" 
d="M243 0q-39 0 -74.5 13t-61.5 39.5t-41.5 65t-15.5 89.5v254q0 52 16.5 91t43.5 64.5t61.5 38.5t71.5 13h212q28 0 42 -15.5t14 -42.5t-14 -42.5t-42 -15.5h-195q-47 0 -68.5 -23t-21.5 -65v-261q0 -42 22 -64.5t68 -22.5h162v179h-83q-27 0 -41 15.5t-14 42.5t14 42
t41 15h143q27 0 43.5 -11t16.5 -46v-295q0 -27 -14 -42.5t-44 -15.5h-241zM317 -224q-4 -9 -14.5 -17.5t-26.5 -8.5q-27 0 -38 15.5t-11 28.5v7l24 120q4 18 18 33t40 15q32 0 47 -18.5t15 -38.5q0 -11 -4 -19z" />
    <glyph glyph-name="gcommaaccent" unicode="&#x123;" horiz-adv-x="528" 
d="M287 721q4 9 14.5 17.5t26.5 8.5q27 0 38.5 -15.5t11.5 -28.5q0 -5 -1 -7l-24 -120q-4 -18 -18 -33t-40 -15q-32 0 -47 18.5t-15 38.5q0 5 1 9.5t3 9.5zM481 -20q0 -89 -53.5 -135.5t-144.5 -46.5h-146q-17 0 -33.5 15t-16.5 43q0 29 16.5 42t33.5 13h145q79 0 79 74v15
h-135q-42 0 -76.5 11.5t-59 35t-38.5 58t-14 80.5v100q0 45 14.5 79t40 57t61 34.5t76.5 11.5h193q16 0 27 -6t18 -15.5t10 -20.5t3 -20v-425zM158 192q0 -35 17 -55t58 -20h128v235h-129q-41 0 -57.5 -19.5t-16.5 -51.5v-89z" />
    <glyph glyph-name="Hcircumflex" unicode="&#x124;" horiz-adv-x="592" 
d="M477 -5q-30 0 -44.5 13t-14.5 42v245h-244v-245q0 -29 -14.5 -42t-44.5 -13q-31 0 -45.5 13t-14.5 42v568q0 55 60 55q59 0 59 -55v-208h244v208q0 55 59 55q60 0 60 -55v-568q0 -29 -14.5 -42t-45.5 -13zM298 882q17 0 37 -12l143 -91q18 -12 18 -32q0 -10 -4.5 -20
t-11.5 -17.5t-16 -12t-17 -4.5q-15 0 -35 10l-114 60l-120 -64q-8 -5 -15.5 -6.5t-15.5 -1.5q-25 0 -38 17.5t-13 36.5q0 22 19 34l146 91q11 7 19 9.5t18 2.5z" />
    <glyph glyph-name="hcircumflex" unicode="&#x125;" horiz-adv-x="523" 
d="M424 -5q-29 0 -44.5 15t-15.5 32v239q0 39 -23 54t-57 15h-117v-308q0 -17 -14.5 -32t-44.5 -15q-29 0 -45.5 15t-16.5 32v608q0 17 16 32t45 15q30 0 45 -15t15 -32v-184h127q87 0 138.5 -46.5t51.5 -138.5v-238q0 -17 -14.5 -32.5t-45.5 -15.5zM106 882q17 0 37 -12
l143 -91q18 -12 18 -32q0 -10 -4.5 -20t-11.5 -17.5t-16 -12t-17 -4.5q-15 0 -35 10l-114 60l-120 -64q-8 -5 -15.5 -6.5t-15.5 -1.5q-25 0 -38 17.5t-13 36.5q0 22 19 34l146 91q11 7 19 9.5t18 2.5z" />
    <glyph glyph-name="Hbar" unicode="&#x126;" horiz-adv-x="592" 
d="M477 -5q-30 0 -44.5 13t-14.5 42v245h-244v-245q0 -29 -14.5 -42t-44.5 -13q-31 0 -45.5 13t-14.5 42v456h-18q-37 0 -37 41t37 41h18v30q0 55 60 55q59 0 59 -55v-30h244v30q0 55 59 55q60 0 60 -55v-30h18q37 0 37 -41t-37 -41h-18v-456q0 -29 -14.5 -42t-45.5 -13z
M418 410v96h-244v-96h244z" />
    <glyph glyph-name="hbar" unicode="&#x127;" horiz-adv-x="523" 
d="M-10 547q0 41 37 41h19v62q0 17 16 32t45 15q30 0 45 -15t15 -32v-62h180q37 0 37 -41t-37 -41h-180v-70h127q87 0 138.5 -46.5t51.5 -138.5v-208q0 -17 -14.5 -32.5t-45.5 -15.5q-29 0 -44.5 15t-15.5 32v209q0 39 -23 54t-57 15h-117v-278q0 -17 -14.5 -32t-44.5 -15
q-29 0 -45.5 15t-16.5 32v464h-19q-37 0 -37 41z" />
    <glyph glyph-name="Itilde" unicode="&#x128;" horiz-adv-x="269" 
d="M135 -5q-31 0 -45.5 13t-14.5 42v568q0 55 60 55q59 0 59 -55v-568q0 -29 -14.5 -42t-44.5 -13zM58 817q19 0 39.5 -6.5t40 -14t35.5 -13.5t27 -6q12 0 19 6.5t13.5 14t14 14t21.5 6.5t24 -5.5t17 -13.5t10 -16t3 -12q0 -11 -4 -18q-19 -39 -50 -53.5t-57 -14.5
q-18 0 -37 6t-37.5 13.5t-35.5 13.5t-32 6q-9 0 -15.5 -6t-13.5 -13.5t-15 -13.5t-20 -6q-13 0 -23 5t-16.5 12.5t-10 15t-3.5 13.5q0 18 11 34t27 27.5t34.5 18t33.5 6.5z" />
    <glyph glyph-name="itilde" unicode="&#x129;" horiz-adv-x="354" 
d="M211 -5q-30 0 -45 15t-15 32v312h-62q-17 0 -33 14.5t-16 41.5q0 29 16 42.5t33 13.5h123q28 0 43.5 -16t15.5 -36v-372q0 -17 -14.5 -32t-45.5 -15zM98 647q19 0 39.5 -6.5t40 -14t35.5 -13.5t27 -6q12 0 19 6.5t13.5 14t14 14t21.5 6.5t24 -5.5t17 -13.5t10 -16t3 -12
q0 -11 -4 -18q-19 -39 -50 -53.5t-57 -14.5q-18 0 -37 6t-37.5 13.5t-35.5 13.5t-32 6q-9 0 -15.5 -6t-13.5 -13.5t-15 -13.5t-20 -6q-13 0 -23 5t-16.5 12.5t-10 15t-3.5 13.5q0 18 11 34t27 27.5t34.5 18t33.5 6.5z" />
    <glyph glyph-name="Imacron" unicode="&#x12a;" horiz-adv-x="299" 
d="M151 -5q-31 0 -45.5 13t-14.5 42v568q0 55 60 55q59 0 59 -55v-568q0 -29 -14.5 -42t-44.5 -13zM48 706q-28 0 -44.5 11t-16.5 37t16.5 37.5t44.5 11.5h204q28 0 44.5 -11t16.5 -37t-16.5 -37.5t-44.5 -11.5h-204z" />
    <glyph glyph-name="imacron" unicode="&#x12b;" horiz-adv-x="340" 
d="M197 -5q-30 0 -45 15t-15 32v312h-62q-17 0 -33 14.5t-16 41.5q0 29 16 42.5t33 13.5h123q28 0 43.5 -16t15.5 -36v-372q0 -17 -14.5 -32t-45.5 -15zM55 515q-28 0 -44.5 11t-16.5 37t16.5 37.5t44.5 11.5h204q28 0 44.5 -11t16.5 -37t-16.5 -37.5t-44.5 -11.5h-204z" />
    <glyph glyph-name="Ibreve" unicode="&#x12c;" horiz-adv-x="327" 
d="M169 -5q-31 0 -45.5 13t-14.5 42v568q0 55 60 55q59 0 59 -55v-568q0 -29 -14.5 -42t-44.5 -13zM164 800q26 0 49 18t44 49q8 12 19 17t22 5q22 0 35 -14t13 -28q0 -7 -2 -11q-15 -33 -36.5 -57t-45.5 -39.5t-49 -22.5t-46 -7q-24 0 -48.5 5t-48 18.5t-44.5 37.5t-37 61
q-3 7 -3 14q0 13 13.5 29t36.5 16q11 0 22.5 -5t18.5 -16q23 -35 40.5 -52.5t46.5 -17.5z" />
    <glyph glyph-name="ibreve" unicode="&#x12d;" horiz-adv-x="340" 
d="M197 -5q-30 0 -45 15t-15 32v312h-62q-17 0 -33 14.5t-16 41.5q0 29 16 42.5t33 13.5h123q28 0 43.5 -16t15.5 -36v-372q0 -17 -14.5 -32t-45.5 -15zM173 614q26 0 49 18t44 49q8 12 19 17t22 5q22 0 35 -14t13 -28q0 -7 -2 -11q-15 -33 -36.5 -57t-45.5 -39.5t-49 -22.5
t-46 -7q-24 0 -48.5 5t-48 18.5t-44.5 37.5t-37 61q-3 7 -3 14q0 13 13.5 29t36.5 16q11 0 22.5 -5t18.5 -16q23 -35 40.5 -52.5t46.5 -17.5z" />
    <glyph glyph-name="Iogonek" unicode="&#x12e;" horiz-adv-x="269" 
d="M194 50q0 -36 -23 -48q-23 -23 -34.5 -50.5t-11.5 -48.5q0 -16 10 -28t36 -12q6 0 14 2.5t16 5.5t15 5.5t11 2.5q13 0 23 -12t10 -24q0 -14 -12 -23.5t-28 -15t-31.5 -8t-22.5 -2.5q-33 0 -56 9.5t-37.5 24.5t-21 33t-6.5 35q0 26 10.5 53.5t35.5 56.5q-16 13 -16 44v568
q0 55 60 55q59 0 59 -55v-568v0z" />
    <glyph glyph-name="iogonek" unicode="&#x12f;" horiz-adv-x="340" 
d="M257 42q0 -22 -20 -36q-24 -24 -36.5 -52t-12.5 -50q0 -16 10 -28t36 -12q6 0 14 2.5t16 5.5t15 5.5t11 2.5q13 0 23 -12t10 -24q0 -14 -12 -23.5t-28 -15t-31.5 -8t-22.5 -2.5q-33 0 -56 9.5t-37.5 24.5t-21 33t-6.5 35q0 26 10.5 54t35.5 57q-17 14 -17 34v312h-62
q-17 0 -33 14.5t-16 41.5q0 29 16 42.5t33 13.5h123q28 0 43.5 -16t15.5 -36v-372zM194 535q-29 0 -49.5 19t-20.5 48q0 33 21.5 50t47.5 17q27 0 49 -17t22 -50q0 -29 -20 -48t-50 -19z" />
    <glyph glyph-name="Idotaccent" unicode="&#x130;" horiz-adv-x="269" 
d="M135 -5q-31 0 -45.5 13t-14.5 42v568q0 55 60 55q59 0 59 -55v-568q0 -29 -14.5 -42t-44.5 -13zM133 701q-27 0 -47 18.5t-20 45.5q0 32 21 48t45 16q26 0 47 -16t21 -48q0 -27 -19 -45.5t-48 -18.5z" />
    <glyph glyph-name="IJ" unicode="&#x132;" horiz-adv-x="670" 
d="M133 -5q-31 0 -45.5 13t-14.5 42v568q0 55 60 55q59 0 59 -55v-568q0 -29 -14.5 -42t-44.5 -13zM300 0q-31 0 -44.5 14.5t-13.5 43.5q0 31 16.5 44.5t44.5 13.5h86q39 0 60.5 24.5t21.5 63.5v348h-114q-27 0 -40.5 15.5t-13.5 42.5t13.5 42.5t40.5 15.5h172q61 0 61 -58
v-403q0 -34 -9.5 -70.5t-31.5 -67t-59.5 -50t-92.5 -19.5h-97z" />
    <glyph glyph-name="ij" unicode="&#x133;" horiz-adv-x="608" 
d="M297 -202q-18 0 -33.5 15.5t-15.5 42.5q0 29 16 43t33 14h49q33 0 54 17.5t21 55.5v434q0 17 15 32t45 15q31 0 45.5 -15t14.5 -32v-439q0 -91 -50 -137t-138 -46h-56zM476 535q-29 0 -50 19t-21 48q0 35 22 51.5t48 16.5t47.5 -16.5t21.5 -51.5q0 -29 -19.5 -48
t-48.5 -19zM195 535q-29 0 -49.5 19t-20.5 48q0 33 21.5 50t47.5 17q27 0 49 -17t22 -50q0 -29 -20 -48t-50 -19zM198 -5q-30 0 -45 15t-15 32v312h-62q-17 0 -33 14.5t-16 41.5q0 29 16 42.5t33 13.5h123q28 0 43.5 -16t15.5 -36v-372q0 -17 -14.5 -32t-45.5 -15z" />
    <glyph glyph-name="Jcircumflex" unicode="&#x134;" horiz-adv-x="433" 
d="M63 1q-31 0 -44.5 14.5t-13.5 43.5q0 31 16.5 44.5t44.5 13.5h86q39 0 60.5 24.5t21.5 63.5v348h-114q-27 0 -40.5 15.5t-13.5 42.5t13.5 42.5t40.5 15.5h172q61 0 61 -58v-403q0 -34 -9.5 -70.5t-31.5 -67t-59.5 -50t-92.5 -19.5h-97zM223 884q17 0 37 -12l143 -91
q18 -12 18 -32q0 -10 -4.5 -20t-11.5 -17.5t-16 -12t-17 -4.5q-15 0 -35 10l-114 60l-120 -64q-8 -5 -15.5 -6.5t-15.5 -1.5q-25 0 -38 17.5t-13 36.5q0 22 19 34l146 91q11 7 19 9.5t18 2.5z" />
    <glyph glyph-name="jcircumflex" unicode="&#x135;" horiz-adv-x="349" 
d="M38 -202q-18 0 -33.5 15.5t-15.5 42.5q0 29 16 43t33 14h49q33 0 54 17.5t21 55.5v368h-62q-17 0 -33 14t-16 42q0 29 16 42.5t33 13.5h123q26 0 42.5 -14.5t16.5 -41.5v-429q0 -91 -50 -137t-138 -46h-56zM183 719q8 0 16 -2t16 -9l128 -115q14 -12 14 -28
q0 -20 -17.5 -33t-32.5 -13t-29 11l-98 81l-108 -83q-12 -9 -26 -9q-25 0 -38 15.5t-13 32.5q0 14 13 26l140 115q9 8 17.5 9.5t17.5 1.5z" />
    <glyph glyph-name="Kcommaaccent" unicode="&#x136;" horiz-adv-x="555" 
d="M182 411l251 234q27 25 54 25q9 0 19 -4t18.5 -11.5t14 -18t5.5 -23.5q0 -23 -16 -38l-214 -195q53 -71 107.5 -145.5t107.5 -146.5q13 -18 13 -36q0 -13 -5.5 -23t-14.5 -17.5t-19.5 -11.5t-20.5 -4q-15 0 -29 7t-24 21l-203 279l-47 -42v-208q0 -58 -59 -58
q-60 0 -60 58v562q0 58 60 58q59 0 59 -58v-204h3zM303 -204q-4 -9 -14.5 -17.5t-26.5 -8.5q-27 0 -38 15.5t-11 28.5v7l24 120q4 18 18 33t40 15q32 0 47 -18.5t15 -38.5q0 -11 -4 -19z" />
    <glyph glyph-name="kcommaaccent" unicode="&#x137;" horiz-adv-x="461" 
d="M430 7q-20 -12 -38 -12q-17 0 -30.5 8t-21.5 22l-119 216l-57 -39v-160q0 -17 -14 -32t-45 -15q-29 0 -44.5 15t-15.5 32v608q0 17 15.5 32t44.5 15q31 0 45 -15t14 -32v-317l178 129q9 7 19.5 10t19.5 3q23 0 41.5 -16t18.5 -41q-1 -11 -6.5 -23t-17.5 -20l-98 -68
l129 -229q7 -11 7 -24q0 -16 -8 -28.5t-17 -18.5zM263 -224q-4 -9 -14.5 -17.5t-26.5 -8.5q-27 0 -38 15.5t-11 28.5v7l24 120q4 18 18 33t40 15q32 0 47 -18.5t15 -38.5q0 -11 -4 -19z" />
    <glyph glyph-name="kgreenlandic" unicode="&#x138;" horiz-adv-x="461" 
d="M430 7q-20 -12 -38 -12q-17 0 -30.5 8t-21.5 22l-119 216l-57 -39v-160q0 -17 -14 -32t-45 -15q-29 0 -44.5 15t-15.5 32v387q0 17 15.5 32t44.5 15q31 0 45 -15t14 -32v-96l178 129q9 7 19.5 10t19.5 3q23 0 41.5 -16t18.5 -41q-1 -11 -6.5 -23t-17.5 -20l-98 -68
l129 -229q7 -11 7 -24q0 -16 -8 -28.5t-17 -18.5z" />
    <glyph glyph-name="Lacute" unicode="&#x139;" horiz-adv-x="511" 
d="M121 0q-61 0 -61 58v557q0 58 61 58q59 0 59 -58v-499h271q27 0 41 -15.5t14 -42.5t-14 -42.5t-41 -15.5h-330zM122 694q-8 -3 -17 -3q-16 0 -31.5 10t-15.5 30q0 13 7.5 23.5t17.5 16.5l108 70q9 6 19.5 10t22.5 4q8 0 18 -3.5t18.5 -11t14.5 -18.5t6 -26q0 -19 -11 -35
t-31 -23z" />
    <glyph glyph-name="lacute" unicode="&#x13a;" horiz-adv-x="321" 
d="M184 181q0 -29 15.5 -49.5t52.5 -20.5h14q26 0 39.5 -15.5t13.5 -42.5q0 -28 -16 -42.5t-37 -14.5h-25q-82 0 -129 46t-47 140v468q0 17 14 32t45 15q29 0 44.5 -15t15.5 -32v-469zM113 714q-8 -3 -17 -3q-16 0 -31.5 10t-15.5 30q0 13 7.5 23.5t17.5 16.5l108 70
q9 6 19.5 10t22.5 4q8 0 18 -3.5t18.5 -11t14.5 -18.5t6 -26q0 -19 -11 -35t-31 -23z" />
    <glyph glyph-name="Lcommaaccent" unicode="&#x13b;" horiz-adv-x="511" 
d="M121 0q-61 0 -61 58v557q0 58 61 58q59 0 59 -58v-499h271q27 0 41 -15.5t14 -42.5t-14 -42.5t-41 -15.5h-330zM273 -224q-4 -9 -14.5 -17.5t-26.5 -8.5q-27 0 -38 15.5t-11 28.5v7l24 120q4 18 18 33t40 15q32 0 47 -18.5t15 -38.5q0 -11 -4 -19z" />
    <glyph glyph-name="lcommaaccent" unicode="&#x13c;" horiz-adv-x="321" 
d="M184 181q0 -29 15.5 -49.5t52.5 -20.5h14q26 0 39.5 -15.5t13.5 -42.5q0 -28 -16 -42.5t-37 -14.5h-25q-82 0 -129 46t-47 140v468q0 17 14 32t45 15q29 0 44.5 -15t15.5 -32v-469zM166 -224q-4 -9 -14.5 -17.5t-26.5 -8.5q-27 0 -38 15.5t-11 28.5v7l24 120q4 18 18 33
t40 15q32 0 47 -18.5t15 -38.5q0 -11 -4 -19z" />
    <glyph glyph-name="Lcaron" unicode="&#x13d;" horiz-adv-x="511" 
d="M121 0q-61 0 -61 58v557q0 58 61 58q59 0 59 -58v-499h271q27 0 41 -15.5t14 -42.5t-14 -42.5t-41 -15.5h-330zM380 481q-4 -9 -14.5 -17.5t-26.5 -8.5q-27 0 -38 15.5t-11 28.5v7l24 120q4 18 18 33t40 15q32 0 47 -18.5t15 -38.5q0 -11 -4 -19z" />
    <glyph glyph-name="lcaron" unicode="&#x13e;" horiz-adv-x="412" 
d="M184 181q0 -29 15.5 -49.5t52.5 -20.5h14q26 0 39.5 -15.5t13.5 -42.5q0 -28 -16 -42.5t-37 -14.5h-25q-82 0 -129 46t-47 140v468q0 17 14 32t45 15q29 0 44.5 -15t15.5 -32v-469zM348 504q-4 -9 -14.5 -17.5t-26.5 -8.5q-27 0 -38 15.5t-11 28.5v7l24 120q4 18 18 33
t40 15q32 0 47 -18.5t15 -38.5q0 -11 -4 -19z" />
    <glyph glyph-name="Ldot" unicode="&#x13f;" horiz-adv-x="511" 
d="M121 0q-61 0 -61 58v557q0 58 61 58q59 0 59 -58v-499h271q27 0 41 -15.5t14 -42.5t-14 -42.5t-41 -15.5h-330zM340 295q-27 0 -47 18.5t-20 45.5q0 32 21 48t45 16q26 0 47 -16t21 -48q0 -27 -19 -45.5t-48 -18.5z" />
    <glyph glyph-name="ldot" unicode="&#x140;" horiz-adv-x="412" 
d="M308 295q-27 0 -47 18.5t-20 45.5q0 32 21 48t45 16q26 0 47 -16t21 -48q0 -27 -19 -45.5t-48 -18.5zM184 181q0 -29 15.5 -49.5t52.5 -20.5h14q26 0 39.5 -15.5t13.5 -42.5q0 -28 -16 -42.5t-37 -14.5h-25q-82 0 -129 46t-47 140v468q0 17 14 32t45 15q29 0 44.5 -15
t15.5 -32v-469z" />
    <glyph glyph-name="Lslash" unicode="&#x141;" horiz-adv-x="511" 
d="M121 0q-61 0 -61 58v132l-14 -8q-10 -5 -17.5 -8.5t-14.5 -3.5q-4 0 -10.5 3.5t-12.5 9.5t-10 14t-4 17q1 20 29 35l54 31v335q0 58 61 58q59 0 59 -58v-267l56 32q20 11 32 11q11 0 24 -13t13 -31q0 -11 -7.5 -18.5t-21.5 -15.5l-96 -55v-142h271q27 0 41 -15.5
t14 -42.5t-14 -42.5t-41 -15.5h-330z" />
    <glyph glyph-name="lslash" unicode="&#x142;" horiz-adv-x="321" 
d="M184 373l32 18q20 11 32 11q11 0 24 -13t13 -31q0 -11 -7.5 -18.5t-21.5 -15.5l-72 -41v-102q0 -29 15.5 -49.5t52.5 -20.5h14q26 0 39.5 -15.5t13.5 -42.5q0 -28 -16 -42.5t-37 -14.5h-25q-82 0 -129 46t-47 140v34l-26 -14q-10 -5 -17.5 -8.5t-14.5 -3.5q-9 0 -23 13
t-14 31q0 19 29 35l66 37v344q0 17 14 32t45 15q29 0 44.5 -15t15.5 -32v-277z" />
    <glyph glyph-name="Nacute" unicode="&#x143;" horiz-adv-x="619" 
d="M439 233v386q0 55 60 55t60 -55v-561q0 -58 -60 -58h-30q-26 0 -37 10.5t-21 27.5l-228 407h-3v-396q0 -29 -15 -42t-45 -13t-45 13t-15 42v561q0 58 60 58h32q27 0 40 -14t24 -33q56 -98 109 -193t110 -195h4zM285 694q-8 -3 -17 -3q-16 0 -31.5 10t-15.5 30
q0 13 7.5 23.5t17.5 16.5l108 70q9 6 19.5 10t22.5 4q8 0 18 -3.5t18.5 -11t14.5 -18.5t6 -26q0 -19 -11 -35t-31 -23z" />
    <glyph glyph-name="nacute" unicode="&#x144;" horiz-adv-x="523" 
d="M423 -5q-32 0 -46 14t-14 32v242q0 38 -23.5 52.5t-57.5 14.5h-116v-309q0 -16 -14 -31t-46 -15q-30 0 -45.5 14.5t-15.5 32.5v362q0 9 3 19.5t10.5 20t19.5 16t31 6.5h181q88 0 140.5 -46.5t52.5 -136.5v-242q0 -16 -14 -31t-46 -15zM269 541q-15 -17 -38 -17
q-21 0 -30.5 13t-9.5 25q0 16 8 29l63 112q8 15 22.5 26.5t34.5 11.5q25 0 42 -17.5t17 -40.5q0 -11 -4 -23t-13 -21z" />
    <glyph glyph-name="Ncommaaccent" unicode="&#x145;" horiz-adv-x="619" 
d="M439 233v386q0 55 60 55t60 -55v-561q0 -58 -60 -58h-30q-26 0 -37 10.5t-21 27.5l-228 407h-3v-396q0 -29 -15 -42t-45 -13t-45 13t-15 42v561q0 58 60 58h32q27 0 40 -14t24 -33q56 -98 109 -193t110 -195h4zM303 -204q-4 -9 -14.5 -17.5t-26.5 -8.5q-27 0 -38 15.5
t-11 28.5v7l24 120q4 18 18 33t40 15q32 0 47 -18.5t15 -38.5q0 -11 -4 -19z" />
    <glyph glyph-name="ncommaaccent" unicode="&#x146;" horiz-adv-x="523" 
d="M423 -5q-32 0 -46 14t-14 32v242q0 38 -23.5 52.5t-57.5 14.5h-116v-309q0 -16 -14 -31t-46 -15q-30 0 -45.5 14.5t-15.5 32.5v362q0 9 3 19.5t10.5 20t19.5 16t31 6.5h181q88 0 140.5 -46.5t52.5 -136.5v-242q0 -16 -14 -31t-46 -15zM267 -224q-4 -9 -14.5 -17.5
t-26.5 -8.5q-27 0 -38 15.5t-11 28.5v7l24 120q4 18 18 33t40 15q32 0 47 -18.5t15 -38.5q0 -11 -4 -19z" />
    <glyph glyph-name="Ncaron" unicode="&#x147;" horiz-adv-x="619" 
d="M439 233v386q0 55 60 55t60 -55v-561q0 -58 -60 -58h-30q-26 0 -37 10.5t-21 27.5l-228 407h-3v-396q0 -29 -15 -42t-45 -13t-45 13t-15 42v561q0 58 60 58h32q27 0 40 -14t24 -33q56 -98 109 -193t110 -195h4zM306 694q-9 1 -16 2.5t-17 7.5l-132 83q-18 11 -18 31
q0 17 12.5 32.5t34.5 15.5q15 0 28 -7l108 -58l102 54q16 9 32 9q15 0 29.5 -14.5t14.5 -33.5t-16 -29l-129 -83q-16 -10 -33 -10z" />
    <glyph glyph-name="ncaron" unicode="&#x148;" horiz-adv-x="523" 
d="M423 -5q-32 0 -46 14t-14 32v242q0 38 -23.5 52.5t-57.5 14.5h-116v-309q0 -16 -14 -31t-46 -15q-30 0 -45.5 14.5t-15.5 32.5v362q0 9 3 19.5t10.5 20t19.5 16t31 6.5h181q88 0 140.5 -46.5t52.5 -136.5v-242q0 -16 -14 -31t-46 -15zM263 519q-9 0 -17.5 1.5t-17.5 9.5
l-140 115q-14 12 -14 28t14 31.5t37 15.5q16 0 27 -10l108 -83l98 81q15 12 31 12q15 0 31.5 -13.5t16.5 -32.5q0 -17 -14 -29l-128 -115q-8 -7 -16 -9t-16 -2z" />
    <glyph glyph-name="napostrophe" unicode="&#x149;" horiz-adv-x="614" 
d="M514 -5q-32 0 -46 14t-14 32v242q0 38 -23.5 52.5t-57.5 14.5h-116v-309q0 -16 -14 -31t-46 -15q-30 0 -45.5 14.5t-15.5 32.5v362q0 9 3 19.5t10.5 20t19.5 16t31 6.5h181q88 0 140.5 -46.5t52.5 -136.5v-242q0 -16 -14 -31t-46 -15zM98 503q-4 -9 -14.5 -17.5
t-26.5 -8.5q-27 0 -38 15.5t-11 28.5v7l24 120q4 18 18 33t40 15q32 0 47 -18.5t15 -38.5q0 -11 -4 -19z" />
    <glyph glyph-name="Eng" unicode="&#x14a;" horiz-adv-x="619" 
d="M439 233v386q0 55 60 55t60 -55v-701q0 -42 -9 -68t-24 -40.5t-34.5 -19.5t-40.5 -5h-70q-14 0 -28.5 14.5t-14.5 38.5q0 26 12.5 42t29.5 16h26q20 0 27 14t7 36v45l-257 454h-3v-396q0 -29 -15 -42t-45 -13t-45 13t-15 42v561q0 58 60 58h32q27 0 40 -14t24 -33
q56 -98 109 -193t110 -195h4z" />
    <glyph glyph-name="eng" unicode="&#x14b;" horiz-adv-x="523" 
d="M330 -104q20 0 27 14t7 36t-0.5 38.5t-0.5 34v37.5v50.5v73v103.5q0 38 -23.5 52.5t-57.5 14.5h-116v-309q0 -16 -14.5 -31t-45.5 -15q-29 0 -45 14.5t-16 32.5v362q0 9 3 19.5t10.5 20t19.5 16t31 6.5h181q88 0 140.5 -46.5t52.5 -136.5v-365q0 -42 -9 -68t-24 -40.5
t-34.5 -19.5t-40.5 -5h-70q-14 0 -28.5 14.5t-14.5 38.5q0 26 12.5 42t29.5 16h26z" />
    <glyph glyph-name="Omacron" unicode="&#x14c;" horiz-adv-x="588" 
d="M339 668q101 0 150 -54.5t49 -159.5v-241q0 -52 -15 -92t-41.5 -67t-62.5 -40.5t-79 -13.5h-93q-43 0 -79 11.5t-62.5 36.5t-41 65t-14.5 97v244q0 52 14.5 92t40.5 67t62.5 41t80.5 14h91zM420 466q0 40 -22 66.5t-73 26.5h-63q-48 0 -70.5 -26.5t-22.5 -66.5v-267
q0 -41 22.5 -66t70.5 -25h63q48 0 71.5 27.5t23.5 65.5v265zM195 706q-28 0 -44.5 11t-16.5 37t16.5 37.5t44.5 11.5h204q28 0 44.5 -11t16.5 -37t-16.5 -37.5t-44.5 -11.5h-204z" />
    <glyph glyph-name="omacron" unicode="&#x14d;" horiz-adv-x="518" 
d="M235 358q-41 0 -58 -20t-17 -55v-104q0 -32 16.5 -51.5t57.5 -19.5h50q41 0 57.5 19.5t16.5 51.5v104q0 35 -17 55t-58 20h-48zM225 0q-39 0 -72.5 11t-58.5 33.5t-39.5 57t-14.5 80.5v99q0 46 14 80.5t38.5 57.5t59 35t76.5 12h62q42 0 76.5 -12t59 -35t38.5 -57.5
t14 -80.5v-99q0 -46 -14.5 -80.5t-39.5 -57t-58.5 -33.5t-72.5 -11h-68zM162 515q-28 0 -44.5 11t-16.5 37t16.5 37.5t44.5 11.5h204q28 0 44.5 -11t16.5 -37t-16.5 -37.5t-44.5 -11.5h-204z" />
    <glyph glyph-name="Obreve" unicode="&#x14e;" horiz-adv-x="588" 
d="M339 668q101 0 150 -54.5t49 -159.5v-241q0 -52 -15 -92t-41.5 -67t-62.5 -40.5t-79 -13.5h-93q-43 0 -79 11.5t-62.5 36.5t-41 65t-14.5 97v244q0 52 14.5 92t40.5 67t62.5 41t80.5 14h91zM420 466q0 40 -22 66.5t-73 26.5h-63q-48 0 -70.5 -26.5t-22.5 -66.5v-267
q0 -41 22.5 -66t70.5 -25h63q48 0 71.5 27.5t23.5 65.5v265zM294 800q26 0 49 18t44 49q8 12 19 17t22 5q22 0 35 -14t13 -28q0 -7 -2 -11q-15 -33 -36.5 -57t-45.5 -39.5t-49 -22.5t-46 -7q-24 0 -48.5 5t-48 18.5t-44.5 37.5t-37 61q-3 7 -3 14q0 13 13.5 29t36.5 16
q11 0 22.5 -5t18.5 -16q23 -35 40.5 -52.5t46.5 -17.5z" />
    <glyph glyph-name="obreve" unicode="&#x14f;" horiz-adv-x="518" 
d="M235 358q-41 0 -58 -20t-17 -55v-104q0 -32 16.5 -51.5t57.5 -19.5h50q41 0 57.5 19.5t16.5 51.5v104q0 35 -17 55t-58 20h-48zM225 0q-39 0 -72.5 11t-58.5 33.5t-39.5 57t-14.5 80.5v99q0 46 14 80.5t38.5 57.5t59 35t76.5 12h62q42 0 76.5 -12t59 -35t38.5 -57.5
t14 -80.5v-99q0 -46 -14.5 -80.5t-39.5 -57t-58.5 -33.5t-72.5 -11h-68zM261 608q26 0 49 18t44 49q8 12 19 17t22 5q22 0 35 -14t13 -28q0 -7 -2 -11q-15 -33 -36.5 -57t-45.5 -39.5t-49 -22.5t-46 -7q-24 0 -48.5 5t-48 18.5t-44.5 37.5t-37 61q-3 7 -3 14q0 13 13.5 29
t36.5 16q11 0 22.5 -5t18.5 -16q23 -35 40.5 -52.5t46.5 -17.5z" />
    <glyph glyph-name="Ohungarumlaut" unicode="&#x150;" horiz-adv-x="588" 
d="M339 668q101 0 150 -54.5t49 -159.5v-241q0 -52 -15 -92t-41.5 -67t-62.5 -40.5t-79 -13.5h-93q-43 0 -79 11.5t-62.5 36.5t-41 65t-14.5 97v244q0 52 14.5 92t40.5 67t62.5 41t80.5 14h91zM420 466q0 40 -22 66.5t-73 26.5h-63q-48 0 -70.5 -26.5t-22.5 -66.5v-267
q0 -41 22.5 -66t70.5 -25h63q48 0 71.5 27.5t23.5 65.5v265zM386 699q-11 -9 -30 -9q-18 0 -30 10.5t-12 26.5q0 11 5 20.5t11 16.5l87 94q10 11 23 18.5t28 7.5q10 0 20.5 -4.5t19 -12.5t14 -19t5.5 -23q0 -15 -8 -29t-22 -23zM214 699q-11 -9 -30 -9q-18 0 -30 10.5
t-12 26.5q0 11 5 20.5t11 16.5l87 94q10 11 23 18.5t28 7.5q10 0 20.5 -4.5t19 -12.5t14 -19t5.5 -23q0 -31 -30 -52z" />
    <glyph glyph-name="ohungarumlaut" unicode="&#x151;" horiz-adv-x="518" 
d="M235 358q-41 0 -58 -20t-17 -55v-104q0 -32 16.5 -51.5t57.5 -19.5h50q41 0 57.5 19.5t16.5 51.5v104q0 35 -17 55t-58 20h-48zM225 0q-39 0 -72.5 11t-58.5 33.5t-39.5 57t-14.5 80.5v99q0 46 14 80.5t38.5 57.5t59 35t76.5 12h62q42 0 76.5 -12t59 -35t38.5 -57.5
t14 -80.5v-99q0 -46 -14.5 -80.5t-39.5 -57t-58.5 -33.5t-72.5 -11h-68zM222 541q-15 -17 -38 -17q-21 0 -30.5 13t-9.5 25q0 16 8 29l63 112q8 15 22.5 26.5t34.5 11.5q25 0 42 -17.5t17 -40.5q0 -24 -17 -44zM380 541q-15 -17 -38 -17q-21 0 -30.5 13t-9.5 25q0 16 8 29
l63 112q8 15 22.5 26.5t34.5 11.5q25 0 42 -17.5t17 -40.5q0 -11 -4 -23t-13 -21z" />
    <glyph glyph-name="Racute" unicode="&#x154;" horiz-adv-x="562" 
d="M179 552v-188h173q34 0 53 28t19 69q0 25 -8 42.5t-19.5 28.5t-25 15.5t-24.5 4.5h-168zM543 461q0 -31 -6 -62t-20 -58t-37.5 -48t-58.5 -33l99 -176q5 -7 6.5 -14.5t1.5 -15.5q0 -21 -16 -40t-42 -19q-17 0 -32 8.5t-23 23.5l-123 222h-113v-196q0 -58 -59 -58
q-60 0 -60 58v557q0 58 60 58h212q48 0 86.5 -14.5t66.5 -41.5t43 -65.5t15 -85.5zM265 694q-8 -3 -17 -3q-16 0 -31.5 10t-15.5 30q0 13 7.5 23.5t17.5 16.5l108 70q9 6 19.5 10t22.5 4q8 0 18 -3.5t18.5 -11t14.5 -18.5t6 -26q0 -19 -11 -35t-31 -23z" />
    <glyph glyph-name="racute" unicode="&#x155;" horiz-adv-x="415" 
d="M251 466q31 0 60 -10.5t51 -27.5t35 -38t13 -41q0 -15 -9 -27t-20 -20q-24 -16 -46 -9t-37 29q-8 10 -25 20t-37 10h-61v-311q0 -16 -14.5 -31t-45.5 -15q-29 0 -44.5 14t-15.5 32v363q0 9 3 19.5t10.5 20t19.5 16t31 6.5h132zM232 541q-15 -17 -38 -17q-21 0 -30.5 13
t-9.5 25q0 16 8 29l63 112q8 15 22.5 26.5t34.5 11.5q25 0 42 -17.5t17 -40.5q0 -11 -4 -23t-13 -21z" />
    <glyph glyph-name="Rcommaaccent" unicode="&#x156;" horiz-adv-x="562" 
d="M543 461q0 -31 -6 -62t-20 -58t-37.5 -48t-58.5 -33l99 -176q5 -7 6.5 -14.5t1.5 -15.5q0 -21 -16 -40t-42 -19q-17 0 -32 8.5t-23 23.5l-123 222h-113v-196q0 -58 -59 -58q-60 0 -60 58v557q0 58 60 58h212q48 0 86.5 -14.5t66.5 -41.5t43 -65.5t15 -85.5zM179 552v-188
h173q34 0 53 28t19 69q0 25 -8 42.5t-19.5 28.5t-25 15.5t-24.5 4.5h-168zM291 -204q-4 -9 -14.5 -17.5t-26.5 -8.5q-27 0 -38 15.5t-11 28.5v7l24 120q4 18 18 33t40 15q32 0 47 -18.5t15 -38.5q0 -11 -4 -19z" />
    <glyph glyph-name="rcommaaccent" unicode="&#x157;" horiz-adv-x="415" 
d="M251 466q31 0 60 -10.5t51 -27.5t35 -38t13 -41q0 -15 -9 -27t-20 -20q-24 -16 -46 -9t-37 29q-8 10 -25 20t-37 10h-61v-311q0 -16 -14.5 -31t-45.5 -15q-29 0 -44.5 14t-15.5 32v363q0 9 3 19.5t10.5 20t19.5 16t31 6.5h132zM120 -224q-4 -9 -14.5 -17.5t-26.5 -8.5
q-27 0 -38 15.5t-11 28.5v7l24 120q4 18 18 33t40 15q32 0 47 -18.5t15 -38.5q0 -11 -4 -19z" />
    <glyph glyph-name="Rcaron" unicode="&#x158;" horiz-adv-x="562" 
d="M179 552v-188h173q34 0 53 28t19 69q0 25 -8 42.5t-19.5 28.5t-25 15.5t-24.5 4.5h-168zM543 461q0 -31 -6 -62t-20 -58t-37.5 -48t-58.5 -33l99 -176q5 -7 6.5 -14.5t1.5 -15.5q0 -21 -16 -40t-42 -19q-17 0 -32 8.5t-23 23.5l-123 222h-113v-196q0 -58 -59 -58
q-60 0 -60 58v557q0 58 60 58h212q48 0 86.5 -14.5t66.5 -41.5t43 -65.5t15 -85.5zM277 694q-9 1 -16 2.5t-17 7.5l-132 83q-18 11 -18 31q0 17 12.5 32.5t34.5 15.5q15 0 28 -7l108 -58l102 54q16 9 32 9q15 0 29.5 -14.5t14.5 -33.5t-16 -29l-129 -83q-16 -10 -33 -10z
" />
    <glyph glyph-name="rcaron" unicode="&#x159;" horiz-adv-x="415" 
d="M251 466q31 0 60 -10.5t51 -27.5t35 -38t13 -41q0 -15 -9 -27t-20 -20q-24 -16 -46 -9t-37 29q-8 10 -25 20t-37 10h-61v-311q0 -16 -14.5 -31t-45.5 -15q-29 0 -44.5 14t-15.5 32v363q0 9 3 19.5t10.5 20t19.5 16t31 6.5h132zM212 519q-9 0 -17.5 1.5t-17.5 9.5
l-140 115q-14 12 -14 28t14 31.5t37 15.5q16 0 27 -10l108 -83l98 81q15 12 31 12q15 0 31.5 -13.5t16.5 -32.5q0 -17 -14 -29l-128 -115q-8 -7 -16 -9t-16 -2z" />
    <glyph glyph-name="Sacute" unicode="&#x15a;" horiz-adv-x="531" 
d="M105 0q-7 0 -15.5 2.5t-16 9.5t-12.5 18t-5 28q0 16 5.5 27.5t13.5 18t16.5 9.5t13.5 3h213q24 0 42 17t18 51q0 26 -18.5 44.5t-50.5 32.5l-127 54q-30 13 -55.5 26t-45 32.5t-30.5 47.5t-11 70q0 37 11.5 69.5t34 56.5t55 38t75.5 14h197q15 0 32 -14t17 -44
q0 -18 -5 -29t-12 -17.5t-16 -9t-16 -2.5h-197q-25 0 -42 -15.5t-17 -45.5q0 -25 14 -40t41 -26l121 -51q29 -12 58 -27t52.5 -36t38 -51t14.5 -72q0 -38 -11.5 -72t-34 -60t-55.5 -41.5t-75 -15.5h-215zM255 694q-8 -3 -17 -3q-16 0 -31.5 10t-15.5 30q0 13 7.5 23.5
t17.5 16.5l108 70q9 6 19.5 10t22.5 4q8 0 18 -3.5t18.5 -11t14.5 -18.5t6 -26q0 -19 -11 -35t-31 -23z" />
    <glyph glyph-name="sacute" unicode="&#x15b;" horiz-adv-x="459" 
d="M92 0q-8 0 -17 3t-17 10t-13 18.5t-5 28.5t6 28.5t14.5 18t17.5 9.5t14 3h188q28 0 28 21q0 14 -36 25l-108 31q-27 7 -50.5 17t-41 25t-27.5 37.5t-10 56.5q0 58 37.5 95.5t110.5 37.5h171q7 0 16 -2.5t17 -8.5t13.5 -17t5.5 -27q0 -17 -5 -28.5t-13 -18.5t-17 -10
t-17 -3h-171q-11 0 -18 -3.5t-7 -13.5q0 -5 9 -10.5t23 -9.5l110 -30q28 -8 51.5 -18t41 -26t27 -39.5t9.5 -57.5q0 -29 -9 -54.5t-27.5 -45t-46.5 -31t-66 -11.5h-188zM250 541q-15 -17 -38 -17q-21 0 -30.5 13t-9.5 25q0 16 8 29l63 112q8 15 22.5 26.5t34.5 11.5
q25 0 42 -17.5t17 -40.5q0 -11 -4 -23t-13 -21z" />
    <glyph glyph-name="Scircumflex" unicode="&#x15c;" horiz-adv-x="531" 
d="M105 0q-7 0 -15.5 2.5t-16 9.5t-12.5 18t-5 28q0 16 5.5 27.5t13.5 18t16.5 9.5t13.5 3h213q24 0 42 17t18 51q0 26 -18.5 44.5t-50.5 32.5l-127 54q-30 13 -55.5 26t-45 32.5t-30.5 47.5t-11 70q0 37 11.5 69.5t34 56.5t55 38t75.5 14h197q15 0 32 -14t17 -44
q0 -18 -5 -29t-12 -17.5t-16 -9t-16 -2.5h-197q-25 0 -42 -15.5t-17 -45.5q0 -25 14 -40t41 -26l121 -51q29 -12 58 -27t52.5 -36t38 -51t14.5 -72q0 -38 -11.5 -72t-34 -60t-55.5 -41.5t-75 -15.5h-215zM258 882q17 0 37 -12l143 -91q18 -12 18 -32q0 -10 -4.5 -20
t-11.5 -17.5t-16 -12t-17 -4.5q-15 0 -35 10l-114 60l-120 -64q-8 -5 -15.5 -6.5t-15.5 -1.5q-25 0 -38 17.5t-13 36.5q0 22 19 34l146 91q11 7 19 9.5t18 2.5z" />
    <glyph glyph-name="scircumflex" unicode="&#x15d;" horiz-adv-x="459" 
d="M92 0q-8 0 -17 3t-17 10t-13 18.5t-5 28.5t6 28.5t14.5 18t17.5 9.5t14 3h188q28 0 28 21q0 14 -36 25l-108 31q-27 7 -50.5 17t-41 25t-27.5 37.5t-10 56.5q0 58 37.5 95.5t110.5 37.5h171q7 0 16 -2.5t17 -8.5t13.5 -17t5.5 -27q0 -17 -5 -28.5t-13 -18.5t-17 -10
t-17 -3h-171q-11 0 -18 -3.5t-7 -13.5q0 -5 9 -10.5t23 -9.5l110 -30q28 -8 51.5 -18t41 -26t27 -39.5t9.5 -57.5q0 -29 -9 -54.5t-27.5 -45t-46.5 -31t-66 -11.5h-188zM236 719q8 0 16 -2t16 -9l128 -115q14 -12 14 -28q0 -20 -17.5 -33t-32.5 -13t-29 11l-98 81l-108 -83
q-12 -9 -26 -9q-25 0 -38 15.5t-13 32.5q0 14 13 26l140 115q9 8 17.5 9.5t17.5 1.5z" />
    <glyph glyph-name="Scedilla" unicode="&#x15e;" horiz-adv-x="531" 
d="M389 -133q0 -15 -6.5 -31t-20 -28.5t-34.5 -21t-49 -8.5q-15 0 -32 2.5t-30.5 8t-22.5 14t-9 19.5q0 13 9.5 24t20.5 11q10 0 28 -9t34 -9q19 0 27 8.5t8 19.5q0 6 -5.5 15t-26.5 9h-38q-17 0 -26.5 9t-9.5 22q0 6 3 14l25 64h-129q-7 0 -15.5 2.5t-16 9.5t-12.5 18
t-5 28q0 16 5.5 27.5t13.5 18t16.5 9.5t13.5 3h213q24 0 42 17t18 51q0 26 -18.5 44.5t-50.5 32.5l-127 54q-30 13 -55.5 26t-45 32.5t-30.5 47.5t-11 70q0 37 11.5 69.5t34 56.5t55 38t75.5 14h197q15 0 32 -14t17 -44q0 -18 -5 -29t-12 -17.5t-16 -9t-16 -2.5h-197
q-25 0 -42 -15.5t-17 -45.5q0 -25 14 -40t41 -26l121 -51q29 -12 58 -27t52.5 -36t38 -51t14.5 -72q0 -38 -11.5 -72t-34 -60t-55.5 -41.5t-75 -15.5h-28l-21 -49h29q38 0 63.5 -22.5t25.5 -61.5z" />
    <glyph glyph-name="scedilla" unicode="&#x15f;" horiz-adv-x="459" 
d="M348 -133q0 -15 -6.5 -31t-20 -28.5t-34.5 -21t-49 -8.5q-15 0 -32 2.5t-30.5 8t-22.5 14t-9 19.5q0 13 9.5 24t20.5 11q10 0 28 -9t34 -9q19 0 27 8.5t8 19.5q0 6 -5.5 15t-26.5 9h-38q-17 0 -26.5 9t-9.5 22q0 6 3 14l25 64h-101q-8 0 -17 3t-17 10t-13 18.5t-5 28.5
t6 28.5t14.5 18t17.5 9.5t14 3h188q28 0 28 21q0 14 -36 25l-108 31q-27 7 -50.5 17t-41 25t-27.5 37.5t-10 56.5q0 58 37.5 95.5t110.5 37.5h171q7 0 16 -2.5t17 -8.5t13.5 -17t5.5 -27q0 -17 -5 -28.5t-13 -18.5t-17 -10t-17 -3h-171q-11 0 -18 -3.5t-7 -13.5
q0 -5 9 -10.5t23 -9.5l110 -30q28 -8 51.5 -18t41 -26t27 -39.5t9.5 -57.5q0 -29 -9 -54.5t-27.5 -45t-46.5 -31t-66 -11.5h-29l-21 -49h29q38 0 63.5 -22.5t25.5 -61.5z" />
    <glyph glyph-name="Tcommaaccent" unicode="&#x162;" horiz-adv-x="526" 
d="M322 552v-501q0 -56 -60 -56q-59 0 -59 56v501h-141q-27 0 -40.5 15.5t-13.5 42.5t13.5 42.5t40.5 15.5h400q27 0 41 -15.5t14 -42.5t-14 -42.5t-41 -15.5h-140zM275 -224q-4 -9 -14.5 -17.5t-26.5 -8.5q-27 0 -38 15.5t-11 28.5v7l24 120q4 18 18 33t40 15
q32 0 47 -18.5t15 -38.5q0 -11 -4 -19z" />
    <glyph glyph-name="tcommaaccent" unicode="&#x163;" horiz-adv-x="397" 
d="M340 110q18 0 36 -14.5t18 -41.5q0 -14 -5 -24.5t-13 -18t-17.5 -11t-18.5 -3.5h-81q-34 0 -64 10t-52 32t-35 55t-13 80v182h-38q-17 0 -33 12.5t-16 41.5q0 28 16 41t33 13h37v126q0 17 14.5 32t45.5 15q29 0 44.5 -15t15.5 -32v-126h104q17 0 32.5 -13.5t15.5 -40.5
q0 -29 -15.5 -41.5t-32.5 -12.5h-104v-174q0 -38 18.5 -55t55.5 -17h52zM188 -224q-4 -9 -14.5 -17.5t-26.5 -8.5q-27 0 -38 15.5t-11 28.5v7l24 120q4 18 18 33t40 15q32 0 47 -18.5t15 -38.5q0 -11 -4 -19z" />
    <glyph glyph-name="Tcaron" unicode="&#x164;" horiz-adv-x="526" 
d="M322 552v-501q0 -56 -60 -56q-59 0 -59 56v501h-141q-27 0 -40.5 15.5t-13.5 42.5t13.5 42.5t40.5 15.5h400q27 0 41 -15.5t14 -42.5t-14 -42.5t-41 -15.5h-140zM267 694q-9 1 -16 2.5t-17 7.5l-132 83q-18 11 -18 31q0 17 12.5 32.5t34.5 15.5q15 0 28 -7l108 -58
l102 54q16 9 32 9q15 0 29.5 -14.5t14.5 -33.5t-16 -29l-129 -83q-16 -10 -33 -10z" />
    <glyph glyph-name="tcaron" unicode="&#x165;" horiz-adv-x="446" 
d="M336 110q18 0 36 -14.5t18 -41.5q0 -14 -5 -24.5t-13 -18t-17.5 -11t-18.5 -3.5h-81q-34 0 -64 10t-52 32t-35 55t-13 80v182h-38q-17 0 -33 12.5t-16 41.5q0 28 16 41t33 13h37v126q0 17 14.5 32t45.5 15q29 0 44.5 -15t15.5 -32v-126h104q17 0 32.5 -13.5t15.5 -40.5
q0 -29 -15.5 -41.5t-32.5 -12.5h-104v-174q0 -38 18.5 -55t55.5 -17h52zM389 574q-4 -9 -14.5 -17.5t-26.5 -8.5q-27 0 -38 15.5t-11 28.5v7l24 120q4 18 18 33t40 15q32 0 47 -18.5t15 -38.5q0 -11 -4 -19z" />
    <glyph glyph-name="Tbar" unicode="&#x166;" horiz-adv-x="526" 
d="M322 552v-154h128q37 0 37 -41t-37 -41h-128v-265q0 -56 -60 -56q-59 0 -59 56v265h-126q-37 0 -37 40q0 42 37 42h126v154h-141q-27 0 -40.5 15.5t-13.5 42.5t13.5 42.5t40.5 15.5h400q27 0 41 -15.5t14 -42.5t-14 -42.5t-41 -15.5h-140z" />
    <glyph glyph-name="tbar" unicode="&#x167;" horiz-adv-x="397" 
d="M340 110q18 0 36 -14.5t18 -41.5q0 -14 -5 -24.5t-13 -18t-17.5 -11t-18.5 -3.5h-81q-34 0 -64 10t-52 32t-35 55t-13 80v35h-50q-37 0 -37 41t37 41h50v65h-38q-17 0 -33 12.5t-16 41.5q0 28 16 41t33 13h37v126q0 17 14.5 32t45.5 15q29 0 44.5 -15t15.5 -32v-126h104
q17 0 32.5 -13.5t15.5 -40.5q0 -29 -15.5 -41.5t-32.5 -12.5h-104v-65h115q37 0 37 -41t-37 -41h-115v-27q0 -38 18.5 -55t55.5 -17h52z" />
    <glyph glyph-name="Utilde" unicode="&#x168;" horiz-adv-x="611" 
d="M433 619q0 16 6 27t14.5 17t19 8.5t19.5 2.5q8 0 18.5 -2.5t19.5 -8.5t15 -17t6 -28v-410q0 -52 -15.5 -91t-41.5 -65t-61 -39t-75 -13h-106q-39 0 -74 12.5t-61.5 37.5t-41.5 63.5t-15 91.5v413q0 17 6 28t15 17t19.5 8.5t19.5 2.5t19 -2.5t19 -9t15 -17.5t6 -27v-415
q0 -41 20.5 -63.5t57.5 -22.5h96q38 0 59 25t21 63v414zM234 817q19 0 39.5 -6.5t40 -14t35.5 -13.5t27 -6q12 0 19 6.5t13.5 14t14 14t21.5 6.5t24 -5.5t17 -13.5t10 -16t3 -12q0 -11 -4 -18q-19 -39 -50 -53.5t-57 -14.5q-18 0 -37 6t-37.5 13.5t-35.5 13.5t-32 6
q-9 0 -15.5 -6t-13.5 -13.5t-15 -13.5t-20 -6q-13 0 -23 5t-16.5 12.5t-10 15t-3.5 13.5q0 18 11 34t27 27.5t34.5 18t33.5 6.5z" />
    <glyph glyph-name="utilde" unicode="&#x169;" horiz-adv-x="523" 
d="M100 471q30 0 45 -14t15 -32v-242q0 -38 23.5 -52.5t57.5 -14.5h116v309q0 16 14.5 31t45.5 15q29 0 45 -14.5t16 -32.5v-362q0 -9 -3 -19.5t-10.5 -20t-19.5 -16t-31 -6.5h-181q-88 0 -140.5 46.5t-52.5 136.5v242q0 16 14.5 31t45.5 15zM175 647q19 0 39.5 -6.5t40 -14
t35.5 -13.5t27 -6q12 0 19 6.5t13.5 14t14 14t21.5 6.5t24 -5.5t17 -13.5t10 -16t3 -12q0 -11 -4 -18q-19 -39 -50 -53.5t-57 -14.5q-18 0 -37 6t-37.5 13.5t-35.5 13.5t-32 6q-9 0 -15.5 -6t-13.5 -13.5t-15 -13.5t-20 -6q-13 0 -23 5t-16.5 12.5t-10 15t-3.5 13.5
q0 18 11 34t27 27.5t34.5 18t33.5 6.5z" />
    <glyph glyph-name="Umacron" unicode="&#x16a;" horiz-adv-x="611" 
d="M433 619q0 16 6 27t14.5 17t19 8.5t19.5 2.5q8 0 18.5 -2.5t19.5 -8.5t15 -17t6 -28v-410q0 -52 -15.5 -91t-41.5 -65t-61 -39t-75 -13h-106q-39 0 -74 12.5t-61.5 37.5t-41.5 63.5t-15 91.5v413q0 17 6 28t15 17t19.5 8.5t19.5 2.5t19 -2.5t19 -9t15 -17.5t6 -27v-415
q0 -41 20.5 -63.5t57.5 -22.5h96q38 0 59 25t21 63v414zM199 706q-28 0 -44.5 11t-16.5 37t16.5 37.5t44.5 11.5h204q28 0 44.5 -11t16.5 -37t-16.5 -37.5t-44.5 -11.5h-204z" />
    <glyph glyph-name="umacron" unicode="&#x16b;" horiz-adv-x="523" 
d="M100 471q30 0 45 -14t15 -32v-242q0 -38 23.5 -52.5t57.5 -14.5h116v309q0 16 14.5 31t45.5 15q29 0 45 -14.5t16 -32.5v-362q0 -9 -3 -19.5t-10.5 -20t-19.5 -16t-31 -6.5h-181q-88 0 -140.5 46.5t-52.5 136.5v242q0 16 14.5 31t45.5 15zM157 515q-28 0 -44.5 11
t-16.5 37t16.5 37.5t44.5 11.5h204q28 0 44.5 -11t16.5 -37t-16.5 -37.5t-44.5 -11.5h-204z" />
    <glyph glyph-name="Ubreve" unicode="&#x16c;" horiz-adv-x="611" 
d="M433 619q0 16 6 27t14.5 17t19 8.5t19.5 2.5q8 0 18.5 -2.5t19.5 -8.5t15 -17t6 -28v-410q0 -52 -15.5 -91t-41.5 -65t-61 -39t-75 -13h-106q-39 0 -74 12.5t-61.5 37.5t-41.5 63.5t-15 91.5v413q0 17 6 28t15 17t19.5 8.5t19.5 2.5t19 -2.5t19 -9t15 -17.5t6 -27v-415
q0 -41 20.5 -63.5t57.5 -22.5h96q38 0 59 25t21 63v414zM302 800q26 0 49 18t44 49q8 12 19 17t22 5q22 0 35 -14t13 -28q0 -7 -2 -11q-15 -33 -36.5 -57t-45.5 -39.5t-49 -22.5t-46 -7q-24 0 -48.5 5t-48 18.5t-44.5 37.5t-37 61q-3 7 -3 14q0 13 13.5 29t36.5 16
q11 0 22.5 -5t18.5 -16q23 -35 40.5 -52.5t46.5 -17.5z" />
    <glyph glyph-name="ubreve" unicode="&#x16d;" horiz-adv-x="523" 
d="M100 471q30 0 45 -14t15 -32v-242q0 -38 23.5 -52.5t57.5 -14.5h116v309q0 16 14.5 31t45.5 15q29 0 45 -14.5t16 -32.5v-362q0 -9 -3 -19.5t-10.5 -20t-19.5 -16t-31 -6.5h-181q-88 0 -140.5 46.5t-52.5 136.5v242q0 16 14.5 31t45.5 15zM260 608q26 0 49 18t44 49
q8 12 19 17t22 5q22 0 35 -14t13 -28q0 -7 -2 -11q-15 -33 -36.5 -57t-45.5 -39.5t-49 -22.5t-46 -7q-24 0 -48.5 5t-48 18.5t-44.5 37.5t-37 61q-3 7 -3 14q0 13 13.5 29t36.5 16q11 0 22.5 -5t18.5 -16q23 -35 40.5 -52.5t46.5 -17.5z" />
    <glyph glyph-name="Uring" unicode="&#x16e;" horiz-adv-x="611" 
d="M433 619q0 16 6 27t14.5 17t19 8.5t19.5 2.5q8 0 18.5 -2.5t19.5 -8.5t15 -17t6 -28v-410q0 -52 -15.5 -91t-41.5 -65t-61 -39t-75 -13h-106q-39 0 -74 12.5t-61.5 37.5t-41.5 63.5t-15 91.5v413q0 17 6 28t15 17t19.5 8.5t19.5 2.5t19 -2.5t19 -9t15 -17.5t6 -27v-415
q0 -41 20.5 -63.5t57.5 -22.5h96q38 0 59 25t21 63v414zM184 786q0 25 9 46.5t25.5 37.5t38 25.5t47.5 9.5q24 0 45.5 -9.5t37.5 -25.5t25.5 -37.5t9.5 -46.5t-9.5 -46.5t-25.5 -37.5t-37.5 -25.5t-45.5 -9.5q-26 0 -47.5 9.5t-38 25.5t-25.5 37.5t-9 46.5zM260 786
q0 -18 12.5 -30.5t31.5 -12.5q17 0 29.5 12.5t12.5 30.5t-12.5 31t-29.5 13q-19 0 -31.5 -13t-12.5 -31z" />
    <glyph glyph-name="uring" unicode="&#x16f;" horiz-adv-x="523" 
d="M100 471q30 0 45 -14t15 -32v-242q0 -38 23.5 -52.5t57.5 -14.5h116v309q0 16 14.5 31t45.5 15q29 0 45 -14.5t16 -32.5v-362q0 -9 -3 -19.5t-10.5 -20t-19.5 -16t-31 -6.5h-181q-88 0 -140.5 46.5t-52.5 136.5v242q0 16 14.5 31t45.5 15zM219 611q0 -18 12.5 -30.5
t31.5 -12.5q17 0 29.5 12.5t12.5 30.5t-12.5 31t-29.5 13q-19 0 -31.5 -13t-12.5 -31zM143 611q0 25 9 46.5t25.5 37.5t38 25.5t47.5 9.5q24 0 45.5 -9.5t37.5 -25.5t25.5 -37.5t9.5 -46.5t-9.5 -46.5t-25.5 -37.5t-37.5 -25.5t-45.5 -9.5q-26 0 -47.5 9.5t-38 25.5
t-25.5 37.5t-9 46.5z" />
    <glyph glyph-name="Uhungarumlaut" unicode="&#x170;" horiz-adv-x="611" 
d="M433 619q0 16 6 27t14.5 17t19 8.5t19.5 2.5q8 0 18.5 -2.5t19.5 -8.5t15 -17t6 -28v-410q0 -52 -15.5 -91t-41.5 -65t-61 -39t-75 -13h-106q-39 0 -74 12.5t-61.5 37.5t-41.5 63.5t-15 91.5v413q0 17 6 28t15 17t19.5 8.5t19.5 2.5t19 -2.5t19 -9t15 -17.5t6 -27v-415
q0 -41 20.5 -63.5t57.5 -22.5h96q38 0 59 25t21 63v414zM421 699q-11 -9 -30 -9q-18 0 -30 10.5t-12 26.5q0 11 5 20.5t11 16.5l87 94q10 11 23 18.5t28 7.5q10 0 20.5 -4.5t19 -12.5t14 -19t5.5 -23q0 -15 -8 -29t-22 -23zM249 699q-11 -9 -30 -9q-18 0 -30 10.5t-12 26.5
q0 11 5 20.5t11 16.5l87 94q10 11 23 18.5t28 7.5q10 0 20.5 -4.5t19 -12.5t14 -19t5.5 -23q0 -31 -30 -52z" />
    <glyph glyph-name="uhungarumlaut" unicode="&#x171;" horiz-adv-x="523" 
d="M100 471q30 0 45 -14t15 -32v-242q0 -38 23.5 -52.5t57.5 -14.5h116v309q0 16 14.5 31t45.5 15q29 0 45 -14.5t16 -32.5v-362q0 -9 -3 -19.5t-10.5 -20t-19.5 -16t-31 -6.5h-181q-88 0 -140.5 46.5t-52.5 136.5v242q0 16 14.5 31t45.5 15zM217 541q-15 -17 -38 -17
q-21 0 -30.5 13t-9.5 25q0 16 8 29l63 112q8 15 22.5 26.5t34.5 11.5q25 0 42 -17.5t17 -40.5q0 -24 -17 -44zM375 541q-15 -17 -38 -17q-21 0 -30.5 13t-9.5 25q0 16 8 29l63 112q8 15 22.5 26.5t34.5 11.5q25 0 42 -17.5t17 -40.5q0 -11 -4 -23t-13 -21z" />
    <glyph glyph-name="Uogonek" unicode="&#x172;" horiz-adv-x="611" 
d="M433 619q0 16 6 27t14.5 17t19 8.5t19.5 2.5q8 0 18.5 -2.5t19.5 -8.5t15 -17t6 -28v-410q0 -52 -15.5 -91t-41.5 -65t-61 -39t-75 -13h-11q-21 -23 -32 -49t-11 -46q0 -16 10 -28t36 -12q6 0 14 2.5t16 5.5t15 5.5t11 2.5q13 0 23 -12t10 -24q0 -14 -12 -23.5t-28 -15
t-31.5 -8t-22.5 -2.5q-33 0 -56 9.5t-37.5 24.5t-21 33t-6.5 35q0 24 9 50t30 52h-11q-39 0 -74 12.5t-61.5 37.5t-41.5 63.5t-15 91.5v413q0 17 6 28t15 17t19.5 8.5t19.5 2.5t19 -2.5t19 -9t15 -17.5t6 -27v-415q0 -41 20.5 -63.5t57.5 -22.5h96q38 0 59 25t21 63v414z
" />
    <glyph glyph-name="uogonek" unicode="&#x173;" horiz-adv-x="523" 
d="M100 471q30 0 45 -14t15 -32v-242q0 -38 23.5 -52.5t57.5 -14.5h116v309q0 16 14.5 31t45.5 15q29 0 45 -14.5t16 -32.5v-362q0 -11 -5 -25.5t-19 -24.5q-28 -25 -42.5 -55.5t-14.5 -53.5q0 -16 10 -28t36 -12q6 0 14 2.5t16 5.5t15 5.5t11 2.5q13 0 23 -12t10 -24
q0 -14 -12 -23.5t-28 -15t-31.5 -8t-22.5 -2.5q-33 0 -56 9.5t-37.5 24.5t-21 33t-6.5 35q0 25 9 51t31 53h-124q-88 0 -140.5 46.5t-52.5 136.5v242q0 16 14.5 31t45.5 15z" />
    <glyph glyph-name="Wcircumflex" unicode="&#x174;" horiz-adv-x="802" 
d="M547 174h4l120 462q13 38 50 38q31 0 49 -15.5t18 -39.5q0 -10 -3 -19l-156 -552q-8 -23 -20.5 -35.5t-40.5 -12.5h-38q-27 0 -40 12.5t-21 35.5l-70 340h-2l-67 -340q-8 -23 -21 -35.5t-40 -12.5h-38q-28 0 -40.5 12.5t-20.5 35.5l-156 552q-3 9 -3 18q0 23 19 39.5
t48 16.5q17 0 31 -9t19 -29l120 -462h4l81 393q5 23 17.5 35.5t36.5 12.5h26q25 0 36.5 -12.5t16.5 -35.5zM402 882q17 0 37 -12l143 -91q18 -12 18 -32q0 -10 -4.5 -20t-11.5 -17.5t-16 -12t-17 -4.5q-15 0 -35 10l-114 60l-120 -64q-8 -5 -15.5 -6.5t-15.5 -1.5
q-25 0 -38 17.5t-13 36.5q0 22 19 34l146 91q11 7 19 9.5t18 2.5z" />
    <glyph glyph-name="wcircumflex" unicode="&#x175;" horiz-adv-x="659" 
d="M464 149l63 291q7 18 20 26t30 8q26 0 45 -14t19 -41q0 -9 -3 -18l-93 -355q-11 -46 -64 -46h-38q-26 0 -41.5 12t-23.5 34l-46 138h-2l-48 -138q-8 -21 -23 -33.5t-41 -12.5h-38q-51 0 -65 46l-103 355q-3 9 -3 18q0 26 19.5 41t45.5 15q39 0 53 -40l73 -287h3l72 195
l-20 58q-3 9 -3 18q0 26 19.5 41t45.5 15q39 0 53 -40l92 -286h2zM340 719q8 0 16 -2t16 -9l128 -115q14 -12 14 -28q0 -20 -17.5 -33t-32.5 -13t-29 11l-98 81l-108 -83q-12 -9 -26 -9q-25 0 -38 15.5t-13 32.5q0 14 13 26l140 115q9 8 17.5 9.5t17.5 1.5z" />
    <glyph glyph-name="Ycircumflex" unicode="&#x176;" horiz-adv-x="553" 
d="M282 385l150 259q9 16 21.5 23.5t26.5 7.5q25 0 44.5 -18t19.5 -41q0 -12 -6 -24l-198 -334v-208q0 -56 -60 -56q-28 0 -43.5 14.5t-15.5 41.5v210l-206 337q-5 10 -5 19q0 12 6 22.5t16 18.5t22.5 13t25.5 5q29 0 47 -31l151 -259h4zM283 882q17 0 37 -12l143 -91
q18 -12 18 -32q0 -10 -4.5 -20t-11.5 -17.5t-16 -12t-17 -4.5q-15 0 -35 10l-114 60l-120 -64q-8 -5 -15.5 -6.5t-15.5 -1.5q-25 0 -38 17.5t-13 36.5q0 22 19 34l146 91q11 7 19 9.5t18 2.5z" />
    <glyph glyph-name="ycircumflex" unicode="&#x177;" horiz-adv-x="524" 
d="M479 -18q0 -49 -16 -83.5t-43 -57t-63 -33t-76 -10.5h-148q-17 0 -32.5 15t-15.5 43q0 29 15.5 42t32.5 13h147q40 0 59 20.5t19 55.5v13h-124q-91 0 -142.5 46t-51.5 139v239q0 17 14.5 32t45.5 15q29 0 45 -15t16 -32v-239q0 -39 23 -54t57 -15h117v308q0 17 15 32
t45 15q29 0 45 -15t16 -32v-442zM269 719q8 0 16 -2t16 -9l128 -115q14 -12 14 -28q0 -20 -17.5 -33t-32.5 -13t-29 11l-98 81l-108 -83q-12 -9 -26 -9q-25 0 -38 15.5t-13 32.5q0 14 13 26l140 115q9 8 17.5 9.5t17.5 1.5z" />
    <glyph glyph-name="Zacute" unicode="&#x179;" horiz-adv-x="541" 
d="M92 0q-38 0 -50 16t-12 36q0 17 5 30.5t11 22.5l301 447h-242q-27 0 -40.5 15.5t-13.5 42.5t13.5 42.5t40.5 15.5h348q32 0 44 -16.5t12 -37.5q0 -17 -4.5 -29t-11.5 -22l-301 -447h269q29 0 40.5 -17t11.5 -41q0 -23 -11.5 -40.5t-40.5 -17.5h-369zM259 694
q-8 -3 -17 -3q-16 0 -31.5 10t-15.5 30q0 13 7.5 23.5t17.5 16.5l108 70q9 6 19.5 10t22.5 4q8 0 18 -3.5t18.5 -11t14.5 -18.5t6 -26q0 -19 -11 -35t-31 -23z" />
    <glyph glyph-name="zacute" unicode="&#x17a;" horiz-adv-x="477" 
d="M88 0q-53 0 -53 59q0 14 6 24.5t11 16.5l224 253h-186q-17 0 -32.5 13.5t-15.5 42.5q0 27 15.5 42.5t32.5 15.5h306q26 0 41.5 -15t15.5 -44q0 -13 -5 -24t-11 -17l-221 -253h186q15 0 25 -5.5t16 -14t8 -18.5t2 -19q0 -8 -2 -18t-8 -18.5t-16 -14.5t-25 -6h-314z
M274 541q-15 -17 -38 -17q-21 0 -30.5 13t-9.5 25q0 16 8 29l63 112q8 15 22.5 26.5t34.5 11.5q25 0 42 -17.5t17 -40.5q0 -11 -4 -23t-13 -21z" />
    <glyph glyph-name="Zdotaccent" unicode="&#x17b;" horiz-adv-x="541" 
d="M92 0q-38 0 -50 16t-12 36q0 17 5 30.5t11 22.5l301 447h-242q-27 0 -40.5 15.5t-13.5 42.5t13.5 42.5t40.5 15.5h348q32 0 44 -16.5t12 -37.5q0 -17 -4.5 -29t-11.5 -22l-301 -447h269q29 0 40.5 -17t11.5 -41q0 -23 -11.5 -40.5t-40.5 -17.5h-369zM286 701
q-27 0 -47 18.5t-20 45.5q0 32 21 48t45 16q26 0 47 -16t21 -48q0 -27 -19 -45.5t-48 -18.5z" />
    <glyph glyph-name="zdotaccent" unicode="&#x17c;" horiz-adv-x="477" 
d="M88 0q-53 0 -53 59q0 14 6 24.5t11 16.5l224 253h-186q-17 0 -32.5 13.5t-15.5 42.5q0 27 15.5 42.5t32.5 15.5h306q26 0 41.5 -15t15.5 -44q0 -13 -5 -24t-11 -17l-221 -253h186q15 0 25 -5.5t16 -14t8 -18.5t2 -19q0 -8 -2 -18t-8 -18.5t-16 -14.5t-25 -6h-314z
M256 531q-27 0 -47 18.5t-20 45.5q0 32 21 48t45 16q26 0 47 -16t21 -48q0 -27 -19 -45.5t-48 -18.5z" />
    <glyph glyph-name="AEacute" unicode="&#x1fc;" horiz-adv-x="846" 
d="M451 0q-61 0 -61 58v110h-199l-64 -134q-19 -40 -58 -40q-29 0 -43.5 14t-14.5 34q0 16 7 30l266 547q11 22 25.5 35.5t42.5 13.5h430q27 0 40.5 -15.5t13.5 -42.5t-13.5 -42.5t-40.5 -15.5h-272v-142h230q27 0 39.5 -15.5t12.5 -42.5t-12.5 -42t-39.5 -15h-230v-179h272
q27 0 40.5 -15.5t13.5 -42.5t-13.5 -42.5t-40.5 -15.5h-331zM338 474l-92 -195h144v272h-17zM537 694q-8 -3 -17 -3q-16 0 -31.5 10t-15.5 30q0 13 7.5 23.5t17.5 16.5l108 70q9 6 19.5 10t22.5 4q8 0 18 -3.5t18.5 -11t14.5 -18.5t6 -26q0 -19 -11 -35t-31 -23z" />
    <glyph glyph-name="aeacute" unicode="&#x1fd;" horiz-adv-x="825" 
d="M485 182v-9q0 -29 21.5 -46t57.5 -17h133q17 0 33 -12t16 -41q0 -27 -16 -42t-33 -15h-147q-36 0 -67 11.5t-54 31.5q-51 -43 -129 -43h-130q-27 0 -51.5 9t-43 26.5t-29 43t-10.5 59.5v15q0 54 36.5 87t104.5 33h187v28q0 20 -14.5 34.5t-51.5 14.5h-137q-17 0 -33 13
t-16 42t16 45t33 16h143q80 0 126 -38q50 38 124 38h47q40 0 74.5 -12.5t60 -36t40 -58.5t14.5 -80v-38q0 -8 -3 -18.5t-10.5 -19.5t-19.5 -15t-31 -6h-241zM471 541q-15 -17 -38 -17q-21 0 -30.5 13t-9.5 25q0 16 8 29l63 112q8 15 22.5 26.5t34.5 11.5q25 0 42 -17.5
t17 -40.5q0 -11 -4 -23t-13 -21zM365 181h-175q-16 0 -25 -8t-9 -21v-8q0 -14 8.5 -24t25.5 -10h96q36 0 57.5 17t21.5 46v8zM670 279q0 34 -19 52.5t-57 18.5h-36q-32 0 -52.5 -18.5t-20.5 -52.5v-6h185v6z" />
    <glyph glyph-name="Oslashacute" unicode="&#x1fe;" horiz-adv-x="588" 
d="M339 668q80 0 127 -35l13 17q10 14 24 14q15 0 25.5 -11.5t10.5 -20.5t-8 -20l-21 -29q28 -50 28 -129v-241q0 -52 -15 -92t-41.5 -67t-62.5 -40.5t-79 -13.5h-93q-37 0 -69 8t-57 27l-16 -22q-11 -14 -24 -14q-14 0 -24.5 10.5t-10.5 24.5q0 11 6 20l24 33
q-26 47 -26 123v244q0 52 14.5 92t40.5 67t62.5 41t80.5 14h91zM420 456l-229 -322q23 -26 71 -26h63q48 0 71.5 27.5t23.5 65.5v255zM169 217l227 317q-25 25 -71 25h-63q-48 0 -70.5 -26.5t-22.5 -66.5v-249zM273 694q-8 -3 -17 -3q-16 0 -31.5 10t-15.5 30q0 13 7.5 23.5
t17.5 16.5l108 70q9 6 19.5 10t22.5 4q8 0 18 -3.5t18.5 -11t14.5 -18.5t6 -26q0 -19 -11 -35t-31 -23z" />
    <glyph glyph-name="oslashacute" unicode="&#x1ff;" horiz-adv-x="518" 
d="M225 0q-62 0 -107 27l-17 -19q-12 -13 -22 -13q-9 0 -21.5 11t-12.5 21q0 8 11 21l17 19q-16 22 -24.5 50.5t-8.5 64.5v99q0 46 14 80.5t38.5 57.5t59 35t76.5 12h62q65 0 111 -29l18 20q12 13 24 13t21.5 -10t9.5 -20q0 -12 -10 -23l-19 -21q16 -22 24.5 -51t8.5 -64
v-99q0 -46 -14.5 -80.5t-39.5 -57t-58.5 -33.5t-72.5 -11h-68zM280 541q-15 -17 -38 -17q-21 0 -30.5 13t-9.5 25q0 16 8 29l63 112q8 15 22.5 26.5t34.5 11.5q25 0 42 -17.5t17 -40.5q0 -11 -4 -23t-13 -21zM235 358q-41 0 -58 -20t-17 -55v-104v-13l164 184q-18 8 -41 8
h-48zM358 283q0 9 -1 14l-162 -183q15 -6 39 -6h50q41 0 57.5 19.5t16.5 51.5v104z" />
    <glyph glyph-name="Scommaaccent" unicode="&#x218;" horiz-adv-x="531" 
d="M105 0q-7 0 -15.5 2.5t-16 9.5t-12.5 18t-5 28q0 16 5.5 27.5t13.5 18t16.5 9.5t13.5 3h213q24 0 42 17t18 51q0 26 -18.5 44.5t-50.5 32.5l-127 54q-30 13 -55.5 26t-45 32.5t-30.5 47.5t-11 70q0 37 11.5 69.5t34 56.5t55 38t75.5 14h197q15 0 32 -14t17 -44
q0 -18 -5 -29t-12 -17.5t-16 -9t-16 -2.5h-197q-25 0 -42 -15.5t-17 -45.5q0 -25 14 -40t41 -26l121 -51q29 -12 58 -27t52.5 -36t38 -51t14.5 -72q0 -38 -11.5 -72t-34 -60t-55.5 -41.5t-75 -15.5h-215zM273 -224q-4 -9 -14.5 -17.5t-26.5 -8.5q-27 0 -38 15.5t-11 28.5v7
l24 120q4 18 18 33t40 15q32 0 47 -18.5t15 -38.5q0 -11 -4 -19z" />
    <glyph glyph-name="scommaaccent" unicode="&#x219;" horiz-adv-x="459" 
d="M92 0q-8 0 -17 3t-17 10t-13 18.5t-5 28.5t6 28.5t14.5 18t17.5 9.5t14 3h188q28 0 28 21q0 14 -36 25l-108 31q-27 7 -50.5 17t-41 25t-27.5 37.5t-10 56.5q0 58 37.5 95.5t110.5 37.5h171q7 0 16 -2.5t17 -8.5t13.5 -17t5.5 -27q0 -17 -5 -28.5t-13 -18.5t-17 -10
t-17 -3h-171q-11 0 -18 -3.5t-7 -13.5q0 -5 9 -10.5t23 -9.5l110 -30q28 -8 51.5 -18t41 -26t27 -39.5t9.5 -57.5q0 -29 -9 -54.5t-27.5 -45t-46.5 -31t-66 -11.5h-188zM242 -224q-4 -9 -14.5 -17.5t-26.5 -8.5q-27 0 -38 15.5t-11 28.5v7l24 120q4 18 18 33t40 15
q32 0 47 -18.5t15 -38.5q0 -11 -4 -19z" />
    <glyph glyph-name="space" unicode=" " horiz-adv-x="320" 
 />
    <glyph glyph-name="Aring" unicode="&#xc5;" horiz-adv-x="567" 
d="M164 760q0 25 9 46.5t25.5 37.5t38 25.5t47.5 9.5q24 0 45.5 -9.5t37.5 -25.5t25.5 -37.5t9.5 -46.5q0 -35 -17.5 -63t-46.5 -43q8 -6 12.5 -15t8.5 -20l194 -547q4 -9 4 -21q0 -23 -19 -40t-49 -17q-36 0 -52 41l-42 114h-226l-40 -115q-13 -40 -53 -40q-32 0 -49 17
t-17 39q0 5 1 11t3 11l193 547q8 23 20 35q-29 15 -46 43t-17 63zM281 474l-72 -214h148q-18 53 -35.5 106.5t-36.5 107.5h-4zM240 760q0 -18 12.5 -30.5t31.5 -12.5q17 0 29.5 12.5t12.5 30.5t-12.5 31t-29.5 13q-19 0 -31.5 -13t-12.5 -31z" />
    <glyph glyph-name="ntilde" unicode="&#xf1;" horiz-adv-x="523" 
d="M423 -5q-32 0 -46 14t-14 32v242q0 38 -23.5 52.5t-57.5 14.5h-116v-309q0 -16 -14 -31t-46 -15q-30 0 -45.5 14.5t-15.5 32.5v362q0 9 3 19.5t10.5 20t19.5 16t31 6.5h181q88 0 140.5 -46.5t52.5 -136.5v-242q0 -16 -14 -31t-46 -15zM158 647q19 0 39.5 -6.5t40 -14
t35.5 -13.5t27 -6q12 0 19 6.5t13.5 14t14 14t21.5 6.5t24 -5.5t17 -13.5t10 -16t3 -12q0 -11 -4 -18q-19 -39 -50 -53.5t-57 -14.5q-18 0 -37 6t-37.5 13.5t-35.5 13.5t-32 6q-9 0 -15.5 -6t-13.5 -13.5t-15 -13.5t-20 -6q-13 0 -23 5t-16.5 12.5t-10 15t-3.5 13.5
q0 18 11 34t27 27.5t34.5 18t33.5 6.5z" />
    <glyph glyph-name="uacute" unicode="&#xfa;" horiz-adv-x="523" 
d="M100 471q30 0 45 -14t15 -32v-242q0 -38 23.5 -52.5t57.5 -14.5h116v309q0 16 14.5 31t45.5 15q29 0 45 -14.5t16 -32.5v-362q0 -9 -3 -19.5t-10.5 -20t-19.5 -16t-31 -6.5h-181q-88 0 -140.5 46.5t-52.5 136.5v242q0 16 14.5 31t45.5 15zM290 541q-15 -17 -38 -17
q-21 0 -30.5 13t-9.5 25q0 16 8 29l63 112q8 15 22.5 26.5t34.5 11.5q25 0 42 -17.5t17 -40.5q0 -11 -4 -23t-13 -21z" />
    <glyph glyph-name="florin" unicode="&#x192;" horiz-adv-x="520" 
d="M325 321q-4 -44 -7.5 -85.5t-7 -76.5t-6 -61t-3.5 -37q-4 -48 -22.5 -81.5t-45.5 -54.5t-61 -31t-69 -10h-69q-17 0 -33 13t-16 39q0 15 5.5 26.5t14.5 20t19.5 13t19.5 4.5h56q33 0 54 12.5t25 50.5l26 258h-74q-16 0 -30 11.5t-14 34.5q0 34 17.5 48t35.5 14h74
q0 3 1.5 15t3 26t2.5 26.5t1 15.5q8 93 61 136.5t135 43.5h69q17 0 33 -13t16 -39q0 -15 -5.5 -26.5t-14.5 -20t-19.5 -13t-19.5 -4.5h-56q-33 0 -54 -11t-25 -49l-8 -87h107q16 0 30 -11t14 -37q0 -30 -18 -45t-35 -15h-107z" />
    <glyph glyph-name="cent" unicode="&#xa2;" horiz-adv-x="520" 
d="M266 0h-6q-43 0 -78 11t-60.5 33.5t-39.5 57t-14 80.5v99q0 46 14 80.5t38.5 57.5t59 35t76.5 12h11v102q0 16 8 28t27 12q36 0 36 -40v-102h59q17 0 33 -15.5t16 -42.5q0 -29 -16 -43.5t-33 -14.5h-60v-235h65q17 0 33 -14.5t16 -43.5q0 -27 -15.5 -42t-34.5 -15h-64
v-100q0 -39 -35 -39q-19 0 -27.5 10.5t-8.5 28.5v100zM188 187q0 -32 16 -52t58 -20h4v235h-3q-41 0 -58 -20t-17 -55v-88z" />
    <glyph glyph-name="ampersandsmall" unicode="&#xe0fb;" horiz-adv-x="507" 
d="M43 301q0 42 12.5 72.5t33.5 51t47.5 30.5t54.5 10h117q53 0 53 -55q0 -27 -13 -39t-40 -12h-109q-22 0 -34.5 -16.5t-12.5 -39.5v-142q0 -24 11 -39.5t32 -15.5h28q34 0 49 20.5t15 47.5v11h-19q-27 0 -40 12t-13 41q0 25 13 39t40 14h106q9 0 18.5 3t16.5 8
q7 6 14.5 8.5t15.5 2.5q22 0 39 -17q17 -19 17 -41q0 -19 -14 -33q-16 -16 -39 -26t-46 -11v-9q0 -42 -14 -75t-37.5 -55.5t-54 -34t-64.5 -11.5h-35q-66 0 -107 40t-41 123v138z" />
    <glyph glyph-name="exclamsmall" unicode="&#xe0fc;" horiz-adv-x="182" 
d="M92 0q-24 0 -42 16t-18 41q0 29 18.5 43t40.5 14q23 0 41.5 -14t18.5 -43q0 -25 -16.5 -41t-42.5 -16zM91 135q-29 0 -42 15.5t-13 40.5v267q0 24 13 39.5t42 15.5q30 0 42 -15.5t12 -39.5v-267q0 -25 -12.5 -40.5t-41.5 -15.5z" />
    <glyph glyph-name="questionsmall" unicode="&#xe0fd;" horiz-adv-x="367" 
d="M185 0q-26 0 -43 16t-17 41q0 29 18.5 43t41.5 14t41 -14t18 -43q0 -25 -16.5 -41t-42.5 -16zM180 513q154 0 154 -122q0 -17 -9.5 -41.5t-24.5 -40.5l-35 -38q-14 -15 -18.5 -27t-4.5 -23v-39q0 -17 -14 -32t-43 -15q-6 0 -15.5 2.5t-18 7.5t-14.5 14t-6 23v59
q0 21 13.5 41.5t29.5 39.5t29.5 35.5t13.5 30.5q0 11 -14 16t-34 5q-12 0 -24 -3.5t-24.5 -8t-25 -8t-25.5 -3.5q-16 0 -31 13t-15 44q0 20 16.5 33.5t40.5 21.5t51 11.5t48 3.5z" />
    <glyph glyph-name="Asmall" unicode="&#xe0fe;" horiz-adv-x="454" 
d="M225 346l-46 -140h95zM147 110l-28 -78q-6 -17 -20 -27t-32 -10q-27 0 -42 15.5t-15 34.5q0 5 1 10.5t3 10.5l146 405q7 18 18 30t37 12h23q26 0 37 -12t18 -30l147 -405q4 -9 4 -20q0 -20 -17 -35.5t-45 -15.5q-33 0 -47 37l-29 78h-159z" />
    <glyph glyph-name="Bsmall" unicode="&#xe0ff;" horiz-adv-x="509" 
d="M170 408v-83h129q10 0 21 11t11 32q0 20 -11.5 30t-24.5 10h-125zM170 224v-119h134q13 0 29 13.5t16 45.5q0 21 -14.5 40.5t-40.5 19.5h-124zM115 0q-55 0 -55 54v407q0 52 55 52h193q27 0 51 -10t42.5 -28t29.5 -44.5t11 -59.5q0 -22 -9 -47.5t-27 -44.5
q26 -20 39.5 -46t13.5 -71q0 -40 -14.5 -70.5t-37 -50.5t-50.5 -30.5t-56 -10.5h-186z" />
    <glyph glyph-name="Csmall" unicode="&#xe100;" horiz-adv-x="441" 
d="M206 0q-32 0 -60.5 9.5t-49.5 29.5t-33.5 50.5t-12.5 71.5v188q0 41 12.5 71.5t34 51t50 31t60.5 10.5h158q26 0 38.5 -14t12.5 -38q0 -25 -12.5 -39t-38.5 -14h-155q-24 0 -37 -15t-13 -40v-194q0 -53 50 -53l155 -1q26 0 38.5 -14t12.5 -38q0 -25 -12.5 -39t-38.5 -14
h-159z" />
    <glyph glyph-name="Dsmall" unicode="&#xe101;" horiz-adv-x="517" 
d="M357 353q0 26 -14 40.5t-44 14.5h-129v-303h131q56 0 56 54v194zM115 0q-55 0 -55 53v408q0 52 55 52h203q32 0 59.5 -10t47.5 -30.5t31 -51t11 -71.5v-188q0 -40 -11.5 -70.5t-32.5 -50.5t-49.5 -30.5t-61.5 -10.5h-197z" />
    <glyph glyph-name="Esmall" unicode="&#xe102;" horiz-adv-x="446" 
d="M116 0q-56 0 -56 53v408q0 52 56 52h251q26 0 38.5 -14t12.5 -38q0 -25 -12.5 -39t-38.5 -14h-197v-85h165q26 0 37.5 -14.5t11.5 -38.5q0 -52 -49 -52h-165v-113h197q26 0 38.5 -14t12.5 -38q0 -25 -12.5 -39t-38.5 -14h-251z" />
    <glyph glyph-name="Fsmall" unicode="&#xe103;" horiz-adv-x="443" 
d="M170 408v-85h165q26 0 37.5 -14.5t11.5 -38.5q0 -52 -49 -52h-165v-173q0 -26 -13.5 -37.5t-40.5 -11.5q-29 0 -42.5 11.5t-13.5 37.5v416q0 52 56 52h251q26 0 38.5 -14t12.5 -38q0 -25 -12.5 -39t-38.5 -14h-197z" />
    <glyph glyph-name="Gsmall" unicode="&#xe104;" horiz-adv-x="487" 
d="M207 0q-32 0 -60 10.5t-50 30.5t-34.5 50.5t-12.5 70.5v188q0 41 13 71.5t35 51t50 30.5t58 10h161q26 0 39 -14t13 -38q0 -25 -13 -39t-39 -14h-148q-31 0 -45 -14.5t-14 -40.5v-194q0 -54 59 -54h113v113h-54q-26 0 -38 14t-12 38q0 25 12 39t38 14h109q25 0 40 -10.5
t15 -42.5v-217q0 -25 -12.5 -39t-40.5 -14h-182z" />
    <glyph glyph-name="Hsmall" unicode="&#xe105;" horiz-adv-x="496" 
d="M385 -4q-28 0 -41 12t-13 39v171h-166v-171q0 -27 -13 -39t-41 -12q-29 0 -42.5 12t-13.5 39v420q0 26 13.5 37.5t42.5 11.5q28 0 41 -11.5t13 -37.5v-144h166v144q0 26 13 37.5t41 11.5q29 0 42.5 -11.5t13.5 -37.5v-420q0 -27 -13.5 -39t-42.5 -12z" />
    <glyph glyph-name="Ismall" unicode="&#xe106;" horiz-adv-x="259" 
d="M130 -4q-29 0 -42 12t-13 39v420q0 26 13 37.5t42 11.5q28 0 41 -11.5t13 -37.5v-420q0 -27 -13 -39t-41 -12z" />
    <glyph glyph-name="Jsmall" unicode="&#xe107;" horiz-adv-x="368" 
d="M179 411h-56q-51 0 -51 50q0 24 12.5 38t38.5 14h108q56 0 56 -52v-1q0 -1 0.5 -3.5t0.5 -11.5v-27v-51v-83v-122q0 -26 -7.5 -54.5t-25.5 -52.5t-48 -39.5t-75 -15.5h-74q-53 0 -53 53q0 27 15 39.5t40 12.5h67q25 0 38.5 15.5t13.5 39.5v251z" />
    <glyph glyph-name="Ksmall" unicode="&#xe108;" horiz-adv-x="456" 
d="M170 332l176 161q24 21 48 21q16 0 34 -13t18 -38q0 -10 -3 -19.5t-11 -15.5l-157 -138l159 -209q6 -8 8.5 -16.5t3.5 -16.5q0 -23 -19 -37t-37 -14q-13 0 -25.5 5.5t-22.5 18.5l-147 199l-25 -23v-148q0 -53 -54 -53q-56 0 -56 53v415q0 52 56 52q54 0 54 -52v-132z" />
    <glyph glyph-name="Lsmall" unicode="&#xe109;" horiz-adv-x="423" 
d="M116 0q-56 0 -56 53v411q0 52 56 52q54 0 54 -52v-359h196q26 0 39 -14t13 -38q0 -25 -13 -39t-39 -14h-250z" />
    <glyph glyph-name="Msmall" unicode="&#xe10a;" horiz-adv-x="560" 
d="M141 513q27 0 37 -11.5t19 -28.5l83 -159l88 171q15 28 51 28h25q56 0 56 -52v-414q0 -27 -13.5 -39t-42.5 -12q-54 0 -54 51v245l-44 -82q-6 -11 -17 -23.5t-37 -12.5h-25q-25 0 -36.5 12.5t-17.5 23.5l-43 81v-244q0 -27 -13 -39t-41 -12q-29 0 -42.5 12t-13.5 39v414
q0 52 56 52h25v0z" />
    <glyph glyph-name="Nsmall" unicode="&#xe10b;" horiz-adv-x="517" 
d="M352 202v265q0 26 11 38t39 12q55 0 55 -50v-414q0 -53 -55 -53h-22q-25 0 -34.5 9t-18.5 24l-157 268v-255q0 -51 -55 -51t-55 51v415q0 52 55 52h24q24 0 36 -12t21 -28z" />
    <glyph glyph-name="Osmall" unicode="&#xe10c;" horiz-adv-x="489" 
d="M278 513q35 0 64.5 -11t51 -32t33.5 -52.5t12 -72.5v-178q0 -41 -13 -72.5t-35 -52.5t-51 -31.5t-61 -10.5h-70q-32 0 -61 10t-50.5 30.5t-34.5 51.5t-13 73v180q0 41 13 72.5t35 52.5t50.5 32t60.5 11h69zM331 351q0 25 -13.5 42t-42.5 17h-62q-26 0 -40 -17t-14 -42
v-191q0 -26 14 -41.5t40 -15.5h62q27 0 41.5 17t14.5 42v189z" />
    <glyph glyph-name="Psmall" unicode="&#xe10d;" horiz-adv-x="476" 
d="M170 408v-119h115q29 0 40.5 19t11.5 42q0 33 -18 45.5t-36 12.5h-113zM170 184v-137q0 -27 -13 -39t-41 -12q-29 0 -42.5 12t-13.5 39v414q0 52 56 52h162q77 0 122.5 -44t45.5 -119q0 -74 -39.5 -120t-126.5 -46h-110z" />
    <glyph glyph-name="Qsmall" unicode="&#xe10e;" horiz-adv-x="489" 
d="M278 513q35 0 64.5 -11t51 -32t33.5 -52.5t12 -72.5v-178q0 -32 -8.5 -58.5t-22.5 -46.5l18 -16q12 -11 12 -26q0 -16 -13.5 -28.5t-25.5 -12.5q-13 0 -28 12l-24 22q-30 -13 -68 -13h-70q-32 0 -61 10t-50.5 30.5t-34.5 51.5t-13 73v180q0 41 13 72.5t35 52.5t50.5 32
t60.5 11h69zM331 351q0 25 -13.5 42t-42.5 17h-62q-26 0 -40 -17t-14 -42v-191q0 -26 14 -41.5t40 -15.5h42l-46 45q-12 12 -12 24q0 6 3.5 13t9 13t12.5 10t15 4q15 0 26 -11l64 -62q4 9 4 23v189z" />
    <glyph glyph-name="Rsmall" unicode="&#xe10f;" horiz-adv-x="465" 
d="M170 408v-119h122q21 0 33 17.5t12 43.5q0 16 -5 27.5t-12.5 18t-16 9.5t-15.5 3h-118zM446 350q0 -23 -4 -46t-14 -43.5t-27 -37.5t-42 -27l69 -119q8 -13 8 -27q0 -20 -15 -37t-39 -17q-15 0 -29 8t-22 21l-91 159h-70v-135q0 -53 -54 -53q-56 0 -56 53v412q0 52 56 52
h160q77 0 123.5 -44t46.5 -119z" />
    <glyph glyph-name="Ssmall" unicode="&#xe110;" horiz-adv-x="441" 
d="M100 0q-7 0 -15.5 2.5t-15.5 8.5t-11.5 16.5t-4.5 25.5t5.5 25t13 16t15.5 8.5t13 2.5h161q14 0 25 10.5t11 30.5q0 16 -12.5 27.5t-34.5 19.5l-96 40q-24 10 -44.5 20.5t-36 25.5t-24.5 37t-9 56q0 30 9.5 56t28 44.5t45 29.5t60.5 11h150q14 0 30.5 -12t16.5 -40
q0 -16 -4.5 -26t-11.5 -16t-15.5 -8.5t-15.5 -2.5h-150q-14 0 -24.5 -9t-10.5 -26q0 -14 9.5 -23t26.5 -17l92 -37q23 -10 46.5 -21.5t42 -28.5t30 -40t11.5 -56q0 -30 -9.5 -57t-28 -48t-45 -33t-60.5 -12h-163z" />
    <glyph glyph-name="Tsmall" unicode="&#xe111;" horiz-adv-x="422" 
d="M265 408v-360q0 -52 -55 -52q-54 0 -54 52v360h-98q-26 0 -38 14t-12 39q0 24 12 38t38 14h304q26 0 38.5 -14t12.5 -38q0 -25 -12.5 -39t-38.5 -14h-97z" />
    <glyph glyph-name="Usmall" unicode="&#xe112;" horiz-adv-x="511" 
d="M343 467q0 15 5.5 25t13.5 15.5t17.5 7.5t17.5 2q7 0 16.5 -2t18 -7.5t14 -15.5t5.5 -25v-304q0 -41 -12.5 -72t-33.5 -51t-49.5 -30t-60.5 -10h-80q-32 0 -60 9.5t-49 29.5t-33.5 50.5t-12.5 71.5v306q0 15 5.5 25t14 15.5t18 7.5t17.5 2t17.5 -2t17.5 -8t13.5 -15.5
t5.5 -24.5v-308q0 -53 49 -53h73q24 0 38 15.5t14 39.5v306z" />
    <glyph glyph-name="Vsmall" unicode="&#xe113;" horiz-adv-x="467" 
d="M47 512q13 5 25 5q15 0 28 -8.5t19 -26.5l116 -327l112 328q7 20 18 28t25 8q25 0 44.5 -15t19.5 -35q0 -9 -3 -19l-148 -408q-7 -19 -19.5 -30.5t-35.5 -11.5h-30q-23 0 -35 12t-19 30l-149 407q-3 7 -3 16q0 15 9.5 28t25.5 19z" />
    <glyph glyph-name="Wsmall" unicode="&#xe114;" horiz-adv-x="631" 
d="M430 181l78 296q6 22 19 31t30 9q29 0 44.5 -14.5t15.5 -37.5q0 -5 -2 -15l-116 -403q-9 -22 -21 -34.5t-37 -12.5h-29q-25 0 -36.5 12.5t-19.5 34.5l-44 200l-43 -207q-6 -18 -18 -29t-36 -11h-29q-25 0 -36 11.5t-19 30.5l-118 407q-1 5 -1.5 8.5t-0.5 8.5
q0 22 16 36.5t43 14.5q16 0 29 -8t19 -27l81 -309l55 258q5 20 16 31t34 11h20q23 0 33.5 -11t15.5 -31z" />
    <glyph glyph-name="Xsmall" unicode="&#xe115;" horiz-adv-x="439" 
d="M411 7q-8 -5 -16 -7.5t-16 -2.5q-28 0 -45 23l-115 160l-113 -157q-8 -11 -20.5 -18.5t-26.5 -7.5q-23 0 -37 15.5t-14 35.5q0 19 12 36l134 183l-121 166q-11 16 -11 31q0 8 4 17.5t11.5 17.5t17 13t21.5 5t24.5 -6t20.5 -18l98 -140l101 140q16 24 42 24q25 0 40 -17
t15 -35t-10 -32l-122 -167l135 -184q5 -7 8 -16t3 -17q0 -26 -20 -42z" />
    <glyph glyph-name="Ysmall" unicode="&#xe116;" horiz-adv-x="442" 
d="M46 512q15 6 28 6q12 0 22.5 -6t19.5 -22l109 -181l105 181q8 14 20 21t24 7q23 0 41.5 -17t18.5 -37q0 -12 -6 -22l-150 -245v-150q0 -52 -55 -52q-25 0 -39.5 14t-14.5 38v153l-154 246q-4 8 -4 18q0 15 9.5 29t25.5 19z" />
    <glyph glyph-name="Zsmall" unicode="&#xe117;" horiz-adv-x="444" 
d="M88 0q-35 0 -46.5 14.5t-11.5 34.5q0 13 5 25t10 19l218 315h-165q-26 0 -38.5 14t-12.5 39q0 24 12.5 38t38.5 14h263q30 0 41.5 -15t11.5 -34q0 -14 -4.5 -24.5t-9.5 -19.5l-218 -315h186q28 0 38 -15.5t10 -36.5t-10 -37t-38 -16h-280z" />
    <glyph glyph-name="Alphasmall" unicode="&#xe183;" horiz-adv-x="454" 
d="M225 346l-46 -140h95zM147 110l-28 -78q-6 -17 -20 -27t-32 -10q-27 0 -42 15.5t-15 34.5q0 5 1 10.5t3 10.5l146 405q7 18 18 30t37 12h23q26 0 37 -12t18 -30l147 -405q4 -9 4 -20q0 -20 -17 -35.5t-45 -15.5q-33 0 -47 37l-29 78h-159z" />
    <glyph glyph-name="Betasmall" unicode="&#xe184;" horiz-adv-x="509" 
d="M170 408v-83h129q10 0 21 11t11 32q0 20 -11.5 30t-24.5 10h-125zM170 224v-119h134q13 0 29 13.5t16 45.5q0 21 -14.5 40.5t-40.5 19.5h-124zM115 0q-55 0 -55 54v407q0 52 55 52h193q27 0 51 -10t42.5 -28t29.5 -44.5t11 -59.5q0 -22 -9 -47.5t-27 -44.5
q26 -20 39.5 -46t13.5 -71q0 -40 -14.5 -70.5t-37 -50.5t-50.5 -30.5t-56 -10.5h-186z" />
    <glyph glyph-name="Gammasmall" unicode="&#xe185;" horiz-adv-x="411" 
d="M152 45q0 -26 -13.5 -37.5t-40.5 -11.5q-29 0 -42.5 11.5t-13.5 37.5v416q0 52 56 52h251q26 0 38.5 -14t12.5 -38q0 -25 -12.5 -39t-38.5 -14h-197v-363z" />
    <glyph glyph-name="Deltasmall" unicode="&#xe186;" horiz-adv-x="453" 
d="M306 104l-79 233l-82 -233h161zM239 513q25 0 36 -12t18 -31l148 -404q3 -7 4 -12.5t1 -10.5q0 -18 -12 -30.5t-33 -12.5h-353q-16 0 -27.5 10.5t-11.5 32.5q0 12 4 23l148 404q7 19 17.5 31t36.5 12h24z" />
    </font>
</defs>
</svg>
