<?xml version="1.0" standalone="no"?>
<!DOCTYPE svg PUBLIC "-//W3C//DTD SVG 1.1//EN" "http://www.w3.org/Graphics/SVG/1.1/DTD/svg11.dtd" >
<svg xmlns="http://www.w3.org/2000/svg" xmlns:xlink="http://www.w3.org/1999/xlink" version="1.1">
<metadata>
Created by FontForge 20160407 at Fri Sep 30 13:27:56 2016
 By Jimmy Warting
Copyright (c) 2000, 2002, 2005 Parachute :, www.parachute.gr.  All rights reserved.
</metadata>
<defs>
<font id="PFIsotextPro-BoldItalic" horiz-adv-x="1818" >
  <font-face 
    font-family="PF Isotext Pro"
    font-weight="700"
    font-style="italic"
    font-stretch="normal"
    units-per-em="1000"
    panose-1="2 0 8 6 0 0 0 9 0 4"
    ascent="750"
    descent="-250"
    x-height="466"
    cap-height="668"
    bbox="-159 -250 1760 913"
    underline-thickness="60"
    underline-position="-110"
    slope="-12"
    unicode-range="U+0020-FB05"
  />
<missing-glyph horiz-adv-x="454" 
d="M0 700h454v-700h-454v700zM327 85l-100 181l-100 -181h200zM327 615h-200l100 -181zM369 184v332l-92 -166zM85 184l92 166l-92 166v-332z" />
    <glyph glyph-name="ff" unicode="ff" horiz-adv-x="702" 
d="M123 466l6 36q15 94 62.5 137t129.5 43h54q26 0 40.5 -12.5t14.5 -37.5v-7q-1 -15 -7.5 -26t-16 -18.5t-20 -11t-19.5 -3.5h-34q-33 0 -55 -11t-28 -49l-7 -40h196q0 3 1.5 12.5t3.5 20.5t3.5 20.5t2.5 12.5q14 94 60 137t128 43h89q17 0 31 -14t14 -41v-2
q0 -14 -6.5 -24.5t-16 -18.5t-20.5 -12t-20 -4h-56q-33 0 -55.5 -11t-28.5 -49l-11 -70h107q15 0 28 -9.5t13 -32.5q0 -8 -1 -12q-5 -27 -22.5 -40.5t-34.5 -13.5h-107l-80 -484q-3 -17 -20.5 -32t-46.5 -15q-28 0 -41 12t-13 28l1 7l80 484h-195l-67 -408q-3 -17 -20.5 -32
t-46.5 -15q-28 0 -41 12t-13 28l1 7l67 408h-32q-15 0 -28 10.5t-13 32.5q0 7 1 11q5 29 22.5 41.5t34.5 12.5h32z" />
    <glyph glyph-name="fi" unicode="fi" horiz-adv-x="572" 
d="M482 20q-3 -20 -8 -23t-22 -3q-39 0 -57.5 28t-18.5 71q0 18 3 38l36 227h-189l-74 -484q-2 -17 -20 -32t-47 -15t-41 12.5t-12 28.5v6l74 484h-32q-15 0 -28 10.5t-13 32.5q0 18 5.5 30t14.5 20t19 11.5t19 3.5h32l8 46q16 94 65.5 137t128.5 43h133q18 0 31.5 -14.5
t13.5 -42.5q0 -14 -6.5 -24.5t-16.5 -18.5t-20.5 -12t-19.5 -4h-105q-33 0 -55.5 -11t-28.5 -49l-8 -50h248q23 0 37 -11.5t14 -33.5q0 -7 -1 -11z" />
    <glyph glyph-name="fl" unicode="fl" horiz-adv-x="650" 
d="M449 569h-115q-33 0 -55.5 -11t-28.5 -49l-7 -43h87q15 0 28 -9.5t13 -32.5q0 -33 -19.5 -49.5t-38.5 -16.5h-87l-76 -484q-2 -17 -19.5 -32t-47.5 -15q-29 0 -41 12.5t-12 28.5l76 490h-32q-15 0 -28 10.5t-13 32.5q0 18 5.5 30t14.5 20t19 11.5t19 3.5h32l6 39
q14 94 60.5 136.5t134.5 42.5h154q9 8 21.5 13t29.5 5q26 0 39.5 -12.5t13.5 -28.5q0 -2 -0.5 -3t-0.5 -3l-100 -635q-3 -20 -8 -23t-22 -3q-40 0 -58.5 28t-18.5 66q0 7 0.5 14t1.5 14z" />
    <glyph glyph-name="ffi" unicode="ffi" horiz-adv-x="887" 
d="M541 358l-77 -484q-3 -17 -20.5 -32t-46.5 -15t-41 12.5t-12 28.5v6l77 484h-195l-65 -408q-3 -17 -20.5 -32t-46.5 -15t-41 12.5t-12 28.5v6l65 408h-32q-15 0 -28 10.5t-13 32.5q0 18 5.5 30t14.5 20t19 11.5t19 3.5h32l6 36q16 94 60 137t126 43h81q19 0 31.5 -14.5
t12.5 -42.5q0 -14 -6.5 -24.5t-16.5 -18.5t-20.5 -12t-19.5 -4h-44q-33 0 -54.5 -11t-28.5 -49l-7 -40h195l11 66q16 94 62.5 137t137.5 43h133q18 0 31.5 -14.5t13.5 -42.5q0 -14 -6.5 -24.5t-16.5 -18.5t-20.5 -12t-19.5 -4h-111q-33 0 -55.5 -11t-28.5 -49l-11 -70h248
q23 0 37 -11.5t14 -33.5q0 -7 -1 -11l-59 -390q-3 -20 -8 -23t-22 -3q-39 0 -57.5 28t-18.5 71q0 18 3 38l36 227h-189z" />
    <glyph glyph-name="ffl" unicode="ffl" horiz-adv-x="965" 
d="M768 596h-115q-33 0 -55.5 -11t-28.5 -49l-11 -70h87q15 0 28 -9.5t13 -32.5q0 -33 -19.5 -49.5t-38.5 -16.5h-87l-78 -484q-3 -17 -20.5 -32t-46.5 -15t-41 12.5t-12 28.5l78 490h-195l-67 -408q-3 -17 -20.5 -32t-46.5 -15t-41 12.5t-12 28.5l67 414h-32
q-15 0 -28 10.5t-13 32.5q0 18 5.5 30t14.5 20t19 11.5t19 3.5h32l6 36q16 94 67 137t133 43h67q19 0 31.5 -14.5t12.5 -42.5q0 -14 -6.5 -24.5t-16.5 -18.5t-20.5 -12t-19.5 -4h-44q-33 0 -54.5 -11t-28.5 -49l-7 -40h195l11 66q16 94 62.5 136.5t129.5 42.5h156
q9 8 21.5 13t29.5 5q26 0 39.5 -13t13.5 -29l-105 -667q-3 -20 -8.5 -23t-22.5 -3q-40 0 -58.5 28t-18.5 66q0 7 0.5 14t1.5 14z" />
    <glyph glyph-name="ft" unicode="ft" horiz-adv-x="733" 
d="M658 110q17 0 31.5 -11.5t14.5 -34.5q0 -16 -6.5 -28.5t-16 -21t-21 -13t-20.5 -4.5h-81q-30 0 -55.5 8t-44.5 24.5t-29.5 42t-10.5 60.5q0 10 1 20.5t3 21.5l29 184h-226l-73 -484q-2 -17 -20 -32t-47 -15t-41 12.5t-12 28.5v6l73 484h-32q-15 0 -28 10.5t-13 32.5
q0 18 5.5 30t14.5 20t19 11.5t19 3.5h33l8 46q17 94 62.5 137t129.5 43h80q18 0 31.5 -14.5t13.5 -42.5q0 -14 -6.5 -24.5t-16.5 -18.5t-20.5 -12t-19.5 -4h-51q-33 0 -55.5 -11t-28.5 -49l-8 -50h225l20 124q3 17 19.5 32t47.5 15q26 0 40 -12.5t14 -28.5q0 -2 -0.5 -3
t-0.5 -3l-20 -124h104q16 0 28 -11.5t12 -32.5q0 -18 -5.5 -30.5t-14 -20t-18.5 -10.5t-19 -3h-104l-28 -176q-1 -5 -1 -9.5v-9.5q0 -53 64 -53h52z" />
    <glyph glyph-name="fj" unicode="fj" horiz-adv-x="572" 
d="M413 358h-187l-50 -316q-3 -17 -19 -32t-45 -15q-28 0 -42.5 12.5t-14.5 28.5l1 6l50 316h-32q-15 0 -28 10.5t-13 32.5q0 7 1 11q5 29 22.5 41.5t34.5 12.5h32l8 46q16 94 62 137t128 43h143q17 0 31 -13t14 -38v-6q-1 -14 -7.5 -24.5t-16 -18.5t-20 -12t-19.5 -4h-111
q-33 0 -55.5 -11t-28.5 -49l-8 -50h248q23 0 37 -11.5t14 -33.5q0 -7 -1 -11l-68 -429q-15 -96 -63 -139.5t-145 -43.5h-49q-16 0 -28.5 12t-12.5 34q0 8 1 12q5 29 23 43t35 14h42q33 0 52 17.5t25 55.5z" />
    <glyph glyph-name="ffj" unicode="ffj" horiz-adv-x="887" 
d="M728 358h-187l-50 -316q-3 -17 -19 -32t-45 -15q-28 0 -42.5 12.5t-14.5 28.5l1 6l50 316h-195l-50 -316q-3 -17 -20.5 -32t-46.5 -15q-28 0 -41 12t-13 28l1 7l50 316h-32q-15 0 -28 10.5t-13 32.5q0 7 1 11q5 29 22.5 41.5t34.5 12.5h32l6 36q15 94 63.5 137t130.5 43
h73q17 0 30.5 -13.5t13.5 -39.5v-4q-1 -14 -7.5 -24.5t-16 -18.5t-20 -12t-19.5 -4h-44q-33 0 -55 -11t-28 -49l-7 -40h195l11 66q16 94 62 137t128 43h143q17 0 31 -13t14 -38v-6q-1 -14 -7.5 -24.5t-16 -18.5t-20 -12t-19.5 -4h-111q-33 0 -55.5 -11t-28.5 -49l-11 -70
h248q23 0 37 -11.5t14 -33.5q0 -7 -1 -11l-68 -429q-15 -96 -63 -139.5t-145 -43.5h-49q-16 0 -28.5 12t-12.5 34q0 8 1 12q5 29 23 43t35 14h42q33 0 52 17.5t25 55.5z" />
    <glyph glyph-name=".notdef" horiz-adv-x="454" 
d="M0 700h454v-700h-454v700zM327 85l-100 181l-100 -181h200zM327 615h-200l100 -181zM369 184v332l-92 -166zM85 184l92 166l-92 166v-332z" />
    <glyph glyph-name="exclam" unicode="!" horiz-adv-x="233" 
d="M83 0q-24 0 -41 15.5t-17 38.5q0 19 7 33t18.5 23t25 13.5t26.5 4.5q23 0 40 -13t17 -40q0 -31 -22.5 -53t-53.5 -22zM110 183q-27 0 -39 13.5t-12 34.5q0 9 1 14l57 361q5 27 21.5 44.5t48.5 17.5q27 0 39 -12.5t12 -33.5q0 -4 -0.5 -7.5t-1.5 -8.5l-57 -361
q-5 -27 -21 -44.5t-48 -17.5z" />
    <glyph glyph-name="quotedbl" unicode="&#x22;" horiz-adv-x="313" 
d="M266 430q-16 0 -26 4t-15.5 11t-7.5 14.5t-2 15.5q0 3 0.5 6t0.5 5l22 135q1 6 4.5 15t11 17.5t19.5 14t32 5.5q23 0 34.5 -13.5t11.5 -33.5q0 -8 -1 -12l-21 -129q-4 -24 -19.5 -39.5t-43.5 -15.5zM116 430q-16 0 -26 4t-15.5 11t-7.5 14.5t-2 15.5q0 3 0.5 6t0.5 5
l22 135q1 6 4.5 15t11 17.5t19.5 14t32 5.5q23 0 34.5 -13.5t11.5 -33.5q0 -8 -1 -12l-21 -129q-4 -24 -19.5 -39.5t-43.5 -15.5z" />
    <glyph glyph-name="numbersign" unicode="#" horiz-adv-x="520" 
d="M434 604q5 11 16 18.5t28 7.5q25 0 36 -11.5t11 -24.5q0 -5 -1 -8.5t-3 -7.5l-55 -120h28q11 0 20.5 -9t9.5 -26q0 -30 -17 -43.5t-29 -13.5h-55l-28 -61h40q11 0 21 -9.5t10 -25.5q0 -15 -5.5 -25.5t-13 -17.5t-15.5 -10.5t-13 -3.5h-67l-82 -179q-5 -10 -16 -16.5
t-27 -6.5q-26 0 -36 12t-10 24q0 8 3 16l69 150h-75l-76 -168q-5 -10 -17 -17t-28 -7q-25 0 -35 13.5t-10 24.5q0 7 3 15l64 139h-18q-11 0 -21.5 7.5t-10.5 24.5q0 29 15.5 44.5t29.5 15.5h48l27 61h-31q-11 0 -21 8t-10 26q0 32 16.5 45t29.5 13h59l73 157q5 10 15.5 18
t27.5 8q26 0 37 -12.5t11 -23.5q0 -5 -1 -8.5t-3 -7.5l-61 -131h76zM221 305h75l28 61h-75z" />
    <glyph glyph-name="dollar" unicode="$" horiz-adv-x="520" 
d="M294 699q2 11 14 22.5t33 11.5q20 0 28.5 -10.5t8.5 -21.5l-8 -50h108q12 0 25.5 -11.5t13.5 -34.5q0 -21 -6.5 -34.5t-16 -21t-19 -10t-15.5 -2.5h-108l-25 -152l22 -9q27 -11 51.5 -25t43.5 -33.5t30.5 -46t11.5 -62.5q0 -48 -17 -84.5t-46 -62t-67 -38.5t-80 -13h-8
l-8 -49q-2 -11 -14.5 -21.5t-32.5 -10.5q-23 0 -29 11t-6 22l7 48h-113q-14 0 -26.5 9t-12.5 35q0 20 6.5 33.5t16 21.5t19 11.5t15.5 3.5h113l27 170l-33 15q-21 9 -42 21.5t-38 30.5t-27.5 43t-10.5 59q0 40 14 74t40.5 59t65 39t88.5 15zM296 125q22 0 43 17.5t21 50.5
q0 44 -52 68l-22 -136h10zM269 537q-27 0 -47 -18t-20 -49q0 -32 48 -51z" />
    <glyph glyph-name="percent" unicode="%" horiz-adv-x="821" 
d="M251 668q26 0 49 -8t40 -23t27 -36.5t10 -48.5q0 -5 -0.5 -10.5t-1.5 -10.5l-20 -139q-9 -65 -48.5 -97t-96.5 -32h-16q-54 0 -88 31.5t-34 85.5q0 6 0.5 12t1.5 12l19 135q9 63 49.5 96t97.5 33h11zM278 538q2 17 -7 28t-29 11h-5q-20 0 -30.5 -11t-14.5 -28l-22 -143
v-7q0 -14 9 -24.5t29 -10.5h4q18 0 28.5 11.5t14.5 28.5zM554 661q8 16 21 22.5t27 6.5q12 0 27.5 -7.5t15.5 -29.5q0 -12 -7 -26l-332 -609q-19 -35 -50 -35q-21 0 -33.5 10.5t-12.5 25.5q0 7 2.5 14.5t6.5 15.5zM662 405q26 0 49 -8t40 -23t27 -36.5t10 -48.5
q0 -5 -0.5 -10.5t-1.5 -10.5l-20 -139q-9 -65 -48.5 -97t-96.5 -32h-16q-54 0 -88 31.5t-34 85.5q0 6 0.5 12t1.5 12l19 135q9 63 49.5 96t97.5 33h11zM689 275q2 17 -7 28t-29 11h-5q-20 0 -30.5 -11t-14.5 -28l-22 -143v-7q0 -14 9 -24.5t29 -10.5h4q18 0 28.5 11.5
t14.5 28.5z" />
    <glyph glyph-name="ampersand" unicode="&#x26;" horiz-adv-x="650" 
d="M87 395q8 52 29 91.5t50.5 65t64.5 38.5t71 13h154q50 0 50 -44q0 -4 -0.5 -8t-1.5 -9q-5 -30 -21.5 -43.5t-45.5 -13.5h-144q-39 0 -60 -24.5t-27 -62.5l-31 -193q-1 -5 -1.5 -11t-0.5 -11q0 -29 16 -47.5t53 -18.5h28q26 0 45.5 8.5t33 23t22 33.5t11.5 40l9 56h-78
q-24 0 -36.5 9t-12.5 31q0 4 0.5 8t1.5 9q5 29 20.5 44.5t44.5 15.5h179q14 0 30 4.5t27 12.5q17 13 34 13q11 0 21 -5.5t18 -14.5q12 -15 12 -36q0 -12 -5 -23.5t-16 -21.5q-23 -21 -54 -33.5t-60 -12.5h-5l-9 -53q-9 -54 -31 -96t-54 -70.5t-71 -43.5t-81 -15h-44
q-36 0 -66 11.5t-51.5 33t-34 54t-12.5 74.5q0 21 3 44z" />
    <glyph glyph-name="quoteright" unicode="&#x2019;" horiz-adv-x="216" 
d="M167 472q-7 -11 -20.5 -20.5t-31.5 -9.5q-27 0 -38 14t-11 28q0 8 3 16l49 139q8 20 27 37.5t48 17.5q32 0 47 -17t15 -39q0 -17 -9 -32z" />
    <glyph glyph-name="parenleft" unicode="(" horiz-adv-x="284" 
d="M166 316q-4 -23 -5.5 -46t-1.5 -46q0 -68 14 -128t37 -102q7 -14 7 -27q0 -12 -6 -21.5t-17 -19.5q-22 -17 -43 -17q-24 0 -36 20q-16 27 -30.5 60.5t-25 72t-17 81t-6.5 86.5q0 46 7 87q9 56 30.5 115t49.5 113t59.5 98.5t60.5 71.5q25 24 45 24q13 0 28 -10
q21 -14 21 -33q0 -18 -19 -42q-59 -75 -98.5 -161t-53.5 -176z" />
    <glyph glyph-name="parenright" unicode=")" horiz-adv-x="284" 
d="M148 316q4 23 5.5 45.5t1.5 45.5q0 66 -14 127.5t-40 117.5q-7 17 -7 29q0 29 34 47q8 5 15 7.5t15 2.5q21 0 39 -24q16 -22 30.5 -56t25.5 -75t17.5 -87.5t6.5 -93.5q0 -44 -6 -86q-9 -56 -29.5 -111t-47.5 -105.5t-58 -94t-62 -76.5q-18 -20 -41 -20q-22 0 -37 17
q-12 15 -12 29q0 18 18 39q24 28 47 64.5t42.5 78.5t34 87.5t22.5 91.5z" />
    <glyph glyph-name="asterisk" unicode="*" horiz-adv-x="431" 
d="M413 599q6 2 11.5 3.5t11.5 1.5q8 0 15.5 -4.5t11.5 -15.5q2 -8 2 -12q0 -13 -8 -21.5t-21 -16.5l-104 -64q12 -25 23 -49.5t23 -50.5q2 -5 3 -9t1 -9q0 -9 -4 -18t-15 -17q-11 -7 -21 -7q-8 0 -15 4.5t-13 12.5l-70 93l-108 -97q-11 -11 -28 -11q-12 0 -21 10v-1
q-10 10 -10 20q0 8 4.5 16t11.5 16l77 96l-83 62q-8 5 -13.5 13t-5.5 17q0 10 9 22q7 11 14.5 14.5t15.5 3.5q10 0 22 -5q20 -8 43.5 -18.5t44.5 -18.5l26 97q4 14 13.5 27t29.5 13q19 0 24 -9t5 -22v-105z" />
    <glyph glyph-name="plus" unicode="+" horiz-adv-x="520" 
d="M323 269l-17 -108q-3 -22 -19 -37t-46 -15q-25 0 -36 12.5t-11 30.5q0 2 0.5 4.5t0.5 4.5l17 108h-117q-22 0 -35.5 10.5t-13.5 31.5q0 16 6 28t15.5 19.5t21 11.5t23.5 4h117l17 110q3 21 18 36t44 15q50 0 50 -39q0 -8 -1 -12l-17 -110h116q21 0 34.5 -10t13.5 -32
q0 -32 -18.5 -47.5t-46.5 -15.5h-116z" />
    <glyph glyph-name="comma" unicode="," horiz-adv-x="188" 
d="M61 -87q-7 -11 -20.5 -20.5t-31.5 -9.5q-27 0 -38 14t-11 28q0 8 3 16l48 139q8 20 27 37.5t48 17.5q33 0 48 -17t15 -39q0 -17 -9 -32z" />
    <glyph glyph-name="hyphen" unicode="-" horiz-adv-x="383" 
d="M310 298q52 0 52 -42q0 -71 -70 -71h-213q-52 0 -52 42q0 37 18.5 54t51.5 17h213z" />
    <glyph glyph-name="period" unicode="." horiz-adv-x="207" 
d="M69 0q-27 0 -44 16.5t-17 40.5q0 19 7.5 33.5t19.5 24.5t26 14.5t28 4.5q24 0 41.5 -13.5t17.5 -40.5q0 -15 -6 -29.5t-16.5 -25.5t-25 -18t-31.5 -7z" />
    <glyph glyph-name="slash" unicode="/" horiz-adv-x="503" 
d="M87 -23q-19 -29 -50 -29q-20 0 -37.5 12t-17.5 35q0 19 10 33l438 660q9 14 23 20t28 6q24 0 39.5 -14t15.5 -32q0 -16 -10 -30z" />
    <glyph glyph-name="zero" unicode="0" horiz-adv-x="520" 
d="M328 669q38 0 70.5 -11.5t56 -34t37 -55t13.5 -74.5q0 -11 -1 -21.5t-3 -22.5l-38 -242q-17 -105 -74 -156.5t-139 -51.5h-19q-39 0 -72 12t-57 35.5t-37.5 57t-13.5 75.5q0 21 3 44l37 236q17 105 76 157t144 52h17zM387 459q1 6 1.5 12t0.5 11q0 32 -17.5 52t-59.5 20
h-9q-38 0 -62 -24t-31 -64l-44 -264q-1 -5 -1.5 -10.5t-0.5 -10.5q0 -67 82 -67h9q37 0 59 25t29 63z" />
    <glyph glyph-name="one" unicode="1" horiz-adv-x="520" 
d="M248 -5q-31 0 -42 12.5t-11 29.5q0 3 0.5 5.5t0.5 5.5l72 453l-58 -40q-18 -12 -37 -12q-17 0 -33 13.5t-16 39.5q0 14 7 27.5t21 23.5l145 100q19 13 30.5 16t26.5 3q26 0 38 -8t12 -31v-10.5t-2 -12.5l-89 -564q-3 -17 -16.5 -34t-48.5 -17z" />
    <glyph glyph-name="two" unicode="2" horiz-adv-x="520" 
d="M183 551q-49 0 -49 44q0 36 19 55t48 19h159q80 0 122 -40t42 -107q0 -46 -15.5 -80.5t-40.5 -60.5t-56.5 -45.5t-63.5 -34.5l-119 -57q-36 -17 -54.5 -40t-23.5 -52l-6 -35h258q49 0 49 -43q0 -36 -18.5 -55t-48.5 -19h-314q-29 0 -41.5 13t-12.5 33q0 7 1 11l14 91
q10 69 48 114t109 82q32 16 69 32t69 34.5t53.5 41.5t21.5 53q0 23 -15.5 34.5t-35.5 11.5h-168z" />
    <glyph glyph-name="three" unicode="3" horiz-adv-x="520" 
d="M331 669q22 0 50 -6.5t52.5 -23.5t41 -46.5t16.5 -75.5q0 -52 -24 -93.5t-73 -61.5q31 -21 45.5 -52t14.5 -70q0 -61 -21 -106t-54.5 -75t-74.5 -44.5t-81 -14.5h-169q-14 0 -27.5 11t-13.5 35q0 21 6.5 35t15.5 21.5t19 10.5t18 3h157q19 0 38.5 7t35 20.5t25 33.5
t9.5 45q0 40 -24 63t-62 23h-86q-15 0 -28 10.5t-13 34.5q0 20 6 32.5t15 20t19 10.5t18 3h102q15 0 31 4.5t28.5 14.5t21 25.5t8.5 36.5q0 29 -20.5 41t-46.5 12h-151q-15 0 -28 8.5t-13 32.5q0 20 6.5 34t15.5 23t19 13.5t18 4.5h158z" />
    <glyph glyph-name="four" unicode="4" horiz-adv-x="520" 
d="M69 121q-31 0 -43 9t-12 30v8.5t1 9.5q2 15 7 25t16 30l233 404q12 21 27 29t31 8q11 0 23 -3q14 -5 23 -15.5t9 -25.5t-10 -32l-209 -360h116l17 108q4 22 19.5 37.5t47.5 15.5q24 0 37 -11.5t13 -31.5q0 -7 -1 -10l-17 -108h58q15 0 29 -11.5t14 -35.5q0 -7 -1 -11
q-4 -26 -19 -42.5t-41 -16.5h-58l-13 -78q-3 -19 -18.5 -34t-46.5 -15q-52 0 -52 40q0 6 1 9l13 78h-194z" />
    <glyph glyph-name="five" unicode="5" horiz-adv-x="520" 
d="M69 0q-12 0 -26.5 11t-14.5 36q0 21 6.5 34t16 20.5t19.5 10.5t17 3h162q19 0 37 6.5t31.5 21t22 37t8.5 54.5q0 40 -20.5 58.5t-52.5 18.5h-145q-31 0 -41.5 17t-10.5 34q0 3 0.5 6.5t0.5 5.5l36 230q4 22 19.5 42.5t51.5 20.5h286q19 0 30.5 -10.5t11.5 -33.5
q0 -22 -6.5 -35.5t-16 -21.5t-20 -11t-17.5 -3h-233l-20 -125h109q72 0 116.5 -40.5t44.5 -132.5q0 -67 -18.5 -115t-49.5 -79t-71 -45.5t-82 -14.5h-181z" />
    <glyph glyph-name="six" unicode="6" horiz-adv-x="520" 
d="M181 0q-46 0 -75.5 16t-45 41.5t-19 58t1.5 64.5l45 281q9 57 29.5 96.5t48.5 64t62.5 36t72.5 11.5h149q20 0 32.5 -11t12.5 -34q0 -38 -17.5 -54t-46.5 -16h-132q-38 0 -63 -21.5t-33 -68.5l-7 -43h120q35 0 64.5 -9t51 -29t33.5 -51t12 -76q0 -65 -17.5 -113.5
t-47.5 -80t-69.5 -47t-84.5 -15.5h-77zM258 111q20 0 38.5 7.5t32.5 22t22 36.5t8 51q0 42 -18.5 60t-51.5 18h-111l-20 -129q-2 -11 -1 -23t6.5 -21.5t17 -15.5t29.5 -6h48z" />
    <glyph glyph-name="seven" unicode="7" horiz-adv-x="520" 
d="M471 668q31 0 43.5 -8.5t12.5 -30.5q0 -16 -5 -30t-20 -43l-278 -530q-10 -20 -24.5 -27t-29.5 -7q-30 0 -44.5 14t-14.5 32q0 15 7 28l260 486h-230q-15 0 -28.5 12t-13.5 35q0 16 6 29t15 22t19.5 13.5t19.5 4.5h305z" />
    <glyph glyph-name="eight" unicode="8" horiz-adv-x="520" 
d="M336 672q36 0 66.5 -11t53 -31.5t35 -49t12.5 -63.5q0 -18 -5.5 -39t-17 -42t-28.5 -39t-40 -30q31 -18 45 -48.5t14 -69.5q0 -64 -21 -111t-54 -77.5t-74 -45.5t-82 -15h-19q-36 0 -68 10.5t-56 32.5t-37.5 54.5t-13.5 77.5q0 37 8.5 68t22.5 55t33 41t39 28
q-27 17 -37.5 43.5t-10.5 55.5q0 49 18.5 87.5t49.5 64.5t69.5 40t79.5 14h18zM249 110q19 0 38 9t34 25t24 39t9 52q0 34 -20 57t-53 23h-15q-20 0 -38.5 -8.5t-33 -25t-23.5 -40t-9 -53.5q0 -33 19.5 -55.5t52.5 -22.5h15zM307 564q-39 0 -65.5 -24.5t-26.5 -62.5
q0 -25 16 -42t48 -17h24q22 0 38 8t26.5 19.5t15.5 25.5t5 26q0 27 -17.5 47t-51.5 20h-12z" />
    <glyph glyph-name="nine" unicode="9" horiz-adv-x="520" 
d="M373 669q46 0 75.5 -16t45 -41.5t19 -58t-1.5 -64.5l-45 -281q-9 -57 -29.5 -96.5t-48.5 -64t-63 -36t-72 -11.5h-149q-20 0 -32.5 11t-12.5 34q0 38 17.5 54t46.5 16h132q38 0 63 21.5t33 68.5l7 43h-120q-35 0 -64.5 9t-51 29t-33.5 51t-12 76q0 65 17.5 113.5t47.5 80
t69.5 47t84.5 15.5h77zM296 558q-20 0 -38.5 -7.5t-32.5 -22t-22 -36.5t-8 -51q0 -42 18.5 -60t51.5 -18h111l20 129q2 11 1 23t-6.5 21.5t-17 15.5t-29.5 6h-48z" />
    <glyph glyph-name="colon" unicode=":" horiz-adv-x="203" 
d="M69 0q-27 0 -44 16.5t-17 40.5q0 19 7.5 33.5t19.5 24.5t26 14.5t28 4.5q24 0 41.5 -13.5t17.5 -40.5q0 -15 -6 -29.5t-16.5 -25.5t-25 -18t-31.5 -7zM105 229q-27 0 -44 17t-17 41q0 19 8 33.5t20 24t26 14t27 4.5q23 0 41 -13t18 -40q0 -15 -5.5 -29.5t-16 -26
t-25 -18.5t-32.5 -7z" />
    <glyph glyph-name="semicolon" unicode=";" horiz-adv-x="203" 
d="M105 229q-27 0 -44 17t-17 41q0 19 8 33.5t20 24t26 14t27 4.5q23 0 41 -13t18 -40q0 -15 -5.5 -29.5t-16 -26t-25 -18.5t-32.5 -7zM61 -87q-7 -11 -20.5 -20.5t-31.5 -9.5q-27 0 -38 14t-11 28q0 8 3 16l48 139q8 20 27 37.5t48 17.5q33 0 48 -17t15 -39q0 -17 -9 -32z
" />
    <glyph glyph-name="less" unicode="&#x3c;" horiz-adv-x="520" 
d="M233 318l241 -86q28 -9 28 -40q0 -32 -18.5 -48t-36.5 -16q-12 0 -27 5l-360 129q-17 6 -27.5 15.5t-10.5 27.5q0 17 3 27.5t10 17.5t17 12t24 11l406 161q13 5 24 5q19 0 32 -13t13 -38q0 -19 -10.5 -35t-33.5 -25l-273 -106z" />
    <glyph glyph-name="equal" unicode="=" horiz-adv-x="520" 
d="M114 358q-52 0 -52 41q0 67 69 67h333q53 0 53 -41q0 -34 -19 -50.5t-51 -16.5h-333zM89 202q-52 0 -52 40q0 35 18.5 51.5t51.5 16.5h333q52 0 52 -41q0 -67 -70 -67h-333z" />
    <glyph glyph-name="greater" unicode="&#x3e;" horiz-adv-x="520" 
d="M318 331l-239 106q-28 13 -28 34q0 28 19.5 48.5t41.5 20.5q13 0 24 -6l356 -161q19 -8 27.5 -16t8.5 -24q0 -34 -16 -48.5t-40 -22.5l-400 -129q-6 -2 -12.5 -3t-12.5 -1q-19 0 -32 14t-13 44q0 16 10 30.5t38 23.5l267 86z" />
    <glyph glyph-name="question" unicode="?" horiz-adv-x="470" 
d="M202 0q-25 0 -41 15.5t-16 38.5q0 19 7 33t18.5 23t25 13.5t26.5 4.5q23 0 40 -13t17 -40q0 -31 -22.5 -53t-54.5 -22zM301 668q79 0 122.5 -30.5t43.5 -91.5q0 -36 -14 -69t-44 -62l-54 -52q-24 -23 -33 -41t-12 -36l-9 -53q-3 -18 -21 -34t-50 -16q-6 0 -15 2t-16.5 7
t-13 13t-5.5 20q0 2 0.5 4t0.5 4l13 80q3 22 16.5 41.5t31.5 38.5l67 71q11 12 20 24t9 29q0 19 -19 28t-50 9q-25 0 -49 -7t-58 -18q-15 -5 -27 -5q-17 0 -28.5 12t-11.5 40q0 26 22 44t54 28.5t67.5 15t62.5 4.5z" />
    <glyph glyph-name="at" unicode="@" horiz-adv-x="919" 
d="M652 223l-1 -8q0 -23 29 -23q25 0 46 15.5t36 42.5t23.5 64t8.5 81q0 55 -18.5 99.5t-52 76.5t-82 49.5t-108.5 17.5q-71 0 -138 -26.5t-119 -76.5t-84 -123.5t-32 -167.5q0 -121 64 -188.5t195 -67.5q39 0 80 7.5t75 24.5q13 6 24 6q20 0 30.5 -13.5t10.5 -29.5
q0 -24 -23.5 -41t-58 -28t-75 -16.5t-74.5 -5.5q-83 0 -148 24.5t-110 70.5t-69 110t-24 144q0 100 34.5 190t97.5 158t153 108t201 40q78 0 143 -23.5t112.5 -67t73.5 -105.5t26 -138q0 -80 -21.5 -137.5t-55.5 -94t-75.5 -54t-80.5 -17.5q-54 0 -86 23.5t-32 74.5
q0 6 0.5 12.5t1.5 13.5l31 205h-131q-27 0 -48.5 -15t-26.5 -48l-15 -93q-1 -5 -1 -15q0 -25 13 -36.5t31 -11.5h71q16 0 28.5 -10t12.5 -32q0 -8 -1 -12q-4 -24 -20 -37t-36 -13h-68q-29 0 -54.5 7.5t-44.5 23.5t-30 39.5t-11 56.5q0 7 0.5 14t1.5 15l15 104q11 81 63 124
t132 43h184q20 0 34 -11.5t14 -36.5q0 -4 -0.5 -7.5t-1.5 -8.5z" />
    <glyph glyph-name="A" unicode="A" horiz-adv-x="567" 
d="M330 478l-106 -218h148l-38 218h-4zM166 149l-58 -115q-11 -23 -25.5 -32.5t-31.5 -9.5q-29 0 -48.5 16.5t-19.5 37.5q0 13 7 26l280 547q11 21 26 35t42 14h30q26 0 37.5 -13.5t16.5 -35.5l115 -547q2 -10 2 -16q0 -25 -17.5 -43.5t-53.5 -18.5q-43 0 -52 41l-24 114
h-226z" />
    <glyph glyph-name="B" unicode="B" horiz-adv-x="611" 
d="M232 552l-22 -139h182q12 0 24 5.5t21.5 16.5t16 26.5t6.5 35.5q0 28 -15.5 41.5t-35.5 13.5h-177zM192 302l-29 -186h189q12 0 27.5 5t29 17t23 32.5t9.5 50.5t-20 55.5t-57 25.5h-172zM85 0q-26 0 -39 12.5t-13 33.5v6.5t1 7.5l87 550q9 58 69 58h245q30 0 56.5 -10.5
t47 -30t32.5 -47.5t12 -63q0 -38 -19 -81.5t-63 -74.5q26 -18 42.5 -49t16.5 -82q0 -56 -20 -99t-51 -72t-69.5 -44t-74.5 -15h-260z" />
    <glyph glyph-name="C" unicode="C" horiz-adv-x="531" 
d="M215 0q-37 0 -68.5 9.5t-54 30t-35 51t-12.5 72.5q0 12 1 24t3 26l38 246q17 105 71 157t142 52h222q46 0 46 -43q0 -33 -17 -53t-47 -20h-205q-38 0 -62 -24t-30 -64l-41 -261q-1 -5 -1.5 -10.5t-0.5 -10.5q0 -31 17 -48t49 -17h205q23 0 34.5 -12t11.5 -33
q0 -32 -17.5 -52t-46.5 -20h-202z" />
    <glyph glyph-name="D" unicode="D" horiz-adv-x="622" 
d="M490 464q1 6 1.5 11.5t0.5 10.5q0 32 -18.5 49t-58.5 17h-183l-69 -436h182q50 0 72 22.5t29 64.5zM86 0q-53 0 -53 44v6.5t1 7.5l87 552q9 58 70 58h257q74 0 119 -39t45 -120q0 -25 -4 -48l-39 -254q-16 -103 -66.5 -155t-148.5 -52h-268z" />
    <glyph glyph-name="E" unicode="E" horiz-adv-x="534" 
d="M86 0q-53 0 -53 44v6.5t1 7.5l87 552q9 58 70 58h331q46 0 46 -43q0 -34 -17.5 -53.5t-46.5 -19.5h-272l-23 -142h230q23 0 34 -11t11 -31q0 -34 -16.5 -53.5t-46.5 -19.5h-230l-28 -179h272q23 0 34.5 -12t11.5 -33q0 -32 -17.5 -51.5t-46.5 -19.5h-331z" />
    <glyph glyph-name="F" unicode="F" horiz-adv-x="531" 
d="M232 552l-23 -142h230q23 0 34 -11t11 -31q0 -34 -16.5 -53.5t-46.5 -19.5h-230l-39 -247q-5 -29 -21.5 -41t-45.5 -12q-27 0 -40.5 9t-13.5 31q0 8 1 13l89 562q9 58 70 58h331q46 0 46 -43q0 -34 -17.5 -53.5t-46.5 -19.5h-272z" />
    <glyph glyph-name="G" unicode="G" horiz-adv-x="587" 
d="M215 0q-37 0 -68.5 9.5t-54 30t-35 51t-12.5 72.5q0 12 1 24t3 26l38 246q17 105 71 157t142 52h226q46 0 46 -43q0 -33 -17 -53t-47 -20h-209q-38 0 -62 -24t-30 -64l-41 -261q-1 -5 -1.5 -10.5t-0.5 -10.5q0 -31 17 -48t49 -17h175l28 178h-83q-23 0 -35 12t-12 33
q0 33 18 51.5t47 18.5h143q23 0 38 -8t15 -32q0 -4 -0.5 -8t-1.5 -9l-46 -295q-4 -27 -20.5 -42.5t-46.5 -15.5h-234z" />
    <glyph glyph-name="H" unicode="H" horiz-adv-x="592" 
d="M441 -5q-52 0 -52 41v6.5t1 7.5l39 245h-244l-39 -245q-5 -29 -21 -42t-46 -13q-53 0 -53 41v6.5t1 7.5l90 568q9 55 69 55q51 0 51 -41v-6.5t-1 -7.5l-33 -208h244l33 208q9 55 68 55q52 0 52 -41v-6.5t-1 -7.5l-90 -568q-5 -29 -21 -42t-47 -13z" />
    <glyph glyph-name="I" unicode="I" horiz-adv-x="269" 
d="M99 -5q-53 0 -53 41v6.5t1 7.5l90 568q9 55 69 55q51 0 51 -41v-6.5t-1 -7.5l-90 -568q-5 -29 -21 -42t-46 -13z" />
    <glyph glyph-name="J" unicode="J" horiz-adv-x="433" 
d="M28 0q-50 0 -50 42q0 40 20 57t51 17h86q48 0 69 24.5t27 63.5l65 413q9 56 69 56q51 0 51 -42v-6.5t-1 -7.5l-65 -410q-5 -34 -15 -70.5t-32 -67t-60.5 -50t-99.5 -19.5h-115z" />
    <glyph glyph-name="K" unicode="K" horiz-adv-x="555" 
d="M215 421l296 236q22 17 42 17q9 0 19 -5t18.5 -13t14 -18.5t5.5 -21.5t-4.5 -19.5t-10.5 -13.5l-256 -203q42 -71 84 -145.5t84 -146.5q10 -17 10 -33q0 -13 -6.5 -24t-16 -18.5t-21 -12t-20.5 -4.5q-28 0 -45 28q-40 71 -80 143t-82 142l-61 -48l-33 -208
q-9 -58 -68 -58q-52 0 -52 43q0 10 1 15l89 562q9 58 69 58q51 0 51 -43q0 -10 -1 -15l-29 -194h3z" />
    <glyph glyph-name="L" unicode="L" horiz-adv-x="511" 
d="M86 0q-53 0 -53 44v6.5t1 7.5l88 557q9 58 70 58q51 0 51 -44v-6.5t-1 -7.5l-79 -499h271q24 0 35.5 -12t11.5 -33q0 -32 -18 -51.5t-47 -19.5h-330z" />
    <glyph glyph-name="M" unicode="M" horiz-adv-x="674" 
d="M361 380l165 257q20 31 60 31h38q52 0 52 -43q0 -10 -1 -15l-89 -560q-5 -29 -21 -42t-47 -13q-52 0 -52 41v6.5t1 7.5l61 384h-4l-103 -157q-8 -13 -23 -27.5t-43 -14.5h-33q-27 0 -37.5 15t-15.5 28l-53 156h-4l-61 -384q-5 -29 -21 -42t-46 -13q-53 0 -53 41v6.5
t1 7.5l89 560q9 58 69 58h30q26 0 37.5 -14t18.5 -34l79 -240h6z" />
    <glyph glyph-name="N" unicode="N" horiz-adv-x="619" 
d="M440 233l62 386q9 55 68 55q53 0 53 -42q0 -8 -1 -13l-89 -561q-9 -58 -69 -58h-30q-23 0 -34 10.5t-18 27.5l-164 407h-3l-63 -396q-5 -29 -21.5 -42t-46.5 -13q-53 0 -53 41q0 9 1 14l89 561q9 58 69 58h32q27 0 38 -14t19 -33q41 -99 78.5 -193t78.5 -195h4z" />
    <glyph glyph-name="O" unicode="O" horiz-adv-x="578" 
d="M389 668q81 0 128.5 -46.5t47.5 -130.5q0 -11 -1 -23t-3 -24l-35 -231q-16 -105 -73 -159t-148 -54h-84q-39 0 -71 11.5t-55 34t-36 55.5t-13 77q0 13 1.5 27t3.5 28l36 221q17 105 73.5 159.5t141.5 54.5h87zM448 462q1 6 1.5 11.5t0.5 10.5q0 32 -18.5 51.5t-63.5 19.5
h-64q-43 0 -66.5 -26.5t-30.5 -66.5l-41 -258q-1 -5 -1.5 -10.5t-0.5 -10.5q0 -32 18.5 -51t57.5 -19h67q45 0 69.5 27.5t30.5 65.5z" />
    <glyph glyph-name="P" unicode="P" horiz-adv-x="573" 
d="M231 552l-30 -188h164q24 0 42.5 10t31 26.5t18.5 37t6 41.5q0 20 -7 34t-18 22.5t-24.5 12.5t-26.5 4h-156zM183 249l-32 -199q-5 -29 -21 -42t-46 -13q-53 0 -53 42q0 8 1 13l89 560q9 58 69 58h214q88 0 133.5 -47t45.5 -128q0 -55 -16 -100t-47 -77t-76 -49.5
t-103 -17.5h-158z" />
    <glyph glyph-name="Q" unicode="Q" horiz-adv-x="578" 
d="M389 668q81 0 128.5 -46.5t47.5 -130.5q0 -11 -1 -23t-3 -24l-35 -231q-10 -69 -41 -118l39 -44q12 -14 12 -29q0 -9 -6.5 -20t-16.5 -20t-21 -15t-21 -6t-17.5 4.5t-13.5 11.5l-37 43q-45 -20 -98 -20h-84q-39 0 -71 11.5t-55 34t-36 55.5t-13 77q0 13 1.5 27t3.5 28
l36 221q17 105 73.5 159.5t141.5 54.5h87zM448 462q1 6 1.5 11.5t0.5 10.5q0 32 -18.5 51.5t-63.5 19.5h-64q-43 0 -66.5 -26.5t-30.5 -66.5l-41 -258q-1 -5 -1.5 -10.5t-0.5 -10.5q0 -32 18.5 -51t57.5 -19h67q11 0 16 1l-49 58q-5 6 -8 13t-3 15t6 18.5t15 19.5t20.5 15.5
t22.5 6.5q10 0 17.5 -4.5t12.5 -10.5l47 -55l3 16z" />
    <glyph glyph-name="R" unicode="R" horiz-adv-x="562" 
d="M231 552l-30 -188h168q18 0 35 8t30 22.5t21 34.5t8 44q0 22 -7 37t-17 24.5t-22.5 13.5t-22.5 4h-163zM400 668q90 0 136 -48.5t46 -133.5q0 -35 -9 -69.5t-27.5 -65t-48 -54.5t-70.5 -37l71 -179q5 -13 5 -23q0 -26 -20 -44.5t-51 -18.5q-17 0 -29.5 7t-18.5 22
l-88 225h-113l-31 -196q-9 -58 -68 -58q-26 0 -39 12t-13 32q0 9 1 14l88 557q9 58 69 58h210z" />
    <glyph glyph-name="S" unicode="S" horiz-adv-x="531" 
d="M70 0q-13 0 -27 9.5t-14 35.5q0 20 7 33.5t17 22t19.5 12t15.5 3.5h213q13 0 25.5 5t22.5 14t16.5 22.5t6.5 31.5q0 46 -57 72l-110 50q-26 12 -49.5 24.5t-41 30.5t-28 43.5t-10.5 62.5q0 47 16 84t44.5 62t66.5 38t83 13h197q14 0 27.5 -11t13.5 -34q0 -22 -6.5 -35.5
t-16 -21.5t-19.5 -11t-17 -3h-197q-26 0 -47.5 -17t-21.5 -50q0 -22 10.5 -35.5t34.5 -24.5l113 -51q27 -12 52 -26t44.5 -34t31.5 -47.5t12 -67.5q0 -44 -15.5 -80.5t-43.5 -63t-67 -41.5t-86 -15h-215z" />
    <glyph glyph-name="T" unicode="T" horiz-adv-x="526" 
d="M375 557l-80 -506q-9 -56 -69 -56q-51 0 -51 40v7.5t1 8.5l80 506h-141q-46 0 -46 44q0 34 17 50.5t46 16.5h400q48 0 48 -40q0 -32 -18 -51.5t-47 -19.5h-140z" />
    <glyph glyph-name="U" unicode="U" horiz-adv-x="611" 
d="M496 619q3 16 10 27t17 17t20.5 8.5t19.5 2.5q7 0 16 -2t17 -7t13 -13.5t5 -21.5v-5.5t-1 -6.5l-65 -410q-15 -98 -69.5 -153t-144.5 -55h-107q-36 0 -68 9.5t-55.5 30t-37 51.5t-13.5 74q0 26 4 49l65 404q3 17 10.5 28t18 17t21 8.5t19.5 2.5q16 0 33.5 -9.5
t17.5 -35.5q0 -7 -1 -11l-65 -415q-1 -7 -1.5 -13t-0.5 -11q0 -29 17 -45.5t59 -16.5h86q24 0 40.5 7.5t27.5 20t17 28t9 32.5z" />
    <glyph glyph-name="V" unicode="V" horiz-adv-x="581" 
d="M279 171l232 466q11 22 27 30.5t31 8.5q26 0 44.5 -15.5t18.5 -34.5q0 -12 -7 -26l-283 -552q-11 -23 -26 -35.5t-42 -12.5h-38q-28 0 -38.5 12.5t-15.5 35.5l-108 552q-1 4 -1 12q0 23 18.5 42.5t50.5 19.5q17 0 29.5 -9t16.5 -29l87 -465h4z" />
    <glyph glyph-name="W" unicode="W" horiz-adv-x="802" 
d="M537 174h4l193 462q20 38 56 38q28 0 44.5 -13.5t16.5 -35.5q0 -13 -6 -25l-244 -552q-12 -23 -26 -35.5t-42 -12.5h-38q-27 0 -38.5 12.5t-15.5 35.5l-16 340h-2l-121 -340q-11 -23 -26 -35.5t-42 -12.5h-38q-28 0 -38.5 12.5t-15.5 35.5l-68 552q-1 5 -1 14q0 24 18 42
t51 18q17 0 29.5 -9t14.5 -29l47 -462h4l143 393q8 23 23 35.5t39 12.5h31q25 0 34.5 -12.5t10.5 -35.5z" />
    <glyph glyph-name="X" unicode="X" horiz-adv-x="550" 
d="M495 7q-18 -12 -35 -12q-14 0 -26.5 7.5t-19.5 20.5l-125 230l-206 -242q-7 -8 -19.5 -13t-26.5 -5q-25 0 -42 16t-17 36q0 10 3 18.5t8 13.5l234 270l-127 233q-8 16 -8 31q0 10 6 21t15.5 20t22.5 15t27 6q23 0 37 -27l108 -205l185 216q16 19 38 19q12 0 23.5 -6.5
t20 -16t14 -20.5t5.5 -20q0 -13 -8 -22l-212 -244l145 -260q7 -13 7 -29q0 -14 -6.5 -27.5t-20.5 -23.5z" />
    <glyph glyph-name="Y" unicode="Y" horiz-adv-x="553" 
d="M298 385l195 265q11 15 24 21.5t26 6.5q23 0 43.5 -16.5t20.5 -40.5q0 -14 -10 -27l-252 -336l-33 -208q-9 -56 -68 -56q-52 0 -52 45q0 3 0.5 5.5t0.5 5.5l34 210l-153 337q-3 7 -3 17q0 23 20 42t51 19q29 0 42 -31l110 -259h4z" />
    <glyph glyph-name="Z" unicode="Z" horiz-adv-x="541" 
d="M57 0q-32 0 -43.5 11.5t-11.5 27.5q0 20 8 37.5t17 28.5l372 447h-242q-46 0 -46 44q0 33 17.5 52.5t46.5 19.5h348q28 0 38.5 -12.5t10.5 -30.5q0 -20 -8 -35.5t-17 -26.5l-372 -447h269q25 0 34.5 -12t9.5 -31q0 -27 -14.5 -50t-47.5 -23h-369z" />
    <glyph glyph-name="bracketleft" unicode="[" horiz-adv-x="368" 
d="M83 -88q-16 0 -26 4.5t-16 12t-8.5 16.5t-2.5 17q0 3 0.5 5.5t0.5 4.5l111 701q1 9 5.5 19.5t13 19.5t21.5 15t31 6h163q14 0 26 -10.5t12 -32.5q0 -16 -5.5 -28.5t-14 -21.5t-18 -13.5t-18.5 -4.5h-110l-95 -599h110q14 0 26 -11.5t12 -32.5q0 -17 -5.5 -29.5t-14 -21
t-18 -12.5t-17.5 -4h-163z" />
    <glyph glyph-name="backslash" unicode="\" horiz-adv-x="503" 
d="M90 638q-3 9 -3 16q0 23 21.5 41.5t50.5 18.5q14 0 25 -6t16 -20l230 -660q2 -5 2 -15q0 -14 -6.5 -26t-16.5 -20.5t-23 -13.5t-26 -5q-14 0 -25 7t-16 22z" />
    <glyph glyph-name="bracketright" unicode="]" horiz-adv-x="368" 
d="M18 -88q-15 0 -27.5 10.5t-12.5 33.5q0 32 19.5 49.5t37.5 17.5h110l95 599h-110q-14 0 -26.5 12t-12.5 33q0 16 5.5 28.5t14 21t18.5 12.5t19 4h162q31 0 41.5 -15.5t10.5 -32.5q0 -8 -1 -12l-111 -701q-1 -8 -5 -18.5t-12.5 -19.5t-21 -15.5t-31.5 -6.5h-162z" />
    <glyph glyph-name="asciicircum" unicode="^" horiz-adv-x="469" 
d="M312 670q19 0 36 -13l137 -150q12 -12 12 -29q0 -12 -5.5 -22.5t-13.5 -19t-18.5 -13t-20.5 -4.5q-20 0 -35 15l-104 110l-157 -118q-18 -14 -37 -14q-14 0 -25 5.5t-18 13.5t-10.5 17.5t-3.5 18.5q0 22 23 39l198 151q22 13 42 13z" />
    <glyph glyph-name="underscore" unicode="_" horiz-adv-x="500" 
d="M-57 -144q-24 0 -36.5 7t-12.5 26q0 32 17 44.5t46 12.5h500q25 0 38 -7.5t13 -27.5q0 -32 -18 -43.5t-47 -11.5h-500z" />
    <glyph glyph-name="quoteleft" unicode="&#x2018;" horiz-adv-x="216" 
d="M156 662q7 11 20.5 20.5t31.5 9.5q28 0 39 -14t11 -28q0 -9 -3 -16l-49 -139q-7 -20 -26.5 -37t-48.5 -17q-33 0 -47.5 17t-14.5 38q0 18 8 32z" />
    <glyph glyph-name="a" unicode="a" horiz-adv-x="500" 
d="M55 292q14 88 63.5 135.5t132.5 47.5q34 0 68 -12.5t66 -30.5q11 16 30 27.5t42 11.5q14 0 24 -4t10 -22q0 -7 -1 -11l-62 -411q-3 -19 -9.5 -23t-21.5 -4q-29 0 -47 14.5t-24 30.5q-68 -46 -126 -46q-88 0 -126.5 39t-38.5 107q0 25 4 48zM157 184q-1 -5 -1 -9v-9
q0 -25 13.5 -40.5t48.5 -15.5q23 0 51 9t63 37l28 177q-25 14 -54 20.5t-53 6.5q-33 0 -54 -18.5t-27 -59.5z" />
    <glyph glyph-name="b" unicode="b" horiz-adv-x="504" 
d="M197 0q-45 1 -75.5 14t-50 33t-28 47t-8.5 57q0 10 1 20.5t3 21.5l72 448q1 7 4.5 16.5t10 18.5t18 15.5t29.5 6.5q37 0 49 -13t12 -30q0 -6 -2 -16l-32 -191q28 11 57.5 19t52.5 8q46 0 78 -12t52.5 -32.5t29.5 -48.5t9 -61q0 -20 -3 -41l-15 -99q-13 -87 -65.5 -134
t-140.5 -47h-58zM159 183q-1 -5 -1.5 -9.5t-0.5 -9.5q0 -21 11 -35.5t40 -14.5h48q32 0 56 18.5t29 53.5l17 104q1 5 1.5 9t0.5 9q0 26 -13.5 40t-42.5 14q-22 0 -56 -7.5t-65 -22.5z" />
    <glyph glyph-name="c" unicode="c" horiz-adv-x="433" 
d="M197 0q-77 0 -119.5 38.5t-42.5 113.5v18t2 19l12 92q12 92 67.5 138.5t139.5 46.5h131q16 0 28.5 -12t12.5 -35q0 -17 -6 -29.5t-14.5 -21t-19 -13t-19.5 -4.5h-114q-41 0 -61 -20.5t-26 -55.5l-14 -89q-1 -5 -1 -9v-8q0 -22 13 -38.5t51 -16.5h120q15 0 28 -11t13 -34
q0 -16 -5.5 -29t-14.5 -22t-19.5 -13.5t-20.5 -4.5h-121z" />
    <glyph glyph-name="d" unicode="d" horiz-adv-x="496" 
d="M425 23q-3 -19 -10.5 -23t-24.5 -4q-29 0 -47 14.5t-24 30.5q-68 -46 -128 -46q-88 0 -126.5 39t-38.5 107q0 25 4 48l15 96q14 90 67.5 135.5t129.5 45.5h135l29 186q1 6 4.5 13.5t10.5 14.5t18.5 12t28.5 5q30 0 41.5 -14.5t11.5 -32.5q0 -7 -1 -11zM358 355h-115
q-27 0 -49.5 -20t-29.5 -59l-15 -87q-1 -5 -1 -9.5v-9.5q0 -32 18 -46t47 -14q23 0 49.5 9t63.5 38z" />
    <glyph glyph-name="e" unicode="e" horiz-adv-x="467" 
d="M249 357q-35 0 -52 -19.5t-22 -48.5l-3 -18q21 -2 31 -2.5t24 -0.5q34 0 53 7t28.5 16.5t12 19.5t2.5 16q0 10 -9 20t-28 10h-37zM294 466q69 0 111 -36t42 -102q0 -24 -9 -51t-33.5 -50.5t-66.5 -38.5t-108 -15q-21 0 -39.5 1.5t-34.5 3.5l-2 -13q-1 -4 -1 -7.5v-6.5
q0 -37 49 -37h136q18 0 35 -14t17 -40q0 -18 -6.5 -29.5t-15.5 -18.5t-18.5 -9.5t-15.5 -2.5h-136q-42 0 -72.5 11.5t-50.5 32t-29.5 47.5t-9.5 58v16.5t2 16.5l16 105q7 47 25.5 81t46.5 55.5t63.5 32t76.5 10.5h28z" />
    <glyph glyph-name="f" unicode="f" horiz-adv-x="370" 
d="M246 358l-60 -383q-6 -39 -19 -72t-35.5 -57t-54.5 -37.5t-76 -13.5h-52q-17 0 -31.5 12.5t-14.5 36.5q0 32 19 49.5t45 17.5h12q33 0 57 13.5t31 56.5l59 377h-52q-15 0 -28 10.5t-13 32.5q0 18 5.5 30t14.5 20t19 11.5t19 3.5h52l8 46q16 93 67 136.5t142 43.5h45
q20 0 32.5 -12.5t12.5 -37.5q0 -15 -6 -27.5t-15.5 -21t-20.5 -13t-21 -4.5h-32q-33 0 -55.5 -11t-28.5 -49l-8 -50h83q15 0 28 -9.5t13 -32.5q0 -33 -19.5 -49.5t-38.5 -16.5h-83z" />
    <glyph glyph-name="g" unicode="g" horiz-adv-x="507" 
d="M219 -89q80 0 91 74l6 38q-25 -13 -56 -20t-54 -7q-46 0 -78 12t-52.5 32.5t-29.5 49t-9 61.5q0 19 3 40l14 94q13 87 65.5 134t140.5 47h58q45 0 75.5 -12t50 -32.5t28 -48t8.5 -57.5q0 -11 -1 -21.5t-3 -21.5l-47 -293q-14 -89 -66 -135.5t-140 -46.5h-150
q-15 0 -28.5 12t-13.5 35q0 18 6 30.5t15 20.5t19 11.5t19 3.5h129zM356 283q1 5 1.5 10t0.5 10q0 20 -11 34.5t-40 14.5h-48q-35 0 -57 -18.5t-28 -53.5l-16 -99q-1 -5 -1 -9v-9q0 -25 13 -39.5t42 -14.5q22 0 56 7.5t65 22.5z" />
    <glyph glyph-name="h" unicode="h" horiz-adv-x="524" 
d="M373 281q1 5 1.5 9.5t0.5 9.5q0 32 -18 46.5t-47 14.5q-23 0 -53 -10t-68 -39l-43 -273q-1 -6 -4 -13.5t-9.5 -14.5t-17.5 -12t-28 -5q-35 0 -48 18t-9 40l94 598q3 17 19 32t45 15q28 0 42.5 -12.5t14.5 -28.5q0 -2 -0.5 -3t-0.5 -3l-36 -214q33 21 66 30t59 9
q88 0 125 -39t37 -105q0 -12 -1 -24t-3 -26l-39 -261q-3 -20 -8 -23t-22 -3q-40 0 -58.5 28t-18.5 66q0 7 0.5 14t1.5 14z" />
    <glyph glyph-name="i" unicode="i" horiz-adv-x="257" 
d="M175 538q-24 0 -41 15.5t-17 38.5q0 18 7 32t18.5 23.5t25 14t26.5 4.5q23 0 41 -13.5t18 -39.5q0 -31 -23.5 -53t-54.5 -22zM159 20q-3 -20 -8 -23t-22 -3q-24 0 -40 10.5t-25 27.5t-11.5 39t1.5 45l50 315q1 6 4 13.5t10 14.5t18.5 12t28.5 5q34 0 45 -18.5t8 -39.5z
" />
    <glyph glyph-name="j" unicode="j" horiz-adv-x="269" 
d="M115 430q1 6 4 13.5t10 14.5t18 12t28 5q31 0 44 -15t13 -34q0 -6 -1 -9l-67 -436q-15 -96 -63 -139.5t-145 -43.5h-49q-16 0 -28.5 12t-12.5 34q0 18 6 31t14.5 21.5t19 12.5t19.5 4h42q33 0 52 17.5t25 55.5zM186 538q-25 0 -42 15.5t-17 38.5q0 19 7.5 33t19 23.5
t25.5 14t26 4.5q23 0 40 -13t17 -39q0 -32 -22.5 -54.5t-53.5 -22.5z" />
    <glyph glyph-name="k" unicode="k" horiz-adv-x="461" 
d="M397 4q-19 -8 -35 -8q-37 0 -48 29l-85 219l-69 -42l-25 -160q-2 -17 -18 -32t-48 -15q-26 0 -39.5 13t-13.5 29v5l96 608q3 17 19.5 32t45.5 15q28 0 41.5 -12.5t13.5 -27.5q0 -5 -1 -7l-49 -312l206 129q16 10 32 10q24 0 39 -17.5t15 -37.5q0 -11 -5.5 -22.5
t-19.5 -19.5l-117 -73l94 -232q3 -9 3 -19q0 -16 -8.5 -31t-23.5 -21z" />
    <glyph glyph-name="l" unicode="l" horiz-adv-x="250" 
d="M159 20q-3 -20 -8 -23t-22 -3q-24 0 -40 10.5t-25 27.5t-11.5 39t1.5 45l86 536q1 6 4 13.5t10 14.5t18.5 12t28.5 5q34 0 45 -18.5t8 -39.5z" />
    <glyph glyph-name="m" unicode="m" horiz-adv-x="718" 
d="M145 41q-1 -6 -4 -13.5t-9.5 -14.5t-17 -12t-26.5 -5q-33 0 -46 15t-13 34l1 9l60 393q3 19 10.5 23t24.5 4q30 0 47 -14t23 -29q29 22 58.5 33t53.5 11q45 0 73.5 -16t43.5 -45q33 30 69 45.5t64 15.5q70 0 101.5 -37t31.5 -102q0 -13 -1.5 -27t-3.5 -28l-39 -261
q-3 -20 -8 -23t-22 -3q-41 0 -59 29t-18 67q0 6 0.5 12t1.5 12v2l24 160q1 7 1.5 13.5t0.5 12.5q0 29 -12 41t-35 12q-13 0 -32.5 -6.5t-48.5 -30.5q-1 -9 -1.5 -18t-2.5 -19l-39 -261q-3 -20 -8 -23t-22 -3q-41 0 -59 29t-18 67q0 6 0.5 12t1.5 12v2l24 160q1 7 1.5 13.5
t0.5 12.5q0 29 -12 41t-35 12q-13 0 -32.5 -6.5t-47.5 -30.5z" />
    <glyph glyph-name="n" unicode="n" horiz-adv-x="523" 
d="M371 281q1 5 1.5 9.5t0.5 9.5q0 32 -18.5 46t-47.5 14q-23 0 -52 -9t-66 -38l-44 -272q-1 -6 -4 -13.5t-9.5 -14.5t-17 -12t-26.5 -5q-33 0 -46 15t-13 34l1 9l60 393q3 19 10.5 23t24.5 4q30 0 47 -14t24 -31q35 23 69.5 34.5t63.5 11.5q88 0 126.5 -39t38.5 -107
q0 -25 -4 -48l-39 -261q-3 -20 -8 -23t-22 -3q-41 0 -59 29t-18 67q0 6 0.5 12t1.5 12z" />
    <glyph glyph-name="o" unicode="o" horiz-adv-x="501" 
d="M356 283q1 4 1 7.5v6.5q0 30 -18 44t-46 14h-41q-29 0 -52 -19t-30 -59l-15 -91q-1 -5 -1 -8.5v-8.5q0 -25 15 -40.5t47 -15.5h36q32 0 56.5 18.5t31.5 56.5zM199 0q-81 0 -122.5 41t-41.5 113q0 11 1 22t3 22l14 87q14 88 65 135.5t144 47.5h40q85 0 129 -43.5
t44 -115.5q0 -18 -3 -39l-14 -90q-14 -88 -66 -134t-138 -46h-55z" />
    <glyph glyph-name="p" unicode="p" horiz-adv-x="505" 
d="M81 447q3 19 10.5 23t24.5 4q29 0 47.5 -14.5t24.5 -30.5q68 46 128 46q51 0 85.5 -14t53.5 -39.5t24 -61t-2 -79.5l-15 -100q-14 -90 -67.5 -135.5t-129.5 -45.5h-135l-28 -167q-1 -6 -4.5 -13.5t-10.5 -14.5t-18.5 -12t-28.5 -5q-34 0 -44.5 18.5t-7.5 39.5zM148 113
h117q27 0 49.5 20t29.5 59l14 89q7 42 -12.5 60.5t-51.5 18.5q-23 0 -50 -9t-64 -38z" />
    <glyph glyph-name="q" unicode="q" horiz-adv-x="503" 
d="M404 -167q-3 -17 -18 -30.5t-47 -13.5q-29 0 -42 12.5t-13 27.5v7l30 186q-23 -12 -55 -19.5t-55 -7.5q-46 0 -78 12t-52.5 32.5t-29.5 49t-9 61.5q0 19 3 40l14 95q13 87 65.5 134t140.5 47h58q45 0 75.5 -12.5t50 -33t28 -47.5t8.5 -57q0 -11 -1 -21.5t-3 -21.5z
M354 283q1 5 1 9v9q0 22 -10.5 36.5t-39.5 14.5h-48q-30 0 -55 -18.5t-30 -53.5l-16 -100q-1 -5 -1 -9v-9q0 -25 13 -39.5t42 -14.5q22 0 56 7.5t65 22.5z" />
    <glyph glyph-name="r" unicode="r" horiz-adv-x="388" 
d="M127 476q16 0 30 -7t24 -18t15 -26t3 -30l-3 -18h2q13 18 31.5 35t39.5 30.5t43.5 22t43.5 9.5q21 -15 30.5 -35.5t9.5 -40.5q0 -25 -12.5 -44t-32.5 -22q-23 -4 -43 -7.5t-40 -8t-40.5 -10t-44.5 -11.5l-39 -254q-1 -6 -4 -13.5t-9.5 -14.5t-17 -12t-26.5 -5
q-37 0 -49 18.5t-9 39.5l58 384q4 25 10.5 31.5t29.5 6.5z" />
    <glyph glyph-name="s" unicode="s" horiz-adv-x="448" 
d="M54 0q-14 0 -28.5 10.5t-14.5 38.5q0 21 7.5 34.5t17 21.5t20 11t16.5 3h188q14 0 23 6t9 16q0 18 -32 27l-103 31q-20 6 -40 14t-36 21.5t-25.5 33.5t-9.5 50q0 69 47 108.5t125 39.5h171q7 0 14.5 -2t14 -7.5t11 -15t4.5 -23.5q0 -22 -7.5 -35.5t-18 -20.5t-22 -9.5
t-19.5 -2.5h-166q-10 0 -19 -3.5t-9 -14.5q0 -5 8 -12t21 -11l105 -30q21 -6 41 -15t35 -23.5t24.5 -36t9.5 -52.5q0 -69 -47 -110.5t-127 -41.5h-188z" />
    <glyph glyph-name="t" unicode="t" horiz-adv-x="382" 
d="M317 110q17 0 31.5 -12t14.5 -35q0 -21 -7 -33.5t-17 -20t-21 -10t-19 -2.5h-62q-32 0 -60 8t-48 25t-31.5 42.5t-11.5 61.5q0 19 3 40l29 184h-43q-15 0 -28.5 9t-13.5 32q0 17 6 29t14.5 20t19 12t19.5 4h44l20 126q3 17 18.5 32t46.5 15q26 0 40 -12.5t14 -28.5
q0 -2 -0.5 -3t-0.5 -3l-20 -126h89q16 0 28 -10.5t12 -31.5q0 -18 -5.5 -30.5t-14 -20t-18.5 -10.5t-19 -3h-89l-26 -165q-3 -17 -3 -29q0 -29 15.5 -41.5t48.5 -12.5h45z" />
    <glyph glyph-name="u" unicode="u" horiz-adv-x="512" 
d="M160 189q-1 -5 -1.5 -9.5t-0.5 -9.5q0 -32 18.5 -46t47.5 -14q23 0 52 9t66 38l44 272q1 6 4 13.5t9.5 14.5t17 12t26.5 5q33 0 46 -15t13 -34l-1 -9l-60 -393q-3 -19 -10.5 -23t-24.5 -4q-30 0 -47 14t-24 31q-35 -23 -69.5 -34.5t-63.5 -11.5q-88 0 -126.5 39
t-38.5 107q0 25 4 48l39 261q3 20 8 23t22 3q41 0 59 -29t18 -67q0 -6 -0.5 -12t-1.5 -12z" />
    <glyph glyph-name="v" unicode="v" horiz-adv-x="451" 
d="M210 144l98 198q11 21 14 35t2 30v7q0 23 13.5 42t51.5 19q20 0 32.5 -6t19 -15t8.5 -20t2 -20q0 -33 -10 -60t-27 -60l-132 -250q-23 -44 -66 -44h-42q-47 0 -59 54l-81 349q-1 4 -1 7.5v6.5q0 21 15.5 39.5t45.5 18.5q20 0 35 -11.5t20 -33.5l59 -286h2z" />
    <glyph glyph-name="w" unicode="w" horiz-adv-x="662" 
d="M431 144l88 198q6 13 9 21.5t4.5 15.5t2 13.5t0.5 14.5v7q0 23 13.5 42t51.5 19q20 0 32.5 -6t19 -15t8.5 -20t2 -20q0 -33 -10 -59.5t-27 -60.5l-122 -250q-22 -44 -66 -44h-42q-48 0 -59 54l-19 104l-55 -114q-24 -44 -66 -44h-42q-50 0 -59 54l-61 349q-1 3 -1 6.5
v6.5q0 21 15 40t46 19q20 0 35 -11.5t19 -33.5l47 -290h2l90 193l-12 70q-1 3 -1 6.5v6.5q0 21 15 40t46 19q20 0 34.5 -11.5t19.5 -33.5l40 -286h2z" />
    <glyph glyph-name="x" unicode="x" horiz-adv-x="490" 
d="M259 329l114 129q7 8 18 11.5t22 3.5q26 0 43 -18t17 -43q0 -21 -13 -34l-134 -142l132 -184q7 -11 7 -21t-6.5 -17t-16 -11.5t-20 -6.5t-18.5 -2h-2q-24 0 -45.5 12.5t-35.5 32.5l-76 112q-32 -35 -65 -73t-66 -73q-7 -8 -17.5 -11.5t-21.5 -3.5q-26 0 -43.5 18.5
t-17.5 42.5q0 21 13 34q36 39 75.5 80t74.5 80q-28 41 -58 83.5t-59 83.5q-7 11 -7 21t6.5 17t16.5 11.5t20.5 7t18.5 2.5q24 0 45.5 -12t35.5 -34z" />
    <glyph glyph-name="y" unicode="y" horiz-adv-x="464" 
d="M201 95l119 247q12 25 14 37t2 28v7q0 23 13.5 42t51.5 19q20 0 32.5 -6t19 -15t8.5 -20t2 -20q0 -33 -10 -59.5t-27 -60.5q-31 -62 -53 -106.5t-39.5 -79t-32 -63.5l-31 -62l-37 -74t-49.5 -98q-5 -11 -17 -19t-29 -8q-11 0 -26 5q-19 7 -27.5 18t-8.5 23q0 10 4 17
l76 155h-10q-24 0 -39.5 14t-19.5 40l-45 347l-1 12q0 21 10.5 38.5t35.5 20.5q4 1 8 1h8q50 0 55 -45l39 -335h4z" />
    <glyph glyph-name="z" unicode="z" horiz-adv-x="485" 
d="M50 0q-23 0 -34 9.5t-11 35.5q0 20 8 33.5t16 21.5l255 252h-177q-15 0 -27.5 11.5t-12.5 34.5q0 18 6 31t14.5 21t18.5 12t19 4h306q49 0 49 -48q0 -21 -7.5 -32.5t-15.5 -19.5l-253 -252h178q26 0 34.5 -14.5t8.5 -30.5q0 -26 -13.5 -47.5t-47.5 -21.5h-314z" />
    <glyph glyph-name="braceleft" unicode="{" horiz-adv-x="401" 
d="M273 436q-5 -31 -26 -63t-54 -49q25 -15 35 -41.5t10 -54.5q0 -6 -0.5 -12.5t-1.5 -12.5l-17 -106q-1 -5 -1 -9.5v-9.5q0 -25 14 -39t48 -14h21q8 0 19.5 -8t11.5 -31q0 -20 -5 -33t-12.5 -20.5t-15.5 -11t-14 -3.5h-29q-72 0 -115.5 35.5t-43.5 102.5q0 16 3 34l16 103
q1 5 1.5 10.5t0.5 10.5q0 22 -10 33t-21.5 18.5t-21.5 14.5t-10 22q0 20 3.5 33t9.5 20.5t13.5 12t15.5 7.5q27 11 41 30t19 48l17 103q14 81 55 125.5t122 44.5h54q9 0 20.5 -8t11.5 -31q0 -20 -5.5 -33t-13 -21t-15.5 -11.5t-14 -3.5h-14q-38 0 -59 -18t-26 -51z" />
    <glyph glyph-name="bar" unicode="|" horiz-adv-x="519" 
d="M260 -124q-31 0 -45.5 13t-14.5 42v799q0 55 60 55q59 0 59 -55v-799q0 -29 -14.5 -42t-44.5 -13z" />
    <glyph glyph-name="braceright" unicode="}" horiz-adv-x="401" 
d="M155 208q5 31 26 63t54 49q-25 15 -35 42t-10 54q0 7 0.5 13t1.5 12l17 106q1 5 1.5 9.5t0.5 9.5q0 25 -14.5 39t-48.5 14h-21q-8 0 -19.5 8t-11.5 31q0 19 5 32.5t12.5 21t15.5 11t14 3.5h29q72 0 115.5 -35.5t43.5 -101.5q0 -17 -3 -35l-16 -103q-1 -5 -1.5 -10.5
t-0.5 -10.5q0 -22 10 -33t21.5 -18.5t21.5 -14.5t10 -22q0 -20 -3.5 -33t-9.5 -20.5t-13.5 -12t-15.5 -7.5q-27 -11 -41 -30t-19 -48l-17 -103q-14 -81 -55 -125.5t-122 -44.5h-54q-8 0 -20 8t-12 31q0 19 5.5 32.5t13 21.5t15.5 11.5t14 3.5h14q38 0 59 18t26 51z" />
    <glyph glyph-name="asciitilde" unicode="~" horiz-adv-x="520" 
d="M192 399q28 0 52.5 -9t46 -19.5t42 -20t41.5 -10.5q15 0 25.5 6.5t20 14.5t19.5 14.5t24 6.5q11 0 20 -6t15 -14.5t9.5 -17.5t3.5 -14q0 -11 -5 -20.5t-10 -14.5q-32 -34 -65.5 -44.5t-70.5 -10.5q-65 0 -116 27q-14 9 -32 17.5t-32 8.5q-12 0 -23.5 -6.5t-23 -14
t-23 -13.5t-22.5 -6q-15 0 -31.5 12.5t-16.5 33.5q0 11 4.5 21.5t12.5 18.5q38 38 73 49t62 11z" />
    <glyph glyph-name="sterling" unicode="&#xa3;" horiz-adv-x="520" 
d="M406 353q13 0 23 -9t10 -29q0 -29 -16.5 -47t-32.5 -18h-188l-21 -134h254q16 0 28 -11.5t12 -34.5q0 -33 -19.5 -51.5t-38.5 -18.5h-310q-19 0 -30.5 6t-17.5 15t-7.5 20t0.5 21l30 188h-25q-12 0 -22.5 11t-10.5 31q0 16 5 27.5t12.5 19t16 11t15.5 3.5h25l18 108
q9 52 29.5 91t48.5 64.5t61 38.5t66 13h182q48 0 48 -43q0 -34 -17.5 -53.5t-48.5 -19.5h-145q-41 0 -69 -23t-35 -65l-18 -111h188z" />
    <glyph glyph-name="yen" unicode="&#xa5;" horiz-adv-x="520" 
d="M467 283q11 0 21 -8.5t10 -27.5q0 -27 -16 -43t-30 -16h-134l-22 -138q-9 -56 -68 -56q-52 0 -52 45q0 3 0.5 5.5t0.5 5.5l22 138h-129q-11 0 -20.5 10t-9.5 28q0 30 16 43.5t29 13.5h382zM93 327q-11 0 -20.5 10t-9.5 28q0 30 16 43.5t29 13.5h36l-66 175q-3 7 -3 17
q0 23 20 42t51 19q29 0 42 -31l90 -259h4l171 259q25 31 53 31q23 0 43 -17.5t20 -40.5q0 -13 -9 -25l-116 -170h45q11 0 21 -8.5t10 -27.5q0 -27 -16 -43t-30 -16h-381z" />
    <glyph glyph-name="section" unicode="&#xa7;" horiz-adv-x="499" 
d="M329 345l1 4q0 23 -41 40l-84 37q-20 9 -37.5 18t-30.5 22.5t-21 33t-8 48.5q0 38 12.5 68t35.5 51t54.5 32t69.5 11h163q16 0 31 -12t15 -35q0 -21 -7 -34.5t-17 -21t-21 -10.5t-19 -3h-161q-9 0 -20.5 -7t-11.5 -22q0 -9 6.5 -16.5t17.5 -12.5l91 -38q22 -9 41 -19
t33 -23t22.5 -30.5t8.5 -42.5v-12.5t-2 -14.5l-17 -107q-3 -20 -20 -37t-48 -17t-41.5 12.5t-10.5 29.5q0 8 1 12zM159 385q29 0 42.5 -14t10.5 -31l-15 -97q0 -2 -0.5 -4t-0.5 -4q0 -17 11.5 -26t28.5 -17l81 -35q20 -9 38 -18t31 -22.5t20.5 -33.5t7.5 -50
q0 -36 -12.5 -65.5t-35 -50.5t-54 -32t-69.5 -11h-160q-16 0 -31 12t-15 35q0 21 7 34.5t17 21t21 10.5t19 3h158q10 0 20.5 7t10.5 22q0 9 -6.5 16.5t-17.5 12.5l-88 38q-21 9 -40 19t-33.5 23t-22.5 31t-8 43q0 6 0.5 12.5t1.5 13.5l16 103q3 20 19.5 37t47.5 17z" />
    <glyph glyph-name="quotesingle" unicode="'" horiz-adv-x="163" 
d="M116 430q-16 0 -26 4t-15.5 11t-7.5 14.5t-2 15.5q0 3 0.5 6t0.5 5l22 135q1 6 4.5 15t11 17.5t19.5 14t32 5.5q23 0 34.5 -13.5t11.5 -33.5q0 -8 -1 -12l-21 -129q-4 -24 -19.5 -39.5t-43.5 -15.5z" />
    <glyph glyph-name="quotedblleft" unicode="&#x201c;" horiz-adv-x="385" 
d="M156 662q7 11 20.5 20.5t31.5 9.5q28 0 39 -14t11 -28q0 -9 -3 -16l-49 -139q-7 -20 -26.5 -37t-48.5 -17q-33 0 -47.5 17t-14.5 38q0 18 8 32zM325 662q7 11 20.5 20.5t31.5 9.5q28 0 39 -14t11 -28q0 -9 -3 -16l-49 -139q-7 -20 -26.5 -37t-48.5 -17q-33 0 -47.5 17
t-14.5 38q0 18 8 32z" />
    <glyph glyph-name="guillemotleft" unicode="&#xab;" horiz-adv-x="515" 
d="M241 417q24 0 37 -17.5t13 -37.5q0 -26 -19 -42l-112 -96l71 -87q10 -14 10 -28q0 -12 -6 -21.5t-15 -16.5t-19 -10.5t-19 -3.5q-23 0 -38 18l-98 123q-5 6 -7 13t-2 15q0 12 4.5 25.5t16.5 24.5l145 126q18 15 38 15zM449 417q24 0 37 -17.5t13 -37.5q0 -26 -19 -42
l-112 -96l71 -87q10 -14 10 -28q0 -12 -6 -21.5t-15 -16.5t-19 -10.5t-19 -3.5q-23 0 -38 18l-98 123q-5 6 -7 13t-2 15q0 12 4.5 25.5t16.5 24.5l145 126q18 15 38 15z" />
    <glyph glyph-name="endash" unicode="&#x2013;" horiz-adv-x="500" 
d="M77 194q-25 0 -39.5 9t-14.5 29q0 31 20 45t50 14h338q25 0 39.5 -9.5t14.5 -29.5q0 -31 -20.5 -44.5t-49.5 -13.5h-338z" />
    <glyph glyph-name="dagger" unicode="&#x2020;" horiz-adv-x="476" 
d="M325 425l-70 -439q-4 -23 -19 -37.5t-44 -14.5q-48 0 -48 39q0 8 1 13l70 439h-92q-20 0 -32 10t-12 32q0 33 17.5 49t43.5 16h92l19 120q4 23 19 36t44 13q26 0 37 -11t11 -28q0 -7 -1 -10l-19 -120h91q44 0 44 -39q0 -35 -16.5 -51.5t-44.5 -16.5h-91z" />
    <glyph glyph-name="periodcentered" unicode="&#xb7;" horiz-adv-x="213" 
d="M99 179q-27 0 -44 17t-17 41q0 19 8 33.5t20 24t26 14t27 4.5q23 0 41.5 -13t18.5 -40q0 -15 -6 -29.5t-16.5 -26t-25 -18.5t-32.5 -7z" />
    <glyph glyph-name="bullet" unicode="&#x2022;" horiz-adv-x="275" 
d="M15 261q0 25 9.5 47t26 38t38.5 25.5t47 9.5t47 -9.5t38.5 -25.5t26 -38t9.5 -47q0 -26 -9.5 -48t-26 -38t-38.5 -25.5t-47 -9.5t-47 9.5t-38.5 25.5t-26 38t-9.5 48z" />
    <glyph glyph-name="quotedblright" unicode="&#x201d;" horiz-adv-x="385" 
d="M336 472q-7 -11 -20.5 -20.5t-31.5 -9.5q-27 0 -38 14t-11 28q0 8 3 16l49 139q8 20 27 37.5t48 17.5q32 0 47 -17t15 -39q0 -17 -9 -32zM167 472q-7 -11 -20.5 -20.5t-31.5 -9.5q-27 0 -38 14t-11 28q0 8 3 16l49 139q8 20 27 37.5t48 17.5q32 0 47 -17t15 -39
q0 -17 -9 -32z" />
    <glyph glyph-name="guillemotright" unicode="&#xbb;" horiz-adv-x="515" 
d="M476 236q-2 -10 -6 -19.5t-14 -18.5l-145 -126q-18 -15 -37 -15q-24 0 -37 18t-13 37q0 12 4.5 23t13.5 19l112 96l-71 87q-10 14 -10 28q0 12 6 21.5t15 16.5t19.5 10.5t18.5 3.5q24 0 38 -18l98 -123q5 -6 7 -13t2 -14q0 -9 -1 -13zM268 236q-2 -10 -6 -19.5t-14 -18.5
l-145 -126q-18 -15 -37 -15q-24 0 -37 18t-13 37q0 12 4.5 23t13.5 19l112 96l-71 87q-10 14 -10 28q0 12 6 21.5t15 16.5t19.5 10.5t18.5 3.5q24 0 38 -18l98 -123q5 -6 7 -13t2 -14q0 -9 -1 -13z" />
    <glyph glyph-name="ellipsis" unicode="&#x2026;" horiz-adv-x="694" 
d="M311 0q-27 0 -44 16.5t-17 40.5q0 19 7.5 33.5t19.5 24.5t26 14.5t28 4.5q24 0 41.5 -13.5t17.5 -40.5q0 -15 -6 -29.5t-16.5 -25.5t-25 -18t-31.5 -7zM74 0q-27 0 -44 16.5t-17 40.5q0 19 7.5 33.5t19.5 24.5t26 14.5t28 4.5q24 0 41.5 -13.5t17.5 -40.5q0 -15 -6 -29.5
t-16.5 -25.5t-25 -18t-31.5 -7zM551 0q-27 0 -44 16.5t-17 40.5q0 19 7.5 33.5t19.5 24.5t26 14.5t28 4.5q24 0 41.5 -13.5t17.5 -40.5q0 -15 -6 -29.5t-16.5 -25.5t-25 -18t-31.5 -7z" />
    <glyph glyph-name="perthousand" unicode="&#x2030;" horiz-adv-x="1138" 
d="M251 668q26 0 49 -8t40 -23t27 -36.5t10 -48.5q0 -5 -0.5 -10.5t-1.5 -10.5l-20 -139q-9 -65 -48.5 -97t-96.5 -32h-16q-54 0 -88 31.5t-34 85.5q0 6 0.5 12t1.5 12l19 135q9 63 49.5 96t97.5 33h11zM278 538q2 17 -7 28t-29 11h-5q-20 0 -30.5 -11t-14.5 -28l-22 -143
v-7q0 -14 9 -24.5t29 -10.5h4q18 0 28.5 11.5t14.5 28.5zM554 661q8 16 21 22.5t27 6.5q12 0 27.5 -7.5t15.5 -29.5q0 -12 -7 -26l-332 -609q-19 -35 -50 -35q-21 0 -33.5 10.5t-12.5 25.5q0 7 2.5 14.5t6.5 15.5zM662 405q26 0 49 -8t40 -23t27 -36.5t10 -48.5
q0 -5 -0.5 -10.5t-1.5 -10.5l-20 -139q-9 -65 -48.5 -97t-96.5 -32h-16q-54 0 -88 31.5t-34 85.5q0 6 0.5 12t1.5 12l19 135q9 63 49.5 96t97.5 33h11zM689 275q2 17 -7 28t-29 11h-5q-20 0 -30.5 -11t-14.5 -28l-22 -143v-7q0 -14 9 -24.5t29 -10.5h4q18 0 28.5 11.5
t14.5 28.5zM979 405q26 0 49 -8t40 -23t27 -36.5t10 -48.5q0 -5 -0.5 -10.5t-1.5 -10.5l-20 -139q-9 -65 -48.5 -97t-96.5 -32h-16q-54 0 -88 31.5t-34 85.5q0 6 0.5 12t1.5 12l19 135q9 63 49.5 96t97.5 33h11zM1006 275q2 17 -7 28t-29 11h-5q-20 0 -30.5 -11t-14.5 -28
l-22 -143v-7q0 -14 9 -24.5t29 -10.5h4q18 0 28.5 11.5t14.5 28.5z" />
    <glyph glyph-name="grave" unicode="`" horiz-adv-x="523" 
d="M267 668q-12 16 -12 35q0 20 16.5 37t38.5 17q17 0 31.5 -10.5t24.5 -31.5l65 -140q7 -14 7 -26q0 -13 -11 -24t-28 -11q-11 0 -20.5 6t-17.5 16z" />
    <glyph glyph-name="dieresis" unicode="&#xa8;" horiz-adv-x="532" 
d="M419 535q-25 0 -40 15t-15 37q0 18 7 31t18 22t24 13t25 4q22 0 38.5 -11.5t16.5 -37.5q0 -14 -5.5 -27t-15.5 -23t-23.5 -16.5t-29.5 -6.5zM212 535q-25 0 -40 15t-15 37q0 18 7 31t18 22t24 13t25 4q22 0 39 -11.5t17 -37.5q0 -28 -21.5 -50.5t-53.5 -22.5z" />
    <glyph glyph-name="emdash" unicode="&#x2014;" horiz-adv-x="1000" 
d="M84 194q-25 0 -39.5 9t-14.5 29q0 31 20 45t50 14h824q25 0 39.5 -9.5t14.5 -29.5q0 -31 -20.5 -44.5t-49.5 -13.5h-824z" />
    <glyph glyph-name="oe" unicode="&#x153;" horiz-adv-x="752" 
d="M579 466q69 0 111 -36t42 -102q0 -24 -9 -51t-33.5 -50.5t-66.5 -38.5t-108 -15q-21 0 -39.5 1.5t-34.5 3.5l-2 -13q-1 -4 -1 -7.5v-6.5q0 -37 49 -37h136q18 0 35 -14t17 -40q0 -18 -6.5 -29.5t-15.5 -18.5t-18.5 -9.5t-15.5 -2.5h-136q-41 0 -70.5 10t-49.5 29
q-51 -39 -129 -39h-35q-81 0 -122.5 41t-41.5 113q1 11 1.5 22t2.5 22l15 87q15 88 65 135.5t143 47.5h20q82 0 127 -47q29 23 64.5 34t77.5 11h28zM336 281q1 4 1 7.5v6.5q0 30 -18 44t-46 14h-21q-27 0 -51 -19t-31 -59l-14 -87q-1 -5 -1 -15q0 -26 14.5 -42t47.5 -16h16
q32 0 56.5 18.5t31.5 56.5zM534 357q-35 0 -52 -19.5t-22 -48.5l-3 -18q21 -2 31 -2.5t24 -0.5q34 0 53 7t28.5 16.5t12 19.5t2.5 16q0 10 -9 20t-28 10h-37z" />
    <glyph glyph-name="germandbls" unicode="&#xdf;" horiz-adv-x="487" 
d="M215 0q-17 0 -27.5 9t-10.5 30t5.5 34t13.5 21t17.5 11t17.5 3h19q38 0 56.5 18.5t24.5 56.5l8 49q5 34 -8.5 56t-48.5 22h-16q-17 0 -27.5 9t-10.5 30t5.5 34t13.5 20.5t17.5 10t17.5 2.5h8q15 0 30 6t27 17.5t19.5 28t7.5 37.5q0 33 -20.5 52t-58.5 19
q-44 0 -64.5 -24.5t-26.5 -63.5l-91 -561q-3 -20 -18.5 -34t-47.5 -14q-29 0 -42 15t-9 36l89 564q14 89 68.5 142.5t151.5 53.5q42 0 77 -11.5t60 -33.5t39 -54t14 -73q0 -106 -83 -151q21 -10 32 -25t15 -33t3.5 -38t-3.5 -39l-7 -49q-14 -94 -66.5 -138.5t-143.5 -44.5
h-27z" />
    <glyph glyph-name="trademark" unicode="&#x2122;" horiz-adv-x="697" 
d="M328 626q0 42 43 42h22q21 0 29 -8.5t15 -22.5l55 -119h3l59 128q7 10 16 16t24 6h20q43 0 43 -42v-262q0 -40 -43 -40t-43 40v140h-2l-26 -59q-4 -8 -12.5 -18t-28.5 -10h-19q-20 0 -28.5 9.5t-12.5 18.5l-25 58h-2v-139q0 -40 -43 -40q-44 0 -44 40v262zM206 584v-222
q0 -20 -13.5 -29t-30.5 -9q-16 0 -29.5 9t-13.5 29v222h-64q-20 0 -30 11.5t-10 30.5q0 17 9 29.5t31 12.5h215q22 0 31 -12.5t9 -29.5q0 -19 -10 -30.5t-30 -11.5h-64z" />
    <glyph glyph-name="degree" unicode="&#xb0;" horiz-adv-x="335" 
d="M108 568q0 -25 17 -41.5t43 -16.5q24 0 41 16.5t17 41.5q0 26 -17 43t-41 17q-26 0 -43 -17t-17 -43zM30 568q0 29 10.5 54t29 44t44 29.5t54.5 10.5q28 0 53 -10.5t44 -29.5t29.5 -44t10.5 -54t-10.5 -53.5t-29.5 -43.5t-44 -29.5t-53 -10.5q-29 0 -54.5 10.5t-44 29.5
t-29 43.5t-10.5 53.5z" />
    <glyph glyph-name="registered" unicode="&#xae;" horiz-adv-x="608" 
d="M256 526v-79h76q14 0 21.5 12t7.5 29q0 21 -11.5 29.5t-20.5 8.5h-73zM425 488q0 -29 -12.5 -56.5t-41.5 -41.5l42 -76q6 -9 6 -18q0 -13 -9.5 -21.5t-22.5 -8.5q-20 0 -30 17l-56 101h-45v-89q0 -30 -33 -30t-33 30v262q0 33 33 33h99q47 0 75 -28t28 -74zM301 638
q-39 0 -75 -15t-64.5 -42.5t-45.5 -66.5t-17 -86q0 -39 14.5 -76t42 -66t67 -46.5t90.5 -17.5q36 0 71 15t63 43t45 68t17 89q0 36 -14.5 71.5t-41.5 64.5t-65.5 47t-86.5 18zM301 699q61 0 110 -23.5t84 -61t54 -83.5t19 -91q0 -64 -22 -115.5t-57.5 -88t-81 -56
t-91.5 -19.5q-66 0 -117 23t-86.5 60.5t-54 85.5t-18.5 98q0 61 22 111t58 85.5t83 55t98 19.5z" />
    <glyph glyph-name="copyright" unicode="&#xa9;" horiz-adv-x="774" 
d="M373 113q-28 0 -53 9t-43.5 27t-29 45t-10.5 64v143q0 37 11 64.5t29.5 46t43 28t52.5 9.5h101q21 0 32 -12t11 -32q0 -21 -11 -33t-32 -12h-98q-23 0 -36 -15t-13 -40v-149q0 -25 13 -39t36 -14h98q21 0 32 -12t11 -32q0 -21 -11 -33.5t-32 -12.5h-101zM395 -17
q-82 0 -148 27.5t-112.5 75t-72 110.5t-25.5 134q0 70 26.5 134t75 112.5t116 77t148.5 28.5q67 0 129.5 -26.5t109.5 -72.5t75.5 -109t28.5 -136q0 -77 -29.5 -142t-78.5 -112.5t-112.5 -74t-130.5 -26.5zM395 75q52 0 98.5 19.5t82 55t56 83.5t20.5 105q0 53 -20 99
t-54 80t-79.5 53.5t-97.5 19.5q-62 0 -112 -21t-85 -57t-54 -83t-19 -99t18.5 -98.5t53 -81t83 -55t109.5 -20.5z" />
    <glyph glyph-name="pi" unicode="&#x3c0;" horiz-adv-x="517" 
d="M372 353h-187l-49 -312q-2 -16 -19 -31t-48 -15q-26 0 -40 12t-14 29l1 6l58 363q1 9 6 19.5t13.5 20t21.5 16t32 6.5h299q32 0 44 -17.5t12 -34.5q0 -7 -1 -10l-62 -385q-3 -20 -8 -23t-22 -3q-40 0 -58.5 28t-18.5 66v14t2 14z" />
    <glyph glyph-name="dieresistonos" unicode="&#x385;" horiz-adv-x="532" 
d="M469 535q-25 0 -40 15t-15 37q0 18 7 31t18 22t24 13t25 4q22 0 38.5 -11.5t16.5 -37.5q0 -14 -5.5 -27t-15.5 -23t-23.5 -16.5t-29.5 -6.5zM162 535q-25 0 -40 15t-15 37q0 18 7 31t18 22t24 13t25 4q22 0 39 -11.5t17 -37.5q0 -28 -21.5 -50.5t-53.5 -22.5zM312 536
q-16 -16 -34 -16q-14 0 -27 10.5t-13 24.5q0 8 3.5 16t8.5 15l88 127q11 17 25.5 24.5t28.5 7.5q23 0 39 -17.5t16 -37.5q0 -22 -20 -41z" />
    <glyph glyph-name="tonos" unicode="&#x384;" horiz-adv-x="523" 
d="M317 536q-16 -16 -34 -16q-14 0 -27 10.5t-13 24.5q0 8 3.5 16t8.5 15l88 127q11 17 25.5 24.5t28.5 7.5q23 0 39 -17.5t16 -37.5q0 -22 -20 -41z" />
    <glyph glyph-name="sfthyphen" unicode="&#xad;" horiz-adv-x="383" 
d="M310 298q52 0 52 -42q0 -71 -70 -71h-213q-52 0 -52 42q0 37 18.5 54t51.5 17h213z" />
    <glyph glyph-name="Gamma" unicode="&#x393;" horiz-adv-x="527" 
d="M152 48q-5 -29 -21.5 -41t-45.5 -12q-27 0 -40.5 9t-13.5 31q0 8 1 13l89 562q9 58 70 58h331q46 0 46 -43q0 -34 -17.5 -53.5t-46.5 -19.5h-272z" />
    <glyph glyph-name="Delta" unicode="&#x394;" horiz-adv-x="581" 
d="M333 474l-180 -359h247l-63 359h-4zM376 668q27 0 38 -13.5t16 -35.5l108 -548q1 -5 1.5 -8.5t0.5 -7.5q0 -25 -14 -40t-40 -15h-466q-33 0 -33 37q0 17 9 35l282 547q11 21 25.5 35t42.5 14h30z" />
    <glyph glyph-name="Delta" unicode="&#x2206;" horiz-adv-x="581" 
d="M333 474l-180 -359h247l-63 359h-4zM376 668q27 0 38 -13.5t16 -35.5l108 -548q1 -5 1.5 -8.5t0.5 -7.5q0 -25 -14 -40t-40 -15h-466q-33 0 -33 37q0 17 9 35l282 547q11 21 25.5 35t42.5 14h30z" />
    <glyph glyph-name="Theta" unicode="&#x398;" horiz-adv-x="578" 
d="M254 288q-42 0 -42 39q0 35 15.5 55.5t44.5 20.5h92q23 0 32.5 -10.5t9.5 -29.5q0 -35 -15.5 -55t-44.5 -20h-92zM389 668q81 0 128.5 -46.5t47.5 -130.5q0 -11 -1 -23t-3 -24l-35 -231q-16 -105 -73 -159t-148 -54h-84q-39 0 -71 11.5t-55 34t-36 55.5t-13 77
q0 13 1.5 27t3.5 28l36 221q17 105 73.5 159.5t141.5 54.5h87zM448 462q1 6 1.5 11.5t0.5 10.5q0 32 -18.5 51.5t-63.5 19.5h-64q-43 0 -66.5 -26.5t-30.5 -66.5l-41 -258q-1 -5 -1.5 -10.5t-0.5 -10.5q0 -32 18.5 -51t57.5 -19h67q45 0 69.5 27.5t30.5 65.5z" />
    <glyph glyph-name="Lambda" unicode="&#x39b;" horiz-adv-x="567" 
d="M330 474h-4l-222 -440q-9 -19 -26.5 -29.5t-37.5 -10.5q-28 0 -43 14t-15 33q0 13 8 31l280 547q11 21 26 35t42 14h30q27 0 38 -13.5t16 -35.5l107 -547q1 -4 1 -7.5v-6.5q0 -26 -19 -45t-54 -19q-37 0 -45 41z" />
    <glyph glyph-name="Xi" unicode="&#x39e;" horiz-adv-x="542" 
d="M146 552q-46 0 -46 44q0 33 17.5 52.5t46.5 19.5h354q46 0 46 -43q0 -34 -17.5 -53.5t-46.5 -19.5h-354zM147 295q-44 0 -44 43q0 33 16.5 52.5t45.5 19.5h268q23 0 34 -11t11 -31q0 -34 -16.5 -53.5t-46.5 -19.5h-268zM59 0q-46 0 -46 44q0 33 17 52.5t47 19.5h354
q23 0 34.5 -12t11.5 -33q0 -32 -17.5 -51.5t-46.5 -19.5h-354z" />
    <glyph glyph-name="Pi" unicode="&#x3a0;" horiz-adv-x="592" 
d="M441 -5q-52 0 -52 41v6.5t1 7.5l80 503h-244l-80 -503q-5 -29 -21 -42t-46 -13q-53 0 -53 41v6.5t1 7.5l90 563q9 55 68 55h362q53 0 53 -41v-6.5t-1 -7.5l-90 -563q-5 -29 -21 -42t-47 -13z" />
    <glyph glyph-name="Sigma" unicode="&#x3a3;" horiz-adv-x="551" 
d="M259 552l96 -149q13 -19 13 -39q0 -15 -8 -29t-19 -28l-157 -191h267q25 0 34.5 -12t9.5 -31q0 -27 -14.5 -50t-47.5 -23h-365q-28 0 -41 13.5t-13 33.5q0 16 8 31.5t16 25.5l199 250l-130 207q-4 8 -7.5 17t-3.5 20t4.5 23.5t13 23t21.5 17t30 6.5h372q46 0 46 -43
q0 -34 -17.5 -53.5t-46.5 -19.5h-260z" />
    <glyph glyph-name="Iotadieresis" unicode="&#x3aa;" horiz-adv-x="269" 
d="M99 -5q-53 0 -53 41v6.5t1 7.5l90 568q9 55 69 55q51 0 51 -41v-6.5t-1 -7.5l-90 -568q-5 -29 -21 -42t-46 -13zM313 690q-25 0 -40 15t-15 37q0 18 7 31t18 22t24 13t25 4q22 0 38.5 -11.5t16.5 -37.5q0 -14 -5.5 -27t-15.5 -23t-23.5 -16.5t-29.5 -6.5zM106 690
q-25 0 -40 15t-15 37q0 18 7 31t18 22t24 13t25 4q22 0 39 -11.5t17 -37.5q0 -28 -21.5 -50.5t-53.5 -22.5z" />
    <glyph glyph-name="Alpha" unicode="&#x391;" horiz-adv-x="567" 
d="M330 478l-106 -218h148l-38 218h-4zM166 149l-58 -115q-11 -23 -25.5 -32.5t-31.5 -9.5q-29 0 -48.5 16.5t-19.5 37.5q0 13 7 26l280 547q11 21 26 35t42 14h30q26 0 37.5 -13.5t16.5 -35.5l115 -547q2 -10 2 -16q0 -25 -17.5 -43.5t-53.5 -18.5q-43 0 -52 41l-24 114
h-226z" />
    <glyph glyph-name="Beta" unicode="&#x392;" horiz-adv-x="611" 
d="M232 552l-22 -139h182q12 0 24 5.5t21.5 16.5t16 26.5t6.5 35.5q0 28 -15.5 41.5t-35.5 13.5h-177zM192 302l-29 -186h189q12 0 27.5 5t29 17t23 32.5t9.5 50.5t-20 55.5t-57 25.5h-172zM85 0q-26 0 -39 12.5t-13 33.5v6.5t1 7.5l87 550q9 58 69 58h245q30 0 56.5 -10.5
t47 -30t32.5 -47.5t12 -63q0 -38 -19 -81.5t-63 -74.5q26 -18 42.5 -49t16.5 -82q0 -56 -20 -99t-51 -72t-69.5 -44t-74.5 -15h-260z" />
    <glyph glyph-name="Epsilon" unicode="&#x395;" horiz-adv-x="534" 
d="M86 0q-53 0 -53 44v6.5t1 7.5l87 552q9 58 70 58h331q46 0 46 -43q0 -34 -17.5 -53.5t-46.5 -19.5h-272l-23 -142h230q23 0 34 -11t11 -31q0 -34 -16.5 -53.5t-46.5 -19.5h-230l-28 -179h272q23 0 34.5 -12t11.5 -33q0 -32 -17.5 -51.5t-46.5 -19.5h-331z" />
    <glyph glyph-name="Zeta" unicode="&#x396;" horiz-adv-x="541" 
d="M57 0q-32 0 -43.5 11.5t-11.5 27.5q0 20 8 37.5t17 28.5l372 447h-242q-46 0 -46 44q0 33 17.5 52.5t46.5 19.5h348q28 0 38.5 -12.5t10.5 -30.5q0 -20 -8 -35.5t-17 -26.5l-372 -447h269q25 0 34.5 -12t9.5 -31q0 -27 -14.5 -50t-47.5 -23h-369z" />
    <glyph glyph-name="Eta" unicode="&#x397;" horiz-adv-x="592" 
d="M441 -5q-52 0 -52 41v6.5t1 7.5l39 245h-244l-39 -245q-5 -29 -21 -42t-46 -13q-53 0 -53 41v6.5t1 7.5l90 568q9 55 69 55q51 0 51 -41v-6.5t-1 -7.5l-33 -208h244l33 208q9 55 68 55q52 0 52 -41v-6.5t-1 -7.5l-90 -568q-5 -29 -21 -42t-47 -13z" />
    <glyph glyph-name="Iota" unicode="&#x399;" horiz-adv-x="269" 
d="M99 -5q-53 0 -53 41v6.5t1 7.5l90 568q9 55 69 55q51 0 51 -41v-6.5t-1 -7.5l-90 -568q-5 -29 -21 -42t-46 -13z" />
    <glyph glyph-name="Kappa" unicode="&#x39a;" horiz-adv-x="555" 
d="M215 421l296 236q22 17 42 17q9 0 19 -5t18.5 -13t14 -18.5t5.5 -21.5t-4.5 -19.5t-10.5 -13.5l-256 -203q42 -71 84 -145.5t84 -146.5q10 -17 10 -33q0 -13 -6.5 -24t-16 -18.5t-21 -12t-20.5 -4.5q-28 0 -45 28q-40 71 -80 143t-82 142l-61 -48l-33 -208
q-9 -58 -68 -58q-52 0 -52 43q0 10 1 15l89 562q9 58 69 58q51 0 51 -43q0 -10 -1 -15l-29 -194h3z" />
    <glyph glyph-name="Mu" unicode="&#x39c;" horiz-adv-x="674" 
d="M361 380l165 257q20 31 60 31h38q52 0 52 -43q0 -10 -1 -15l-89 -560q-5 -29 -21 -42t-47 -13q-52 0 -52 41v6.5t1 7.5l61 384h-4l-103 -157q-8 -13 -23 -27.5t-43 -14.5h-33q-27 0 -37.5 15t-15.5 28l-53 156h-4l-61 -384q-5 -29 -21 -42t-46 -13q-53 0 -53 41v6.5
t1 7.5l89 560q9 58 69 58h30q26 0 37.5 -14t18.5 -34l79 -240h6z" />
    <glyph glyph-name="Phi" unicode="&#x3a6;" horiz-adv-x="680" 
d="M302 -5q-53 0 -53 41v6.5t1 7.5l5 28h-13q-36 0 -69 12t-58.5 34.5t-40.5 56t-15 77.5q0 19 3 39l16 102q8 52 30.5 91.5t54.5 66t72 40t84 13.5h20l1 8q9 55 69 55q51 0 51 -41v-6.5t-1 -7.5l-1 -8h20q39 0 72 -11.5t57 -34t37.5 -55.5t13.5 -75q0 -20 -3 -42l-16 -106
q-8 -53 -29.5 -92t-53.5 -64.5t-72 -38.5t-85 -13h-25l-5 -28q-5 -29 -20.5 -42t-46.5 -13zM420 181q23 0 40.5 8.5t30 22.5t20.5 32.5t11 38.5l20 123q1 7 1.5 13t0.5 12q0 32 -16.5 54t-59.5 22h-26l-52 -326h30zM176 283q-1 -6 -1.5 -11.5t-0.5 -11.5q0 -33 18.5 -56
t60.5 -23h18l52 326h-26q-24 0 -42 -8.5t-30 -22.5t-19 -32t-10 -38z" />
    <glyph glyph-name="Upsilondieresis" unicode="&#x3ab;" horiz-adv-x="553" 
d="M298 385l195 265q11 15 24 21.5t26 6.5q23 0 43.5 -16.5t20.5 -40.5q0 -14 -10 -27l-252 -336l-33 -208q-9 -56 -68 -56q-52 0 -52 45q0 3 0.5 5.5t0.5 5.5l34 210l-153 337q-3 7 -3 17q0 23 20 42t51 19q29 0 42 -31l110 -259h4zM457 691q-25 0 -40 15t-15 37q0 18 7 31
t18 22t24 13t25 4q22 0 38.5 -11.5t16.5 -37.5q0 -14 -5.5 -27t-15.5 -23t-23.5 -16.5t-29.5 -6.5zM250 691q-25 0 -40 15t-15 37q0 18 7 31t18 22t24 13t25 4q22 0 39 -11.5t17 -37.5q0 -28 -21.5 -50.5t-53.5 -22.5z" />
    <glyph glyph-name="Psi" unicode="&#x3a8;" horiz-adv-x="680" 
d="M385 147l-16 -97q-5 -29 -21 -42t-46 -13q-53 0 -53 41v6.5t1 7.5l16 97h-21q-35 0 -67 10.5t-56 31.5t-38 53.5t-14 76.5q0 21 3 45l39 254q9 55 69 55q51 0 51 -41v-6.5t-1 -7.5l-41 -263q-1 -6 -1.5 -12t-0.5 -11q0 -32 17 -53.5t52 -21.5h26l59 370q9 55 69 55
q51 0 51 -41v-6.5t-1 -7.5l-59 -370h30q42 0 67.5 28.5t31.5 69.5l41 263q9 55 69 55q51 0 51 -41v-6.5t-1 -7.5l-42 -266q-8 -53 -30 -91.5t-52.5 -63.5t-67 -37.5t-74.5 -12.5h-40z" />
    <glyph glyph-name="Omega" unicode="&#x3a9;" horiz-adv-x="613" 
d="M186 230q-1 -6 -1.5 -11.5t-0.5 -10.5q0 -55 47 -76q17 -8 25.5 -15.5t8.5 -24.5q0 -4 -0.5 -8t-1.5 -9l-3 -21q-3 -20 -18 -37t-44 -17h-146q-25 0 -34.5 12.5t-9.5 30.5q0 30 14.5 50.5t47.5 22.5l21 1q-11 11 -19 28.5t-8 49.5q0 10 1 21t3 25l35 213q17 105 74 159.5
t139 54.5h96q76 0 122.5 -47.5t46.5 -131.5q0 -25 -4 -48l-30 -197q-6 -38 -23.5 -74t-41.5 -52l1 -2h18q25 0 34.5 -12t9.5 -31q0 -27 -14.5 -50t-47.5 -23h-143q-25 0 -36 13.5t-11 30.5q0 3 1 8t3 23q4 27 16 37t34 20q34 15 54.5 39t25.5 59l37 232q1 6 1.5 12t0.5 12
q0 30 -16.5 49.5t-57.5 19.5h-72q-44 0 -67 -26.5t-30 -66.5z" />
    <glyph glyph-name="alphatonos" unicode="&#x3ac;" horiz-adv-x="487" 
d="M55 292q14 88 63.5 135.5t132.5 47.5q34 0 68 -12.5t66 -30.5q11 16 30 27.5t42 11.5q14 0 24 -4t10 -22q0 -7 -1 -11l-62 -411q-3 -19 -9.5 -23t-21.5 -4q-29 0 -47 14.5t-24 30.5q-68 -46 -126 -46q-88 0 -126.5 39t-38.5 107q0 25 4 48zM157 184q-1 -5 -1 -9v-9
q0 -25 13.5 -40.5t48.5 -15.5q23 0 51 9t63 37l28 177q-25 14 -54 20.5t-53 6.5q-33 0 -54 -18.5t-27 -59.5zM306 536q-16 -16 -34 -16q-14 0 -27 10.5t-13 24.5q0 8 3.5 16t8.5 15l88 127q11 17 25.5 24.5t28.5 7.5q23 0 39 -17.5t16 -37.5q0 -22 -20 -41z" />
    <glyph glyph-name="Nu" unicode="&#x39d;" horiz-adv-x="619" 
d="M440 233l62 386q9 55 68 55q53 0 53 -42q0 -8 -1 -13l-89 -561q-9 -58 -69 -58h-30q-23 0 -34 10.5t-18 27.5l-164 407h-3l-63 -396q-5 -29 -21.5 -42t-46.5 -13q-53 0 -53 41q0 9 1 14l89 561q9 58 69 58h32q27 0 38 -14t19 -33q41 -99 78.5 -193t78.5 -195h4z" />
    <glyph glyph-name="Omicron" unicode="&#x39f;" horiz-adv-x="578" 
d="M389 668q81 0 128.5 -46.5t47.5 -130.5q0 -11 -1 -23t-3 -24l-35 -231q-16 -105 -73 -159t-148 -54h-84q-39 0 -71 11.5t-55 34t-36 55.5t-13 77q0 13 1.5 27t3.5 28l36 221q17 105 73.5 159.5t141.5 54.5h87zM448 462q1 6 1.5 11.5t0.5 10.5q0 32 -18.5 51.5t-63.5 19.5
h-64q-43 0 -66.5 -26.5t-30.5 -66.5l-41 -258q-1 -5 -1.5 -10.5t-0.5 -10.5q0 -32 18.5 -51t57.5 -19h67q45 0 69.5 27.5t30.5 65.5z" />
    <glyph glyph-name="Rho" unicode="&#x3a1;" horiz-adv-x="573" 
d="M231 552l-30 -188h164q24 0 42.5 10t31 26.5t18.5 37t6 41.5q0 20 -7 34t-18 22.5t-24.5 12.5t-26.5 4h-156zM183 249l-32 -199q-5 -29 -21 -42t-46 -13q-53 0 -53 42q0 8 1 13l89 560q9 58 69 58h214q88 0 133.5 -47t45.5 -128q0 -55 -16 -100t-47 -77t-76 -49.5
t-103 -17.5h-158z" />
    <glyph glyph-name="Tau" unicode="&#x3a4;" horiz-adv-x="526" 
d="M375 557l-80 -506q-9 -56 -69 -56q-51 0 -51 40v7.5t1 8.5l80 506h-141q-46 0 -46 44q0 34 17 50.5t46 16.5h400q48 0 48 -40q0 -32 -18 -51.5t-47 -19.5h-140z" />
    <glyph glyph-name="Upsilon" unicode="&#x3a5;" horiz-adv-x="553" 
d="M298 385l195 265q11 15 24 21.5t26 6.5q23 0 43.5 -16.5t20.5 -40.5q0 -14 -10 -27l-252 -336l-33 -208q-9 -56 -68 -56q-52 0 -52 45q0 3 0.5 5.5t0.5 5.5l34 210l-153 337q-3 7 -3 17q0 23 20 42t51 19q29 0 42 -31l110 -259h4z" />
    <glyph glyph-name="Chi" unicode="&#x3a7;" horiz-adv-x="550" 
d="M495 7q-18 -12 -35 -12q-14 0 -26.5 7.5t-19.5 20.5l-125 230l-206 -242q-7 -8 -19.5 -13t-26.5 -5q-25 0 -42 16t-17 36q0 10 3 18.5t8 13.5l234 270l-127 233q-8 16 -8 31q0 10 6 21t15.5 20t22.5 15t27 6q23 0 37 -27l108 -205l185 216q16 19 38 19q12 0 23.5 -6.5
t20 -16t14 -20.5t5.5 -20q0 -13 -8 -22l-212 -244l145 -260q7 -13 7 -29q0 -14 -6.5 -27.5t-20.5 -23.5z" />
    <glyph glyph-name="Alphatonos" unicode="&#x386;" horiz-adv-x="567" 
d="M330 478l-106 -218h148l-38 218h-4zM166 149l-58 -115q-11 -23 -25.5 -32.5t-31.5 -9.5q-29 0 -48.5 16.5t-19.5 37.5q0 13 7 26l280 547q11 21 26 35t42 14h30q26 0 37.5 -13.5t16.5 -35.5l115 -547q2 -10 2 -16q0 -25 -17.5 -43.5t-53.5 -18.5q-43 0 -52 41l-24 114
h-226zM46 496q-16 -16 -34 -16q-14 0 -27 10.5t-13 24.5q0 8 3.5 16t8.5 15l88 127q11 17 25.5 24.5t28.5 7.5q23 0 39 -17.5t16 -37.5q0 -22 -20 -41z" />
    <glyph glyph-name="Epsilontonos" unicode="&#x388;" horiz-adv-x="534" 
d="M86 0q-53 0 -53 44v6.5t1 7.5l87 552q9 58 70 58h331q46 0 46 -43q0 -34 -17.5 -53.5t-46.5 -19.5h-272l-23 -142h230q23 0 34 -11t11 -31q0 -34 -16.5 -53.5t-46.5 -19.5h-230l-28 -179h272q23 0 34.5 -12t11.5 -33q0 -32 -17.5 -51.5t-46.5 -19.5h-331zM-54 496
q-16 -16 -34 -16q-14 0 -27 10.5t-13 24.5q0 8 3.5 16t8.5 15l88 127q11 17 25.5 24.5t28.5 7.5q23 0 39 -17.5t16 -37.5q0 -22 -20 -41z" />
    <glyph glyph-name="afii00208" unicode="&#x2015;" horiz-adv-x="1000" 
d="M84 194q-25 0 -39.5 9t-14.5 29q0 31 20 45t50 14h824q25 0 39.5 -9.5t14.5 -29.5q0 -31 -20.5 -44.5t-49.5 -13.5h-824z" />
    <glyph glyph-name="Etatonos" unicode="&#x389;" horiz-adv-x="592" 
d="M441 -5q-52 0 -52 41v6.5t1 7.5l39 245h-244l-39 -245q-5 -29 -21 -42t-46 -13q-53 0 -53 41v6.5t1 7.5l90 568q9 55 69 55q51 0 51 -41v-6.5t-1 -7.5l-33 -208h244l33 208q9 55 68 55q52 0 52 -41v-6.5t-1 -7.5l-90 -568q-5 -29 -21 -42t-47 -13zM-54 496
q-16 -16 -34 -16q-14 0 -27 10.5t-13 24.5q0 8 3.5 16t8.5 15l88 127q11 17 25.5 24.5t28.5 7.5q23 0 39 -17.5t16 -37.5q0 -22 -20 -41z" />
    <glyph glyph-name="Iotatonos" unicode="&#x38a;" horiz-adv-x="269" 
d="M99 -5q-53 0 -53 41v6.5t1 7.5l90 568q9 55 69 55q51 0 51 -41v-6.5t-1 -7.5l-90 -568q-5 -29 -21 -42t-46 -13zM-42 496q-16 -16 -34 -16q-14 0 -27 10.5t-13 24.5q0 8 3.5 16t8.5 15l88 127q11 17 25.5 24.5t28.5 7.5q23 0 39 -17.5t16 -37.5q0 -22 -20 -41z" />
    <glyph glyph-name="Omicrontonos" unicode="&#x38c;" horiz-adv-x="578" 
d="M389 668q81 0 128.5 -46.5t47.5 -130.5q0 -11 -1 -23t-3 -24l-35 -231q-16 -105 -73 -159t-148 -54h-84q-39 0 -71 11.5t-55 34t-36 55.5t-13 77q0 13 1.5 27t3.5 28l36 221q17 105 73.5 159.5t141.5 54.5h87zM448 462q1 6 1.5 11.5t0.5 10.5q0 32 -18.5 51.5t-63.5 19.5
h-64q-43 0 -66.5 -26.5t-30.5 -66.5l-41 -258q-1 -5 -1.5 -10.5t-0.5 -10.5q0 -32 18.5 -51t57.5 -19h67q45 0 69.5 27.5t30.5 65.5zM-41 496q-16 -16 -34 -16q-14 0 -27 10.5t-13 24.5q0 8 3.5 16t8.5 15l88 127q11 17 25.5 24.5t28.5 7.5q23 0 39 -17.5t16 -37.5
q0 -22 -20 -41z" />
    <glyph glyph-name="Upsilontonos" unicode="&#x38e;" horiz-adv-x="553" 
d="M298 385l195 265q11 15 24 21.5t26 6.5q23 0 43.5 -16.5t20.5 -40.5q0 -14 -10 -27l-252 -336l-33 -208q-9 -56 -68 -56q-52 0 -52 45q0 3 0.5 5.5t0.5 5.5l34 210l-153 337q-3 7 -3 17q0 23 20 42t51 19q29 0 42 -31l110 -259h4zM-85 496q-16 -16 -34 -16
q-14 0 -27 10.5t-13 24.5q0 8 3.5 16t8.5 15l88 127q11 17 25.5 24.5t28.5 7.5q23 0 39 -17.5t16 -37.5q0 -22 -20 -41z" />
    <glyph glyph-name="epsilontonos" unicode="&#x3ad;" horiz-adv-x="443" 
d="M214 353q-14 0 -26 -9t-12 -23q0 -9 6.5 -18t22.5 -9h152q19 0 30.5 -10t11.5 -31q0 -34 -18 -48.5t-40 -14.5h-151q-16 0 -29.5 -11.5t-13.5 -32.5q0 -13 7.5 -22.5t25.5 -9.5h163q20 0 32.5 -11t12.5 -32q0 -37 -20 -54t-43 -17h-179q-25 0 -47 7t-38.5 21.5t-26 36.5
t-9.5 52q0 47 19.5 75.5t51.5 48.5q-19 11 -28.5 31.5t-9.5 41.5q0 30 10 57.5t30 49t50.5 34t72.5 12.5h145q19 0 32 -10.5t13 -32.5q0 -37 -20 -54t-43 -17h-134zM268 536q-16 -16 -34 -16q-14 0 -27 10.5t-13 24.5q0 8 3.5 16t8.5 15l88 127q11 17 25.5 24.5t28.5 7.5
q23 0 39 -17.5t16 -37.5q0 -22 -20 -41z" />
    <glyph glyph-name="etatonos" unicode="&#x3ae;" horiz-adv-x="523" 
d="M371 281q1 5 1.5 9.5t0.5 9.5q0 32 -18.5 46t-47.5 14q-23 0 -52 -9t-66 -38l-44 -272q-1 -6 -4 -13.5t-9.5 -14.5t-17 -12t-26.5 -5q-33 0 -46 15t-13 34l1 9l60 393q3 19 10.5 23t24.5 4q30 0 47 -14t24 -31q35 23 69.5 34.5t63.5 11.5q88 0 126.5 -39t38.5 -107
q0 -25 -4 -48l-39 -261q-3 -20 -8 -23t-22 -3q-41 0 -59 29t-18 67q0 6 0.5 12t1.5 12zM300 536q-16 -16 -34 -16q-14 0 -27 10.5t-13 24.5q0 8 3.5 16t8.5 15l88 127q11 17 25.5 24.5t28.5 7.5q23 0 39 -17.5t16 -37.5q0 -22 -20 -41z" />
    <glyph glyph-name="iotatonos" unicode="&#x3af;" horiz-adv-x="266" 
d="M159 20q-3 -20 -8 -23t-22 -3q-24 0 -40 10.5t-25 27.5t-11.5 39t1.5 45l50 315q1 6 4 13.5t10 14.5t18.5 12t28.5 5q34 0 45 -18.5t8 -39.5zM219 536q-16 -16 -34 -16q-14 0 -27 10.5t-13 24.5q0 8 3.5 16t8.5 15l88 127q11 17 25.5 24.5t28.5 7.5q23 0 39 -17.5
t16 -37.5q0 -22 -20 -41z" />
    <glyph glyph-name="omicrontonos" unicode="&#x3cc;" horiz-adv-x="501" 
d="M356 283q1 4 1 7.5v6.5q0 30 -18 44t-46 14h-41q-29 0 -52 -19t-30 -59l-15 -91q-1 -5 -1 -8.5v-8.5q0 -25 15 -40.5t47 -15.5h36q32 0 56.5 18.5t31.5 56.5zM199 0q-81 0 -122.5 41t-41.5 113q0 11 1 22t3 22l14 87q14 88 65 135.5t144 47.5h40q85 0 129 -43.5
t44 -115.5q0 -18 -3 -39l-14 -90q-14 -88 -66 -134t-138 -46h-55zM310 536q-16 -16 -34 -16q-14 0 -27 10.5t-13 24.5q0 8 3.5 16t8.5 15l88 127q11 17 25.5 24.5t28.5 7.5q23 0 39 -17.5t16 -37.5q0 -22 -20 -41z" />
    <glyph glyph-name="Omegatonos" unicode="&#x38f;" horiz-adv-x="613" 
d="M186 230q-1 -6 -1.5 -11.5t-0.5 -10.5q0 -55 47 -76q17 -8 25.5 -15.5t8.5 -24.5q0 -4 -0.5 -8t-1.5 -9l-3 -21q-3 -20 -18 -37t-44 -17h-146q-25 0 -34.5 12.5t-9.5 30.5q0 30 14.5 50.5t47.5 22.5l21 1q-11 11 -19 28.5t-8 49.5q0 10 1 21t3 25l35 213q17 105 74 159.5
t139 54.5h96q76 0 122.5 -47.5t46.5 -131.5q0 -25 -4 -48l-30 -197q-6 -38 -23.5 -74t-41.5 -52l1 -2h18q25 0 34.5 -12t9.5 -31q0 -27 -14.5 -50t-47.5 -23h-143q-25 0 -36 13.5t-11 30.5q0 3 1 8t3 23q4 27 16 37t34 20q34 15 54.5 39t25.5 59l37 232q1 6 1.5 12t0.5 12
q0 30 -16.5 49.5t-57.5 19.5h-72q-44 0 -67 -26.5t-30 -66.5zM-26 496q-16 -16 -34 -16q-14 0 -27 10.5t-13 24.5q0 8 3.5 16t8.5 15l88 127q11 17 25.5 24.5t28.5 7.5q23 0 39 -17.5t16 -37.5q0 -22 -20 -41z" />
    <glyph glyph-name="upsilontonos" unicode="&#x3cd;" horiz-adv-x="528" 
d="M157 188q-1 -5 -1 -8.5v-8.5q0 -25 15 -40.5t47 -15.5h36q32 0 57 18.5t31 56.5l37 235q3 18 19 32t46 14q29 0 41.5 -13t12.5 -28v-5l-39 -245q-14 -88 -62.5 -134t-141.5 -46h-47q-81 0 -126 40.5t-45 115.5q0 19 3 42l38 252q3 20 8 23t22 3q40 0 58.5 -28t18.5 -66
v-14t-2 -14zM322 536q-16 -16 -34 -16q-14 0 -27 10.5t-13 24.5q0 8 3.5 16t8.5 15l88 127q11 17 25.5 24.5t28.5 7.5q23 0 39 -17.5t16 -37.5q0 -22 -20 -41z" />
    <glyph glyph-name="alpha" unicode="&#x3b1;" horiz-adv-x="500" 
d="M55 292q14 88 63.5 135.5t132.5 47.5q34 0 68 -12.5t66 -30.5q11 16 30 27.5t42 11.5q14 0 24 -4t10 -22q0 -7 -1 -11l-62 -411q-3 -19 -9.5 -23t-21.5 -4q-29 0 -47 14.5t-24 30.5q-68 -46 -126 -46q-88 0 -126.5 39t-38.5 107q0 25 4 48zM157 184q-1 -5 -1 -9v-9
q0 -25 13.5 -40.5t48.5 -15.5q23 0 51 9t63 37l28 177q-25 14 -54 20.5t-53 6.5q-33 0 -54 -18.5t-27 -59.5z" />
    <glyph glyph-name="beta" unicode="&#x3b2;" horiz-adv-x="487" 
d="M144 111h106q27 0 51 17t30 55l8 49q1 5 1.5 9t0.5 9q0 27 -14.5 43.5t-44.5 16.5h-22q-17 0 -27.5 9t-10.5 30t5.5 34t13.5 20.5t17.5 10t17.5 2.5h14q15 0 30 6t27 17.5t19.5 28t7.5 37.5q0 33 -20.5 52t-58.5 19q-44 0 -64.5 -24.5t-26.5 -63.5zM85 494
q14 89 68.5 142.5t151.5 53.5q42 0 77 -11.5t60 -33.5t39 -54t14 -73q0 -106 -83 -151q30 -14 40.5 -38.5t10.5 -52.5q0 -11 -1 -22t-3 -22l-7 -49q-14 -94 -66.5 -138.5t-143.5 -44.5h-118l-25 -162q-3 -20 -18.5 -34t-47.5 -14q-26 0 -39 12t-13 30q0 6 1 9z" />
    <glyph glyph-name="psi" unicode="&#x3c8;" horiz-adv-x="648" 
d="M598 185q-7 -47 -25.5 -81.5t-45.5 -57.5t-60.5 -34.5t-71.5 -11.5h-47l-26 -163q-3 -20 -17.5 -34.5t-46.5 -14.5t-45 14.5t-10 34.5l26 163h-32q-38 0 -70 12t-54 35.5t-31.5 58t-2.5 79.5l38 241q3 17 19 32t45 15q31 0 44 -15t10 -32l-39 -246q-6 -37 13 -52.5
t46 -15.5h32l53 335q3 17 19.5 32t45.5 15q31 0 43.5 -15t9.5 -32l-53 -335h32q13 0 26 3.5t24.5 12t20 21.5t11.5 31l27 174q4 23 11.5 45t20 39t32 27.5t47.5 10.5q17 0 20.5 -5.5t1.5 -20.5z" />
    <glyph glyph-name="delta" unicode="&#x3b4;" horiz-adv-x="502" 
d="M190 0q-73 0 -114 40.5t-41 112.5q0 11 1 22t3 23l10 65q5 31 12.5 59t20.5 51.5t33 43t51 34.5q-17 18 -28 39t-11 60q0 29 12 54.5t33.5 45t51.5 31t66 11.5h160q7 0 14.5 -2t14 -7.5t10.5 -15t4 -23.5q0 -20 -6.5 -33t-15.5 -20.5t-19.5 -10.5t-18.5 -3h-139
q-15 0 -25.5 -5.5t-10.5 -19.5q0 -10 5.5 -18.5t21 -19.5t42.5 -26t71 -36q38 -19 58 -55.5t20 -87.5q0 -11 -1 -22t-3 -22l-14 -83q-16 -93 -69 -137.5t-135 -44.5h-64zM355 276q2 8 2 14.5v12.5q0 18 -5 30t-15.5 20.5t-25.5 14.5t-35 13q-28 -5 -47.5 -18t-32.5 -30.5
t-19.5 -37t-9.5 -37.5l-10 -64q-1 -6 -1.5 -11.5t-0.5 -10.5q0 -26 13.5 -41.5t47.5 -15.5h39q41 0 61.5 23.5t25.5 55.5z" />
    <glyph glyph-name="epsilon" unicode="&#x3b5;" horiz-adv-x="443" 
d="M214 353q-14 0 -26 -9t-12 -23q0 -9 6.5 -18t22.5 -9h152q19 0 30.5 -10t11.5 -31q0 -34 -18 -48.5t-40 -14.5h-151q-16 0 -29.5 -11.5t-13.5 -32.5q0 -13 7.5 -22.5t25.5 -9.5h163q20 0 32.5 -11t12.5 -32q0 -37 -20 -54t-43 -17h-179q-25 0 -47 7t-38.5 21.5t-26 36.5
t-9.5 52q0 47 19.5 75.5t51.5 48.5q-19 11 -28.5 31.5t-9.5 41.5q0 30 10 57.5t30 49t50.5 34t72.5 12.5h145q19 0 32 -10.5t13 -32.5q0 -37 -20 -54t-43 -17h-134z" />
    <glyph glyph-name="phi" unicode="&#x3c6;" horiz-adv-x="639" 
d="M356 112h35q26 0 50.5 15.5t30.5 52.5l17 99q1 5 1.5 9t0.5 8q0 30 -18 43.5t-42 13.5h-36zM339 0l-26 -163q-3 -20 -18 -34.5t-47 -14.5q-29 0 -42 12t-13 29q0 2 0.5 4t0.5 4l26 163h-28q-35 0 -64.5 10t-51 28.5t-33.5 46.5t-12 64q0 16 3 36l15 96q11 67 36 106.5
t70 60.5q14 7 30 7q32 0 49 -33q6 -11 6 -24q0 -16 -9 -31t-23 -24q-14 -8 -25 -21.5t-15 -35.5l-18 -106q-1 -5 -1 -15q0 -29 18 -41t42 -12h27l48 297q4 22 21.5 40t46.5 18h95q33 0 62.5 -9.5t52 -29t36 -48t13.5 -65.5q0 -17 -3 -36l-15 -94q-8 -49 -27 -84t-46 -57.5
t-60.5 -33t-71.5 -10.5h-49z" />
    <glyph glyph-name="gamma" unicode="&#x3b3;" horiz-adv-x="464" 
d="M212 144l104 198q11 20 13.5 34.5t2.5 30.5v7q0 23 13.5 42t51.5 19q20 0 32.5 -6t19 -15t8.5 -20t2 -20q0 -33 -9.5 -60t-27.5 -60l-173 -312l-23 -149q-2 -17 -18 -30.5t-46 -13.5q-26 0 -41 11.5t-15 27.5v5l26 166l-94 404q-1 5 -1 13q0 21 15.5 40t45.5 19
q20 0 33.5 -11.5t18.5 -33.5l60 -286h2z" />
    <glyph glyph-name="eta" unicode="&#x3b7;" horiz-adv-x="523" 
d="M371 281q1 5 1.5 9.5t0.5 9.5q0 32 -18.5 46t-47.5 14q-23 0 -52 -9t-66 -38l-44 -272q-1 -6 -4 -13.5t-9.5 -14.5t-17 -12t-26.5 -5q-33 0 -46 15t-13 34l1 9l60 393q3 19 10.5 23t24.5 4q30 0 47 -14t24 -31q35 23 69.5 34.5t63.5 11.5q88 0 126.5 -39t38.5 -107
q0 -25 -4 -48l-39 -261q-3 -20 -8 -23t-22 -3q-41 0 -59 29t-18 67q0 6 0.5 12t1.5 12z" />
    <glyph glyph-name="iota" unicode="&#x3b9;" horiz-adv-x="257" 
d="M159 20q-3 -20 -8 -23t-22 -3q-24 0 -40 10.5t-25 27.5t-11.5 39t1.5 45l50 315q1 6 4 13.5t10 14.5t18.5 12t28.5 5q34 0 45 -18.5t8 -39.5z" />
    <glyph glyph-name="xi" unicode="&#x3be;" horiz-adv-x="456" 
d="M248 306q-27 0 -51.5 -19t-30.5 -57l-7 -46q-1 -5 -1 -15q0 -29 18.5 -41.5t41.5 -12.5h130q30 0 41 -15.5t11 -32.5q0 -7 -1 -11l-26 -160q-3 -17 -17 -33t-44 -16q-33 0 -45.5 14.5t-8.5 34.5l18 104h-77q-73 0 -118 38t-45 110q0 16 3 36l7 46q3 20 8 40t14.5 38
t25.5 32.5t40 22.5q-23 17 -34 48t-11 64q0 46 18.5 82t49 61t69 38t77.5 13h142q17 0 29.5 -10.5t12.5 -33.5q0 -18 -6 -31.5t-15 -22.5t-19.5 -13.5t-19.5 -4.5h-133q-15 0 -29.5 -5t-26 -15.5t-19 -25.5t-7.5 -36q0 -29 17.5 -42.5t42.5 -13.5h137q15 0 27.5 -8.5
t12.5 -32.5q0 -18 -6 -30.5t-14.5 -21t-18.5 -12.5t-18 -4h-144z" />
    <glyph glyph-name="kappa" unicode="&#x3ba;" horiz-adv-x="461" 
d="M397 4q-19 -8 -35 -8q-37 0 -48 29l-85 219l-69 -42l-25 -160q-2 -17 -18 -32t-48 -15q-26 0 -39.5 13t-13.5 29v5l62 391q3 17 21 32t47 15q28 0 40 -12t12 -27q0 -5 -1 -8l-15 -95l206 129q16 10 32 10q24 0 39 -17.5t15 -37.5q0 -11 -5.5 -22.5t-19.5 -19.5l-117 -73
l94 -232q3 -9 3 -19q0 -16 -8.5 -31t-23.5 -21z" />
    <glyph glyph-name="lambda" unicode="&#x3bb;" horiz-adv-x="513" 
d="M442 20q-3 -20 -8 -23t-22 -3q-40 0 -58.5 28t-18.5 66q0 7 0.5 14t1.5 14l37 235h-113q-34 0 -60 -15.5t-32 -53.5l-38 -242q-2 -17 -17 -32t-46 -15q-58 0 -58 39q0 2 0.5 4t0.5 4l38 242q7 46 26.5 80.5t49 57.5t67 35t79.5 12h120l7 44q1 5 1.5 8.5t0.5 7.5
q0 29 -20 40.5t-49 11.5h-137q-14 0 -27 11t-13 34q0 16 5.5 29t14 22t19 13.5t19.5 4.5h151q72 0 113.5 -36.5t41.5 -107.5q0 -17 -3 -38z" />
    <glyph glyph-name="nu" unicode="&#x3bd;" horiz-adv-x="451" 
d="M210 144l98 198q9 19 12.5 34t3.5 31v7q0 23 13.5 42t51.5 19q20 0 32.5 -6t19 -15t8.5 -20t2 -20q0 -33 -10 -60t-27 -60l-132 -250q-24 -44 -66 -44h-42q-47 0 -59 54l-81 349q-1 4 -1.5 7t-0.5 7q0 20 12.5 35.5t36.5 21.5q3 1 6.5 1h6.5q20 0 34.5 -11.5t19.5 -33.5
l60 -286h2z" />
    <glyph glyph-name="omicron" unicode="&#x3bf;" horiz-adv-x="501" 
d="M356 281q1 4 1 7.5v6.5q0 30 -18 44t-46 14h-41q-29 0 -52 -19t-30 -59l-14 -87q-1 -5 -1 -8.5v-8.5q0 -25 15 -40.5t47 -15.5h36q32 0 56.5 18.5t31.5 56.5zM199 0q-81 0 -122.5 41t-41.5 113q0 11 1 22t3 22l14 87q14 88 65 135.5t144 47.5h40q85 0 129 -43.5
t44 -115.5q0 -18 -3 -39l-14 -90q-14 -88 -66 -134t-138 -46h-55z" />
    <glyph glyph-name="omegatonos" unicode="&#x3ce;" horiz-adv-x="687" 
d="M365 374q29 0 41.5 -14t12.5 -31l-23 -151q-1 -5 -1 -15q0 -27 15 -41t40 -14t43.5 16t23.5 44l21 140q1 4 1 12q0 17 -6 30t-16 22q-17 17 -17 40t16 42q8 10 20.5 17.5t27.5 7.5q13 0 27 -7q32 -18 49 -55t17 -79q0 -7 -0.5 -14t-1.5 -14l-21 -148q-4 -30 -17 -59.5
t-36.5 -53t-57.5 -38.5t-81 -15q-35 0 -69.5 11t-56.5 43q-12 -13 -28.5 -23t-34 -17t-35 -10.5t-32.5 -3.5q-41 0 -70 11.5t-47.5 30.5t-27 44.5t-8.5 54.5v15.5t2 15.5l20 138q8 54 35 99.5t69 66.5q18 10 38 10q13 0 24.5 -6t21.5 -21q9 -12 9 -29q0 -15 -8.5 -30.5
t-27.5 -29.5q-18 -13 -28.5 -27.5t-13.5 -35.5l-20 -137q-1 -4 -1 -12q0 -22 14 -34t37 -12q29 0 50 19t26 51l22 143q3 17 17 35t46 18zM409 536q-16 -16 -34 -16q-14 0 -27 10.5t-13 24.5q0 8 3.5 16t8.5 15l88 127q11 17 25.5 24.5t28.5 7.5q23 0 39 -17.5t16 -37.5
q0 -22 -20 -41z" />
    <glyph glyph-name="rho" unicode="&#x3c1;" horiz-adv-x="493" 
d="M39 220q8 51 21.5 97t40.5 81t73 56t118 21q103 0 147.5 -52.5t30.5 -141.5l-16 -100q-14 -90 -67.5 -135.5t-129.5 -45.5h-135l-26 -167q-1 -6 -4.5 -13.5t-10.5 -14.5t-18.5 -12t-28.5 -5q-34 0 -45.5 18.5t-8.5 39.5zM351 278q7 42 -16 60.5t-59 18.5
q-45 0 -75.5 -27.5t-40.5 -93.5l-18 -123h115q27 0 49.5 20t29.5 59z" />
    <glyph glyph-name="sigma" unicode="&#x3c3;" horiz-adv-x="550" 
d="M199 0q-81 0 -122.5 41t-41.5 113q0 11 1 22t3 22l14 87q14 88 65 135.5t144 47.5h266q16 0 27.5 -10.5t11.5 -32.5q0 -17 -5.5 -30t-14 -21.5t-18 -13t-18.5 -4.5h-53q9 -11 13 -26t4 -31q0 -14 -3 -29l-14 -90q-14 -88 -66 -134t-138 -46h-55zM356 281q1 4 1 7.5v6.5
q0 30 -18 44t-46 14h-41q-29 0 -52 -19t-30 -59l-14 -87q-1 -5 -1 -8.5v-8.5q0 -25 15 -40.5t47 -15.5h36q32 0 57 18.5t31 56.5z" />
    <glyph glyph-name="tau" unicode="&#x3c4;" horiz-adv-x="393" 
d="M351 464q16 0 28 -10.5t12 -31.5q0 -18 -5.5 -30.5t-14 -20.5t-18.5 -11.5t-19 -3.5h-89l-26 -163q-3 -17 -3 -29q0 -29 15.5 -41.5t48.5 -12.5h45q17 0 31.5 -12t14.5 -35q0 -21 -7 -33.5t-17 -20t-21 -10t-19 -2.5h-62q-32 0 -60 8t-48 25t-31.5 42.5t-11.5 61.5
q0 19 3 40l29 182h-59q-15 0 -28.5 10t-13.5 33q0 17 6 29t14.5 20t19 12t19.5 4h267z" />
    <glyph glyph-name="theta" unicode="&#x3b8;" horiz-adv-x="502" 
d="M208 0q-86 0 -129 41t-43 115q0 21 3 42l44 308q13 88 64.5 135.5t144.5 47.5h40q86 0 129.5 -44.5t43.5 -116.5q0 -18 -3 -37l-44 -311q-12 -88 -65 -134t-139 -46h-46zM357 302h-185l-16 -114q-1 -5 -1 -15q0 -26 14.5 -42t47.5 -16h36q32 0 56.5 18.5t31.5 56.5z
M187 411h185l14 91q1 4 1 7.5v6.5q0 30 -18 44t-46 14h-41q-28 0 -52 -19t-30 -59z" />
    <glyph glyph-name="omega" unicode="&#x3c9;" horiz-adv-x="687" 
d="M365 374q29 0 41.5 -14t12.5 -31l-23 -151q-1 -5 -1 -15q0 -27 15 -41t40 -14t43.5 16t23.5 44l21 140q1 4 1 12q0 17 -6 30t-16 22q-17 17 -17 40t16 42q8 10 20.5 17.5t27.5 7.5q13 0 27 -7q32 -18 49 -55t17 -79q0 -7 -0.5 -14t-1.5 -14l-21 -148q-4 -30 -17 -59.5
t-36.5 -53t-57.5 -38.5t-81 -15q-35 0 -69.5 11t-56.5 43q-12 -13 -28.5 -23t-34 -17t-35 -10.5t-32.5 -3.5q-41 0 -70 11.5t-47.5 30.5t-27 44.5t-8.5 54.5v15.5t2 15.5l20 138q8 54 35 99.5t69 66.5q18 10 38 10q13 0 24.5 -6t21.5 -21q9 -12 9 -29q0 -15 -8.5 -30.5
t-27.5 -29.5q-18 -13 -28.5 -27.5t-13.5 -35.5l-20 -137q-1 -4 -1 -12q0 -22 14 -34t37 -12q29 0 50 19t26 51l22 143q3 17 17 35t46 18z" />
    <glyph glyph-name="sigma1" unicode="&#x3c2;" horiz-adv-x="448" 
d="M54 0q-14 0 -28.5 10.5t-14.5 38.5q0 21 7.5 34.5t17 21.5t20 11t16.5 3h188q14 0 23 6t9 16q0 18 -32 27l-103 31q-20 6 -40 14t-36 21.5t-25.5 33.5t-9.5 50q0 69 47 108.5t125 39.5h171q7 0 14.5 -2t14 -7.5t11 -15t4.5 -23.5q0 -22 -7.5 -35.5t-18 -20.5t-22 -9.5
t-19.5 -2.5h-166q-10 0 -19 -3.5t-9 -14.5q0 -5 8 -12t21 -11l105 -30q21 -6 41 -14.5t35 -23.5t24.5 -36.5t9.5 -52.5q0 -69 -47 -110.5t-127 -41.5h-188z" />
    <glyph glyph-name="chi" unicode="&#x3c7;" horiz-adv-x="490" 
d="M259 329l114 129q7 8 18 11.5t22 3.5q26 0 43 -18t17 -43q0 -21 -13 -34l-134 -142l132 -184q7 -11 7 -21t-6.5 -17t-16 -11.5t-20 -6.5t-18.5 -2h-2q-24 0 -45.5 12.5t-35.5 32.5l-76 112q-32 -35 -65 -73t-66 -73q-7 -8 -17.5 -11.5t-21.5 -3.5q-26 0 -43.5 18.5
t-17.5 42.5q0 21 13 34q36 39 75.5 80t74.5 80q-28 41 -58 83.5t-59 83.5q-7 11 -7 21t6.5 17t16.5 11.5t20.5 7t18.5 2.5q24 0 45.5 -12t35.5 -34z" />
    <glyph glyph-name="upsilon" unicode="&#x3c5;" horiz-adv-x="528" 
d="M157 188q-1 -5 -1 -8.5v-8.5q0 -25 15 -40.5t47 -15.5h36q32 0 57 18.5t31 56.5l37 235q3 18 19 32t46 14q29 0 41.5 -13t12.5 -28v-5l-39 -245q-14 -88 -62.5 -134t-141.5 -46h-47q-81 0 -126 40.5t-45 115.5q0 19 3 42l38 252q3 20 8 23t22 3q40 0 58.5 -28t18.5 -66
v-14t-2 -14z" />
    <glyph glyph-name="zeta" unicode="&#x3b6;" horiz-adv-x="447" 
d="M220 353h-105q-14 0 -27 10t-13 35q0 8 1 12q3 16 10 26.5t16 17.5t17.5 10t13.5 3h285q20 0 35.5 -9.5t13.5 -34.5l-2 -21q-2 -16 -10.5 -28t-21.5 -18q-39 -20 -85 -45.5t-86.5 -52.5t-68.5 -53t-31 -45v-4q0 -17 23 -25.5t72 -18.5q19 -4 42.5 -11t43 -18t33 -28
t13.5 -41q0 -10 -1 -15q-3 -22 -25 -57.5t-64 -77.5q-8 -8 -19.5 -15.5t-26.5 -7.5q-13 0 -29 9q-14 8 -20 17.5t-6 20.5t5.5 21.5t13.5 20.5q31 32 31 47q0 11 -14.5 17t-41.5 11q-29 6 -58 14.5t-53 23.5t-39 38.5t-15 59.5q0 31 15.5 58t42 52.5t61.5 49.5t74 49v3z" />
    <glyph glyph-name="iotadieresis" unicode="&#x3ca;" horiz-adv-x="266" 
d="M159 20q-3 -20 -8 -23t-22 -3q-24 0 -40 10.5t-25 27.5t-11.5 39t1.5 45l50 315q1 6 4 13.5t10 14.5t18.5 12t28.5 5q34 0 45 -18.5t8 -39.5zM290 535q-25 0 -40 15t-15 37q0 18 7 31t18 22t24 13t25 4q22 0 38.5 -11.5t16.5 -37.5q0 -14 -5.5 -27t-15.5 -23t-23.5 -16.5
t-29.5 -6.5zM83 535q-25 0 -40 15t-15 37q0 18 7 31t18 22t24 13t25 4q22 0 39 -11.5t17 -37.5q0 -28 -21.5 -50.5t-53.5 -22.5z" />
    <glyph glyph-name="upsilondieresis" unicode="&#x3cb;" horiz-adv-x="528" 
d="M157 188q-1 -5 -1 -8.5v-8.5q0 -25 15 -40.5t47 -15.5h36q32 0 57 18.5t31 56.5l37 235q3 18 19 32t46 14q29 0 41.5 -13t12.5 -28v-5l-39 -245q-14 -88 -62.5 -134t-141.5 -46h-47q-81 0 -126 40.5t-45 115.5q0 19 3 42l38 252q3 20 8 23t22 3q40 0 58.5 -28t18.5 -66
v-14t-2 -14zM406 535q-25 0 -40 15t-15 37q0 18 7 31t18 22t24 13t25 4q22 0 38.5 -11.5t16.5 -37.5q0 -14 -5.5 -27t-15.5 -23t-23.5 -16.5t-29.5 -6.5zM199 535q-25 0 -40 15t-15 37q0 18 7 31t18 22t24 13t25 4q22 0 39 -11.5t17 -37.5q0 -28 -21.5 -50.5t-53.5 -22.5z
" />
    <glyph glyph-name="iotadieresistonos" unicode="&#x390;" horiz-adv-x="266" 
d="M159 20q-3 -20 -8 -23t-22 -3q-24 0 -40 10.5t-25 27.5t-11.5 39t1.5 45l50 315q1 6 4 13.5t10 14.5t18.5 12t28.5 5q34 0 45 -18.5t8 -39.5zM332 535q-25 0 -40 15t-15 37q0 18 7 31t18 22t24 13t25 4q22 0 38.5 -11.5t16.5 -37.5q0 -14 -5.5 -27t-15.5 -23t-23.5 -16.5
t-29.5 -6.5zM25 535q-25 0 -40 15t-15 37q0 18 7 31t18 22t24 13t25 4q22 0 39 -11.5t17 -37.5q0 -28 -21.5 -50.5t-53.5 -22.5zM175 536q-16 -16 -34 -16q-14 0 -27 10.5t-13 24.5q0 8 3.5 16t8.5 15l88 127q11 17 25.5 24.5t28.5 7.5q23 0 39 -17.5t16 -37.5
q0 -22 -20 -41z" />
    <glyph glyph-name="upsilondieresistonos" unicode="&#x3b0;" horiz-adv-x="528" 
d="M157 188q-1 -5 -1 -8.5v-8.5q0 -25 15 -40.5t47 -15.5h36q32 0 57 18.5t31 56.5l37 235q3 18 19 32t46 14q29 0 41.5 -13t12.5 -28v-5l-39 -245q-14 -88 -62.5 -134t-141.5 -46h-47q-81 0 -126 40.5t-45 115.5q0 19 3 42l38 252q3 20 8 23t22 3q40 0 58.5 -28t18.5 -66
v-14t-2 -14zM451 535q-25 0 -40 15t-15 37q0 18 7 31t18 22t24 13t25 4q22 0 38.5 -11.5t16.5 -37.5q0 -14 -5.5 -27t-15.5 -23t-23.5 -16.5t-29.5 -6.5zM144 535q-25 0 -40 15t-15 37q0 18 7 31t18 22t24 13t25 4q22 0 39 -11.5t17 -37.5q0 -28 -21.5 -50.5t-53.5 -22.5z
M294 536q-16 -16 -34 -16q-14 0 -27 10.5t-13 24.5q0 8 3.5 16t8.5 15l88 127q11 17 25.5 24.5t28.5 7.5q23 0 39 -17.5t16 -37.5q0 -22 -20 -41z" />
    <glyph glyph-name="Euro" unicode="&#x20ac;" horiz-adv-x="520" 
d="M408 310q11 0 20.5 -8.5t9.5 -27.5q0 -27 -15.5 -43t-29.5 -16h-191l-2 -12q-1 -5 -1.5 -10.5t-0.5 -10.5q0 -31 17 -48t49 -17h167q46 0 46 -46q0 -32 -17.5 -51.5t-46.5 -19.5h-172q-35 0 -65 10t-51.5 30.5t-34 50.5t-12.5 71q0 20 3 43l2 10h-30q-11 0 -21 10t-10 28
q0 30 16 43.5t30 13.5h340zM75 357q-11 0 -20.5 10t-9.5 28q0 30 16 43.5t29 13.5h29l2 12q17 104 72.5 154t134.5 50h190q46 0 46 -43q0 -33 -17 -53t-47 -20h-167q-38 0 -62.5 -24t-30.5 -64l-2 -12h192q11 0 21 -8.5t10 -27.5q0 -27 -16 -43t-30 -16h-340z" />
    <glyph glyph-name="acute" unicode="&#xb4;" horiz-adv-x="523" 
d="M317 536q-16 -16 -34 -16q-14 0 -27 10.5t-13 24.5q0 8 3.5 16t8.5 15l88 127q11 17 25.5 24.5t28.5 7.5q23 0 39 -17.5t16 -37.5q0 -22 -20 -41z" />
    <glyph glyph-name="tilde" unicode="&#x2dc;" horiz-adv-x="454" 
d="M222 647q19 0 38.5 -6.5t37.5 -14t33.5 -13.5t26.5 -6q12 0 20 6.5t15.5 14t16 14t22.5 6.5q12 0 20.5 -4.5t14.5 -11.5t9 -14t3 -12q0 -11 -7 -23q-25 -39 -58.5 -53.5t-59.5 -14.5q-18 0 -36.5 6t-35.5 13.5t-33 13.5t-31 6q-8 0 -15.5 -6t-15.5 -13.5t-17.5 -13.5
t-21.5 -6q-22 0 -34 15t-12 26q0 19 13 35.5t31.5 29t39.5 19.5t36 7z" />
    <glyph glyph-name="circumflex" unicode="&#x2c6;" horiz-adv-x="500" 
d="M337 725q21 2 35 -14l125 -122q10 -10 10 -25q0 -21 -17.5 -37.5t-37.5 -16.5q-19 0 -32 13l-96 90l-114 -88q-15 -12 -34 -12q-21 0 -36.5 17.5t-15.5 36.5q-1 16 18 31l154 115q11 8 21 10t20 2z" />
    <glyph glyph-name="cedilla" unicode="&#xb8;" horiz-adv-x="474" 
d="M213 -222q-15 0 -32 3t-31 8t-23 12.5t-9 16.5q0 13 12 26t24 13q10 0 26.5 -9t32.5 -9q23 0 33.5 10.5t10.5 21.5q0 7 -5 14.5t-23 7.5h-42q-16 0 -24 7t-8 18q0 8 5 18l44 79h59l-38 -64h23q36 0 58.5 -20t22.5 -56q0 -18 -7 -35.5t-21.5 -31t-36 -22t-51.5 -8.5z" />
    <glyph glyph-name="mu" unicode="&#xb5;" horiz-adv-x="512" 
d="M160 189q-1 -5 -1 -9.5v-9.5q0 -32 18 -46t47 -14q23 0 52 9t66 38l44 272q1 6 4 13.5t9.5 14.5t17 12t26.5 5q33 0 46 -15t13 -34q0 -6 -1 -9l-60 -393q-3 -19 -10.5 -23t-24.5 -4q-30 0 -47 14t-24 31q-35 -23 -69.5 -34.5t-63.5 -11.5q-42 0 -72 20l-27 -182
q-1 -6 -4 -13.5t-10 -14.5t-18.5 -12t-28.5 -5q-30 0 -42.5 14.5t-12.5 33.5q0 7 1 10l92 604q3 20 8 23t22 3q41 0 59 -28.5t18 -66.5q0 -7 -0.5 -13.5t-1.5 -13.5z" />
    <glyph glyph-name="mu" unicode="&#x3bc;" horiz-adv-x="512" 
d="M160 189q-1 -5 -1 -9.5v-9.5q0 -32 18 -46t47 -14q23 0 52 9t66 38l44 272q1 6 4 13.5t9.5 14.5t17 12t26.5 5q33 0 46 -15t13 -34q0 -6 -1 -9l-60 -393q-3 -19 -10.5 -23t-24.5 -4q-30 0 -47 14t-24 31q-35 -23 -69.5 -34.5t-63.5 -11.5q-42 0 -72 20l-27 -182
q-1 -6 -4 -13.5t-10 -14.5t-18.5 -12t-28.5 -5q-30 0 -42.5 14.5t-12.5 33.5q0 7 1 10l92 604q3 20 8 23t22 3q41 0 59 -28.5t18 -66.5q0 -7 -0.5 -13.5t-1.5 -13.5z" />
    <glyph glyph-name="dotlessi" unicode="&#x131;" horiz-adv-x="257" 
d="M159 20q-3 -20 -8 -23t-22 -3q-24 0 -40 10.5t-25 27.5t-11.5 39t1.5 45l50 315q1 6 4 13.5t10 14.5t18.5 12t28.5 5q34 0 45 -18.5t8 -39.5z" />
    <glyph glyph-name="Circumflex" unicode="&#xf6c0;" horiz-adv-x="567" 
d="M380 882q18 0 35 -12l134 -93q14 -10 14 -28q0 -22 -16 -37.5t-34 -15.5q-9 0 -17.5 2.5t-17.5 7.5l-108 57l-133 -64q-18 -8 -32 -8q-23 0 -33.5 14.5t-10.5 31.5q0 26 26 42l154 91q13 8 21 10t18 2z" />
    <glyph glyph-name="commaaccent" unicode="&#xf6c3;" horiz-adv-x="587" 
d="M266 -224q-5 -9 -17 -17.5t-28 -8.5q-24 0 -33.5 12.5t-9.5 24.5q0 6 2 14l43 120q7 18 23.5 33t42.5 15q28 0 41 -15t13 -33q0 -15 -8 -28z" />
    <glyph glyph-name="Acute" unicode="&#xf6c9;" horiz-adv-x="567" 
d="M347 694q-9 -3 -20 -3q-13 0 -26 7.5t-13 28.5q0 14 8.5 24.5t19.5 17.5l121 72q21 13 43 13q17 0 35.5 -13t18.5 -41q0 -20 -14.5 -36.5t-37.5 -24.5z" />
    <glyph glyph-name="Caron" unicode="&#xf6ca;" horiz-adv-x="567" 
d="M359 684q-10 0 -17.5 2.5t-17.5 9.5l-132 91q-16 12 -16 30q0 19 16 38t41 19q17 0 29 -8l109 -65l130 62q18 9 35 9q15 0 29.5 -13t14.5 -34q0 -22 -25 -38l-157 -91q-11 -6 -20.5 -8.5t-18.5 -3.5z" />
    <glyph glyph-name="Dieresis" unicode="&#xf6cb;" horiz-adv-x="567" 
d="M460 708q-25 0 -40 15t-15 37q0 18 7 31t18 22t23.5 13t24.5 4q22 0 39 -11.5t17 -37.5q0 -14 -5.5 -27t-15.5 -23t-23.5 -16.5t-29.5 -6.5zM253 708q-25 0 -40 15t-15 37q0 18 7 31t18 22t23.5 13t24.5 4q22 0 39.5 -11.5t17.5 -37.5q0 -28 -21.5 -50.5t-53.5 -22.5z
" />
    <glyph glyph-name="DieresisAcute" unicode="&#xf6cc;" horiz-adv-x="567" 
d="M524 688q-25 0 -40 15t-15 37q0 18 7 31t18 22t24 13t25 4q22 0 38.5 -11.5t16.5 -37.5q0 -14 -5.5 -27t-15.5 -23t-23.5 -16.5t-29.5 -6.5zM199 688q-25 0 -40 15t-15 37q0 18 7 31t18 22t24 13t25 4q22 0 39 -11.5t17 -37.5q0 -28 -21.5 -50.5t-53.5 -22.5zM344 699
q-12 -9 -30 -9q-14 0 -24 7.5t-10 21.5q0 13 6.5 24.5t14.5 20.5l78 94q10 11 23 18t27 7q17 0 34.5 -14t17.5 -37q0 -14 -9 -29.5t-26 -28.5z" />
    <glyph glyph-name="DieresisGrave" unicode="&#xf6cd;" horiz-adv-x="567" 
d="M524 688q-25 0 -40 15t-15 37q0 18 7 31t18 22t24 13t25 4q22 0 38.5 -11.5t16.5 -37.5q0 -14 -5.5 -27t-15.5 -23t-23.5 -16.5t-29.5 -6.5zM199 688q-25 0 -40 15t-15 37q0 18 7 31t18 22t24 13t25 4q22 0 39 -11.5t17 -37.5q0 -28 -21.5 -50.5t-53.5 -22.5zM293 790
q-25 27 -25 53q0 21 15.5 37t35.5 16q17 0 32 -11.5t24 -26.5l73 -115q12 -17 12 -36q0 -12 -7 -23t-24 -11q-11 0 -21.5 4.5t-16.5 12.5z" />
    <glyph glyph-name="Grave" unicode="&#xf6ce;" horiz-adv-x="567" 
d="M256 739q-22 8 -37.5 24t-15.5 36q0 14 5.5 24.5t13.5 17t17.5 10t18.5 3.5q22 0 43 -13l101 -72q11 -7 20 -17.5t9 -24.5q0 -21 -13.5 -28.5t-25.5 -7.5t-21 3z" />
    <glyph glyph-name="Hungarumlaut" unicode="&#xf6cf;" horiz-adv-x="567" 
d="M463 699q-12 -9 -31 -9q-16 0 -26 8t-10 24q0 12 6.5 23t15.5 19l101 94q11 11 26 18.5t30 7.5q17 0 33 -13.5t16 -36.5q0 -17 -10 -33.5t-28 -27.5zM275 699q-12 -9 -31 -9q-16 0 -26 8t-10 24q0 12 6.5 23t15.5 19l101 94q11 11 26 18.5t30 7.5q17 0 33 -13.5t16 -36.5
q1 -17 -9.5 -33.5t-28.5 -27.5z" />
    <glyph glyph-name="Macron" unicode="&#xf6d0;" horiz-adv-x="567" 
d="M257 706q-25 0 -39.5 11t-14.5 32q0 30 20.5 42t49.5 12h204q25 0 39.5 -10.5t14.5 -30.5q0 -31 -20 -43.5t-50 -12.5h-204z" />
    <glyph glyph-name="cyrBreve" unicode="&#xf6d1;" horiz-adv-x="567" 
d="M323 781q28 0 56.5 19t56.5 64q8 14 18.5 19t21.5 5q17 0 31.5 -12t14.5 -29q0 -11 -5 -20q-21 -44 -48.5 -71t-55 -42t-53 -20t-43.5 -5q-20 0 -44.5 5.5t-48.5 20.5t-44 42t-32 69q-1 4 -1 11q0 16 15 32.5t38 16.5q12 0 22 -5t15 -18q14 -37 35 -59.5t51 -22.5z" />
    <glyph glyph-name="cyrbreve" unicode="&#xf6d4;" horiz-adv-x="529" 
d="M320 602q28 0 56.5 19t56.5 64q8 14 18.5 19t21.5 5q17 0 31.5 -12t14.5 -29q0 -11 -5 -20q-21 -44 -48.5 -71t-55 -42t-53 -20t-43.5 -5q-20 0 -44.5 5.5t-48.5 20.5t-44 42t-32 69q-1 4 -1 11q0 16 15 32.5t38 16.5q12 0 22 -5t15 -18q14 -37 35 -59.5t51 -22.5z" />
    <glyph glyph-name="caron" unicode="&#x2c7;" horiz-adv-x="500" 
d="M308 515q-10 0 -19.5 2t-17.5 10l-123 119q-13 12 -13 29q0 18 14.5 35t39.5 17q9 0 18 -2.5t16 -9.5l92 -92l122 94q9 7 18.5 10t17.5 4q15 0 30.5 -12.5t15.5 -32.5q2 -21 -21 -39l-153 -120q-10 -8 -19 -10t-18 -2z" />
    <glyph glyph-name="breve" unicode="&#x2d8;" horiz-adv-x="529" 
d="M330 609q28 0 56.5 19t56.5 64q8 14 18.5 19t21.5 5q17 0 31.5 -12t14.5 -29q0 -11 -5 -20q-21 -44 -48.5 -71t-55 -42t-53 -20t-43.5 -5q-20 0 -44.5 5.5t-48.5 20.5t-44 42t-32 69q-1 4 -1 11q0 16 15 32.5t38 16.5q12 0 22 -5t15 -18q14 -37 35 -59.5t51 -22.5z" />
    <glyph glyph-name="dotaccent" unicode="&#x2d9;" horiz-adv-x="529" 
d="M326 531q-24 0 -41 15.5t-17 38.5q0 18 7 32t18.5 23.5t25 14t26.5 4.5q23 0 41 -13.5t18 -39.5q0 -31 -23.5 -53t-54.5 -22z" />
    <glyph glyph-name="ring" unicode="&#x2da;" horiz-adv-x="529" 
d="M345 568q19 0 34.5 14.5t15.5 34.5q0 16 -10 27t-26 11q-20 0 -35.5 -15.5t-15.5 -35.5q0 -16 10 -26t27 -10zM337 492q-23 0 -42.5 8t-33.5 22.5t-22 33.5t-8 40q0 28 11 52.5t29.5 42.5t43.5 28.5t52 10.5q22 0 41 -8t33.5 -22t22.5 -32.5t8 -39.5q0 -28 -11 -53
t-29.5 -43.5t-43 -29t-51.5 -10.5z" />
    <glyph glyph-name="ogonek" unicode="&#x2db;" horiz-adv-x="555" 
d="M361 0q-29 -26 -45 -55t-16 -50q0 -14 8.5 -25t31.5 -11q6 0 14 2.5t16.5 5t15.5 5t11 2.5q14 0 23 -11t9 -24q0 -16 -12.5 -26.5t-30 -16.5t-37 -8.5t-33.5 -2.5q-28 0 -48 7.5t-32.5 19.5t-18 27t-5.5 29q0 36 24 77.5t67 76.5z" />
    <glyph glyph-name="hungarumlaut" unicode="&#x2dd;" horiz-adv-x="529" 
d="M283 536q-16 -16 -34 -16q-14 0 -27 10.5t-13 24.5q0 8 3.5 16t8.5 15l88 127q11 17 25.5 24.5t28.5 7.5q23 0 39 -17.5t16 -37.5q0 -22 -20 -41zM443 536q-16 -16 -34 -16q-14 0 -27 10.5t-13 24.5q0 8 3.5 16t8.5 15l88 127q11 17 25.5 24.5t28.5 7.5q23 0 39 -17.5
t16 -37.5q0 -22 -20 -41z" />
    <glyph glyph-name="anoteleia" unicode="&#x387;" horiz-adv-x="203" 
d="M106 229q-27 0 -44.5 19t-17.5 43q0 19 7 32.5t18 22.5t24 13t26 4q23 0 44 -14.5t21 -41.5q0 -30 -21.5 -54t-56.5 -24z" />
    <glyph glyph-name="macron" unicode="&#xaf;" horiz-adv-x="529" 
d="M218 515q-25 0 -39.5 10.5t-14.5 30.5q0 31 19.5 43.5t49.5 12.5h204q26 0 40.5 -10t14.5 -31q0 -30 -20.5 -43t-49.5 -13h-204z" />
    <glyph glyph-name="Scaron" unicode="&#x160;" horiz-adv-x="531" 
d="M70 0q-13 0 -27 9.5t-14 35.5q0 20 7 33.5t17 22t19.5 12t15.5 3.5h213q13 0 25.5 5t22.5 14t16.5 22.5t6.5 31.5q0 46 -57 72l-110 50q-26 12 -49.5 24.5t-41 30.5t-28 43.5t-10.5 62.5q0 47 16 84t44.5 62t66.5 38t83 13h197q14 0 27.5 -11t13.5 -34q0 -22 -6.5 -35.5
t-16 -21.5t-19.5 -11t-17 -3h-197q-26 0 -47.5 -17t-21.5 -50q0 -22 10.5 -35.5t34.5 -24.5l113 -51q27 -12 52 -26t44.5 -34t31.5 -47.5t12 -67.5q0 -44 -15.5 -80.5t-43.5 -63t-67 -41.5t-86 -15h-215zM324 684q-10 0 -17.5 2.5t-17.5 9.5l-132 91q-16 12 -16 30
q0 19 16 38t41 19q17 0 29 -8l109 -65l130 62q18 9 35 9q15 0 29.5 -13t14.5 -34q0 -22 -25 -38l-157 -91q-11 -6 -20.5 -8.5t-18.5 -3.5z" />
    <glyph glyph-name="Zcaron" unicode="&#x17d;" horiz-adv-x="541" 
d="M57 0q-32 0 -43.5 11.5t-11.5 27.5q0 20 8 37.5t17 28.5l372 447h-242q-46 0 -46 44q0 33 17.5 52.5t46.5 19.5h348q28 0 38.5 -12.5t10.5 -30.5q0 -20 -8 -35.5t-17 -26.5l-372 -447h269q25 0 34.5 -12t9.5 -31q0 -27 -14.5 -50t-47.5 -23h-369zM351 684
q-10 0 -17.5 2.5t-17.5 9.5l-132 91q-16 12 -16 30q0 19 16 38t41 19q17 0 29 -8l109 -65l130 62q18 9 35 9q15 0 29.5 -13t14.5 -34q0 -22 -25 -38l-157 -91q-11 -6 -20.5 -8.5t-18.5 -3.5z" />
    <glyph glyph-name="scaron" unicode="&#x161;" horiz-adv-x="448" 
d="M54 0q-14 0 -28.5 10.5t-14.5 38.5q0 21 7.5 34.5t17 21.5t20 11t16.5 3h188q14 0 23 6t9 16q0 18 -32 27l-103 31q-20 6 -40 14t-36 21.5t-25.5 33.5t-9.5 50q0 69 47 108.5t125 39.5h171q7 0 14.5 -2t14 -7.5t11 -15t4.5 -23.5q0 -22 -7.5 -35.5t-18 -20.5t-22 -9.5
t-19.5 -2.5h-166q-10 0 -19 -3.5t-9 -14.5q0 -5 8 -12t21 -11l105 -30q21 -6 41 -15t35 -23.5t24.5 -36t9.5 -52.5q0 -69 -47 -110.5t-127 -41.5h-188zM275 515q-10 0 -19.5 2t-17.5 10l-123 119q-13 12 -13 29q0 18 14.5 35t39.5 17q9 0 18 -2.5t16 -9.5l92 -92l122 94
q9 7 18.5 10t17.5 4q15 0 30.5 -12.5t15.5 -32.5q2 -21 -21 -39l-153 -120q-10 -8 -19 -10t-18 -2z" />
    <glyph glyph-name="zcaron" unicode="&#x17e;" horiz-adv-x="485" 
d="M50 0q-23 0 -34 9.5t-11 35.5q0 20 8 33.5t16 21.5l255 252h-177q-15 0 -27.5 11.5t-12.5 34.5q0 18 6 31t14.5 21t18.5 12t19 4h306q49 0 49 -48q0 -21 -7.5 -32.5t-15.5 -19.5l-253 -252h178q26 0 34.5 -14.5t8.5 -30.5q0 -26 -13.5 -47.5t-47.5 -21.5h-314zM296 515
q-10 0 -19.5 2t-17.5 10l-123 119q-13 12 -13 29q0 18 14.5 35t39.5 17q9 0 18 -2.5t16 -9.5l92 -92l122 94q9 7 18.5 10t17.5 4q15 0 30.5 -12.5t15.5 -32.5q2 -21 -21 -39l-153 -120q-10 -8 -19 -10t-18 -2z" />
    <glyph glyph-name="Ydieresis" unicode="&#x178;" horiz-adv-x="553" 
d="M298 385l195 265q11 15 24 21.5t26 6.5q23 0 43.5 -16.5t20.5 -40.5q0 -14 -10 -27l-252 -336l-33 -208q-9 -56 -68 -56q-52 0 -52 45q0 3 0.5 5.5t0.5 5.5l34 210l-153 337q-3 7 -3 17q0 23 20 42t51 19q29 0 42 -31l110 -259h4zM451 708q-25 0 -40 15t-15 37q0 18 7 31
t18 22t23.5 13t24.5 4q22 0 39 -11.5t17 -37.5q0 -14 -5.5 -27t-15.5 -23t-23.5 -16.5t-29.5 -6.5zM244 708q-25 0 -40 15t-15 37q0 18 7 31t18 22t23.5 13t24.5 4q22 0 39.5 -11.5t17.5 -37.5q0 -28 -21.5 -50.5t-53.5 -22.5z" />
    <glyph glyph-name="Agrave" unicode="&#xc0;" horiz-adv-x="567" 
d="M330 478l-106 -218h148l-38 218h-4zM166 149l-58 -115q-11 -23 -25.5 -32.5t-31.5 -9.5q-29 0 -48.5 16.5t-19.5 37.5q0 13 7 26l280 547q11 21 26 35t42 14h30q26 0 37.5 -13.5t16.5 -35.5l115 -547q2 -10 2 -16q0 -25 -17.5 -43.5t-53.5 -18.5q-43 0 -52 41l-24 114
h-226zM256 739q-22 8 -37.5 24t-15.5 36q0 14 5.5 24.5t13.5 17t17.5 10t18.5 3.5q22 0 43 -13l101 -72q11 -7 20 -17.5t9 -24.5q0 -21 -13.5 -28.5t-25.5 -7.5t-21 3z" />
    <glyph glyph-name="Aacute" unicode="&#xc1;" horiz-adv-x="567" 
d="M330 478l-106 -218h148l-38 218h-4zM166 149l-58 -115q-11 -23 -25.5 -32.5t-31.5 -9.5q-29 0 -48.5 16.5t-19.5 37.5q0 13 7 26l280 547q11 21 26 35t42 14h30q26 0 37.5 -13.5t16.5 -35.5l115 -547q2 -10 2 -16q0 -25 -17.5 -43.5t-53.5 -18.5q-43 0 -52 41l-24 114
h-226zM347 694q-9 -3 -20 -3q-13 0 -26 7.5t-13 28.5q0 14 8.5 24.5t19.5 17.5l121 72q21 13 43 13q17 0 35.5 -13t18.5 -41q0 -20 -14.5 -36.5t-37.5 -24.5z" />
    <glyph glyph-name="Acircumflex" unicode="&#xc2;" horiz-adv-x="567" 
d="M330 478l-106 -218h148l-38 218h-4zM166 149l-58 -115q-11 -23 -25.5 -32.5t-31.5 -9.5q-29 0 -48.5 16.5t-19.5 37.5q0 13 7 26l280 547q11 21 26 35t42 14h30q26 0 37.5 -13.5t16.5 -35.5l115 -547q2 -10 2 -16q0 -25 -17.5 -43.5t-53.5 -18.5q-43 0 -52 41l-24 114
h-226zM380 882q18 0 35 -12l134 -93q14 -10 14 -28q0 -22 -16 -37.5t-34 -15.5q-9 0 -17.5 2.5t-17.5 7.5l-108 57l-133 -64q-18 -8 -32 -8q-23 0 -33.5 14.5t-10.5 31.5q0 26 26 42l154 91q13 8 21 10t18 2z" />
    <glyph glyph-name="Atilde" unicode="&#xc3;" horiz-adv-x="567" 
d="M330 478l-106 -218h148l-38 218h-4zM166 149l-58 -115q-11 -23 -25.5 -32.5t-31.5 -9.5q-29 0 -48.5 16.5t-19.5 37.5q0 13 7 26l280 547q11 21 26 35t42 14h30q26 0 37.5 -13.5t16.5 -35.5l115 -547q2 -10 2 -16q0 -25 -17.5 -43.5t-53.5 -18.5q-43 0 -52 41l-24 114
h-226zM298 843q19 0 38.5 -6.5t37.5 -14t33.5 -13.5t26.5 -6q12 0 20 6.5t15.5 14t16 14t22.5 6.5q12 0 20.5 -4.5t14.5 -11.5t9 -14t3 -12q0 -11 -7 -23q-25 -39 -58.5 -53.5t-59.5 -14.5q-18 0 -36.5 6t-35.5 13.5t-33 13.5t-31 6q-8 0 -15.5 -6t-15.5 -13.5t-17.5 -13.5
t-21.5 -6q-22 0 -34 15t-12 26q0 19 13 35.5t31.5 29t39.5 19.5t36 7z" />
    <glyph glyph-name="Adieresis" unicode="&#xc4;" horiz-adv-x="567" 
d="M330 478l-106 -218h148l-38 218h-4zM166 149l-58 -115q-11 -23 -25.5 -32.5t-31.5 -9.5q-29 0 -48.5 16.5t-19.5 37.5q0 13 7 26l280 547q11 21 26 35t42 14h30q26 0 37.5 -13.5t16.5 -35.5l115 -547q2 -10 2 -16q0 -25 -17.5 -43.5t-53.5 -18.5q-43 0 -52 41l-24 114
h-226zM460 708q-25 0 -40 15t-15 37q0 18 7 31t18 22t23.5 13t24.5 4q22 0 39 -11.5t17 -37.5q0 -14 -5.5 -27t-15.5 -23t-23.5 -16.5t-29.5 -6.5zM253 708q-25 0 -40 15t-15 37q0 18 7 31t18 22t23.5 13t24.5 4q22 0 39.5 -11.5t17.5 -37.5q0 -28 -21.5 -50.5t-53.5 -22.5z
" />
    <glyph glyph-name="Aring" unicode="&#xc5;" horiz-adv-x="567" 
d="M166 149l-58 -115q-11 -23 -25.5 -32.5t-31.5 -9.5q-29 0 -48.5 16.5t-19.5 37.5q0 13 7 26l280 547q6 11 13 21t17 17q-23 14 -35.5 37t-12.5 51t11 52.5t29.5 42.5t43.5 28.5t52 10.5q22 0 41 -8t33.5 -22t22.5 -32.5t8 -39.5q0 -43 -24 -77t-60 -49q8 -12 13 -32
l115 -547q2 -10 2 -16q0 -25 -17.5 -43.5t-53.5 -18.5q-43 0 -52 41l-24 114h-226zM330 478l-106 -218h148l-38 218h-4zM366 717q19 0 34.5 14.5t15.5 34.5q0 16 -10 27t-26 11q-20 0 -35.5 -15.5t-15.5 -35.5q0 -16 10 -26t27 -10z" />
    <glyph glyph-name="AE" unicode="&#xc6;" horiz-adv-x="855" 
d="M451 0q-56 0 -56 48v10l9 110h-199l-76 -134q-22 -40 -62 -40q-26 0 -39.5 13t-13.5 30q0 18 10 35l314 547q12 21 28.5 35t43.5 14h430q25 0 37 -13.5t12 -36.5q0 -30 -15 -48t-44 -18h-272l-13 -142h230q48 0 48 -49q0 -31 -14.5 -48.5t-43.5 -17.5h-230l-15 -179h272
q25 0 37 -13.5t12 -36.5q0 -30 -15 -48t-44 -18h-331zM379 474l-109 -195h144l24 272h-17z" />
    <glyph glyph-name="Ccedilla" unicode="&#xc7;" horiz-adv-x="531" 
d="M266 -222q-15 0 -32 3t-31 8t-23 12.5t-9 16.5q0 13 12 26t24 13q10 0 26.5 -9t32.5 -9q23 0 33.5 10.5t10.5 21.5q0 7 -5 14.5t-23 7.5h-42q-16 0 -24 7t-8 18q0 8 5 18l35 64h-33q-37 0 -68.5 9.5t-54 30t-35 51t-12.5 72.5q0 12 1 24t3 26l38 246q17 105 71 157
t142 52h222q46 0 46 -43q0 -33 -17 -53t-47 -20h-205q-38 0 -62 -24t-30 -64l-41 -261q-1 -5 -1.5 -10.5t-0.5 -10.5q0 -31 17 -48t49 -17h205q23 0 34.5 -12t11.5 -33q0 -32 -17.5 -52t-46.5 -20h-110l-29 -49h23q36 0 58.5 -20t22.5 -56q0 -18 -7 -35.5t-21.5 -31t-36 -22
t-51.5 -8.5z" />
    <glyph glyph-name="Egrave" unicode="&#xc8;" horiz-adv-x="534" 
d="M86 0q-53 0 -53 44v6.5t1 7.5l87 552q9 58 70 58h331q46 0 46 -43q0 -34 -17.5 -53.5t-46.5 -19.5h-272l-23 -142h230q23 0 34 -11t11 -31q0 -34 -16.5 -53.5t-46.5 -19.5h-230l-28 -179h272q23 0 34.5 -12t11.5 -33q0 -32 -17.5 -51.5t-46.5 -19.5h-331zM250 739
q-22 8 -37.5 24t-15.5 36q0 14 5.5 24.5t13.5 17t17.5 10t18.5 3.5q22 0 43 -13l101 -72q11 -7 20 -17.5t9 -24.5q0 -21 -13.5 -28.5t-25.5 -7.5t-21 3z" />
    <glyph glyph-name="Eacute" unicode="&#xc9;" horiz-adv-x="534" 
d="M86 0q-53 0 -53 44v6.5t1 7.5l87 552q9 58 70 58h331q46 0 46 -43q0 -34 -17.5 -53.5t-46.5 -19.5h-272l-23 -142h230q23 0 34 -11t11 -31q0 -34 -16.5 -53.5t-46.5 -19.5h-230l-28 -179h272q23 0 34.5 -12t11.5 -33q0 -32 -17.5 -51.5t-46.5 -19.5h-331zM327 694
q-9 -3 -20 -3q-13 0 -26 7.5t-13 28.5q0 14 8.5 24.5t19.5 17.5l121 72q21 13 43 13q17 0 35.5 -13t18.5 -41q0 -20 -14.5 -36.5t-37.5 -24.5z" />
    <glyph glyph-name="Ecircumflex" unicode="&#xca;" horiz-adv-x="534" 
d="M86 0q-53 0 -53 44v6.5t1 7.5l87 552q9 58 70 58h331q46 0 46 -43q0 -34 -17.5 -53.5t-46.5 -19.5h-272l-23 -142h230q23 0 34 -11t11 -31q0 -34 -16.5 -53.5t-46.5 -19.5h-230l-28 -179h272q23 0 34.5 -12t11.5 -33q0 -32 -17.5 -51.5t-46.5 -19.5h-331zM372 882
q18 0 35 -12l134 -93q14 -10 14 -28q0 -22 -16 -37.5t-34 -15.5q-9 0 -17.5 2.5t-17.5 7.5l-108 57l-133 -64q-18 -8 -32 -8q-23 0 -33.5 14.5t-10.5 31.5q0 26 26 42l154 91q13 8 21 10t18 2z" />
    <glyph glyph-name="Edieresis" unicode="&#xcb;" horiz-adv-x="534" 
d="M86 0q-53 0 -53 44v6.5t1 7.5l87 552q9 58 70 58h331q46 0 46 -43q0 -34 -17.5 -53.5t-46.5 -19.5h-272l-23 -142h230q23 0 34 -11t11 -31q0 -34 -16.5 -53.5t-46.5 -19.5h-230l-28 -179h272q23 0 34.5 -12t11.5 -33q0 -32 -17.5 -51.5t-46.5 -19.5h-331zM451 708
q-25 0 -40 15t-15 37q0 18 7 31t18 22t23.5 13t24.5 4q22 0 39 -11.5t17 -37.5q0 -14 -5.5 -27t-15.5 -23t-23.5 -16.5t-29.5 -6.5zM244 708q-25 0 -40 15t-15 37q0 18 7 31t18 22t23.5 13t24.5 4q22 0 39.5 -11.5t17.5 -37.5q0 -28 -21.5 -50.5t-53.5 -22.5z" />
    <glyph glyph-name="Igrave" unicode="&#xcc;" horiz-adv-x="269" 
d="M99 -5q-53 0 -53 41v6.5t1 7.5l90 568q9 55 69 55q51 0 51 -41v-6.5t-1 -7.5l-90 -568q-5 -29 -21 -42t-46 -13zM108 739q-22 8 -37.5 24t-15.5 36q0 14 5.5 24.5t13.5 17t17.5 10t18.5 3.5q22 0 43 -13l101 -72q11 -7 20 -17.5t9 -24.5q0 -21 -13.5 -28.5t-25.5 -7.5
t-21 3z" />
    <glyph glyph-name="Iacute" unicode="&#xcd;" horiz-adv-x="269" 
d="M99 -5q-53 0 -53 41v6.5t1 7.5l90 568q9 55 69 55q51 0 51 -41v-6.5t-1 -7.5l-90 -568q-5 -29 -21 -42t-46 -13zM192 694q-9 -3 -20 -3q-13 0 -26 7.5t-13 28.5q0 14 8.5 24.5t19.5 17.5l121 72q21 13 43 13q17 0 35.5 -13t18.5 -41q0 -20 -14.5 -36.5t-37.5 -24.5z" />
    <glyph glyph-name="Icircumflex" unicode="&#xce;" horiz-adv-x="269" 
d="M99 -5q-53 0 -53 41v6.5t1 7.5l90 568q9 55 69 55q51 0 51 -41v-6.5t-1 -7.5l-90 -568q-5 -29 -21 -42t-46 -13zM233 882q18 0 35 -12l134 -93q14 -10 14 -28q0 -22 -16 -37.5t-34 -15.5q-9 0 -17.5 2.5t-17.5 7.5l-108 57l-133 -64q-18 -8 -32 -8q-23 0 -33.5 14.5
t-10.5 31.5q0 26 26 42l154 91q13 8 21 10t18 2z" />
    <glyph glyph-name="Idieresis" unicode="&#xcf;" horiz-adv-x="269" 
d="M99 -5q-53 0 -53 41v6.5t1 7.5l90 568q9 55 69 55q51 0 51 -41v-6.5t-1 -7.5l-90 -568q-5 -29 -21 -42t-46 -13zM310 708q-25 0 -40 15t-15 37q0 18 7 31t18 22t23.5 13t24.5 4q22 0 39 -11.5t17 -37.5q0 -14 -5.5 -27t-15.5 -23t-23.5 -16.5t-29.5 -6.5zM103 708
q-25 0 -40 15t-15 37q0 18 7 31t18 22t23.5 13t24.5 4q22 0 39.5 -11.5t17.5 -37.5q0 -28 -21.5 -50.5t-53.5 -22.5z" />
    <glyph glyph-name="Eth" unicode="&#xd0;" horiz-adv-x="622" 
d="M86 0q-53 0 -53 44v6.5t1 7.5l34 220h-18q-51 0 -51 43q0 33 17.5 47t49.5 14h19l36 228q9 58 70 58h257q74 0 119 -39t45 -120q0 -25 -4 -48l-39 -254q-16 -103 -66.5 -155t-148.5 -52h-268zM490 464q1 6 1.5 11.5t0.5 10.5q0 32 -18.5 49t-58.5 17h-183l-27 -170h94
q52 0 52 -42q0 -34 -18 -48t-50 -14h-95l-25 -162h182q50 0 72 22.5t29 64.5z" />
    <glyph glyph-name="Ntilde" unicode="&#xd1;" horiz-adv-x="619" 
d="M440 233l62 386q9 55 68 55q53 0 53 -42q0 -8 -1 -13l-89 -561q-9 -58 -69 -58h-30q-23 0 -34 10.5t-18 27.5l-164 407h-3l-63 -396q-5 -29 -21.5 -42t-46.5 -13q-53 0 -53 41q0 9 1 14l89 561q9 58 69 58h32q27 0 38 -14t19 -33q41 -99 78.5 -193t78.5 -195h4zM314 831
q19 0 38.5 -6.5t37.5 -14t33.5 -13.5t26.5 -6q12 0 20 6.5t15.5 14t16 14t22.5 6.5q12 0 20.5 -4.5t14.5 -11.5t9 -14t3 -12q0 -11 -7 -23q-25 -39 -58.5 -53.5t-59.5 -14.5q-18 0 -36.5 6t-35.5 13.5t-33 13.5t-31 6q-8 0 -15.5 -6t-15.5 -13.5t-17.5 -13.5t-21.5 -6
q-22 0 -34 15t-12 26q0 19 13 35.5t31.5 29t39.5 19.5t36 7z" />
    <glyph glyph-name="Ograve" unicode="&#xd2;" horiz-adv-x="578" 
d="M389 668q81 0 128.5 -46.5t47.5 -130.5q0 -11 -1 -23t-3 -24l-35 -231q-16 -105 -73 -159t-148 -54h-84q-39 0 -71 11.5t-55 34t-36 55.5t-13 77q0 13 1.5 27t3.5 28l36 221q17 105 73.5 159.5t141.5 54.5h87zM448 462q1 6 1.5 11.5t0.5 10.5q0 32 -18.5 51.5t-63.5 19.5
h-64q-43 0 -66.5 -26.5t-30.5 -66.5l-41 -258q-1 -5 -1.5 -10.5t-0.5 -10.5q0 -32 18.5 -51t57.5 -19h67q45 0 69.5 27.5t30.5 65.5zM281 739q-22 8 -37.5 24t-15.5 36q0 14 5.5 24.5t13.5 17t17.5 10t18.5 3.5q22 0 43 -13l101 -72q11 -7 20 -17.5t9 -24.5
q0 -21 -13.5 -28.5t-25.5 -7.5t-21 3z" />
    <glyph glyph-name="Oacute" unicode="&#xd3;" horiz-adv-x="578" 
d="M389 668q81 0 128.5 -46.5t47.5 -130.5q0 -11 -1 -23t-3 -24l-35 -231q-16 -105 -73 -159t-148 -54h-84q-39 0 -71 11.5t-55 34t-36 55.5t-13 77q0 13 1.5 27t3.5 28l36 221q17 105 73.5 159.5t141.5 54.5h87zM448 462q1 6 1.5 11.5t0.5 10.5q0 32 -18.5 51.5t-63.5 19.5
h-64q-43 0 -66.5 -26.5t-30.5 -66.5l-41 -258q-1 -5 -1.5 -10.5t-0.5 -10.5q0 -32 18.5 -51t57.5 -19h67q45 0 69.5 27.5t30.5 65.5zM330 694q-9 -3 -20 -3q-13 0 -26 7.5t-13 28.5q0 14 8.5 24.5t19.5 17.5l121 72q21 13 43 13q17 0 35.5 -13t18.5 -41q0 -20 -14.5 -36.5
t-37.5 -24.5z" />
    <glyph glyph-name="Ocircumflex" unicode="&#xd4;" horiz-adv-x="578" 
d="M389 668q81 0 128.5 -46.5t47.5 -130.5q0 -11 -1 -23t-3 -24l-35 -231q-16 -105 -73 -159t-148 -54h-84q-39 0 -71 11.5t-55 34t-36 55.5t-13 77q0 13 1.5 27t3.5 28l36 221q17 105 73.5 159.5t141.5 54.5h87zM448 462q1 6 1.5 11.5t0.5 10.5q0 32 -18.5 51.5t-63.5 19.5
h-64q-43 0 -66.5 -26.5t-30.5 -66.5l-41 -258q-1 -5 -1.5 -10.5t-0.5 -10.5q0 -32 18.5 -51t57.5 -19h67q45 0 69.5 27.5t30.5 65.5zM379 882q18 0 35 -12l134 -93q14 -10 14 -28q0 -22 -16 -37.5t-34 -15.5q-9 0 -17.5 2.5t-17.5 7.5l-108 57l-133 -64q-18 -8 -32 -8
q-23 0 -33.5 14.5t-10.5 31.5q0 26 26 42l154 91q13 8 21 10t18 2z" />
    <glyph glyph-name="Otilde" unicode="&#xd5;" horiz-adv-x="578" 
d="M389 668q81 0 128.5 -46.5t47.5 -130.5q0 -11 -1 -23t-3 -24l-35 -231q-16 -105 -73 -159t-148 -54h-84q-39 0 -71 11.5t-55 34t-36 55.5t-13 77q0 13 1.5 27t3.5 28l36 221q17 105 73.5 159.5t141.5 54.5h87zM448 462q1 6 1.5 11.5t0.5 10.5q0 32 -18.5 51.5t-63.5 19.5
h-64q-43 0 -66.5 -26.5t-30.5 -66.5l-41 -258q-1 -5 -1.5 -10.5t-0.5 -10.5q0 -32 18.5 -51t57.5 -19h67q45 0 69.5 27.5t30.5 65.5zM285 827q19 0 38.5 -6.5t37.5 -14t33.5 -13.5t26.5 -6q12 0 20 6.5t15.5 14t16 14t22.5 6.5q12 0 20.5 -4.5t14.5 -11.5t9 -14t3 -12
q0 -11 -7 -23q-25 -39 -58.5 -53.5t-59.5 -14.5q-18 0 -36.5 6t-35.5 13.5t-33 13.5t-31 6q-8 0 -15.5 -6t-15.5 -13.5t-17.5 -13.5t-21.5 -6q-22 0 -34 15t-12 26q0 19 13 35.5t31.5 29t39.5 19.5t36 7z" />
    <glyph glyph-name="Odieresis" unicode="&#xd6;" horiz-adv-x="578" 
d="M389 668q81 0 128.5 -46.5t47.5 -130.5q0 -11 -1 -23t-3 -24l-35 -231q-16 -105 -73 -159t-148 -54h-84q-39 0 -71 11.5t-55 34t-36 55.5t-13 77q0 13 1.5 27t3.5 28l36 221q17 105 73.5 159.5t141.5 54.5h87zM448 462q1 6 1.5 11.5t0.5 10.5q0 32 -18.5 51.5t-63.5 19.5
h-64q-43 0 -66.5 -26.5t-30.5 -66.5l-41 -258q-1 -5 -1.5 -10.5t-0.5 -10.5q0 -32 18.5 -51t57.5 -19h67q45 0 69.5 27.5t30.5 65.5zM470 708q-25 0 -40 15t-15 37q0 18 7 31t18 22t23.5 13t24.5 4q22 0 39 -11.5t17 -37.5q0 -14 -5.5 -27t-15.5 -23t-23.5 -16.5t-29.5 -6.5
zM263 708q-25 0 -40 15t-15 37q0 18 7 31t18 22t23.5 13t24.5 4q22 0 39.5 -11.5t17.5 -37.5q0 -28 -21.5 -50.5t-53.5 -22.5z" />
    <glyph glyph-name="multiply" unicode="&#xd7;" horiz-adv-x="520" 
d="M128 398q-13 16 -13 33q0 7 4.5 17t12 19t18 15.5t22.5 6.5t22 -7t18 -16l69 -77l95 86q19 17 38 17q9 0 18 -5t16.5 -13t12 -17.5t4.5 -18.5q0 -11 -6.5 -20.5t-17.5 -20.5l-95 -87l67 -78q7 -8 12 -16.5t5 -19.5q0 -8 -5.5 -17.5t-14 -17.5t-19.5 -13t-21 -5
q-20 0 -36 18l-71 82l-86 -74q-9 -8 -18.5 -12.5t-20.5 -4.5q-17 0 -33.5 16t-16.5 36q0 12 6 23t17 20l86 74z" />
    <glyph glyph-name="Oslash" unicode="&#xd8;" horiz-adv-x="578" 
d="M389 668q86 0 133 -53l31 35q13 14 26 14q14 0 22.5 -10.5t8.5 -18.5q0 -10 -11 -23l-45 -52q10 -30 10 -70q0 -11 -0.5 -22.5t-2.5 -23.5l-35 -231q-16 -105 -73 -159t-148 -54h-84q-36 0 -66.5 9.5t-53.5 29.5l-23 -26q-12 -14 -27 -14q-11 0 -20 8t-9 21t10 26l31 36
q-17 37 -17 86q0 14 1.5 28t3.5 29l36 221q17 105 73.5 159.5t141.5 54.5h87zM166 208l275 314q-9 15 -26.5 24t-46.5 9h-64q-43 0 -66.5 -26.5t-30.5 -66.5zM443 433l-261 -301q19 -19 58 -19h67q45 0 69.5 27.5t30.5 65.5z" />
    <glyph glyph-name="Ugrave" unicode="&#xd9;" horiz-adv-x="611" 
d="M496 619q3 16 10 27t17 17t20.5 8.5t19.5 2.5q7 0 16 -2t17 -7t13 -13.5t5 -21.5v-5.5t-1 -6.5l-65 -410q-15 -98 -69.5 -153t-144.5 -55h-107q-36 0 -68 9.5t-55.5 30t-37 51.5t-13.5 74q0 26 4 49l65 404q3 17 10.5 28t18 17t21 8.5t19.5 2.5q16 0 33.5 -9.5
t17.5 -35.5q0 -7 -1 -11l-65 -415q-1 -7 -1.5 -13t-0.5 -11q0 -29 17 -45.5t59 -16.5h86q24 0 40.5 7.5t27.5 20t17 28t9 32.5zM300 739q-22 8 -37.5 24t-15.5 36q0 14 5.5 24.5t13.5 17t17.5 10t18.5 3.5q22 0 43 -13l101 -72q11 -7 20 -17.5t9 -24.5q0 -21 -13.5 -28.5
t-25.5 -7.5t-21 3z" />
    <glyph glyph-name="Uacute" unicode="&#xda;" horiz-adv-x="611" 
d="M496 619q3 16 10 27t17 17t20.5 8.5t19.5 2.5q7 0 16 -2t17 -7t13 -13.5t5 -21.5v-5.5t-1 -6.5l-65 -410q-15 -98 -69.5 -153t-144.5 -55h-107q-36 0 -68 9.5t-55.5 30t-37 51.5t-13.5 74q0 26 4 49l65 404q3 17 10.5 28t18 17t21 8.5t19.5 2.5q16 0 33.5 -9.5
t17.5 -35.5q0 -7 -1 -11l-65 -415q-1 -7 -1.5 -13t-0.5 -11q0 -29 17 -45.5t59 -16.5h86q24 0 40.5 7.5t27.5 20t17 28t9 32.5zM375 694q-9 -3 -20 -3q-13 0 -26 7.5t-13 28.5q0 14 8.5 24.5t19.5 17.5l121 72q21 13 43 13q17 0 35.5 -13t18.5 -41q0 -20 -14.5 -36.5
t-37.5 -24.5z" />
    <glyph glyph-name="Ucircumflex" unicode="&#xdb;" horiz-adv-x="611" 
d="M496 619q3 16 10 27t17 17t20.5 8.5t19.5 2.5q7 0 16 -2t17 -7t13 -13.5t5 -21.5v-5.5t-1 -6.5l-65 -410q-15 -98 -69.5 -153t-144.5 -55h-107q-36 0 -68 9.5t-55.5 30t-37 51.5t-13.5 74q0 26 4 49l65 404q3 17 10.5 28t18 17t21 8.5t19.5 2.5q16 0 33.5 -9.5
t17.5 -35.5q0 -7 -1 -11l-65 -415q-1 -7 -1.5 -13t-0.5 -11q0 -29 17 -45.5t59 -16.5h86q24 0 40.5 7.5t27.5 20t17 28t9 32.5zM404 882q18 0 35 -12l134 -93q14 -10 14 -28q0 -22 -16 -37.5t-34 -15.5q-9 0 -17.5 2.5t-17.5 7.5l-108 57l-133 -64q-18 -8 -32 -8
q-23 0 -33.5 14.5t-10.5 31.5q0 26 26 42l154 91q13 8 21 10t18 2z" />
    <glyph glyph-name="Udieresis" unicode="&#xdc;" horiz-adv-x="611" 
d="M496 619q3 16 10 27t17 17t20.5 8.5t19.5 2.5q7 0 16 -2t17 -7t13 -13.5t5 -21.5v-5.5t-1 -6.5l-65 -410q-15 -98 -69.5 -153t-144.5 -55h-107q-36 0 -68 9.5t-55.5 30t-37 51.5t-13.5 74q0 26 4 49l65 404q3 17 10.5 28t18 17t21 8.5t19.5 2.5q16 0 33.5 -9.5
t17.5 -35.5q0 -7 -1 -11l-65 -415q-1 -7 -1.5 -13t-0.5 -11q0 -29 17 -45.5t59 -16.5h86q24 0 40.5 7.5t27.5 20t17 28t9 32.5zM278 708q-25 0 -40 15t-15 37q0 18 7 31t18 22t23.5 13t24.5 4q22 0 39.5 -11.5t17.5 -37.5q0 -28 -21.5 -50.5t-53.5 -22.5zM485 708
q-25 0 -40 15t-15 37q0 18 7 31t18 22t23.5 13t24.5 4q22 0 39 -11.5t17 -37.5q0 -14 -5.5 -27t-15.5 -23t-23.5 -16.5t-29.5 -6.5z" />
    <glyph glyph-name="Yacute" unicode="&#xdd;" horiz-adv-x="553" 
d="M298 385l195 265q11 15 24 21.5t26 6.5q23 0 43.5 -16.5t20.5 -40.5q0 -14 -10 -27l-252 -336l-33 -208q-9 -56 -68 -56q-52 0 -52 45q0 3 0.5 5.5t0.5 5.5l34 210l-153 337q-3 7 -3 17q0 23 20 42t51 19q29 0 42 -31l110 -259h4zM342 694q-9 -3 -20 -3q-13 0 -26 7.5
t-13 28.5q0 14 8.5 24.5t19.5 17.5l121 72q21 13 43 13q17 0 35.5 -13t18.5 -41q0 -20 -14.5 -36.5t-37.5 -24.5z" />
    <glyph glyph-name="Thorn" unicode="&#xde;" horiz-adv-x="573" 
d="M163 121l-12 -71q-5 -29 -21 -42t-46 -13q-31 0 -44 13t-8 42l90 568q9 55 69 55q59 0 50 -55l-12 -78h155q87 0 133 -45t46 -122q0 -56 -15 -102t-45 -79.5t-74 -52t-102 -18.5h-164zM345 236q25 0 43.5 10t30.5 25.5t18 36t6 41.5q0 19 -6.5 33t-17 23.5t-23.5 14
t-26 4.5h-159l-30 -188h164z" />
    <glyph glyph-name="agrave" unicode="&#xe0;" horiz-adv-x="500" 
d="M55 292q14 88 63.5 135.5t132.5 47.5q34 0 68 -12.5t66 -30.5q11 16 30 27.5t42 11.5q14 0 24 -4t10 -22q0 -7 -1 -11l-62 -411q-3 -19 -9.5 -23t-21.5 -4q-29 0 -47 14.5t-24 30.5q-68 -46 -126 -46q-88 0 -126.5 39t-38.5 107q0 25 4 48zM157 184q-1 -5 -1 -9v-9
q0 -25 13.5 -40.5t48.5 -15.5q23 0 51 9t63 37l28 177q-25 14 -54 20.5t-53 6.5q-33 0 -54 -18.5t-27 -59.5zM187 668q-12 16 -12 35q0 20 16.5 37t38.5 17q17 0 31.5 -10.5t24.5 -31.5l65 -140q7 -14 7 -26q0 -13 -11 -24t-28 -11q-11 0 -20.5 6t-17.5 16z" />
    <glyph glyph-name="aacute" unicode="&#xe1;" horiz-adv-x="500" 
d="M55 292q14 88 63.5 135.5t132.5 47.5q34 0 68 -12.5t66 -30.5q11 16 30 27.5t42 11.5q14 0 24 -4t10 -22q0 -7 -1 -11l-62 -411q-3 -19 -9.5 -23t-21.5 -4q-29 0 -47 14.5t-24 30.5q-68 -46 -126 -46q-88 0 -126.5 39t-38.5 107q0 25 4 48zM157 184q-1 -5 -1 -9v-9
q0 -25 13.5 -40.5t48.5 -15.5q23 0 51 9t63 37l28 177q-25 14 -54 20.5t-53 6.5q-33 0 -54 -18.5t-27 -59.5zM337 536q-16 -16 -34 -16q-14 0 -27 10.5t-13 24.5q0 8 3.5 16t8.5 15l88 127q11 17 25.5 24.5t28.5 7.5q23 0 39 -17.5t16 -37.5q0 -22 -20 -41z" />
    <glyph glyph-name="acircumflex" unicode="&#xe2;" horiz-adv-x="500" 
d="M55 292q14 88 63.5 135.5t132.5 47.5q34 0 68 -12.5t66 -30.5q11 16 30 27.5t42 11.5q14 0 24 -4t10 -22q0 -7 -1 -11l-62 -411q-3 -19 -9.5 -23t-21.5 -4q-29 0 -47 14.5t-24 30.5q-68 -46 -126 -46q-88 0 -126.5 39t-38.5 107q0 25 4 48zM157 184q-1 -5 -1 -9v-9
q0 -25 13.5 -40.5t48.5 -15.5q23 0 51 9t63 37l28 177q-25 14 -54 20.5t-53 6.5q-33 0 -54 -18.5t-27 -59.5zM324 725q21 2 35 -14l125 -122q10 -10 10 -25q0 -21 -17.5 -37.5t-37.5 -16.5q-19 0 -32 13l-96 90l-114 -88q-15 -12 -34 -12q-21 0 -36.5 17.5t-15.5 36.5
q-1 16 18 31l154 115q11 8 21 10t20 2z" />
    <glyph glyph-name="atilde" unicode="&#xe3;" horiz-adv-x="500" 
d="M55 292q14 88 63.5 135.5t132.5 47.5q34 0 68 -12.5t66 -30.5q11 16 30 27.5t42 11.5q14 0 24 -4t10 -22q0 -7 -1 -11l-62 -411q-3 -19 -9.5 -23t-21.5 -4q-29 0 -47 14.5t-24 30.5q-68 -46 -126 -46q-88 0 -126.5 39t-38.5 107q0 25 4 48zM157 184q-1 -5 -1 -9v-9
q0 -25 13.5 -40.5t48.5 -15.5q23 0 51 9t63 37l28 177q-25 14 -54 20.5t-53 6.5q-33 0 -54 -18.5t-27 -59.5zM230 647q19 0 38.5 -6.5t37.5 -14t33.5 -13.5t26.5 -6q12 0 20 6.5t15.5 14t16 14t22.5 6.5q12 0 20.5 -4.5t14.5 -11.5t9 -14t3 -12q0 -11 -7 -23
q-25 -39 -58.5 -53.5t-59.5 -14.5q-18 0 -36.5 6t-35.5 13.5t-33 13.5t-31 6q-8 0 -15.5 -6t-15.5 -13.5t-17.5 -13.5t-21.5 -6q-22 0 -34 15t-12 26q0 19 13 35.5t31.5 29t39.5 19.5t36 7z" />
    <glyph glyph-name="adieresis" unicode="&#xe4;" horiz-adv-x="500" 
d="M55 292q14 88 63.5 135.5t132.5 47.5q34 0 68 -12.5t66 -30.5q11 16 30 27.5t42 11.5q14 0 24 -4t10 -22q0 -7 -1 -11l-62 -411q-3 -19 -9.5 -23t-21.5 -4q-29 0 -47 14.5t-24 30.5q-68 -46 -126 -46q-88 0 -126.5 39t-38.5 107q0 25 4 48zM157 184q-1 -5 -1 -9v-9
q0 -25 13.5 -40.5t48.5 -15.5q23 0 51 9t63 37l28 177q-25 14 -54 20.5t-53 6.5q-33 0 -54 -18.5t-27 -59.5zM393 535q-25 0 -40 15t-15 37q0 18 7 31t18 22t24 13t25 4q22 0 38.5 -11.5t16.5 -37.5q0 -14 -5.5 -27t-15.5 -23t-23.5 -16.5t-29.5 -6.5zM186 535q-25 0 -40 15
t-15 37q0 18 7 31t18 22t24 13t25 4q22 0 39 -11.5t17 -37.5q0 -28 -21.5 -50.5t-53.5 -22.5z" />
    <glyph glyph-name="aring" unicode="&#xe5;" horiz-adv-x="500" 
d="M55 292q14 88 63.5 135.5t132.5 47.5q34 0 68 -12.5t66 -30.5q11 16 30 27.5t42 11.5q14 0 24 -4t10 -22q0 -7 -1 -11l-62 -411q-3 -19 -9.5 -23t-21.5 -4q-29 0 -47 14.5t-24 30.5q-68 -46 -126 -46q-88 0 -126.5 39t-38.5 107q0 25 4 48zM157 184q-1 -5 -1 -9v-9
q0 -25 13.5 -40.5t48.5 -15.5q23 0 51 9t63 37l28 177q-25 14 -54 20.5t-53 6.5q-33 0 -54 -18.5t-27 -59.5zM323 568q19 0 34.5 14.5t15.5 34.5q0 16 -10 27t-26 11q-20 0 -35.5 -15.5t-15.5 -35.5q0 -16 10 -26t27 -10zM315 492q-23 0 -42.5 8t-33.5 22.5t-22 33.5t-8 40
q0 28 11 52.5t29.5 42.5t43.5 28.5t52 10.5q22 0 41 -8t33.5 -22t22.5 -32.5t8 -39.5q0 -28 -11 -53t-29.5 -43.5t-43 -29t-51.5 -10.5z" />
    <glyph glyph-name="ae" unicode="&#xe6;" horiz-adv-x="749" 
d="M576 466q69 0 111 -36t42 -102q0 -24 -9 -51t-33.5 -50.5t-66.5 -38.5t-108 -15q-21 0 -39.5 3t-34.5 5l-2 -16q-1 -4 -1 -7.5v-6.5q0 -37 49 -37h136q18 0 35 -14t17 -40q0 -18 -6.5 -29.5t-15.5 -18.5t-18.5 -9.5t-15.5 -2.5h-136q-42 0 -79 11.5t-55 40.5
q-26 -29 -55.5 -40.5t-75.5 -11.5h-38q-72 0 -108.5 33t-36.5 87q0 41 15 72.5t41.5 52.5t63.5 32t82 11q51 0 101 -9l3 22q3 21 -10.5 35t-47.5 14h-117q-15 0 -29 14t-14 36q0 31 16 48.5t45 17.5h123q76 0 116 -34q52 34 128 34h28zM531 357q-35 0 -52 -19.5t-22 -48.5
l-3 -19q8 -2 21.5 -3t25.5 -1q37 0 58 7.5t31.5 18t12.5 20.5t2 15q0 10 -9 20t-28 10h-37zM242 200q-15 0 -30 -2.5t-28 -9t-21 -18t-8 -29.5q0 -12 7.5 -21.5t21.5 -9.5h31q44 0 71 15.5t32 41.5l4 23q-21 4 -42.5 7t-37.5 3z" />
    <glyph glyph-name="ccedilla" unicode="&#xe7;" horiz-adv-x="433" 
d="M198 -222q-15 0 -32 3t-31 8t-23 12.5t-9 16.5q0 13 12 26t24 13q10 0 26.5 -9t32.5 -9q23 0 33.5 10.5t10.5 21.5q0 7 -5 14.5t-23 7.5h-42q-16 0 -24 7t-8 18q0 8 5 18l36 64q-70 5 -108 43t-38 109v18t2 19l12 92q12 92 67.5 138.5t139.5 46.5h131q16 0 28.5 -12
t12.5 -35q0 -17 -6 -29.5t-14.5 -21t-19 -13t-19.5 -4.5h-114q-41 0 -61 -20.5t-26 -55.5l-14 -89q-1 -5 -1 -9v-8q0 -22 13 -38.5t51 -16.5h120q15 0 28 -11t13 -34q0 -16 -5.5 -29t-14.5 -22t-19.5 -13.5t-20.5 -4.5h-79l-29 -49h23q36 0 58.5 -20t22.5 -56
q0 -18 -7 -35.5t-21.5 -31t-36 -22t-51.5 -8.5z" />
    <glyph glyph-name="egrave" unicode="&#xe8;" horiz-adv-x="467" 
d="M249 357q-35 0 -52 -19.5t-22 -48.5l-3 -18q21 -2 31 -2.5t24 -0.5q34 0 53 7t28.5 16.5t12 19.5t2.5 16q0 10 -9 20t-28 10h-37zM294 466q69 0 111 -36t42 -102q0 -24 -9 -51t-33.5 -50.5t-66.5 -38.5t-108 -15q-21 0 -39.5 1.5t-34.5 3.5l-2 -13q-1 -4 -1 -7.5v-6.5
q0 -37 49 -37h136q18 0 35 -14t17 -40q0 -18 -6.5 -29.5t-15.5 -18.5t-18.5 -9.5t-15.5 -2.5h-136q-42 0 -72.5 11.5t-50.5 32t-29.5 47.5t-9.5 58v16.5t2 16.5l16 105q7 47 25.5 81t46.5 55.5t63.5 32t76.5 10.5h28zM162 668q-12 16 -12 35q0 20 16.5 37t38.5 17
q17 0 31.5 -10.5t24.5 -31.5l65 -140q7 -14 7 -26q0 -13 -11 -24t-28 -11q-11 0 -20.5 6t-17.5 16z" />
    <glyph glyph-name="eacute" unicode="&#xe9;" horiz-adv-x="467" 
d="M249 357q-35 0 -52 -19.5t-22 -48.5l-3 -18q21 -2 31 -2.5t24 -0.5q34 0 53 7t28.5 16.5t12 19.5t2.5 16q0 10 -9 20t-28 10h-37zM294 466q69 0 111 -36t42 -102q0 -24 -9 -51t-33.5 -50.5t-66.5 -38.5t-108 -15q-21 0 -39.5 1.5t-34.5 3.5l-2 -13q-1 -4 -1 -7.5v-6.5
q0 -37 49 -37h136q18 0 35 -14t17 -40q0 -18 -6.5 -29.5t-15.5 -18.5t-18.5 -9.5t-15.5 -2.5h-136q-42 0 -72.5 11.5t-50.5 32t-29.5 47.5t-9.5 58v16.5t2 16.5l16 105q7 47 25.5 81t46.5 55.5t63.5 32t76.5 10.5h28zM302 536q-16 -16 -34 -16q-14 0 -27 10.5t-13 24.5
q0 8 3.5 16t8.5 15l88 127q11 17 25.5 24.5t28.5 7.5q23 0 39 -17.5t16 -37.5q0 -22 -20 -41z" />
    <glyph glyph-name="ecircumflex" unicode="&#xea;" horiz-adv-x="467" 
d="M249 357q-35 0 -52 -19.5t-22 -48.5l-3 -18q21 -2 31 -2.5t24 -0.5q34 0 53 7t28.5 16.5t12 19.5t2.5 16q0 10 -9 20t-28 10h-37zM294 466q69 0 111 -36t42 -102q0 -24 -9 -51t-33.5 -50.5t-66.5 -38.5t-108 -15q-21 0 -39.5 1.5t-34.5 3.5l-2 -13q-1 -4 -1 -7.5v-6.5
q0 -37 49 -37h136q18 0 35 -14t17 -40q0 -18 -6.5 -29.5t-15.5 -18.5t-18.5 -9.5t-15.5 -2.5h-136q-42 0 -72.5 11.5t-50.5 32t-29.5 47.5t-9.5 58v16.5t2 16.5l16 105q7 47 25.5 81t46.5 55.5t63.5 32t76.5 10.5h28zM306 725q21 2 35 -14l125 -122q10 -10 10 -25
q0 -21 -17.5 -37.5t-37.5 -16.5q-19 0 -32 13l-96 90l-114 -88q-15 -12 -34 -12q-21 0 -36.5 17.5t-15.5 36.5q-1 16 18 31l154 115q11 8 21 10t20 2z" />
    <glyph glyph-name="edieresis" unicode="&#xeb;" horiz-adv-x="467" 
d="M249 357q-35 0 -52 -19.5t-22 -48.5l-3 -18q21 -2 31 -2.5t24 -0.5q34 0 53 7t28.5 16.5t12 19.5t2.5 16q0 10 -9 20t-28 10h-37zM294 466q69 0 111 -36t42 -102q0 -24 -9 -51t-33.5 -50.5t-66.5 -38.5t-108 -15q-21 0 -39.5 1.5t-34.5 3.5l-2 -13q-1 -4 -1 -7.5v-6.5
q0 -37 49 -37h136q18 0 35 -14t17 -40q0 -18 -6.5 -29.5t-15.5 -18.5t-18.5 -9.5t-15.5 -2.5h-136q-42 0 -72.5 11.5t-50.5 32t-29.5 47.5t-9.5 58v16.5t2 16.5l16 105q7 47 25.5 81t46.5 55.5t63.5 32t76.5 10.5h28zM387 535q-25 0 -40 15t-15 37q0 18 7 31t18 22t24 13
t25 4q22 0 38.5 -11.5t16.5 -37.5q0 -14 -5.5 -27t-15.5 -23t-23.5 -16.5t-29.5 -6.5zM180 535q-25 0 -40 15t-15 37q0 18 7 31t18 22t24 13t25 4q22 0 39 -11.5t17 -37.5q0 -28 -21.5 -50.5t-53.5 -22.5z" />
    <glyph glyph-name="igrave" unicode="&#xec;" horiz-adv-x="257" 
d="M159 20q-3 -20 -8 -23t-22 -3q-24 0 -40 10.5t-25 27.5t-11.5 39t1.5 45l50 315q1 6 4 13.5t10 14.5t18.5 12t28.5 5q34 0 45 -18.5t8 -39.5zM66 668q-12 16 -12 35q0 20 16.5 37t38.5 17q17 0 31.5 -10.5t24.5 -31.5l65 -140q7 -14 7 -26q0 -13 -11 -24t-28 -11
q-11 0 -20.5 6t-17.5 16z" />
    <glyph glyph-name="iacute" unicode="&#xed;" horiz-adv-x="257" 
d="M159 20q-3 -20 -8 -23t-22 -3q-24 0 -40 10.5t-25 27.5t-11.5 39t1.5 45l50 315q1 6 4 13.5t10 14.5t18.5 12t28.5 5q34 0 45 -18.5t8 -39.5zM206 536q-16 -16 -34 -16q-14 0 -27 10.5t-13 24.5q0 8 3.5 16t8.5 15l88 127q11 17 25.5 24.5t28.5 7.5q23 0 39 -17.5
t16 -37.5q0 -22 -20 -41z" />
    <glyph glyph-name="icircumflex" unicode="&#xee;" horiz-adv-x="359" 
d="M214 20q-3 -20 -8 -23t-22 -3q-24 0 -40 10.5t-25 27.5t-11.5 39t1.5 45l50 315q1 6 4 13.5t10 14.5t18.5 12t28.5 5q34 0 45 -18.5t8 -39.5zM261 725q21 2 35 -14l125 -122q10 -10 10 -25q0 -21 -17.5 -37.5t-37.5 -16.5q-19 0 -32 13l-96 90l-114 -88q-15 -12 -34 -12
q-21 0 -36.5 17.5t-15.5 36.5q-1 16 18 31l154 115q11 8 21 10t20 2z" />
    <glyph glyph-name="idieresis" unicode="&#xef;" horiz-adv-x="331" 
d="M326 535q-25 0 -40 15t-15 37q0 18 7 31t18 22t24 13t25 4q22 0 38.5 -11.5t16.5 -37.5q0 -14 -5.5 -27t-15.5 -23t-23.5 -16.5t-29.5 -6.5zM119 535q-25 0 -40 15t-15 37q0 18 7 31t18 22t24 13t25 4q22 0 39 -11.5t17 -37.5q0 -28 -21.5 -50.5t-53.5 -22.5zM202 20
q-3 -20 -8 -23t-22 -3q-24 0 -40 10.5t-25 27.5t-11.5 39t1.5 45l50 315q1 6 4 13.5t10 14.5t18.5 12t28.5 5q34 0 45 -18.5t8 -39.5z" />
    <glyph glyph-name="eth" unicode="&#xf0;" horiz-adv-x="508" 
d="M472 182q-7 -47 -26 -81t-46.5 -56.5t-62 -33.5t-73.5 -11h-53q-35 0 -64 9.5t-50.5 28.5t-33.5 47.5t-12 65.5q0 17 3 37l7 45q14 91 72 135.5t141 44.5h12q12 0 26 -1.5t27.5 -5t25.5 -9t19 -13.5l15 95q0 6 1 8l-32 -27q-9 -12 -28 -12q-15 0 -29.5 12.5t-14.5 30.5
q0 10 5 19.5t13 15.5l48 40q-14 8 -31 11t-34 3h-73q-14 0 -27.5 10t-13.5 32q0 32 18.5 50.5t37.5 18.5h94q78 0 128 -42l33 27q13 11 26 11q14 0 28.5 -13.5t14.5 -30.5t-19 -33l-37 -31q11 -33 11 -72q0 -20 -3 -42zM266 299q-44 0 -63.5 -20t-24.5 -55l-6 -40
q-1 -5 -1 -8.5v-7.5q0 -25 15.5 -40t50.5 -15h30q41 0 61 22t26 49l7 31q3 12 3 22q0 27 -17.5 44.5t-52.5 17.5h-28z" />
    <glyph glyph-name="ntilde" unicode="&#xf1;" horiz-adv-x="523" 
d="M371 281q1 5 1.5 9.5t0.5 9.5q0 32 -18.5 46t-47.5 14q-23 0 -52 -9t-66 -38l-44 -272q-1 -6 -4 -13.5t-9.5 -14.5t-17 -12t-26.5 -5q-33 0 -46 15t-13 34l1 9l60 393q3 19 10.5 23t24.5 4q30 0 47 -14t24 -31q35 23 69.5 34.5t63.5 11.5q88 0 126.5 -39t38.5 -107
q0 -25 -4 -48l-39 -261q-3 -20 -8 -23t-22 -3q-41 0 -59 29t-18 67q0 6 0.5 12t1.5 12zM239 647q19 0 38.5 -6.5t37.5 -14t33.5 -13.5t26.5 -6q12 0 20 6.5t15.5 14t16 14t22.5 6.5q12 0 20.5 -4.5t14.5 -11.5t9 -14t3 -12q0 -11 -7 -23q-25 -39 -58.5 -53.5t-59.5 -14.5
q-18 0 -36.5 6t-35.5 13.5t-33 13.5t-31 6q-8 0 -15.5 -6t-15.5 -13.5t-17.5 -13.5t-21.5 -6q-22 0 -34 15t-12 26q0 19 13 35.5t31.5 29t39.5 19.5t36 7z" />
    <glyph glyph-name="ograve" unicode="&#xf2;" horiz-adv-x="501" 
d="M356 283q1 4 1 7.5v6.5q0 30 -18 44t-46 14h-41q-29 0 -52 -19t-30 -59l-15 -91q-1 -5 -1 -8.5v-8.5q0 -25 15 -40.5t47 -15.5h36q32 0 56.5 18.5t31.5 56.5zM199 0q-81 0 -122.5 41t-41.5 113q0 11 1 22t3 22l14 87q14 88 65 135.5t144 47.5h40q85 0 129 -43.5
t44 -115.5q0 -18 -3 -39l-14 -90q-14 -88 -66 -134t-138 -46h-55zM175 668q-12 16 -12 35q0 20 16.5 37t38.5 17q17 0 31.5 -10.5t24.5 -31.5l65 -140q7 -14 7 -26q0 -13 -11 -24t-28 -11q-11 0 -20.5 6t-17.5 16z" />
    <glyph glyph-name="oacute" unicode="&#xf3;" horiz-adv-x="501" 
d="M356 283q1 4 1 7.5v6.5q0 30 -18 44t-46 14h-41q-29 0 -52 -19t-30 -59l-15 -91q-1 -5 -1 -8.5v-8.5q0 -25 15 -40.5t47 -15.5h36q32 0 56.5 18.5t31.5 56.5zM199 0q-81 0 -122.5 41t-41.5 113q0 11 1 22t3 22l14 87q14 88 65 135.5t144 47.5h40q85 0 129 -43.5
t44 -115.5q0 -18 -3 -39l-14 -90q-14 -88 -66 -134t-138 -46h-55zM319 536q-16 -16 -34 -16q-14 0 -27 10.5t-13 24.5q0 8 3.5 16t8.5 15l88 127q11 17 25.5 24.5t28.5 7.5q23 0 39 -17.5t16 -37.5q0 -22 -20 -41z" />
    <glyph glyph-name="ocircumflex" unicode="&#xf4;" horiz-adv-x="501" 
d="M356 283q1 4 1 7.5v6.5q0 30 -18 44t-46 14h-41q-29 0 -52 -19t-30 -59l-15 -91q-1 -5 -1 -8.5v-8.5q0 -25 15 -40.5t47 -15.5h36q32 0 56.5 18.5t31.5 56.5zM199 0q-81 0 -122.5 41t-41.5 113q0 11 1 22t3 22l14 87q14 88 65 135.5t144 47.5h40q85 0 129 -43.5
t44 -115.5q0 -18 -3 -39l-14 -90q-14 -88 -66 -134t-138 -46h-55zM328 725q21 2 35 -14l125 -122q10 -10 10 -25q0 -21 -17.5 -37.5t-37.5 -16.5q-19 0 -32 13l-96 90l-114 -88q-15 -12 -34 -12q-21 0 -36.5 17.5t-15.5 36.5q-1 16 18 31l154 115q11 8 21 10t20 2z" />
    <glyph glyph-name="otilde" unicode="&#xf5;" horiz-adv-x="501" 
d="M356 283q1 4 1 7.5v6.5q0 30 -18 44t-46 14h-41q-29 0 -52 -19t-30 -59l-15 -91q-1 -5 -1 -8.5v-8.5q0 -25 15 -40.5t47 -15.5h36q32 0 56.5 18.5t31.5 56.5zM199 0q-81 0 -122.5 41t-41.5 113q0 11 1 22t3 22l14 87q14 88 65 135.5t144 47.5h40q85 0 129 -43.5
t44 -115.5q0 -18 -3 -39l-14 -90q-14 -88 -66 -134t-138 -46h-55zM248 657q19 0 38.5 -6.5t37.5 -14t33.5 -13.5t26.5 -6q12 0 20 6.5t15.5 14t16 14t22.5 6.5q12 0 20.5 -4.5t14.5 -11.5t9 -14t3 -12q0 -11 -7 -23q-25 -39 -58.5 -53.5t-59.5 -14.5q-18 0 -36.5 6
t-35.5 13.5t-33 13.5t-31 6q-8 0 -15.5 -6t-15.5 -13.5t-17.5 -13.5t-21.5 -6q-22 0 -34 15t-12 26q0 19 13 35.5t31.5 29t39.5 19.5t36 7z" />
    <glyph glyph-name="odieresis" unicode="&#xf6;" horiz-adv-x="501" 
d="M356 283q1 4 1 7.5v6.5q0 30 -18 44t-46 14h-41q-29 0 -52 -19t-30 -59l-15 -91q-1 -5 -1 -8.5v-8.5q0 -25 15 -40.5t47 -15.5h36q32 0 56.5 18.5t31.5 56.5zM199 0q-81 0 -122.5 41t-41.5 113q0 11 1 22t3 22l14 87q14 88 65 135.5t144 47.5h40q85 0 129 -43.5
t44 -115.5q0 -18 -3 -39l-14 -90q-14 -88 -66 -134t-138 -46h-55zM414 535q-25 0 -40 15t-15 37q0 18 7 31t18 22t24 13t25 4q22 0 38.5 -11.5t16.5 -37.5q0 -14 -5.5 -27t-15.5 -23t-23.5 -16.5t-29.5 -6.5zM207 535q-25 0 -40 15t-15 37q0 18 7 31t18 22t24 13t25 4
q22 0 39 -11.5t17 -37.5q0 -28 -21.5 -50.5t-53.5 -22.5z" />
    <glyph glyph-name="divide" unicode="&#xf7;" horiz-adv-x="520" 
d="M95 269q-22 0 -35.5 10.5t-13.5 31.5q0 16 6 28t15.5 19.5t21 11.5t23.5 4h344q21 0 34.5 -10t13.5 -32q0 -32 -18.5 -47.5t-46.5 -15.5h-344zM242 95q-27 0 -44 16.5t-17 40.5q0 19 7.5 33.5t19.5 24.5t26 14.5t28 4.5q24 0 41.5 -13.5t17.5 -40.5q0 -15 -6 -29.5
t-16.5 -25.5t-25 -18t-31.5 -7zM292 414q-27 0 -43.5 16.5t-16.5 40.5q0 19 7.5 33.5t19 24.5t25.5 14.5t28 4.5q24 0 42 -13.5t18 -41.5q0 -15 -6 -29t-17 -25t-25.5 -18t-31.5 -7z" />
    <glyph glyph-name="oslash" unicode="&#xf8;" horiz-adv-x="501" 
d="M208 0q-76 0 -119 30l-23 -22q-13 -13 -24 -13q-8 0 -18.5 10t-10.5 20t14 23l26 25q-18 33 -18 79q0 11 1 22.5t3 23.5l14 87q14 88 65 135.5t144 47.5h40q78 0 123 -39l30 28q8 7 13.5 10.5t11.5 2.5q11 0 19.5 -8t8.5 -18q0 -14 -14 -27l-35 -33q16 -32 16 -76
q0 -19 -3 -38l-14 -90q-14 -88 -66 -134t-138 -46h-46zM252 355q-29 0 -52 -19t-30 -59l-15 -91q-1 -5 -1.5 -9t-0.5 -8l183 174q-17 12 -43 12h-41zM356 283v2l-174 -166q13 -6 34 -6h36q32 0 57 18.5t31 56.5z" />
    <glyph glyph-name="ugrave" unicode="&#xf9;" horiz-adv-x="512" 
d="M160 189q-1 -5 -1.5 -9.5t-0.5 -9.5q0 -32 18.5 -46t47.5 -14q23 0 52 9t66 38l44 272q1 6 4 13.5t9.5 14.5t17 12t26.5 5q33 0 46 -15t13 -34l-1 -9l-60 -393q-3 -19 -10.5 -23t-24.5 -4q-30 0 -47 14t-24 31q-35 -23 -69.5 -34.5t-63.5 -11.5q-88 0 -126.5 39
t-38.5 107q0 25 4 48l39 261q3 20 8 23t22 3q41 0 59 -29t18 -67q0 -6 -0.5 -12t-1.5 -12zM165 668q-12 16 -12 35q0 20 16.5 37t38.5 17q17 0 31.5 -10.5t24.5 -31.5l65 -140q7 -14 7 -26q0 -13 -11 -24t-28 -11q-11 0 -20.5 6t-17.5 16z" />
    <glyph glyph-name="uacute" unicode="&#xfa;" horiz-adv-x="512" 
d="M160 189q-1 -5 -1.5 -9.5t-0.5 -9.5q0 -32 18.5 -46t47.5 -14q23 0 52 9t66 38l44 272q1 6 4 13.5t9.5 14.5t17 12t26.5 5q33 0 46 -15t13 -34l-1 -9l-60 -393q-3 -19 -10.5 -23t-24.5 -4q-30 0 -47 14t-24 31q-35 -23 -69.5 -34.5t-63.5 -11.5q-88 0 -126.5 39
t-38.5 107q0 25 4 48l39 261q3 20 8 23t22 3q41 0 59 -29t18 -67q0 -6 -0.5 -12t-1.5 -12zM318 536q-16 -16 -34 -16q-14 0 -27 10.5t-13 24.5q0 8 3.5 16t8.5 15l88 127q11 17 25.5 24.5t28.5 7.5q23 0 39 -17.5t16 -37.5q0 -22 -20 -41z" />
    <glyph glyph-name="ucircumflex" unicode="&#xfb;" horiz-adv-x="512" 
d="M160 189q-1 -5 -1.5 -9.5t-0.5 -9.5q0 -32 18.5 -46t47.5 -14q23 0 52 9t66 38l44 272q1 6 4 13.5t9.5 14.5t17 12t26.5 5q33 0 46 -15t13 -34l-1 -9l-60 -393q-3 -19 -10.5 -23t-24.5 -4q-30 0 -47 14t-24 31q-35 -23 -69.5 -34.5t-63.5 -11.5q-88 0 -126.5 39
t-38.5 107q0 25 4 48l39 261q3 20 8 23t22 3q41 0 59 -29t18 -67q0 -6 -0.5 -12t-1.5 -12zM332 725q21 2 35 -14l125 -122q10 -10 10 -25q0 -21 -17.5 -37.5t-37.5 -16.5q-19 0 -32 13l-96 90l-114 -88q-15 -12 -34 -12q-21 0 -36.5 17.5t-15.5 36.5q-1 16 18 31l154 115
q11 8 21 10t20 2z" />
    <glyph glyph-name="udieresis" unicode="&#xfc;" horiz-adv-x="512" 
d="M160 189q-1 -5 -1.5 -9.5t-0.5 -9.5q0 -32 18.5 -46t47.5 -14q23 0 52 9t66 38l44 272q1 6 4 13.5t9.5 14.5t17 12t26.5 5q33 0 46 -15t13 -34l-1 -9l-60 -393q-3 -19 -10.5 -23t-24.5 -4q-30 0 -47 14t-24 31q-35 -23 -69.5 -34.5t-63.5 -11.5q-88 0 -126.5 39
t-38.5 107q0 25 4 48l39 261q3 20 8 23t22 3q41 0 59 -29t18 -67q0 -6 -0.5 -12t-1.5 -12zM404 535q-25 0 -40 15t-15 37q0 18 7 31t18 22t24 13t25 4q22 0 38.5 -11.5t16.5 -37.5q0 -14 -5.5 -27t-15.5 -23t-23.5 -16.5t-29.5 -6.5zM197 535q-25 0 -40 15t-15 37q0 18 7 31
t18 22t24 13t25 4q22 0 39 -11.5t17 -37.5q0 -28 -21.5 -50.5t-53.5 -22.5z" />
    <glyph glyph-name="yacute" unicode="&#xfd;" horiz-adv-x="464" 
d="M201 95l119 247q12 25 14 37t2 28v7q0 23 13.5 42t51.5 19q20 0 32.5 -6t19 -15t8.5 -20t2 -20q0 -33 -10 -59.5t-27 -60.5q-31 -62 -53 -106.5t-39.5 -79t-32 -63.5l-31 -62l-37 -74t-49.5 -98q-5 -11 -17 -19t-29 -8q-11 0 -26 5q-19 7 -27.5 18t-8.5 23q0 10 4 17
l76 155h-10q-24 0 -39.5 14t-19.5 40l-45 347l-1 12q0 21 10.5 38.5t35.5 20.5q4 1 8 1h8q50 0 55 -45l39 -335h4zM297 536q-16 -16 -34 -16q-14 0 -27 10.5t-13 24.5q0 8 3.5 16t8.5 15l88 127q11 17 25.5 24.5t28.5 7.5q23 0 39 -17.5t16 -37.5q0 -22 -20 -41z" />
    <glyph glyph-name="thorn" unicode="&#xfe;" horiz-adv-x="528" 
d="M197 430q34 23 62 34t57 11q51 0 85.5 -14t53.5 -39.5t24 -61t-2 -79.5l-15 -100q-14 -90 -67.5 -135.5t-129.5 -45.5h-135l-27 -167q-3 -19 -21 -32t-45 -13q-22 0 -39.5 14t-13.5 38l131 827q3 17 8.5 24t27.5 7q15 0 30 -6t26 -15.5t16.5 -22.5t3.5 -27zM148 113h117
q27 0 49.5 20t29.5 59l14 89q7 42 -12.5 60.5t-51.5 18.5q-23 0 -50 -9t-64 -38z" />
    <glyph glyph-name="ydieresis" unicode="&#xff;" horiz-adv-x="464" 
d="M201 95l119 247q12 25 14 37t2 28v7q0 23 13.5 42t51.5 19q20 0 32.5 -6t19 -15t8.5 -20t2 -20q0 -33 -10 -59.5t-27 -60.5q-31 -62 -53 -106.5t-39.5 -79t-32 -63.5l-31 -62l-37 -74t-49.5 -98q-5 -11 -17 -19t-29 -8q-11 0 -26 5q-19 7 -27.5 18t-8.5 23q0 10 4 17
l76 155h-10q-24 0 -39.5 14t-19.5 40l-45 347l-1 12q0 21 10.5 38.5t35.5 20.5q4 1 8 1h8q50 0 55 -45l39 -335h4zM368 524q-25 0 -40 15t-15 37q0 18 7 31t18 22t24 13t25 4q22 0 38.5 -11.5t16.5 -37.5q0 -14 -5.5 -27t-15.5 -23t-23.5 -16.5t-29.5 -6.5zM161 524
q-25 0 -40 15t-15 37q0 18 7 31t18 22t24 13t25 4q22 0 39 -11.5t17 -37.5q0 -28 -21.5 -50.5t-53.5 -22.5z" />
    <glyph glyph-name="space" unicode=" " horiz-adv-x="300" 
 />
    <glyph glyph-name="Amacron" unicode="&#x100;" horiz-adv-x="567" 
d="M330 478l-106 -218h148l-38 218h-4zM166 149l-58 -115q-11 -23 -25.5 -32.5t-31.5 -9.5q-29 0 -48.5 16.5t-19.5 37.5q0 13 7 26l280 547q11 21 26 35t42 14h30q26 0 37.5 -13.5t16.5 -35.5l115 -547q2 -10 2 -16q0 -25 -17.5 -43.5t-53.5 -18.5q-43 0 -52 41l-24 114
h-226zM259 706q-25 0 -39.5 11t-14.5 32q0 30 20.5 42t49.5 12h204q25 0 39.5 -10.5t14.5 -30.5q0 -31 -20 -43.5t-50 -12.5h-204z" />
    <glyph glyph-name="amacron" unicode="&#x101;" horiz-adv-x="500" 
d="M55 292q14 88 63.5 135.5t132.5 47.5q34 0 68 -12.5t66 -30.5q11 16 30 27.5t42 11.5q14 0 24 -4t10 -22q0 -7 -1 -11l-62 -411q-3 -19 -9.5 -23t-21.5 -4q-29 0 -47 14.5t-24 30.5q-68 -46 -126 -46q-88 0 -126.5 39t-38.5 107q0 25 4 48zM157 184q-1 -5 -1 -9v-9
q0 -25 13.5 -40.5t48.5 -15.5q23 0 51 9t63 37l28 177q-25 14 -54 20.5t-53 6.5q-33 0 -54 -18.5t-27 -59.5zM198 515q-25 0 -39.5 10.5t-14.5 30.5q0 31 19.5 43.5t49.5 12.5h204q26 0 40.5 -10t14.5 -31q0 -30 -20.5 -43t-49.5 -13h-204z" />
    <glyph glyph-name="Abreve" unicode="&#x102;" horiz-adv-x="567" 
d="M330 478l-106 -218h148l-38 218h-4zM166 149l-58 -115q-11 -23 -25.5 -32.5t-31.5 -9.5q-29 0 -48.5 16.5t-19.5 37.5q0 13 7 26l280 547q11 21 26 35t42 14h30q26 0 37.5 -13.5t16.5 -35.5l115 -547q2 -10 2 -16q0 -25 -17.5 -43.5t-53.5 -18.5q-43 0 -52 41l-24 114
h-226zM361 781q28 0 56.5 19t56.5 64q8 14 18.5 19t21.5 5q17 0 31.5 -12t14.5 -29q0 -11 -5 -20q-21 -44 -48.5 -71t-55 -42t-53 -20t-43.5 -5q-20 0 -44.5 5.5t-48.5 20.5t-44 42t-32 69q-1 4 -1 11q0 16 15 32.5t38 16.5q12 0 22 -5t15 -18q14 -37 35 -59.5t51 -22.5z
" />
    <glyph glyph-name="abreve" unicode="&#x103;" horiz-adv-x="500" 
d="M55 292q14 88 63.5 135.5t132.5 47.5q34 0 68 -12.5t66 -30.5q11 16 30 27.5t42 11.5q14 0 24 -4t10 -22q0 -7 -1 -11l-62 -411q-3 -19 -9.5 -23t-21.5 -4q-29 0 -47 14.5t-24 30.5q-68 -46 -126 -46q-88 0 -126.5 39t-38.5 107q0 25 4 48zM157 184q-1 -5 -1 -9v-9
q0 -25 13.5 -40.5t48.5 -15.5q23 0 51 9t63 37l28 177q-25 14 -54 20.5t-53 6.5q-33 0 -54 -18.5t-27 -59.5zM317 609q28 0 56.5 19t56.5 64q8 14 18.5 19t21.5 5q17 0 31.5 -12t14.5 -29q0 -11 -5 -20q-21 -44 -48.5 -71t-55 -42t-53 -20t-43.5 -5q-20 0 -44.5 5.5
t-48.5 20.5t-44 42t-32 69q-1 4 -1 11q0 16 15 32.5t38 16.5q12 0 22 -5t15 -18q14 -37 35 -59.5t51 -22.5z" />
    <glyph glyph-name="Aogonek" unicode="&#x104;" horiz-adv-x="567" 
d="M166 149l-58 -115q-11 -23 -25.5 -32.5t-31.5 -9.5q-29 0 -48.5 16.5t-19.5 37.5q0 13 7 26l280 547q11 21 26 35t42 14h30q26 0 37.5 -13.5t16.5 -35.5l115 -547q2 -10 2 -16q0 -20 -11.5 -36.5t-35.5 -22.5q-26 -25 -40 -52t-14 -47q0 -14 8.5 -25t31.5 -11q6 0 14 2.5
t16.5 5t15.5 5t11 2.5q14 0 23 -11t9 -24q0 -16 -12.5 -26.5t-30 -16.5t-37 -8.5t-33.5 -2.5q-28 0 -48 7.5t-32.5 19.5t-18 27t-5.5 29q0 33 20 71t56 70q-7 8 -10 23l-24 114h-226zM330 478l-106 -218h148l-38 218h-4z" />
    <glyph glyph-name="aogonek" unicode="&#x105;" horiz-adv-x="500" 
d="M55 292q14 88 63.5 135.5t132.5 47.5q34 0 68 -12.5t66 -30.5q11 16 30 27.5t42 11.5q14 0 24 -4t10 -22q0 -7 -1 -11l-62 -411q-2 -12 -5.5 -17.5t-8.5 -7.5q-25 -24 -39 -51t-14 -47q0 -14 8.5 -25t31.5 -11q6 0 14 2.5t16.5 5t15.5 5t11 2.5q14 0 23 -11t9 -24
q0 -16 -12.5 -26.5t-30 -16.5t-37 -8.5t-33.5 -2.5q-28 0 -48 7.5t-32.5 19.5t-18 27t-5.5 29q0 32 19.5 69.5t54.5 69.5q-16 13 -21 29q-68 -46 -126 -46q-88 0 -126.5 39t-38.5 107q0 25 4 48zM157 184q-1 -5 -1 -9v-9q0 -25 13.5 -40.5t48.5 -15.5q23 0 51 9t63 37
l28 177q-25 14 -54 20.5t-53 6.5q-33 0 -54 -18.5t-27 -59.5z" />
    <glyph glyph-name="Cacute" unicode="&#x106;" horiz-adv-x="531" 
d="M215 0q-37 0 -68.5 9.5t-54 30t-35 51t-12.5 72.5q0 12 1 24t3 26l38 246q17 105 71 157t142 52h222q46 0 46 -43q0 -33 -17 -53t-47 -20h-205q-38 0 -62 -24t-30 -64l-41 -261q-1 -5 -1.5 -10.5t-0.5 -10.5q0 -31 17 -48t49 -17h205q23 0 34.5 -12t11.5 -33
q0 -32 -17.5 -52t-46.5 -20h-202zM337 694q-9 -3 -20 -3q-13 0 -26 7.5t-13 28.5q0 14 8.5 24.5t19.5 17.5l121 72q21 13 43 13q17 0 35.5 -13t18.5 -41q0 -20 -14.5 -36.5t-37.5 -24.5z" />
    <glyph glyph-name="cacute" unicode="&#x107;" horiz-adv-x="433" 
d="M197 0q-77 0 -119.5 38.5t-42.5 113.5v18t2 19l12 92q12 92 67.5 138.5t139.5 46.5h131q16 0 28.5 -12t12.5 -35q0 -17 -6 -29.5t-14.5 -21t-19 -13t-19.5 -4.5h-114q-41 0 -61 -20.5t-26 -55.5l-14 -89q-1 -5 -1 -9v-8q0 -22 13 -38.5t51 -16.5h120q15 0 28 -11t13 -34
q0 -16 -5.5 -29t-14.5 -22t-19.5 -13.5t-20.5 -4.5h-121zM312 536q-16 -16 -34 -16q-14 0 -27 10.5t-13 24.5q0 8 3.5 16t8.5 15l88 127q11 17 25.5 24.5t28.5 7.5q23 0 39 -17.5t16 -37.5q0 -22 -20 -41z" />
    <glyph glyph-name="Ccircumflex" unicode="&#x108;" horiz-adv-x="531" 
d="M215 0q-37 0 -68.5 9.5t-54 30t-35 51t-12.5 72.5q0 12 1 24t3 26l38 246q17 105 71 157t142 52h222q46 0 46 -43q0 -33 -17 -53t-47 -20h-205q-38 0 -62 -24t-30 -64l-41 -261q-1 -5 -1.5 -10.5t-0.5 -10.5q0 -31 17 -48t49 -17h205q23 0 34.5 -12t11.5 -33
q0 -32 -17.5 -52t-46.5 -20h-202zM384 882q18 0 35 -12l134 -93q14 -10 14 -28q0 -22 -16 -37.5t-34 -15.5q-9 0 -17.5 2.5t-17.5 7.5l-108 57l-133 -64q-18 -8 -32 -8q-23 0 -33.5 14.5t-10.5 31.5q0 26 26 42l154 91q13 8 21 10t18 2z" />
    <glyph glyph-name="ccircumflex" unicode="&#x109;" horiz-adv-x="433" 
d="M197 0q-77 0 -119.5 38.5t-42.5 113.5v18t2 19l12 92q12 92 67.5 138.5t139.5 46.5h131q16 0 28.5 -12t12.5 -35q0 -17 -6 -29.5t-14.5 -21t-19 -13t-19.5 -4.5h-114q-41 0 -61 -20.5t-26 -55.5l-14 -89q-1 -5 -1 -9v-8q0 -22 13 -38.5t51 -16.5h120q15 0 28 -11t13 -34
q0 -16 -5.5 -29t-14.5 -22t-19.5 -13.5t-20.5 -4.5h-121zM309 725q21 2 35 -14l125 -122q10 -10 10 -25q0 -21 -17.5 -37.5t-37.5 -16.5q-19 0 -32 13l-96 90l-114 -88q-15 -12 -34 -12q-21 0 -36.5 17.5t-15.5 36.5q-1 16 18 31l154 115q11 8 21 10t20 2z" />
    <glyph glyph-name="Cdotaccent" unicode="&#x10a;" horiz-adv-x="531" 
d="M215 0q-37 0 -68.5 9.5t-54 30t-35 51t-12.5 72.5q0 12 1 24t3 26l38 246q17 105 71 157t142 52h222q46 0 46 -43q0 -33 -17 -53t-47 -20h-205q-38 0 -62 -24t-30 -64l-41 -261q-1 -5 -1.5 -10.5t-0.5 -10.5q0 -31 17 -48t49 -17h205q23 0 34.5 -12t11.5 -33
q0 -32 -17.5 -52t-46.5 -20h-202zM377 701q-24 0 -41 15.5t-17 38.5q0 18 7 32t18.5 23.5t25 14t26.5 4.5q23 0 41 -13.5t18 -39.5q0 -31 -23.5 -53t-54.5 -22z" />
    <glyph glyph-name="cdotaccent" unicode="&#x10b;" horiz-adv-x="433" 
d="M197 0q-77 0 -119.5 38.5t-42.5 113.5v18t2 19l12 92q12 92 67.5 138.5t139.5 46.5h131q16 0 28.5 -12t12.5 -35q0 -17 -6 -29.5t-14.5 -21t-19 -13t-19.5 -4.5h-114q-41 0 -61 -20.5t-26 -55.5l-14 -89q-1 -5 -1 -9v-8q0 -22 13 -38.5t51 -16.5h120q15 0 28 -11t13 -34
q0 -16 -5.5 -29t-14.5 -22t-19.5 -13.5t-20.5 -4.5h-121zM279 531q-24 0 -41 15.5t-17 38.5q0 18 7 32t18.5 23.5t25 14t26.5 4.5q23 0 41 -13.5t18 -39.5q0 -31 -23.5 -53t-54.5 -22z" />
    <glyph glyph-name="Ccaron" unicode="&#x10c;" horiz-adv-x="531" 
d="M215 0q-37 0 -68.5 9.5t-54 30t-35 51t-12.5 72.5q0 12 1 24t3 26l38 246q17 105 71 157t142 52h222q46 0 46 -43q0 -33 -17 -53t-47 -20h-205q-38 0 -62 -24t-30 -64l-41 -261q-1 -5 -1.5 -10.5t-0.5 -10.5q0 -31 17 -48t49 -17h205q23 0 34.5 -12t11.5 -33
q0 -32 -17.5 -52t-46.5 -20h-202zM359 684q-10 0 -17.5 2.5t-17.5 9.5l-132 91q-16 12 -16 30q0 19 16 38t41 19q17 0 29 -8l109 -65l130 62q18 9 35 9q15 0 29.5 -13t14.5 -34q0 -22 -25 -38l-157 -91q-11 -6 -20.5 -8.5t-18.5 -3.5z" />
    <glyph glyph-name="ccaron" unicode="&#x10d;" horiz-adv-x="433" 
d="M197 0q-77 0 -119.5 38.5t-42.5 113.5v18t2 19l12 92q12 92 67.5 138.5t139.5 46.5h131q16 0 28.5 -12t12.5 -35q0 -17 -6 -29.5t-14.5 -21t-19 -13t-19.5 -4.5h-114q-41 0 -61 -20.5t-26 -55.5l-14 -89q-1 -5 -1 -9v-8q0 -22 13 -38.5t51 -16.5h120q15 0 28 -11t13 -34
q0 -16 -5.5 -29t-14.5 -22t-19.5 -13.5t-20.5 -4.5h-121zM281 515q-10 0 -19.5 2t-17.5 10l-123 119q-13 12 -13 29q0 18 14.5 35t39.5 17q9 0 18 -2.5t16 -9.5l92 -92l122 94q9 7 18.5 10t17.5 4q15 0 30.5 -12.5t15.5 -32.5q2 -21 -21 -39l-153 -120q-10 -8 -19 -10
t-18 -2z" />
    <glyph glyph-name="Dcaron" unicode="&#x10e;" horiz-adv-x="622" 
d="M490 464q1 6 1.5 11.5t0.5 10.5q0 32 -18.5 49t-58.5 17h-183l-69 -436h182q50 0 72 22.5t29 64.5zM86 0q-53 0 -53 44v6.5t1 7.5l87 552q9 58 70 58h257q74 0 119 -39t45 -120q0 -25 -4 -48l-39 -254q-16 -103 -66.5 -155t-148.5 -52h-268zM364 684q-10 0 -17.5 2.5
t-17.5 9.5l-132 91q-16 12 -16 30q0 19 16 38t41 19q17 0 29 -8l109 -65l130 62q18 9 35 9q15 0 29.5 -13t14.5 -34q0 -22 -25 -38l-157 -91q-11 -6 -20.5 -8.5t-18.5 -3.5z" />
    <glyph glyph-name="dcaron" unicode="&#x10f;" horiz-adv-x="644" 
d="M625 505q-5 -9 -17 -17.5t-28 -8.5q-24 0 -33.5 12.5t-9.5 24.5q0 6 2 14l43 120q7 18 23.5 33t42.5 15q28 0 41 -15t13 -33q0 -15 -8 -28zM426 23q-3 -19 -10.5 -23t-24.5 -4q-29 0 -47 14.5t-24 30.5q-68 -46 -128 -46q-88 0 -126.5 39t-38.5 107q0 25 4 48l15 96
q14 90 67.5 135.5t129.5 45.5h135l29 186q1 6 4.5 13.5t10.5 14.5t18.5 12t28.5 5q30 0 41.5 -14.5t11.5 -32.5q0 -7 -1 -11zM359 355h-115q-27 0 -49.5 -20t-29.5 -59l-15 -87q-1 -5 -1 -9.5v-9.5q0 -32 18 -46t47 -14q23 0 49.5 9t63.5 38z" />
    <glyph glyph-name="Dcroat" unicode="&#x110;" horiz-adv-x="622" 
d="M86 0q-53 0 -53 44v6.5t1 7.5l34 220h-18q-51 0 -51 43q0 33 17.5 47t49.5 14h19l36 228q9 58 70 58h257q74 0 119 -39t45 -120q0 -25 -4 -48l-39 -254q-16 -103 -66.5 -155t-148.5 -52h-268zM490 464q1 6 1.5 11.5t0.5 10.5q0 32 -18.5 49t-58.5 17h-183l-27 -170h94
q52 0 52 -42q0 -34 -18 -48t-50 -14h-95l-25 -162h182q50 0 72 22.5t29 64.5z" />
    <glyph glyph-name="dcroat" unicode="&#x111;" horiz-adv-x="528" 
d="M512 590h39q20 0 30 -10.5t10 -28.5q0 -30 -16 -42.5t-39 -12.5h-38l-73 -473q-3 -19 -10.5 -23t-24.5 -4q-29 0 -47 14.5t-24 30.5q-68 -46 -128 -46q-88 0 -126.5 39t-38.5 107q0 25 4 48l9 56q14 90 67.5 135.5t129.5 45.5h135l11 70h-132q-19 0 -27.5 11t-8.5 28
q0 28 13.5 41.5t37.5 13.5h131l10 62q1 6 4.5 13.5t10.5 14.5t18.5 12t28.5 5q30 0 41.5 -14.5t11.5 -32.5q0 -7 -1 -11zM352 315h-115q-27 0 -49 -20t-30 -59l-9 -47q-1 -5 -1 -9.5v-9.5q0 -32 18 -46t47 -14q23 0 49.5 9t63.5 38z" />
    <glyph glyph-name="Emacron" unicode="&#x112;" horiz-adv-x="534" 
d="M86 0q-53 0 -53 44v6.5t1 7.5l87 552q9 58 70 58h331q46 0 46 -43q0 -34 -17.5 -53.5t-46.5 -19.5h-272l-23 -142h230q23 0 34 -11t11 -31q0 -34 -16.5 -53.5t-46.5 -19.5h-230l-28 -179h272q23 0 34.5 -12t11.5 -33q0 -32 -17.5 -51.5t-46.5 -19.5h-331zM255 706
q-25 0 -39.5 11t-14.5 32q0 30 20.5 42t49.5 12h204q25 0 39.5 -10.5t14.5 -30.5q0 -31 -20 -43.5t-50 -12.5h-204z" />
    <glyph glyph-name="emacron" unicode="&#x113;" horiz-adv-x="467" 
d="M249 357q-35 0 -52 -19.5t-22 -48.5l-3 -18q21 -2 31 -2.5t24 -0.5q34 0 53 7t28.5 16.5t12 19.5t2.5 16q0 10 -9 20t-28 10h-37zM294 466q69 0 111 -36t42 -102q0 -24 -9 -51t-33.5 -50.5t-66.5 -38.5t-108 -15q-21 0 -39.5 1.5t-34.5 3.5l-2 -13q-1 -4 -1 -7.5v-6.5
q0 -37 49 -37h136q18 0 35 -14t17 -40q0 -18 -6.5 -29.5t-15.5 -18.5t-18.5 -9.5t-15.5 -2.5h-136q-42 0 -72.5 11.5t-50.5 32t-29.5 47.5t-9.5 58v16.5t2 16.5l16 105q7 47 25.5 81t46.5 55.5t63.5 32t76.5 10.5h28zM195 515q-25 0 -39.5 10.5t-14.5 30.5q0 31 19.5 43.5
t49.5 12.5h204q26 0 40.5 -10t14.5 -31q0 -30 -20.5 -43t-49.5 -13h-204z" />
    <glyph glyph-name="Ebreve" unicode="&#x114;" horiz-adv-x="534" 
d="M86 0q-53 0 -53 44v6.5t1 7.5l87 552q9 58 70 58h331q46 0 46 -43q0 -34 -17.5 -53.5t-46.5 -19.5h-272l-23 -142h230q23 0 34 -11t11 -31q0 -34 -16.5 -53.5t-46.5 -19.5h-230l-28 -179h272q23 0 34.5 -12t11.5 -33q0 -32 -17.5 -51.5t-46.5 -19.5h-331zM363 781
q28 0 56.5 19t56.5 64q8 14 18.5 19t21.5 5q17 0 31.5 -12t14.5 -29q0 -11 -5 -20q-21 -44 -48.5 -71t-55 -42t-53 -20t-43.5 -5q-20 0 -44.5 5.5t-48.5 20.5t-44 42t-32 69q-1 4 -1 11q0 16 15 32.5t38 16.5q12 0 22 -5t15 -18q14 -37 35 -59.5t51 -22.5z" />
    <glyph glyph-name="ebreve" unicode="&#x115;" horiz-adv-x="467" 
d="M249 357q-35 0 -52 -19.5t-22 -48.5l-3 -18q21 -2 31 -2.5t24 -0.5q34 0 53 7t28.5 16.5t12 19.5t2.5 16q0 10 -9 20t-28 10h-37zM294 466q69 0 111 -36t42 -102q0 -24 -9 -51t-33.5 -50.5t-66.5 -38.5t-108 -15q-21 0 -39.5 1.5t-34.5 3.5l-2 -13q-1 -4 -1 -7.5v-6.5
q0 -37 49 -37h136q18 0 35 -14t17 -40q0 -18 -6.5 -29.5t-15.5 -18.5t-18.5 -9.5t-15.5 -2.5h-136q-42 0 -72.5 11.5t-50.5 32t-29.5 47.5t-9.5 58v16.5t2 16.5l16 105q7 47 25.5 81t46.5 55.5t63.5 32t76.5 10.5h28zM310 609q28 0 56.5 19t56.5 64q8 14 18.5 19t21.5 5
q17 0 31.5 -12t14.5 -29q0 -11 -5 -20q-21 -44 -48.5 -71t-55 -42t-53 -20t-43.5 -5q-20 0 -44.5 5.5t-48.5 20.5t-44 42t-32 69q-1 4 -1 11q0 16 15 32.5t38 16.5q12 0 22 -5t15 -18q14 -37 35 -59.5t51 -22.5z" />
    <glyph glyph-name="Edotaccent" unicode="&#x116;" horiz-adv-x="534" 
d="M86 0q-53 0 -53 44v6.5t1 7.5l87 552q9 58 70 58h331q46 0 46 -43q0 -34 -17.5 -53.5t-46.5 -19.5h-272l-23 -142h230q23 0 34 -11t11 -31q0 -34 -16.5 -53.5t-46.5 -19.5h-230l-28 -179h272q23 0 34.5 -12t11.5 -33q0 -32 -17.5 -51.5t-46.5 -19.5h-331zM342 701
q-24 0 -41 15.5t-17 38.5q0 18 7 32t18.5 23.5t25 14t26.5 4.5q23 0 41 -13.5t18 -39.5q0 -31 -23.5 -53t-54.5 -22z" />
    <glyph glyph-name="edotaccent" unicode="&#x117;" horiz-adv-x="467" 
d="M249 357q-35 0 -52 -19.5t-22 -48.5l-3 -18q21 -2 31 -2.5t24 -0.5q34 0 53 7t28.5 16.5t12 19.5t2.5 16q0 10 -9 20t-28 10h-37zM294 466q69 0 111 -36t42 -102q0 -24 -9 -51t-33.5 -50.5t-66.5 -38.5t-108 -15q-21 0 -39.5 1.5t-34.5 3.5l-2 -13q-1 -4 -1 -7.5v-6.5
q0 -37 49 -37h136q18 0 35 -14t17 -40q0 -18 -6.5 -29.5t-15.5 -18.5t-18.5 -9.5t-15.5 -2.5h-136q-42 0 -72.5 11.5t-50.5 32t-29.5 47.5t-9.5 58v16.5t2 16.5l16 105q7 47 25.5 81t46.5 55.5t63.5 32t76.5 10.5h28zM305 531q-24 0 -41 15.5t-17 38.5q0 18 7 32t18.5 23.5
t25 14t26.5 4.5q23 0 41 -13.5t18 -39.5q0 -31 -23.5 -53t-54.5 -22z" />
    <glyph glyph-name="Eogonek" unicode="&#x118;" horiz-adv-x="534" 
d="M481 71q0 -25 -10.5 -42t-28.5 -25q-28 -25 -44 -54t-16 -50q0 -14 8.5 -25t31.5 -11q6 0 14 2.5t16.5 5t15.5 5t11 2.5q14 0 23 -11t9 -24q0 -16 -12.5 -26.5t-30 -16.5t-37 -8.5t-33.5 -2.5q-28 0 -48 7.5t-32.5 19.5t-18 27t-5.5 29q0 29 16 62.5t45 64.5h-269
q-53 0 -53 44v6.5t1 7.5l87 552q9 58 70 58h331q46 0 46 -43q0 -34 -17.5 -53.5t-46.5 -19.5h-272l-23 -142h230q23 0 34 -11t11 -31q0 -34 -16.5 -53.5t-46.5 -19.5h-230l-28 -179h272q23 0 34.5 -12t11.5 -33z" />
    <glyph glyph-name="eogonek" unicode="&#x119;" horiz-adv-x="467" 
d="M294 466q69 0 111 -36t42 -102q0 -24 -9 -51t-33.5 -50.5t-66.5 -38.5t-108 -15q-21 0 -39.5 1.5t-34.5 3.5l-2 -13q-1 -4 -1 -7.5v-6.5q0 -37 49 -37h136q18 0 35 -14t17 -40q0 -20 -8 -32t-18 -19q-29 -25 -44.5 -54t-15.5 -50q0 -14 8.5 -25t31.5 -11q6 0 14 2.5
t16.5 5t15.5 5t11 2.5q14 0 23 -11t9 -24q0 -16 -12.5 -26.5t-30 -16.5t-37 -8.5t-33.5 -2.5q-28 0 -48 7.5t-32.5 19.5t-18 27t-5.5 29q0 29 14.5 61t41.5 61h-74q-42 0 -72.5 11.5t-50.5 32t-29.5 47.5t-9.5 58v16.5t2 16.5l16 105q7 47 25.5 81t46.5 55.5t63.5 32
t76.5 10.5h28zM249 357q-35 0 -52 -19.5t-22 -48.5l-3 -18q21 -2 31 -2.5t24 -0.5q34 0 53 7t28.5 16.5t12 19.5t2.5 16q0 10 -9 20t-28 10h-37z" />
    <glyph glyph-name="Ecaron" unicode="&#x11a;" horiz-adv-x="534" 
d="M86 0q-53 0 -53 44v6.5t1 7.5l87 552q9 58 70 58h331q46 0 46 -43q0 -34 -17.5 -53.5t-46.5 -19.5h-272l-23 -142h230q23 0 34 -11t11 -31q0 -34 -16.5 -53.5t-46.5 -19.5h-230l-28 -179h272q23 0 34.5 -12t11.5 -33q0 -32 -17.5 -51.5t-46.5 -19.5h-331zM347 684
q-10 0 -17.5 2.5t-17.5 9.5l-132 91q-16 12 -16 30q0 19 16 38t41 19q17 0 29 -8l109 -65l130 62q18 9 35 9q15 0 29.5 -13t14.5 -34q0 -22 -25 -38l-157 -91q-11 -6 -20.5 -8.5t-18.5 -3.5z" />
    <glyph glyph-name="ecaron" unicode="&#x11b;" horiz-adv-x="467" 
d="M249 357q-35 0 -52 -19.5t-22 -48.5l-3 -18q21 -2 31 -2.5t24 -0.5q34 0 53 7t28.5 16.5t12 19.5t2.5 16q0 10 -9 20t-28 10h-37zM294 466q69 0 111 -36t42 -102q0 -24 -9 -51t-33.5 -50.5t-66.5 -38.5t-108 -15q-21 0 -39.5 1.5t-34.5 3.5l-2 -13q-1 -4 -1 -7.5v-6.5
q0 -37 49 -37h136q18 0 35 -14t17 -40q0 -18 -6.5 -29.5t-15.5 -18.5t-18.5 -9.5t-15.5 -2.5h-136q-42 0 -72.5 11.5t-50.5 32t-29.5 47.5t-9.5 58v16.5t2 16.5l16 105q7 47 25.5 81t46.5 55.5t63.5 32t76.5 10.5h28zM284 515q-10 0 -19.5 2t-17.5 10l-123 119
q-13 12 -13 29q0 18 14.5 35t39.5 17q9 0 18 -2.5t16 -9.5l92 -92l122 94q9 7 18.5 10t17.5 4q15 0 30.5 -12.5t15.5 -32.5q2 -21 -21 -39l-153 -120q-10 -8 -19 -10t-18 -2z" />
    <glyph glyph-name="Gcircumflex" unicode="&#x11c;" horiz-adv-x="587" 
d="M215 0q-37 0 -68.5 9.5t-54 30t-35 51t-12.5 72.5q0 12 1 24t3 26l38 246q17 105 71 157t142 52h226q46 0 46 -43q0 -33 -17 -53t-47 -20h-209q-38 0 -62 -24t-30 -64l-41 -261q-1 -5 -1.5 -10.5t-0.5 -10.5q0 -31 17 -48t49 -17h175l28 178h-83q-23 0 -35 12t-12 33
q0 33 18 51.5t47 18.5h143q23 0 38 -8t15 -32q0 -4 -0.5 -8t-1.5 -9l-46 -295q-4 -27 -20.5 -42.5t-46.5 -15.5h-234zM383 882q18 0 35 -12l134 -93q14 -10 14 -28q0 -22 -16 -37.5t-34 -15.5q-9 0 -17.5 2.5t-17.5 7.5l-108 57l-133 -64q-18 -8 -32 -8q-23 0 -33.5 14.5
t-10.5 31.5q0 26 26 42l154 91q13 8 21 10t18 2z" />
    <glyph glyph-name="gcircumflex" unicode="&#x11d;" horiz-adv-x="507" 
d="M219 -89q80 0 91 74l6 38q-25 -13 -56 -20t-54 -7q-46 0 -78 12t-52.5 32.5t-29.5 49t-9 61.5q0 19 3 40l14 94q13 87 65.5 134t140.5 47h58q45 0 75.5 -12t50 -32.5t28 -48t8.5 -57.5q0 -11 -1 -21.5t-3 -21.5l-47 -293q-14 -89 -66 -135.5t-140 -46.5h-150
q-15 0 -28.5 12t-13.5 35q0 18 6 30.5t15 20.5t19 11.5t19 3.5h129zM356 283q1 5 1.5 10t0.5 10q0 20 -11 34.5t-40 14.5h-48q-35 0 -57 -18.5t-28 -53.5l-16 -99q-1 -5 -1 -9v-9q0 -25 13 -39.5t42 -14.5q22 0 56 7.5t65 22.5zM332 725q21 2 35 -14l125 -122q10 -10 10 -25
q0 -21 -17.5 -37.5t-37.5 -16.5q-19 0 -32 13l-96 90l-114 -88q-15 -12 -34 -12q-21 0 -36.5 17.5t-15.5 36.5q-1 16 18 31l154 115q11 8 21 10t20 2z" />
    <glyph glyph-name="Gbreve" unicode="&#x11e;" horiz-adv-x="587" 
d="M215 0q-37 0 -68.5 9.5t-54 30t-35 51t-12.5 72.5q0 12 1 24t3 26l38 246q17 105 71 157t142 52h226q46 0 46 -43q0 -33 -17 -53t-47 -20h-209q-38 0 -62 -24t-30 -64l-41 -261q-1 -5 -1.5 -10.5t-0.5 -10.5q0 -31 17 -48t49 -17h175l28 178h-83q-23 0 -35 12t-12 33
q0 33 18 51.5t47 18.5h143q23 0 38 -8t15 -32q0 -4 -0.5 -8t-1.5 -9l-46 -295q-4 -27 -20.5 -42.5t-46.5 -15.5h-234zM375 781q28 0 56.5 19t56.5 64q8 14 18.5 19t21.5 5q17 0 31.5 -12t14.5 -29q0 -11 -5 -20q-21 -44 -48.5 -71t-55 -42t-53 -20t-43.5 -5q-20 0 -44.5 5.5
t-48.5 20.5t-44 42t-32 69q-1 4 -1 11q0 16 15 32.5t38 16.5q12 0 22 -5t15 -18q14 -37 35 -59.5t51 -22.5z" />
    <glyph glyph-name="gbreve" unicode="&#x11f;" horiz-adv-x="507" 
d="M219 -89q80 0 91 74l6 38q-25 -13 -56 -20t-54 -7q-46 0 -78 12t-52.5 32.5t-29.5 49t-9 61.5q0 19 3 40l14 94q13 87 65.5 134t140.5 47h58q45 0 75.5 -12t50 -32.5t28 -48t8.5 -57.5q0 -11 -1 -21.5t-3 -21.5l-47 -293q-14 -89 -66 -135.5t-140 -46.5h-150
q-15 0 -28.5 12t-13.5 35q0 18 6 30.5t15 20.5t19 11.5t19 3.5h129zM356 283q1 5 1.5 10t0.5 10q0 20 -11 34.5t-40 14.5h-48q-35 0 -57 -18.5t-28 -53.5l-16 -99q-1 -5 -1 -9v-9q0 -25 13 -39.5t42 -14.5q22 0 56 7.5t65 22.5zM312 609q28 0 56.5 19t56.5 64q8 14 18.5 19
t21.5 5q17 0 31.5 -12t14.5 -29q0 -11 -5 -20q-21 -44 -48.5 -71t-55 -42t-53 -20t-43.5 -5q-20 0 -44.5 5.5t-48.5 20.5t-44 42t-32 69q-1 4 -1 11q0 16 15 32.5t38 16.5q12 0 22 -5t15 -18q14 -37 35 -59.5t51 -22.5z" />
    <glyph glyph-name="Gdotaccent" unicode="&#x120;" horiz-adv-x="587" 
d="M215 0q-37 0 -68.5 9.5t-54 30t-35 51t-12.5 72.5q0 12 1 24t3 26l38 246q17 105 71 157t142 52h226q46 0 46 -43q0 -33 -17 -53t-47 -20h-209q-38 0 -62 -24t-30 -64l-41 -261q-1 -5 -1.5 -10.5t-0.5 -10.5q0 -31 17 -48t49 -17h175l28 178h-83q-23 0 -35 12t-12 33
q0 33 18 51.5t47 18.5h143q23 0 38 -8t15 -32q0 -4 -0.5 -8t-1.5 -9l-46 -295q-4 -27 -20.5 -42.5t-46.5 -15.5h-234zM373 701q-24 0 -41 15.5t-17 38.5q0 18 7 32t18.5 23.5t25 14t26.5 4.5q23 0 41 -13.5t18 -39.5q0 -31 -23.5 -53t-54.5 -22z" />
    <glyph glyph-name="gdotaccent" unicode="&#x121;" horiz-adv-x="507" 
d="M219 -89q80 0 91 74l6 38q-25 -13 -56 -20t-54 -7q-46 0 -78 12t-52.5 32.5t-29.5 49t-9 61.5q0 19 3 40l14 94q13 87 65.5 134t140.5 47h58q45 0 75.5 -12t50 -32.5t28 -48t8.5 -57.5q0 -11 -1 -21.5t-3 -21.5l-47 -293q-14 -89 -66 -135.5t-140 -46.5h-150
q-15 0 -28.5 12t-13.5 35q0 18 6 30.5t15 20.5t19 11.5t19 3.5h129zM356 283q1 5 1.5 10t0.5 10q0 20 -11 34.5t-40 14.5h-48q-35 0 -57 -18.5t-28 -53.5l-16 -99q-1 -5 -1 -9v-9q0 -25 13 -39.5t42 -14.5q22 0 56 7.5t65 22.5zM307 531q-24 0 -41 15.5t-17 38.5q0 18 7 32
t18.5 23.5t25 14t26.5 4.5q23 0 41 -13.5t18 -39.5q0 -31 -23.5 -53t-54.5 -22z" />
    <glyph glyph-name="Gcommaaccent" unicode="&#x122;" horiz-adv-x="587" 
d="M215 0q-37 0 -68.5 9.5t-54 30t-35 51t-12.5 72.5q0 12 1 24t3 26l38 246q17 105 71 157t142 52h226q46 0 46 -43q0 -33 -17 -53t-47 -20h-209q-38 0 -62 -24t-30 -64l-41 -261q-1 -5 -1.5 -10.5t-0.5 -10.5q0 -31 17 -48t49 -17h175l28 178h-83q-23 0 -35 12t-12 33
q0 33 18 51.5t47 18.5h143q23 0 38 -8t15 -32q0 -4 -0.5 -8t-1.5 -9l-46 -295q-4 -27 -20.5 -42.5t-46.5 -15.5h-234zM249 -224q-5 -9 -17 -17.5t-28 -8.5q-24 0 -33.5 12.5t-9.5 24.5q0 6 2 14l43 120q7 18 23.5 33t42.5 15q28 0 41 -15t13 -33q0 -15 -8 -28z" />
    <glyph glyph-name="gcommaaccent" unicode="&#x123;" horiz-adv-x="507" 
d="M330 704q5 9 17 17.5t28 8.5q24 0 34 -12.5t10 -24.5q0 -8 -3 -14l-43 -120q-6 -18 -23 -33t-43 -15q-28 0 -40.5 15t-12.5 33q0 17 7 28zM219 -89q80 0 91 74l6 38q-25 -13 -56 -20t-54 -7q-46 0 -78 12t-52.5 32.5t-29.5 49t-9 61.5q0 19 3 40l14 94q13 87 65.5 134
t140.5 47h58q45 0 75.5 -12t50 -32.5t28 -48t8.5 -57.5q0 -11 -1 -21.5t-3 -21.5l-47 -293q-14 -89 -66 -135.5t-140 -46.5h-150q-15 0 -28.5 12t-13.5 35q0 18 6 30.5t15 20.5t19 11.5t19 3.5h129zM356 283q1 5 1.5 10t0.5 10q0 20 -11 34.5t-40 14.5h-48q-35 0 -57 -18.5
t-28 -53.5l-16 -99q-1 -5 -1 -9v-9q0 -25 13 -39.5t42 -14.5q22 0 56 7.5t65 22.5z" />
    <glyph glyph-name="Hcircumflex" unicode="&#x124;" horiz-adv-x="592" 
d="M441 -5q-52 0 -52 41v6.5t1 7.5l39 245h-244l-39 -245q-5 -29 -21 -42t-46 -13q-53 0 -53 41v6.5t1 7.5l90 568q9 55 69 55q51 0 51 -41v-6.5t-1 -7.5l-33 -208h244l33 208q9 55 68 55q52 0 52 -41v-6.5t-1 -7.5l-90 -568q-5 -29 -21 -42t-47 -13zM391 882q18 0 35 -12
l134 -93q14 -10 14 -28q0 -22 -16 -37.5t-34 -15.5q-9 0 -17.5 2.5t-17.5 7.5l-108 57l-133 -64q-18 -8 -32 -8q-23 0 -33.5 14.5t-10.5 31.5q0 26 26 42l154 91q13 8 21 10t18 2z" />
    <glyph glyph-name="hcircumflex" unicode="&#x125;" horiz-adv-x="523" 
d="M373 281q1 5 1.5 9.5t0.5 9.5q0 32 -18 46.5t-47 14.5q-23 0 -53 -10t-68 -39l-43 -273q-1 -6 -4 -13.5t-9.5 -14.5t-17.5 -12t-28 -5q-35 0 -48 18t-9 40l94 598q3 17 19 32t45 15q28 0 42.5 -12.5t14.5 -28.5q0 -2 -0.5 -3t-0.5 -3l-36 -214q33 21 66 30t59 9
q88 0 125 -39t37 -105q0 -12 -1 -24t-3 -26l-39 -261q-3 -20 -8 -23t-22 -3q-40 0 -58.5 28t-18.5 66q0 7 0.5 14t1.5 14zM209 882q18 0 35 -12l134 -93q14 -10 14 -28q0 -22 -16 -37.5t-34 -15.5q-9 0 -17.5 2.5t-17.5 7.5l-108 57l-133 -64q-18 -8 -32 -8
q-23 0 -33.5 14.5t-10.5 31.5q0 26 26 42l154 91q13 8 21 10t18 2z" />
    <glyph glyph-name="Hbar" unicode="&#x126;" horiz-adv-x="592" 
d="M441 -5q-52 0 -52 41v6.5t1 7.5l39 245h-244l-39 -245q-5 -29 -21 -42t-46 -13q-53 0 -53 41v6.5t1 7.5l72 456h-22q-32 0 -32 32q0 27 12 38.5t33 11.5h22l5 30q9 55 69 55q51 0 51 -41v-6.5t-1 -7.5l-5 -30h244l5 30q9 55 68 55q52 0 52 -41v-6.5t-1 -7.5l-5 -30h14
q17 0 25 -10t8 -25q0 -27 -13 -37t-33 -10h-14l-72 -456q-5 -29 -21 -42t-47 -13zM447 410l15 96h-244l-15 -96h244z" />
    <glyph glyph-name="hbar" unicode="&#x127;" horiz-adv-x="524" 
d="M365 242q1 5 1.5 9.5t0.5 9.5q0 32 -18 46.5t-47 14.5q-23 0 -53 -10t-68 -39l-35 -234q-1 -6 -4 -13.5t-9.5 -14.5t-17.5 -12t-28 -5q-35 0 -48 18t-9 40l71 454h-19q-17 0 -24.5 9t-7.5 24q0 26 12.5 37.5t32.5 11.5h19l10 62q3 17 19 32t45 15q28 0 42.5 -12.5
t14.5 -28.5q0 -2 -0.5 -3t-0.5 -3l-11 -62h162q17 0 24.5 -10t7.5 -24q0 -28 -11.5 -38t-33.5 -10h-163l-19 -109q33 21 66 30t59 9q88 0 125 -39t37 -105q0 -12 -1 -24t-3 -26l-31 -222q-3 -20 -8 -23t-22 -3q-40 0 -58.5 28t-18.5 66q0 7 0.5 14t1.5 14z" />
    <glyph glyph-name="Itilde" unicode="&#x128;" horiz-adv-x="269" 
d="M99 -5q-53 0 -53 41v6.5t1 7.5l90 568q9 55 69 55q51 0 51 -41v-6.5t-1 -7.5l-90 -568q-5 -29 -21 -42t-46 -13zM149 817q19 0 38.5 -6.5t37.5 -14t33.5 -13.5t26.5 -6q12 0 20 6.5t15.5 14t16 14t22.5 6.5q12 0 20.5 -4.5t14.5 -11.5t9 -14t3 -12q0 -11 -7 -23
q-25 -39 -58.5 -53.5t-59.5 -14.5q-18 0 -36.5 6t-35.5 13.5t-33 13.5t-31 6q-8 0 -15.5 -6t-15.5 -13.5t-17.5 -13.5t-21.5 -6q-22 0 -34 15t-12 26q0 19 13 35.5t31.5 29t39.5 19.5t36 7z" />
    <glyph glyph-name="itilde" unicode="&#x129;" horiz-adv-x="321" 
d="M206 20q-3 -20 -8 -23t-22 -3q-24 0 -40 10.5t-25 27.5t-11.5 39t1.5 45l50 315q1 6 4 13.5t10 14.5t18.5 12t28.5 5q34 0 45 -18.5t8 -39.5zM153 647q19 0 38.5 -6.5t37.5 -14t33.5 -13.5t26.5 -6q12 0 20 6.5t15.5 14t16 14t22.5 6.5q12 0 20.5 -4.5t14.5 -11.5t9 -14
t3 -12q0 -11 -7 -23q-25 -39 -58.5 -53.5t-59.5 -14.5q-18 0 -36.5 6t-35.5 13.5t-33 13.5t-31 6q-8 0 -15.5 -6t-15.5 -13.5t-17.5 -13.5t-21.5 -6q-22 0 -34 15t-12 26q0 19 13 35.5t31.5 29t39.5 19.5t36 7z" />
    <glyph glyph-name="Imacron" unicode="&#x12a;" horiz-adv-x="269" 
d="M99 -5q-53 0 -53 41v6.5t1 7.5l90 568q9 55 69 55q51 0 51 -41v-6.5t-1 -7.5l-90 -568q-5 -29 -21 -42t-46 -13zM107 706q-25 0 -39.5 11t-14.5 32q0 30 20.5 42t49.5 12h204q25 0 39.5 -10.5t14.5 -30.5q0 -31 -20 -43.5t-50 -12.5h-204z" />
    <glyph glyph-name="imacron" unicode="&#x12b;" horiz-adv-x="287" 
d="M184 20q-3 -20 -8 -23t-22 -3q-24 0 -40 10.5t-25 27.5t-11.5 39t1.5 45l50 315q1 6 4 13.5t10 14.5t18.5 12t28.5 5q34 0 45 -18.5t8 -39.5zM92 515q-25 0 -39.5 10.5t-14.5 30.5q0 31 19.5 43.5t49.5 12.5h204q26 0 40.5 -10t14.5 -31q0 -30 -20.5 -43t-49.5 -13h-204z
" />
    <glyph glyph-name="Ibreve" unicode="&#x12c;" horiz-adv-x="269" 
d="M99 -5q-53 0 -53 41v6.5t1 7.5l90 568q9 55 69 55q51 0 51 -41v-6.5t-1 -7.5l-90 -568q-5 -29 -21 -42t-46 -13zM225 781q28 0 56.5 19t56.5 64q8 14 18.5 19t21.5 5q17 0 31.5 -12t14.5 -29q0 -11 -5 -20q-21 -44 -48.5 -71t-55 -42t-53 -20t-43.5 -5q-20 0 -44.5 5.5
t-48.5 20.5t-44 42t-32 69q-1 4 -1 11q0 16 15 32.5t38 16.5q12 0 22 -5t15 -18q14 -37 35 -59.5t51 -22.5z" />
    <glyph glyph-name="ibreve" unicode="&#x12d;" horiz-adv-x="340" 
d="M209 20q-3 -20 -8 -23t-22 -3q-24 0 -40 10.5t-25 27.5t-11.5 39t1.5 45l50 315q1 6 4 13.5t10 14.5t18.5 12t28.5 5q34 0 45 -18.5t8 -39.5zM230 615q28 0 56.5 19t56.5 64q8 14 18.5 19t21.5 5q17 0 31.5 -12t14.5 -29q0 -11 -5 -20q-21 -44 -48.5 -71t-55 -42t-53 -20
t-43.5 -5q-20 0 -44.5 5.5t-48.5 20.5t-44 42t-32 69q-1 4 -1 11q0 16 15 32.5t38 16.5q12 0 22 -5t15 -18q14 -37 35 -59.5t51 -22.5z" />
    <glyph glyph-name="Iogonek" unicode="&#x12e;" horiz-adv-x="269" 
d="M166 50q-6 -37 -32 -49q-29 -26 -45 -55t-16 -50q0 -14 8.5 -25t31.5 -11q6 0 14 2.5t16.5 5t15.5 5t11 2.5q14 0 23 -11t9 -24q0 -16 -12.5 -26.5t-30 -16.5t-37 -8.5t-33.5 -2.5q-28 0 -48 7.5t-32.5 19.5t-18 27t-5.5 29q0 32 18.5 68.5t52.5 68.5q-10 9 -10 30v6.5
t1 7.5l90 568q9 55 69 55q51 0 51 -41v-6.5t-1 -7.5l-90 -568v0z" />
    <glyph glyph-name="iogonek" unicode="&#x12f;" horiz-adv-x="257" 
d="M159 20q-4 -22 -11 -24q-26 -25 -41 -53t-15 -48q0 -14 8.5 -25t31.5 -11q6 0 14 2.5t16.5 5t15.5 5t11 2.5q14 0 23 -11t9 -24q0 -16 -12.5 -26.5t-30 -16.5t-37 -8.5t-33.5 -2.5q-28 0 -48 7.5t-32.5 19.5t-18 27t-5.5 29q0 33 20 71.5t57 70.5q-20 17 -26 45.5
t-1 60.5l50 315q1 6 4 13.5t10 14.5t18.5 12t28.5 5q34 0 45 -18.5t8 -39.5zM175 538q-24 0 -41 15.5t-17 38.5q0 18 7 32t18.5 23.5t25 14t26.5 4.5q23 0 41 -13.5t18 -39.5q0 -31 -23.5 -53t-54.5 -22z" />
    <glyph glyph-name="Idotaccent" unicode="&#x130;" horiz-adv-x="269" 
d="M99 -5q-53 0 -53 41v6.5t1 7.5l90 568q9 55 69 55q51 0 51 -41v-6.5t-1 -7.5l-90 -568q-5 -29 -21 -42t-46 -13zM215 701q-24 0 -41 15.5t-17 38.5q0 18 7 32t18.5 23.5t25 14t26.5 4.5q23 0 41 -13.5t18 -39.5q0 -31 -23.5 -53t-54.5 -22z" />
    <glyph glyph-name="IJ" unicode="&#x132;" horiz-adv-x="673" 
d="M100 -5q-53 0 -53 41v6.5t1 7.5l90 568q9 55 69 55q51 0 51 -41v-6.5t-1 -7.5l-90 -568q-5 -29 -21 -42t-46 -13zM268 0q-50 0 -50 42q0 40 20 57t51 17h86q48 0 69 24.5t27 63.5l65 413q9 56 69 56q51 0 51 -42v-6.5t-1 -7.5l-65 -410q-5 -34 -15 -70.5t-32 -67
t-60.5 -50t-99.5 -19.5h-115z" />
    <glyph glyph-name="ij" unicode="&#x133;" horiz-adv-x="520" 
d="M174 538q-24 0 -41 15.5t-17 38.5q0 18 7 32t18.5 23.5t25 14t26.5 4.5q23 0 41 -13.5t18 -39.5q0 -31 -23.5 -53t-54.5 -22zM158 20q-3 -20 -8 -23t-22 -3q-24 0 -40 10.5t-25 27.5t-11.5 39t1.5 45l50 315q1 6 4 13.5t10 14.5t18.5 12t28.5 5q34 0 45 -18.5t8 -39.5z
M366 430q1 6 4 13.5t10 14.5t18 12t28 5q31 0 44 -15t13 -34q0 -6 -1 -9l-67 -436q-15 -96 -63 -139.5t-145 -43.5h-49q-16 0 -28.5 12t-12.5 34q0 18 6 31t14.5 21.5t19 12.5t19.5 4h42q33 0 52 17.5t25 55.5zM437 538q-25 0 -42 15.5t-17 38.5q0 19 7.5 33t19 23.5
t25.5 14t26 4.5q23 0 40 -13t17 -39q0 -32 -22.5 -54.5t-53.5 -22.5z" />
    <glyph glyph-name="Jcircumflex" unicode="&#x134;" horiz-adv-x="433" 
d="M28 1q-50 0 -50 42q0 40 20 57t51 17h86q48 0 69 24.5t27 63.5l65 413q9 56 69 56q51 0 51 -42v-6.5t-1 -7.5l-65 -410q-5 -34 -15 -70.5t-32 -67t-60.5 -50t-99.5 -19.5h-115zM391 884q18 0 35 -12l134 -93q14 -10 14 -28q0 -22 -16 -37.5t-34 -15.5q-9 0 -17.5 2.5
t-17.5 7.5l-108 57l-133 -64q-18 -8 -32 -8q-23 0 -33.5 14.5t-10.5 31.5q0 26 26 42l154 91q13 8 21 10t18 2z" />
    <glyph glyph-name="jcircumflex" unicode="&#x135;" horiz-adv-x="340" 
d="M153 430q1 6 4 13.5t10 14.5t18 12t28 5q34 0 46.5 -18.5t9.5 -39.5l-67 -436q-15 -96 -63 -139.5t-145 -43.5h-49q-18 0 -31.5 15.5t-8.5 42.5q5 29 23 43t35 14h42q33 0 52 17.5t25 55.5zM249 725q21 2 35 -14l125 -122q10 -10 10 -25q0 -21 -17.5 -37.5t-37.5 -16.5
q-19 0 -32 13l-96 90l-114 -88q-15 -12 -34 -12q-21 0 -36.5 17.5t-15.5 36.5q-1 16 18 31l154 115q11 8 21 10t20 2z" />
    <glyph glyph-name="Kcommaaccent" unicode="&#x136;" horiz-adv-x="555" 
d="M215 421l296 236q22 17 42 17q9 0 19 -5t18.5 -13t14 -18.5t5.5 -21.5t-4.5 -19.5t-10.5 -13.5l-256 -203q42 -71 84 -145.5t84 -146.5q10 -17 10 -33q0 -13 -6.5 -24t-16 -18.5t-21 -12t-20.5 -4.5q-28 0 -45 28q-40 71 -80 143t-82 142l-61 -48l-33 -208
q-9 -58 -68 -58q-52 0 -52 43q0 10 1 15l89 562q9 58 69 58q51 0 51 -43q0 -10 -1 -15l-29 -194h3zM232 -204q-5 -9 -17 -17.5t-28 -8.5q-24 0 -33.5 12.5t-9.5 24.5q0 6 2 14l43 120q7 18 23.5 33t42.5 15q28 0 41 -15t13 -33q0 -15 -8 -28z" />
    <glyph glyph-name="kcommaaccent" unicode="&#x137;" horiz-adv-x="461" 
d="M397 4q-19 -8 -35 -8q-37 0 -48 29l-85 219l-69 -42l-25 -160q-2 -17 -18 -32t-48 -15q-26 0 -39.5 13t-13.5 29v5l96 608q3 17 19.5 32t45.5 15q28 0 41.5 -12.5t13.5 -27.5q0 -5 -1 -7l-49 -312l206 129q16 10 32 10q24 0 39 -17.5t15 -37.5q0 -11 -5.5 -22.5
t-19.5 -19.5l-117 -73l94 -232q3 -9 3 -19q0 -16 -8.5 -31t-23.5 -21zM192 -224q-5 -9 -17 -17.5t-28 -8.5q-24 0 -33.5 12.5t-9.5 24.5q0 6 2 14l43 120q7 18 23.5 33t42.5 15q28 0 41 -15t13 -33q0 -15 -8 -28z" />
    <glyph glyph-name="kgreenlandic" unicode="&#x138;" horiz-adv-x="461" 
d="M397 4q-19 -8 -35 -8q-37 0 -48 29l-85 219l-69 -42l-25 -160q-2 -17 -18 -32t-48 -15q-26 0 -39.5 13t-13.5 29v5l62 391q3 17 21 32t47 15q28 0 40 -12t12 -27q0 -5 -1 -8l-15 -95l206 129q16 10 32 10q24 0 39 -17.5t15 -37.5q0 -11 -5.5 -22.5t-19.5 -19.5l-117 -73
l94 -232q3 -9 3 -19q0 -16 -8.5 -31t-23.5 -21z" />
    <glyph glyph-name="Lacute" unicode="&#x139;" horiz-adv-x="511" 
d="M86 0q-53 0 -53 44v6.5t1 7.5l88 557q9 58 70 58q51 0 51 -44v-6.5t-1 -7.5l-79 -499h271q24 0 35.5 -12t11.5 -33q0 -32 -18 -51.5t-47 -19.5h-330zM205 694q-9 -3 -20 -3q-13 0 -26 7.5t-13 28.5q0 14 8.5 24.5t19.5 17.5l121 72q21 13 43 13q17 0 35.5 -13t18.5 -41
q0 -20 -14.5 -36.5t-37.5 -24.5z" />
    <glyph glyph-name="lacute" unicode="&#x13a;" horiz-adv-x="250" 
d="M159 20q-3 -20 -8 -23t-22 -3q-24 0 -40 10.5t-25 27.5t-11.5 39t1.5 45l86 536q1 6 4 13.5t10 14.5t18.5 12t28.5 5q34 0 45 -18.5t8 -39.5zM211 724q-9 -3 -20 -3q-13 0 -26 7.5t-13 28.5q0 14 8.5 24.5t19.5 17.5l121 72q21 13 43 13q17 0 35.5 -13t18.5 -41
q0 -20 -14.5 -36.5t-37.5 -24.5z" />
    <glyph glyph-name="Lcommaaccent" unicode="&#x13b;" horiz-adv-x="511" 
d="M86 0q-53 0 -53 44v6.5t1 7.5l88 557q9 58 70 58q51 0 51 -44v-6.5t-1 -7.5l-79 -499h271q24 0 35.5 -12t11.5 -33q0 -32 -18 -51.5t-47 -19.5h-330zM202 -224q-5 -9 -17 -17.5t-28 -8.5q-24 0 -33.5 12.5t-9.5 24.5q0 6 2 14l43 120q7 18 23.5 33t42.5 15q28 0 41 -15
t13 -33q0 -15 -8 -28z" />
    <glyph glyph-name="lcommaaccent" unicode="&#x13c;" horiz-adv-x="250" 
d="M159 20q-3 -20 -8 -23t-22 -3q-24 0 -40 10.5t-25 27.5t-11.5 39t1.5 45l86 536q1 6 4 13.5t10 14.5t18.5 12t28.5 5q34 0 45 -18.5t8 -39.5zM85 -224q-5 -9 -17 -17.5t-28 -8.5q-24 0 -33.5 12.5t-9.5 24.5q0 6 2 14l43 120q7 18 23.5 33t42.5 15q28 0 41 -15t13 -33
q0 -15 -8 -28z" />
    <glyph glyph-name="Lcaron" unicode="&#x13d;" horiz-adv-x="511" 
d="M86 0q-53 0 -53 44v6.5t1 7.5l88 557q9 58 70 58q51 0 51 -44v-6.5t-1 -7.5l-79 -499h271q24 0 35.5 -12t11.5 -33q0 -32 -18 -51.5t-47 -19.5h-330zM419 481q-5 -9 -17 -17.5t-28 -8.5q-24 0 -33.5 12.5t-9.5 24.5q0 6 2 14l43 120q7 18 23.5 33t42.5 15q28 0 41 -15
t13 -33q0 -15 -8 -28z" />
    <glyph glyph-name="lcaron" unicode="&#x13e;" horiz-adv-x="383" 
d="M376 504q-5 -9 -17 -17.5t-28 -8.5q-24 0 -33.5 12.5t-9.5 24.5q0 6 2 14l43 120q7 18 23.5 33t42.5 15q28 0 41 -15t13 -33q0 -15 -8 -28zM159 20q-3 -20 -8 -23t-22 -3q-24 0 -40 10.5t-25 27.5t-11.5 39t1.5 45l86 536q1 6 4 13.5t10 14.5t18.5 12t28.5 5
q34 0 45 -18.5t8 -39.5z" />
    <glyph glyph-name="Ldot" unicode="&#x13f;" horiz-adv-x="511" 
d="M86 0q-53 0 -53 44v6.5t1 7.5l88 557q9 58 70 58q51 0 51 -44v-6.5t-1 -7.5l-79 -499h271q24 0 35.5 -12t11.5 -33q0 -32 -18 -51.5t-47 -19.5h-330zM389 295q-24 0 -41 15.5t-17 38.5q0 18 7 32t18.5 23.5t25 14t26.5 4.5q23 0 41 -13.5t18 -39.5q0 -31 -23.5 -53
t-54.5 -22z" />
    <glyph glyph-name="ldot" unicode="&#x140;" horiz-adv-x="401" 
d="M337 295q-24 0 -41 15.5t-17 38.5q0 18 7 32t18.5 23.5t25 14t26.5 4.5q23 0 41 -13.5t18 -39.5q0 -31 -23.5 -53t-54.5 -22zM159 20q-3 -20 -8 -23t-22 -3q-24 0 -40 10.5t-25 27.5t-11.5 39t1.5 45l86 536q1 6 4 13.5t10 14.5t18.5 12t28.5 5q34 0 45 -18.5t8 -39.5z
" />
    <glyph glyph-name="Lslash" unicode="&#x141;" horiz-adv-x="529" 
d="M104 0q-53 0 -53 44v6.5t1 7.5l20 129l-8 -5q-10 -5 -17.5 -8.5t-14.5 -3.5q-4 0 -10.5 3.5t-12.5 9.5t-10 14t-4 17q1 20 29 35l64 36l52 330q9 58 70 58q51 0 51 -44v-6.5t-1 -7.5l-41 -255l35 20q20 11 32 11q11 0 24 -13t13 -31q0 -11 -7.5 -18.5t-21.5 -15.5
l-90 -51l-23 -146h271q24 0 35.5 -12t11.5 -33q0 -32 -18 -51.5t-47 -19.5h-330z" />
    <glyph glyph-name="lslash" unicode="&#x142;" horiz-adv-x="322" 
d="M240 384l16 9q20 11 32 11q11 0 24 -13t13 -31q0 -11 -7.5 -18.5t-21.5 -15.5l-71 -40l-41 -266q-3 -20 -8 -23t-22 -3q-24 0 -40 10.5t-25 27.5t-11.5 39t1.5 45l15 97l-15 -9q-10 -5 -17.5 -8.5t-14.5 -3.5q-4 0 -10 3.5t-12 9.5t-10 14t-4 17q0 19 28 35l71 40l55 341
q1 6 4 13.5t10 14.5t18.5 12t28.5 5q34 0 45 -18.5t8 -39.5z" />
    <glyph glyph-name="Nacute" unicode="&#x143;" horiz-adv-x="619" 
d="M440 233l62 386q9 55 68 55q53 0 53 -42q0 -8 -1 -13l-89 -561q-9 -58 -69 -58h-30q-23 0 -34 10.5t-18 27.5l-164 407h-3l-63 -396q-5 -29 -21.5 -42t-46.5 -13q-53 0 -53 41q0 9 1 14l89 561q9 58 69 58h32q27 0 38 -14t19 -33q41 -99 78.5 -193t78.5 -195h4zM359 694
q-9 -3 -20 -3q-13 0 -26 7.5t-13 28.5q0 14 8.5 24.5t19.5 17.5l121 72q21 13 43 13q17 0 35.5 -13t18.5 -41q0 -20 -14.5 -36.5t-37.5 -24.5z" />
    <glyph glyph-name="nacute" unicode="&#x144;" horiz-adv-x="523" 
d="M371 281q1 5 1.5 9.5t0.5 9.5q0 32 -18.5 46t-47.5 14q-23 0 -52 -9t-66 -38l-44 -272q-1 -6 -4 -13.5t-9.5 -14.5t-17 -12t-26.5 -5q-33 0 -46 15t-13 34l1 9l60 393q3 19 10.5 23t24.5 4q30 0 47 -14t24 -31q35 23 69.5 34.5t63.5 11.5q88 0 126.5 -39t38.5 -107
q0 -25 -4 -48l-39 -261q-3 -20 -8 -23t-22 -3q-41 0 -59 29t-18 67q0 6 0.5 12t1.5 12zM317 536q-16 -16 -34 -16q-14 0 -27 10.5t-13 24.5q0 8 3.5 16t8.5 15l88 127q11 17 25.5 24.5t28.5 7.5q23 0 39 -17.5t16 -37.5q0 -22 -20 -41z" />
    <glyph glyph-name="Ncommaaccent" unicode="&#x145;" horiz-adv-x="619" 
d="M440 233l62 386q9 55 68 55q53 0 53 -42q0 -8 -1 -13l-89 -561q-9 -58 -69 -58h-30q-23 0 -34 10.5t-18 27.5l-164 407h-3l-63 -396q-5 -29 -21.5 -42t-46.5 -13q-53 0 -53 41q0 9 1 14l89 561q9 58 69 58h32q27 0 38 -14t19 -33q41 -99 78.5 -193t78.5 -195h4zM244 -204
q-5 -9 -17 -17.5t-28 -8.5q-24 0 -33.5 12.5t-9.5 24.5q0 6 2 14l43 120q7 18 23.5 33t42.5 15q28 0 41 -15t13 -33q0 -15 -8 -28z" />
    <glyph glyph-name="ncommaaccent" unicode="&#x146;" horiz-adv-x="523" 
d="M371 281q1 5 1.5 9.5t0.5 9.5q0 32 -18.5 46t-47.5 14q-23 0 -52 -9t-66 -38l-44 -272q-1 -6 -4 -13.5t-9.5 -14.5t-17 -12t-26.5 -5q-33 0 -46 15t-13 34l1 9l60 393q3 19 10.5 23t24.5 4q30 0 47 -14t24 -31q35 23 69.5 34.5t63.5 11.5q88 0 126.5 -39t38.5 -107
q0 -25 -4 -48l-39 -261q-3 -20 -8 -23t-22 -3q-41 0 -59 29t-18 67q0 6 0.5 12t1.5 12zM219 -224q-5 -9 -17 -17.5t-28 -8.5q-24 0 -33.5 12.5t-9.5 24.5q0 6 2 14l43 120q7 18 23.5 33t42.5 15q28 0 41 -15t13 -33q0 -15 -8 -28z" />
    <glyph glyph-name="Ncaron" unicode="&#x147;" horiz-adv-x="619" 
d="M440 233l62 386q9 55 68 55q53 0 53 -42q0 -8 -1 -13l-89 -561q-9 -58 -69 -58h-30q-23 0 -34 10.5t-18 27.5l-164 407h-3l-63 -396q-5 -29 -21.5 -42t-46.5 -13q-53 0 -53 41q0 9 1 14l89 561q9 58 69 58h32q27 0 38 -14t19 -33q41 -99 78.5 -193t78.5 -195h4zM377 684
q-10 0 -17.5 2.5t-17.5 9.5l-132 91q-16 12 -16 30q0 19 16 38t41 19q17 0 29 -8l109 -65l130 62q18 9 35 9q15 0 29.5 -13t14.5 -34q0 -22 -25 -38l-157 -91q-11 -6 -20.5 -8.5t-18.5 -3.5z" />
    <glyph glyph-name="ncaron" unicode="&#x148;" horiz-adv-x="523" 
d="M371 281q1 5 1.5 9.5t0.5 9.5q0 32 -18.5 46t-47.5 14q-23 0 -52 -9t-66 -38l-44 -272q-1 -6 -4 -13.5t-9.5 -14.5t-17 -12t-26.5 -5q-33 0 -46 15t-13 34l1 9l60 393q3 19 10.5 23t24.5 4q30 0 47 -14t24 -31q35 23 69.5 34.5t63.5 11.5q88 0 126.5 -39t38.5 -107
q0 -25 -4 -48l-39 -261q-3 -20 -8 -23t-22 -3q-41 0 -59 29t-18 67q0 6 0.5 12t1.5 12zM301 515q-10 0 -19.5 2t-17.5 10l-123 119q-13 12 -13 29q0 18 14.5 35t39.5 17q9 0 18 -2.5t16 -9.5l92 -92l122 94q9 7 18.5 10t17.5 4q15 0 30.5 -12.5t15.5 -32.5q2 -21 -21 -39
l-153 -120q-10 -8 -19 -10t-18 -2z" />
    <glyph glyph-name="napostrophe" unicode="&#x149;" horiz-adv-x="615" 
d="M463 281q1 5 1.5 9.5t0.5 9.5q0 32 -18.5 46t-47.5 14q-23 0 -52 -9t-66 -38l-44 -272q-1 -6 -4 -13.5t-9.5 -14.5t-17 -12t-26.5 -5q-33 0 -46 15t-13 34l1 9l60 393q3 19 10.5 23t24.5 4q30 0 47 -14t24 -31q35 23 69.5 34.5t63.5 11.5q88 0 126.5 -39t38.5 -107
q0 -25 -4 -48l-39 -261q-3 -20 -8 -23t-22 -3q-41 0 -59 29t-18 67q0 6 0.5 12t1.5 12zM152 503q-5 -9 -17 -17.5t-28 -8.5q-24 0 -33.5 12.5t-9.5 24.5q0 6 2 14l43 120q7 18 23.5 33t42.5 15q28 0 41 -15t13 -33q0 -15 -8 -28z" />
    <glyph glyph-name="Eng" unicode="&#x14a;" horiz-adv-x="619" 
d="M440 233l62 386q9 55 68 55q53 0 53 -42q0 -8 -1 -13l-110 -701q-6 -42 -19.5 -68t-31 -40.5t-38 -19.5t-41.5 -5h-55q-23 0 -36 12.5t-13 34.5q0 26 16 45t38 19h23q14 0 22.5 7.5t13.5 20t7 28t4 31.5l-184 462h-3l-63 -396q-5 -29 -21.5 -42t-46.5 -13q-53 0 -53 41
q0 9 1 14l89 561q9 58 69 58h32q27 0 38 -14t19 -33q41 -99 78.5 -193t78.5 -195h4z" />
    <glyph glyph-name="eng" unicode="&#x14b;" horiz-adv-x="523" 
d="M371 281q1 5 1.5 9.5t0.5 9.5q0 32 -18.5 46t-47.5 14q-23 0 -52 -9t-66 -38l-44 -272q-1 -6 -4 -13.5t-9.5 -14.5t-17 -12t-26.5 -5q-32 0 -45.5 15t-13.5 34q0 2 0.5 4.5t0.5 4.5l60 393q3 19 10.5 23t24.5 4q30 0 47 -14t24 -31q35 23 69.5 34.5t63.5 11.5
q88 0 126.5 -39t38.5 -106q0 -11 -1 -23.5t-3 -25.5q-4 -24 -9 -58t-10.5 -71.5t-11.5 -76t-11 -70.5t-9 -55.5t-5 -31.5q-7 -42 -20 -68t-30.5 -40.5t-38 -19.5t-41.5 -5h-55q-23 0 -36 12.5t-13 34.5q0 26 16 45t38 19h23q20 0 29.5 14t12.5 36z" />
    <glyph glyph-name="Omacron" unicode="&#x14c;" horiz-adv-x="578" 
d="M389 668q81 0 128.5 -46.5t47.5 -130.5q0 -11 -1 -23t-3 -24l-35 -231q-16 -105 -73 -159t-148 -54h-84q-39 0 -71 11.5t-55 34t-36 55.5t-13 77q0 13 1.5 27t3.5 28l36 221q17 105 73.5 159.5t141.5 54.5h87zM448 462q1 6 1.5 11.5t0.5 10.5q0 32 -18.5 51.5t-63.5 19.5
h-64q-43 0 -66.5 -26.5t-30.5 -66.5l-41 -258q-1 -5 -1.5 -10.5t-0.5 -10.5q0 -32 18.5 -51t57.5 -19h67q45 0 69.5 27.5t30.5 65.5zM264 706q-25 0 -39.5 11t-14.5 32q0 30 20.5 42t49.5 12h204q25 0 39.5 -10.5t14.5 -30.5q0 -31 -20 -43.5t-50 -12.5h-204z" />
    <glyph glyph-name="omacron" unicode="&#x14d;" horiz-adv-x="501" 
d="M356 283q1 4 1 7.5v6.5q0 30 -18 44t-46 14h-41q-29 0 -52 -19t-30 -59l-15 -91q-1 -5 -1 -8.5v-8.5q0 -25 15 -40.5t47 -15.5h36q32 0 56.5 18.5t31.5 56.5zM199 0q-81 0 -122.5 41t-41.5 113q0 11 1 22t3 22l14 87q14 88 65 135.5t144 47.5h40q85 0 129 -43.5
t44 -115.5q0 -18 -3 -39l-14 -90q-14 -88 -66 -134t-138 -46h-55zM196 515q-25 0 -39.5 10.5t-14.5 30.5q0 31 19.5 43.5t49.5 12.5h204q26 0 40.5 -10t14.5 -31q0 -30 -20.5 -43t-49.5 -13h-204z" />
    <glyph glyph-name="Obreve" unicode="&#x14e;" horiz-adv-x="578" 
d="M389 668q81 0 128.5 -46.5t47.5 -130.5q0 -11 -1 -23t-3 -24l-35 -231q-16 -105 -73 -159t-148 -54h-84q-39 0 -71 11.5t-55 34t-36 55.5t-13 77q0 13 1.5 27t3.5 28l36 221q17 105 73.5 159.5t141.5 54.5h87zM448 462q1 6 1.5 11.5t0.5 10.5q0 32 -18.5 51.5t-63.5 19.5
h-64q-43 0 -66.5 -26.5t-30.5 -66.5l-41 -258q-1 -5 -1.5 -10.5t-0.5 -10.5q0 -32 18.5 -51t57.5 -19h67q45 0 69.5 27.5t30.5 65.5zM372 781q28 0 56.5 19t56.5 64q8 14 18.5 19t21.5 5q17 0 31.5 -12t14.5 -29q0 -11 -5 -20q-21 -44 -48.5 -71t-55 -42t-53 -20t-43.5 -5
q-20 0 -44.5 5.5t-48.5 20.5t-44 42t-32 69q-1 4 -1 11q0 16 15 32.5t38 16.5q12 0 22 -5t15 -18q14 -37 35 -59.5t51 -22.5z" />
    <glyph glyph-name="obreve" unicode="&#x14f;" horiz-adv-x="501" 
d="M356 283q1 4 1 7.5v6.5q0 30 -18 44t-46 14h-41q-29 0 -52 -19t-30 -59l-15 -91q-1 -5 -1 -8.5v-8.5q0 -25 15 -40.5t47 -15.5h36q32 0 56.5 18.5t31.5 56.5zM199 0q-81 0 -122.5 41t-41.5 113q0 11 1 22t3 22l14 87q14 88 65 135.5t144 47.5h40q85 0 129 -43.5
t44 -115.5q0 -18 -3 -39l-14 -90q-14 -88 -66 -134t-138 -46h-55zM306 609q28 0 56.5 19t56.5 64q8 14 18.5 19t21.5 5q17 0 31.5 -12t14.5 -29q0 -11 -5 -20q-21 -44 -48.5 -71t-55 -42t-53 -20t-43.5 -5q-20 0 -44.5 5.5t-48.5 20.5t-44 42t-32 69q-1 4 -1 11
q0 16 15 32.5t38 16.5q12 0 22 -5t15 -18q14 -37 35 -59.5t51 -22.5z" />
    <glyph glyph-name="Ohungarumlaut" unicode="&#x150;" horiz-adv-x="578" 
d="M389 668q81 0 128.5 -46.5t47.5 -130.5q0 -11 -1 -23t-3 -24l-35 -231q-16 -105 -73 -159t-148 -54h-84q-39 0 -71 11.5t-55 34t-36 55.5t-13 77q0 13 1.5 27t3.5 28l36 221q17 105 73.5 159.5t141.5 54.5h87zM448 462q1 6 1.5 11.5t0.5 10.5q0 32 -18.5 51.5t-63.5 19.5
h-64q-43 0 -66.5 -26.5t-30.5 -66.5l-41 -258q-1 -5 -1.5 -10.5t-0.5 -10.5q0 -32 18.5 -51t57.5 -19h67q45 0 69.5 27.5t30.5 65.5zM464 699q-12 -9 -31 -9q-16 0 -26 8t-10 24q0 12 6.5 23t15.5 19l101 94q11 11 26 18.5t30 7.5q17 0 33 -13.5t16 -36.5q0 -17 -10 -33.5
t-28 -27.5zM276 699q-12 -9 -31 -9q-16 0 -26 8t-10 24q0 12 6.5 23t15.5 19l101 94q11 11 26 18.5t30 7.5q17 0 33 -13.5t16 -36.5q1 -17 -9.5 -33.5t-28.5 -27.5z" />
    <glyph glyph-name="ohungarumlaut" unicode="&#x151;" horiz-adv-x="501" 
d="M356 283q1 4 1 7.5v6.5q0 30 -18 44t-46 14h-41q-29 0 -52 -19t-30 -59l-15 -91q-1 -5 -1 -8.5v-8.5q0 -25 15 -40.5t47 -15.5h36q32 0 56.5 18.5t31.5 56.5zM199 0q-81 0 -122.5 41t-41.5 113q0 11 1 22t3 22l14 87q14 88 65 135.5t144 47.5h40q85 0 129 -43.5
t44 -115.5q0 -18 -3 -39l-14 -90q-14 -88 -66 -134t-138 -46h-55zM260 536q-16 -16 -34 -16q-14 0 -27 10.5t-13 24.5q0 8 3.5 16t8.5 15l88 127q11 17 25.5 24.5t28.5 7.5q23 0 39 -17.5t16 -37.5q0 -22 -20 -41zM420 536q-16 -16 -34 -16q-14 0 -27 10.5t-13 24.5
q0 8 3.5 16t8.5 15l88 127q11 17 25.5 24.5t28.5 7.5q23 0 39 -17.5t16 -37.5q0 -22 -20 -41z" />
    <glyph glyph-name="Racute" unicode="&#x154;" horiz-adv-x="562" 
d="M231 552l-30 -188h168q18 0 35 8t30 22.5t21 34.5t8 44q0 22 -7 37t-17 24.5t-22.5 13.5t-22.5 4h-163zM400 668q90 0 136 -48.5t46 -133.5q0 -35 -9 -69.5t-27.5 -65t-48 -54.5t-70.5 -37l71 -179q5 -13 5 -23q0 -26 -20 -44.5t-51 -18.5q-17 0 -29.5 7t-18.5 22
l-88 225h-113l-31 -196q-9 -58 -68 -58q-26 0 -39 12t-13 32q0 9 1 14l88 557q9 58 69 58h210zM349 694q-9 -3 -20 -3q-13 0 -26 7.5t-13 28.5q0 14 8.5 24.5t19.5 17.5l121 72q21 13 43 13q17 0 35.5 -13t18.5 -41q0 -20 -14.5 -36.5t-37.5 -24.5z" />
    <glyph glyph-name="racute" unicode="&#x155;" horiz-adv-x="388" 
d="M127 476q16 0 30 -7t24 -18t15 -26t3 -30l-3 -18h2q13 18 31.5 35t39.5 30.5t43.5 22t43.5 9.5q21 -15 30.5 -35.5t9.5 -40.5q0 -25 -12.5 -44t-32.5 -22q-23 -4 -43 -7.5t-40 -8t-40.5 -10t-44.5 -11.5l-39 -254q-1 -6 -4 -13.5t-9.5 -14.5t-17 -12t-26.5 -5
q-37 0 -49 18.5t-9 39.5l58 384q4 25 10.5 31.5t29.5 6.5zM270 536q-16 -16 -34 -16q-14 0 -27 10.5t-13 24.5q0 8 3.5 16t8.5 15l88 127q11 17 25.5 24.5t28.5 7.5q23 0 39 -17.5t16 -37.5q0 -22 -20 -41z" />
    <glyph glyph-name="Rcommaaccent" unicode="&#x156;" horiz-adv-x="562" 
d="M231 552l-30 -188h168q18 0 35 8t30 22.5t21 34.5t8 44q0 22 -7 37t-17 24.5t-22.5 13.5t-22.5 4h-163zM400 668q90 0 136 -48.5t46 -133.5q0 -35 -9 -69.5t-27.5 -65t-48 -54.5t-70.5 -37l71 -179q5 -13 5 -23q0 -26 -20 -44.5t-51 -18.5q-17 0 -29.5 7t-18.5 22
l-88 225h-113l-31 -196q-9 -58 -68 -58q-26 0 -39 12t-13 32q0 9 1 14l88 557q9 58 69 58h210zM238 -204q-5 -9 -17 -17.5t-28 -8.5q-24 0 -33.5 12.5t-9.5 24.5q0 6 2 14l43 120q7 18 23.5 33t42.5 15q28 0 41 -15t13 -33q0 -15 -8 -28z" />
    <glyph glyph-name="rcommaaccent" unicode="&#x157;" horiz-adv-x="388" 
d="M127 476q16 0 30 -7t24 -18t15 -26t3 -30l-3 -18h2q13 18 31.5 35t39.5 30.5t43.5 22t43.5 9.5q21 -15 30.5 -35.5t9.5 -40.5q0 -25 -12.5 -44t-32.5 -22q-23 -4 -43 -7.5t-40 -8t-40.5 -10t-44.5 -11.5l-39 -254q-1 -6 -4 -13.5t-9.5 -14.5t-17 -12t-26.5 -5
q-37 0 -49 18.5t-9 39.5l58 384q4 25 10.5 31.5t29.5 6.5zM39 -224q-5 -9 -17 -17.5t-28 -8.5q-24 0 -33.5 12.5t-9.5 24.5q0 6 2 14l43 120q7 18 23.5 33t42.5 15q28 0 41 -15t13 -33q0 -15 -8 -28z" />
    <glyph glyph-name="Rcaron" unicode="&#x158;" horiz-adv-x="562" 
d="M231 552l-30 -188h168q18 0 35 8t30 22.5t21 34.5t8 44q0 22 -7 37t-17 24.5t-22.5 13.5t-22.5 4h-163zM400 668q90 0 136 -48.5t46 -133.5q0 -35 -9 -69.5t-27.5 -65t-48 -54.5t-70.5 -37l71 -179q5 -13 5 -23q0 -26 -20 -44.5t-51 -18.5q-17 0 -29.5 7t-18.5 22
l-88 225h-113l-31 -196q-9 -58 -68 -58q-26 0 -39 12t-13 32q0 9 1 14l88 557q9 58 69 58h210zM345 684q-10 0 -17.5 2.5t-17.5 9.5l-132 91q-16 12 -16 30q0 19 16 38t41 19q17 0 29 -8l109 -65l130 62q18 9 35 9q15 0 29.5 -13t14.5 -34q0 -22 -25 -38l-157 -91
q-11 -6 -20.5 -8.5t-18.5 -3.5z" />
    <glyph glyph-name="rcaron" unicode="&#x159;" horiz-adv-x="388" 
d="M127 476q16 0 30 -7t24 -18t15 -26t3 -30l-3 -18h2q13 18 31.5 35t39.5 30.5t43.5 22t43.5 9.5q21 -15 30.5 -35.5t9.5 -40.5q0 -25 -12.5 -44t-32.5 -22q-23 -4 -43 -7.5t-40 -8t-40.5 -10t-44.5 -11.5l-39 -254q-1 -6 -4 -13.5t-9.5 -14.5t-17 -12t-26.5 -5
q-37 0 -49 18.5t-9 39.5l58 384q4 25 10.5 31.5t29.5 6.5zM238 515q-10 0 -19.5 2t-17.5 10l-123 119q-13 12 -13 29q0 18 14.5 35t39.5 17q9 0 18 -2.5t16 -9.5l92 -92l122 94q9 7 18.5 10t17.5 4q15 0 30.5 -12.5t15.5 -32.5q2 -21 -21 -39l-153 -120q-10 -8 -19 -10
t-18 -2z" />
    <glyph glyph-name="Sacute" unicode="&#x15a;" horiz-adv-x="531" 
d="M70 0q-13 0 -27 9.5t-14 35.5q0 20 7 33.5t17 22t19.5 12t15.5 3.5h213q13 0 25.5 5t22.5 14t16.5 22.5t6.5 31.5q0 46 -57 72l-110 50q-26 12 -49.5 24.5t-41 30.5t-28 43.5t-10.5 62.5q0 47 16 84t44.5 62t66.5 38t83 13h197q14 0 27.5 -11t13.5 -34q0 -22 -6.5 -35.5
t-16 -21.5t-19.5 -11t-17 -3h-197q-26 0 -47.5 -17t-21.5 -50q0 -22 10.5 -35.5t34.5 -24.5l113 -51q27 -12 52 -26t44.5 -34t31.5 -47.5t12 -67.5q0 -44 -15.5 -80.5t-43.5 -63t-67 -41.5t-86 -15h-215zM329 694q-9 -3 -20 -3q-13 0 -26 7.5t-13 28.5q0 14 8.5 24.5
t19.5 17.5l121 72q21 13 43 13q17 0 35.5 -13t18.5 -41q0 -20 -14.5 -36.5t-37.5 -24.5z" />
    <glyph glyph-name="sacute" unicode="&#x15b;" horiz-adv-x="448" 
d="M54 0q-14 0 -28.5 10.5t-14.5 38.5q0 21 7.5 34.5t17 21.5t20 11t16.5 3h188q14 0 23 6t9 16q0 18 -32 27l-103 31q-20 6 -40 14t-36 21.5t-25.5 33.5t-9.5 50q0 69 47 108.5t125 39.5h171q7 0 14.5 -2t14 -7.5t11 -15t4.5 -23.5q0 -22 -7.5 -35.5t-18 -20.5t-22 -9.5
t-19.5 -2.5h-166q-10 0 -19 -3.5t-9 -14.5q0 -5 8 -12t21 -11l105 -30q21 -6 41 -15t35 -23.5t24.5 -36t9.5 -52.5q0 -69 -47 -110.5t-127 -41.5h-188zM266 536q-16 -16 -34 -16q-14 0 -27 10.5t-13 24.5q0 8 3.5 16t8.5 15l88 127q11 17 25.5 24.5t28.5 7.5q23 0 39 -17.5
t16 -37.5q0 -22 -20 -41z" />
    <glyph glyph-name="Scircumflex" unicode="&#x15c;" horiz-adv-x="531" 
d="M70 0q-13 0 -27 9.5t-14 35.5q0 20 7 33.5t17 22t19.5 12t15.5 3.5h213q13 0 25.5 5t22.5 14t16.5 22.5t6.5 31.5q0 46 -57 72l-110 50q-26 12 -49.5 24.5t-41 30.5t-28 43.5t-10.5 62.5q0 47 16 84t44.5 62t66.5 38t83 13h197q14 0 27.5 -11t13.5 -34q0 -22 -6.5 -35.5
t-16 -21.5t-19.5 -11t-17 -3h-197q-26 0 -47.5 -17t-21.5 -50q0 -22 10.5 -35.5t34.5 -24.5l113 -51q27 -12 52 -26t44.5 -34t31.5 -47.5t12 -67.5q0 -44 -15.5 -80.5t-43.5 -63t-67 -41.5t-86 -15h-215zM344 882q18 0 35 -12l134 -93q14 -10 14 -28q0 -22 -16 -37.5
t-34 -15.5q-9 0 -17.5 2.5t-17.5 7.5l-108 57l-133 -64q-18 -8 -32 -8q-23 0 -33.5 14.5t-10.5 31.5q0 26 26 42l154 91q13 8 21 10t18 2z" />
    <glyph glyph-name="scircumflex" unicode="&#x15d;" horiz-adv-x="448" 
d="M54 0q-14 0 -28.5 10.5t-14.5 38.5q0 21 7.5 34.5t17 21.5t20 11t16.5 3h188q14 0 23 6t9 16q0 18 -32 27l-103 31q-20 6 -40 14t-36 21.5t-25.5 33.5t-9.5 50q0 69 47 108.5t125 39.5h171q7 0 14.5 -2t14 -7.5t11 -15t4.5 -23.5q0 -22 -7.5 -35.5t-18 -20.5t-22 -9.5
t-19.5 -2.5h-166q-10 0 -19 -3.5t-9 -14.5q0 -5 8 -12t21 -11l105 -30q21 -6 41 -15t35 -23.5t24.5 -36t9.5 -52.5q0 -69 -47 -110.5t-127 -41.5h-188zM290 725q21 2 35 -14l125 -122q10 -10 10 -25q0 -21 -17.5 -37.5t-37.5 -16.5q-19 0 -32 13l-96 90l-114 -88
q-15 -12 -34 -12q-21 0 -36.5 17.5t-15.5 36.5q-1 16 18 31l154 115q11 8 21 10t20 2z" />
    <glyph glyph-name="Scedilla" unicode="&#x15e;" horiz-adv-x="531" 
d="M234 -222q-15 0 -32 3t-31 8t-23 12.5t-9 16.5q0 13 12 26t24 13q10 0 26.5 -9t32.5 -9q23 0 33.5 10.5t10.5 21.5q0 7 -5 14.5t-23 7.5h-42q-16 0 -24 7t-8 18q0 8 5 18l35 64h-146q-13 0 -27 9.5t-14 35.5q0 20 7 33.5t17 22t19.5 12t15.5 3.5h213q13 0 25.5 5t22.5 14
t16.5 22.5t6.5 31.5q0 46 -57 72l-110 50q-26 12 -49.5 24.5t-41 30.5t-28 43.5t-10.5 62.5q0 47 16 84t44.5 62t66.5 38t83 13h197q14 0 27.5 -11t13.5 -34q0 -22 -6.5 -35.5t-16 -21.5t-19.5 -11t-17 -3h-197q-26 0 -47.5 -17t-21.5 -50q0 -22 10.5 -35.5t34.5 -24.5
l113 -51q27 -12 52 -26t44.5 -34t31.5 -47.5t12 -67.5q0 -44 -15.5 -80.5t-43.5 -63t-67 -41.5t-86 -15h-10l-29 -49h23q36 0 58.5 -20t22.5 -56q0 -18 -7 -35.5t-21.5 -31t-36 -22t-51.5 -8.5z" />
    <glyph glyph-name="scedilla" unicode="&#x15f;" horiz-adv-x="448" 
d="M175 -222q-15 0 -32 3t-31 8t-23 12.5t-9 16.5q0 13 12 26t24 13q10 0 26.5 -9t32.5 -9q23 0 33.5 10.5t10.5 21.5q0 7 -5 14.5t-23 7.5h-42q-16 0 -24 7t-8 18q0 8 5 18l35 64h-103q-14 0 -28.5 10.5t-14.5 38.5q0 21 7.5 34.5t17 21.5t20 11t16.5 3h188q14 0 23 6t9 16
q0 18 -32 27l-103 31q-20 6 -40 14t-36 21.5t-25.5 33.5t-9.5 50q0 69 47 108.5t125 39.5h171q7 0 14.5 -2t14 -7.5t11 -15t4.5 -23.5q0 -22 -7.5 -35.5t-18 -20.5t-22 -9.5t-19.5 -2.5h-166q-10 0 -19 -3.5t-9 -14.5q0 -5 8 -12t21 -11l105 -30q21 -6 41 -15t35 -23.5
t24.5 -36t9.5 -52.5q0 -69 -47 -110.5t-127 -41.5h-26l-29 -49h23q36 0 58.5 -20t22.5 -56q0 -18 -7 -35.5t-21.5 -31t-36 -22t-51.5 -8.5z" />
    <glyph glyph-name="Tcommaaccent" unicode="&#x162;" horiz-adv-x="526" 
d="M375 557l-80 -506q-9 -56 -69 -56q-51 0 -51 40v7.5t1 8.5l80 506h-141q-46 0 -46 44q0 34 17 50.5t46 16.5h400q48 0 48 -40q0 -32 -18 -51.5t-47 -19.5h-140zM204 -224q-5 -9 -17 -17.5t-28 -8.5q-24 0 -33.5 12.5t-9.5 24.5q0 6 2 14l43 120q7 18 23.5 33t42.5 15
q28 0 41 -15t13 -33q0 -15 -8 -28z" />
    <glyph glyph-name="tcommaaccent" unicode="&#x163;" horiz-adv-x="382" 
d="M317 110q17 0 31.5 -12t14.5 -35q0 -21 -7 -33.5t-17 -20t-21 -10t-19 -2.5h-62q-32 0 -60 8t-48 25t-31.5 42.5t-11.5 61.5q0 19 3 40l29 184h-43q-15 0 -28.5 9t-13.5 32q0 17 6 29t14.5 20t19 12t19.5 4h44l20 126q3 17 18.5 32t46.5 15q26 0 40 -12.5t14 -28.5
q0 -2 -0.5 -3t-0.5 -3l-20 -126h89q16 0 28 -10.5t12 -31.5q0 -18 -5.5 -30.5t-14 -20t-18.5 -10.5t-19 -3h-89l-26 -165q-3 -17 -3 -29q0 -29 15.5 -41.5t48.5 -12.5h45zM117 -224q-5 -9 -17 -17.5t-28 -8.5q-24 0 -33.5 12.5t-9.5 24.5q0 6 2 14l43 120q7 18 23.5 33
t42.5 15q28 0 41 -15t13 -33q0 -15 -8 -28z" />
    <glyph glyph-name="Tcaron" unicode="&#x164;" horiz-adv-x="526" 
d="M375 557l-80 -506q-9 -56 -69 -56q-51 0 -51 40v7.5t1 8.5l80 506h-141q-46 0 -46 44q0 34 17 50.5t46 16.5h400q48 0 48 -40q0 -32 -18 -51.5t-47 -19.5h-140zM338 684q-10 0 -17.5 2.5t-17.5 9.5l-132 91q-16 12 -16 30q0 19 16 38t41 19q17 0 29 -8l109 -65l130 62
q18 9 35 9q15 0 29.5 -13t14.5 -34q0 -22 -25 -38l-157 -91q-11 -6 -20.5 -8.5t-18.5 -3.5z" />
    <glyph glyph-name="tcaron" unicode="&#x165;" horiz-adv-x="427" 
d="M402 535q-5 -9 -17 -17.5t-28 -8.5q-24 0 -33.5 12.5t-9.5 24.5q0 6 2 14l43 120q7 18 23.5 33t42.5 15q28 0 41 -15t13 -33q0 -15 -8 -28zM313 110q17 0 31.5 -12t14.5 -35q0 -21 -7 -33.5t-17 -20t-21 -10t-19 -2.5h-62q-32 0 -60 8t-48 25t-31.5 42.5t-11.5 61.5
q0 19 3 40l29 184h-43q-15 0 -28.5 9t-13.5 32q0 17 6 29t14.5 20t19 12t19.5 4h44l20 126q3 17 18.5 32t46.5 15q26 0 40 -12.5t14 -28.5q0 -2 -0.5 -3t-0.5 -3l-20 -126h89q16 0 28 -10.5t12 -31.5q0 -18 -5.5 -30.5t-14 -20t-18.5 -10.5t-19 -3h-89l-26 -165
q-3 -17 -3 -29q0 -29 15.5 -41.5t48.5 -12.5h45z" />
    <glyph glyph-name="Tbar" unicode="&#x166;" horiz-adv-x="526" 
d="M375 557l-25 -159h124q35 0 35 -32q0 -27 -14 -38.5t-34 -11.5h-124l-42 -265q-9 -56 -69 -56q-51 0 -51 40v7.5t1 8.5l42 265h-130q-33 0 -33 32q0 50 46 50h130l25 159h-141q-46 0 -46 44q0 34 17 50.5t46 16.5h400q48 0 48 -40q0 -32 -18 -51.5t-47 -19.5h-140z" />
    <glyph glyph-name="tbar" unicode="&#x167;" horiz-adv-x="382" 
d="M317 110q17 0 31.5 -12t14.5 -35q0 -21 -7 -33.5t-17 -20t-21 -10t-19 -2.5h-62q-32 0 -60 8t-48 25t-31.5 42.5t-11.5 61.5q0 19 3 40l5 35h-56q-32 0 -32 31q0 23 11 38t34 13h56l11 67h-43q-15 0 -28.5 9t-13.5 32q0 17 6 29t14.5 20t19 12t19.5 4h44l20 126
q3 17 18.5 32t46.5 15q26 0 40 -12.5t14 -28.5q0 -2 -0.5 -3t-0.5 -3l-20 -126h89q16 0 28 -10.5t12 -31.5q0 -18 -5.5 -30.5t-14 -20t-18.5 -10.5t-19 -3h-89l-11 -67h109q17 0 25.5 -9t8.5 -24q0 -27 -13.5 -38t-33.5 -11h-109l-2 -16q-3 -17 -3 -29q0 -29 15.5 -41.5
t48.5 -12.5h45z" />
    <glyph glyph-name="Utilde" unicode="&#x168;" horiz-adv-x="611" 
d="M496 619q3 16 10 27t17 17t20.5 8.5t19.5 2.5q7 0 16 -2t17 -7t13 -13.5t5 -21.5v-5.5t-1 -6.5l-65 -410q-15 -98 -69.5 -153t-144.5 -55h-107q-36 0 -68 9.5t-55.5 30t-37 51.5t-13.5 74q0 26 4 49l65 404q3 17 10.5 28t18 17t21 8.5t19.5 2.5q16 0 33.5 -9.5
t17.5 -35.5q0 -7 -1 -11l-65 -415q-1 -7 -1.5 -13t-0.5 -11q0 -29 17 -45.5t59 -16.5h86q24 0 40.5 7.5t27.5 20t17 28t9 32.5zM317 817q19 0 38.5 -6.5t37.5 -14t33.5 -13.5t26.5 -6q12 0 20 6.5t15.5 14t16 14t22.5 6.5q12 0 20.5 -4.5t14.5 -11.5t9 -14t3 -12
q0 -11 -7 -23q-25 -39 -58.5 -53.5t-59.5 -14.5q-18 0 -36.5 6t-35.5 13.5t-33 13.5t-31 6q-8 0 -15.5 -6t-15.5 -13.5t-17.5 -13.5t-21.5 -6q-22 0 -34 15t-12 26q0 19 13 35.5t31.5 29t39.5 19.5t36 7z" />
    <glyph glyph-name="utilde" unicode="&#x169;" horiz-adv-x="512" 
d="M160 189q-1 -5 -1.5 -9.5t-0.5 -9.5q0 -32 18.5 -46t47.5 -14q23 0 52 9t66 38l44 272q1 6 4 13.5t9.5 14.5t17 12t26.5 5q33 0 46 -15t13 -34l-1 -9l-60 -393q-3 -19 -10.5 -23t-24.5 -4q-30 0 -47 14t-24 31q-35 -23 -69.5 -34.5t-63.5 -11.5q-88 0 -126.5 39
t-38.5 107q0 25 4 48l39 261q3 20 8 23t22 3q41 0 59 -29t18 -67q0 -6 -0.5 -12t-1.5 -12zM242 647q19 0 38.5 -6.5t37.5 -14t33.5 -13.5t26.5 -6q12 0 20 6.5t15.5 14t16 14t22.5 6.5q12 0 20.5 -4.5t14.5 -11.5t9 -14t3 -12q0 -11 -7 -23q-25 -39 -58.5 -53.5t-59.5 -14.5
q-18 0 -36.5 6t-35.5 13.5t-33 13.5t-31 6q-8 0 -15.5 -6t-15.5 -13.5t-17.5 -13.5t-21.5 -6q-22 0 -34 15t-12 26q0 19 13 35.5t31.5 29t39.5 19.5t36 7z" />
    <glyph glyph-name="Umacron" unicode="&#x16a;" horiz-adv-x="611" 
d="M496 619q3 16 10 27t17 17t20.5 8.5t19.5 2.5q7 0 16 -2t17 -7t13 -13.5t5 -21.5v-5.5t-1 -6.5l-65 -410q-15 -98 -69.5 -153t-144.5 -55h-107q-36 0 -68 9.5t-55.5 30t-37 51.5t-13.5 74q0 26 4 49l65 404q3 17 10.5 28t18 17t21 8.5t19.5 2.5q16 0 33.5 -9.5
t17.5 -35.5q0 -7 -1 -11l-65 -415q-1 -7 -1.5 -13t-0.5 -11q0 -29 17 -45.5t59 -16.5h86q24 0 40.5 7.5t27.5 20t17 28t9 32.5zM279 706q-25 0 -39.5 11t-14.5 32q0 30 20.5 42t49.5 12h204q25 0 39.5 -10.5t14.5 -30.5q0 -31 -20 -43.5t-50 -12.5h-204z" />
    <glyph glyph-name="umacron" unicode="&#x16b;" horiz-adv-x="512" 
d="M160 189q-1 -5 -1.5 -9.5t-0.5 -9.5q0 -32 18.5 -46t47.5 -14q23 0 52 9t66 38l44 272q1 6 4 13.5t9.5 14.5t17 12t26.5 5q33 0 46 -15t13 -34l-1 -9l-60 -393q-3 -19 -10.5 -23t-24.5 -4q-30 0 -47 14t-24 31q-35 -23 -69.5 -34.5t-63.5 -11.5q-88 0 -126.5 39
t-38.5 107q0 25 4 48l39 261q3 20 8 23t22 3q41 0 59 -29t18 -67q0 -6 -0.5 -12t-1.5 -12zM194 515q-25 0 -39.5 10.5t-14.5 30.5q0 31 19.5 43.5t49.5 12.5h204q26 0 40.5 -10t14.5 -31q0 -30 -20.5 -43t-49.5 -13h-204z" />
    <glyph glyph-name="Ubreve" unicode="&#x16c;" horiz-adv-x="611" 
d="M496 619q3 16 10 27t17 17t20.5 8.5t19.5 2.5q7 0 16 -2t17 -7t13 -13.5t5 -21.5v-5.5t-1 -6.5l-65 -410q-15 -98 -69.5 -153t-144.5 -55h-107q-36 0 -68 9.5t-55.5 30t-37 51.5t-13.5 74q0 26 4 49l65 404q3 17 10.5 28t18 17t21 8.5t19.5 2.5q16 0 33.5 -9.5
t17.5 -35.5q0 -7 -1 -11l-65 -415q-1 -7 -1.5 -13t-0.5 -11q0 -29 17 -45.5t59 -16.5h86q24 0 40.5 7.5t27.5 20t17 28t9 32.5zM389 781q28 0 56.5 19t56.5 64q8 14 18.5 19t21.5 5q17 0 31.5 -12t14.5 -29q0 -11 -5 -20q-21 -44 -48.5 -71t-55 -42t-53 -20t-43.5 -5
q-20 0 -44.5 5.5t-48.5 20.5t-44 42t-32 69q-1 4 -1 11q0 16 15 32.5t38 16.5q12 0 22 -5t15 -18q14 -37 35 -59.5t51 -22.5z" />
    <glyph glyph-name="ubreve" unicode="&#x16d;" horiz-adv-x="512" 
d="M160 189q-1 -5 -1.5 -9.5t-0.5 -9.5q0 -32 18.5 -46t47.5 -14q23 0 52 9t66 38l44 272q1 6 4 13.5t9.5 14.5t17 12t26.5 5q33 0 46 -15t13 -34l-1 -9l-60 -393q-3 -19 -10.5 -23t-24.5 -4q-30 0 -47 14t-24 31q-35 -23 -69.5 -34.5t-63.5 -11.5q-88 0 -126.5 39
t-38.5 107q0 25 4 48l39 261q3 20 8 23t22 3q41 0 59 -29t18 -67q0 -6 -0.5 -12t-1.5 -12zM301 609q28 0 56.5 19t56.5 64q8 14 18.5 19t21.5 5q17 0 31.5 -12t14.5 -29q0 -11 -5 -20q-21 -44 -48.5 -71t-55 -42t-53 -20t-43.5 -5q-20 0 -44.5 5.5t-48.5 20.5t-44 42t-32 69
q-1 4 -1 11q0 16 15 32.5t38 16.5q12 0 22 -5t15 -18q14 -37 35 -59.5t51 -22.5z" />
    <glyph glyph-name="Uring" unicode="&#x16e;" horiz-adv-x="611" 
d="M496 619q3 16 10 27t17 17t20.5 8.5t19.5 2.5q7 0 16 -2t17 -7t13 -13.5t5 -21.5v-5.5t-1 -6.5l-65 -410q-15 -98 -69.5 -153t-144.5 -55h-107q-36 0 -68 9.5t-55.5 30t-37 51.5t-13.5 74q0 26 4 49l65 404q3 17 10.5 28t18 17t21 8.5t19.5 2.5q16 0 33.5 -9.5
t17.5 -35.5q0 -7 -1 -11l-65 -415q-1 -7 -1.5 -13t-0.5 -11q0 -29 17 -45.5t59 -16.5h86q24 0 40.5 7.5t27.5 20t17 28t9 32.5zM377 667q-23 0 -42.5 8t-33.5 22.5t-22 33.5t-8 40q0 28 11 52.5t29.5 42.5t43.5 28.5t52 10.5q22 0 41 -8t33.5 -22t22.5 -32.5t8 -39.5
q0 -28 -11 -53t-29.5 -43.5t-43 -29t-51.5 -10.5zM385 743q19 0 34.5 14.5t15.5 34.5q0 16 -10 27t-26 11q-20 0 -35.5 -15.5t-15.5 -35.5q0 -16 10 -26t27 -10z" />
    <glyph glyph-name="uring" unicode="&#x16f;" horiz-adv-x="512" 
d="M160 189q-1 -5 -1.5 -9.5t-0.5 -9.5q0 -32 18.5 -46t47.5 -14q23 0 52 9t66 38l44 272q1 6 4 13.5t9.5 14.5t17 12t26.5 5q33 0 46 -15t13 -34l-1 -9l-60 -393q-3 -19 -10.5 -23t-24.5 -4q-30 0 -47 14t-24 31q-35 -23 -69.5 -34.5t-63.5 -11.5q-88 0 -126.5 39
t-38.5 107q0 25 4 48l39 261q3 20 8 23t22 3q41 0 59 -29t18 -67q0 -6 -0.5 -12t-1.5 -12zM301 568q19 0 34.5 14.5t15.5 34.5q0 16 -10 27t-26 11q-20 0 -35.5 -15.5t-15.5 -35.5q0 -16 10 -26t27 -10zM293 492q-23 0 -42.5 8t-33.5 22.5t-22 33.5t-8 40q0 28 11 52.5
t29.5 42.5t43.5 28.5t52 10.5q22 0 41 -8t33.5 -22t22.5 -32.5t8 -39.5q0 -28 -11 -53t-29.5 -43.5t-43 -29t-51.5 -10.5z" />
    <glyph glyph-name="Uhungarumlaut" unicode="&#x170;" horiz-adv-x="611" 
d="M496 619q3 16 10 27t17 17t20.5 8.5t19.5 2.5q7 0 16 -2t17 -7t13 -13.5t5 -21.5v-5.5t-1 -6.5l-65 -410q-15 -98 -69.5 -153t-144.5 -55h-107q-36 0 -68 9.5t-55.5 30t-37 51.5t-13.5 74q0 26 4 49l65 404q3 17 10.5 28t18 17t21 8.5t19.5 2.5q16 0 33.5 -9.5
t17.5 -35.5q0 -7 -1 -11l-65 -415q-1 -7 -1.5 -13t-0.5 -11q0 -29 17 -45.5t59 -16.5h86q24 0 40.5 7.5t27.5 20t17 28t9 32.5zM301 699q-12 -9 -31 -9q-16 0 -26 8t-10 24q0 12 6.5 23t15.5 19l101 94q11 11 26 18.5t30 7.5q17 0 33 -13.5t16 -36.5q1 -17 -9.5 -33.5
t-28.5 -27.5zM489 699q-12 -9 -31 -9q-16 0 -26 8t-10 24q0 12 6.5 23t15.5 19l101 94q11 11 26 18.5t30 7.5q17 0 33 -13.5t16 -36.5q0 -17 -10 -33.5t-28 -27.5z" />
    <glyph glyph-name="uhungarumlaut" unicode="&#x171;" horiz-adv-x="512" 
d="M160 189q-1 -5 -1.5 -9.5t-0.5 -9.5q0 -32 18.5 -46t47.5 -14q23 0 52 9t66 38l44 272q1 6 4 13.5t9.5 14.5t17 12t26.5 5q33 0 46 -15t13 -34l-1 -9l-60 -393q-3 -19 -10.5 -23t-24.5 -4q-30 0 -47 14t-24 31q-35 -23 -69.5 -34.5t-63.5 -11.5q-88 0 -126.5 39
t-38.5 107q0 25 4 48l39 261q3 20 8 23t22 3q41 0 59 -29t18 -67q0 -6 -0.5 -12t-1.5 -12zM246 536q-16 -16 -34 -16q-14 0 -27 10.5t-13 24.5q0 8 3.5 16t8.5 15l88 127q11 17 25.5 24.5t28.5 7.5q23 0 39 -17.5t16 -37.5q0 -22 -20 -41zM406 536q-16 -16 -34 -16
q-14 0 -27 10.5t-13 24.5q0 8 3.5 16t8.5 15l88 127q11 17 25.5 24.5t28.5 7.5q23 0 39 -17.5t16 -37.5q0 -22 -20 -41z" />
    <glyph glyph-name="Uogonek" unicode="&#x172;" horiz-adv-x="611" 
d="M496 619q3 16 10 27t17 17t20.5 8.5t19.5 2.5q7 0 16 -2t17 -7t13 -13.5t5 -21.5v-5.5t-1 -6.5l-65 -410q-15 -98 -69.5 -153t-144.5 -55h-9q-27 -25 -42.5 -53.5t-15.5 -49.5q0 -14 8.5 -25t31.5 -11q6 0 14 2.5t16.5 5t15.5 5t11 2.5q14 0 23 -11t9 -24
q0 -16 -12.5 -26.5t-30 -16.5t-37 -8.5t-33.5 -2.5q-28 0 -48 7.5t-32.5 19.5t-18 27t-5.5 29q0 30 16.5 64.5t47.5 65.5h-16q-36 0 -68 9.5t-55.5 30t-37 51.5t-13.5 74q0 26 4 49l65 404q3 17 10.5 28t18 17t21 8.5t19.5 2.5q16 0 33.5 -9.5t17.5 -35.5q0 -7 -1 -11
l-65 -415q-1 -7 -1.5 -13t-0.5 -11q0 -29 17 -45.5t59 -16.5h86q24 0 40.5 7.5t27.5 20t17 28t9 32.5z" />
    <glyph glyph-name="uogonek" unicode="&#x173;" horiz-adv-x="512" 
d="M160 189q-1 -5 -1.5 -9.5t-0.5 -9.5q0 -32 18.5 -46t47.5 -14q23 0 52 9t66 38l44 272q1 6 4 13.5t9.5 14.5t17 12t26.5 5q33 0 46 -15t13 -34l-1 -9l-60 -393q-3 -18 -11 -23q-29 -26 -45 -55t-16 -50q0 -14 8.5 -25t31.5 -11q6 0 14 2.5t16.5 5t15.5 5t11 2.5
q14 0 23 -11t9 -24q0 -16 -12.5 -26.5t-30 -16.5t-37 -8.5t-33.5 -2.5q-28 0 -48 7.5t-32.5 19.5t-18 27t-5.5 29q0 33 20 71t57 71q-16 11 -23 31q-35 -23 -69.5 -34.5t-63.5 -11.5q-88 0 -126.5 39t-38.5 107q0 25 4 48l39 261q3 20 8 23t22 3q41 0 59 -29t18 -67
q0 -6 -0.5 -12t-1.5 -12z" />
    <glyph glyph-name="Wcircumflex" unicode="&#x174;" horiz-adv-x="802" 
d="M537 174h4l193 462q20 38 56 38q28 0 44.5 -13.5t16.5 -35.5q0 -13 -6 -25l-244 -552q-12 -23 -26 -35.5t-42 -12.5h-38q-27 0 -38.5 12.5t-15.5 35.5l-16 340h-2l-121 -340q-11 -23 -26 -35.5t-42 -12.5h-38q-28 0 -38.5 12.5t-15.5 35.5l-68 552q-1 5 -1 14q0 24 18 42
t51 18q17 0 29.5 -9t14.5 -29l47 -462h4l143 393q8 23 23 35.5t39 12.5h31q25 0 34.5 -12.5t10.5 -35.5zM500 882q18 0 35 -12l134 -93q14 -10 14 -28q0 -22 -16 -37.5t-34 -15.5q-9 0 -17.5 2.5t-17.5 7.5l-108 57l-133 -64q-18 -8 -32 -8q-23 0 -33.5 14.5t-10.5 31.5
q0 26 26 42l154 91q13 8 21 10t18 2z" />
    <glyph glyph-name="wcircumflex" unicode="&#x175;" horiz-adv-x="662" 
d="M431 144l88 198q6 13 9 21.5t4.5 15.5t2 13.5t0.5 14.5v7q0 23 13.5 42t51.5 19q20 0 32.5 -6t19 -15t8.5 -20t2 -20q0 -33 -10 -59.5t-27 -60.5l-122 -250q-22 -44 -66 -44h-42q-48 0 -59 54l-19 104l-55 -114q-24 -44 -66 -44h-42q-50 0 -59 54l-61 349q-1 3 -1 6.5
v6.5q0 21 15 40t46 19q20 0 35 -11.5t19 -33.5l47 -290h2l90 193l-12 70q-1 3 -1 6.5v6.5q0 21 15 40t46 19q20 0 34.5 -11.5t19.5 -33.5l40 -286h2zM386 725q21 2 35 -14l125 -122q10 -10 10 -25q0 -21 -17.5 -37.5t-37.5 -16.5q-19 0 -32 13l-96 90l-114 -88
q-15 -12 -34 -12q-21 0 -36.5 17.5t-15.5 36.5q-1 16 18 31l154 115q11 8 21 10t20 2z" />
    <glyph glyph-name="Ycircumflex" unicode="&#x176;" horiz-adv-x="553" 
d="M298 385l195 265q11 15 24 21.5t26 6.5q23 0 43.5 -16.5t20.5 -40.5q0 -14 -10 -27l-252 -336l-33 -208q-9 -56 -68 -56q-52 0 -52 45q0 3 0.5 5.5t0.5 5.5l34 210l-153 337q-3 7 -3 17q0 23 20 42t51 19q29 0 42 -31l110 -259h4zM366 882q18 0 35 -12l134 -93
q14 -10 14 -28q0 -22 -16 -37.5t-34 -15.5q-9 0 -17.5 2.5t-17.5 7.5l-108 57l-133 -64q-18 -8 -32 -8q-23 0 -33.5 14.5t-10.5 31.5q0 26 26 42l154 91q13 8 21 10t18 2z" />
    <glyph glyph-name="ycircumflex" unicode="&#x177;" horiz-adv-x="464" 
d="M201 95l119 247q12 25 14 37t2 28v7q0 23 13.5 42t51.5 19q20 0 32.5 -6t19 -15t8.5 -20t2 -20q0 -33 -10 -59.5t-27 -60.5q-31 -62 -53 -106.5t-39.5 -79t-32 -63.5l-31 -62l-37 -74t-49.5 -98q-5 -11 -17 -19t-29 -8q-11 0 -26 5q-19 7 -27.5 18t-8.5 23q0 10 4 17
l76 155h-10q-24 0 -39.5 14t-19.5 40l-45 347l-1 12q0 21 10.5 38.5t35.5 20.5q4 1 8 1h8q50 0 55 -45l39 -335h4zM296 725q21 2 35 -14l125 -122q10 -10 10 -25q0 -21 -17.5 -37.5t-37.5 -16.5q-19 0 -32 13l-96 90l-114 -88q-15 -12 -34 -12q-21 0 -36.5 17.5t-15.5 36.5
q-1 16 18 31l154 115q11 8 21 10t20 2z" />
    <glyph glyph-name="Zacute" unicode="&#x179;" horiz-adv-x="541" 
d="M57 0q-32 0 -43.5 11.5t-11.5 27.5q0 20 8 37.5t17 28.5l372 447h-242q-46 0 -46 44q0 33 17.5 52.5t46.5 19.5h348q28 0 38.5 -12.5t10.5 -30.5q0 -20 -8 -35.5t-17 -26.5l-372 -447h269q25 0 34.5 -12t9.5 -31q0 -27 -14.5 -50t-47.5 -23h-369zM333 694q-9 -3 -20 -3
q-13 0 -26 7.5t-13 28.5q0 14 8.5 24.5t19.5 17.5l121 72q21 13 43 13q17 0 35.5 -13t18.5 -41q0 -20 -14.5 -36.5t-37.5 -24.5z" />
    <glyph glyph-name="zacute" unicode="&#x17a;" horiz-adv-x="485" 
d="M50 0q-23 0 -34 9.5t-11 35.5q0 20 8 33.5t16 21.5l255 252h-177q-15 0 -27.5 11.5t-12.5 34.5q0 18 6 31t14.5 21t18.5 12t19 4h306q49 0 49 -48q0 -21 -7.5 -32.5t-15.5 -19.5l-253 -252h178q26 0 34.5 -14.5t8.5 -30.5q0 -26 -13.5 -47.5t-47.5 -21.5h-314zM312 536
q-16 -16 -34 -16q-14 0 -27 10.5t-13 24.5q0 8 3.5 16t8.5 15l88 127q11 17 25.5 24.5t28.5 7.5q23 0 39 -17.5t16 -37.5q0 -22 -20 -41z" />
    <glyph glyph-name="Zdotaccent" unicode="&#x17b;" horiz-adv-x="541" 
d="M57 0q-32 0 -43.5 11.5t-11.5 27.5q0 20 8 37.5t17 28.5l372 447h-242q-46 0 -46 44q0 33 17.5 52.5t46.5 19.5h348q28 0 38.5 -12.5t10.5 -30.5q0 -20 -8 -35.5t-17 -26.5l-372 -447h269q25 0 34.5 -12t9.5 -31q0 -27 -14.5 -50t-47.5 -23h-369zM360 701q-24 0 -41 15.5
t-17 38.5q0 18 7 32t18.5 23.5t25 14t26.5 4.5q23 0 41 -13.5t18 -39.5q0 -31 -23.5 -53t-54.5 -22z" />
    <glyph glyph-name="zdotaccent" unicode="&#x17c;" horiz-adv-x="485" 
d="M50 0q-23 0 -34 9.5t-11 35.5q0 20 8 33.5t16 21.5l255 252h-177q-15 0 -27.5 11.5t-12.5 34.5q0 18 6 31t14.5 21t18.5 12t19 4h306q49 0 49 -48q0 -21 -7.5 -32.5t-15.5 -19.5l-253 -252h178q26 0 34.5 -14.5t8.5 -30.5q0 -26 -13.5 -47.5t-47.5 -21.5h-314zM305 531
q-24 0 -41 15.5t-17 38.5q0 18 7 32t18.5 23.5t25 14t26.5 4.5q23 0 41 -13.5t18 -39.5q0 -31 -23.5 -53t-54.5 -22z" />
    <glyph glyph-name="AEacute" unicode="&#x1fc;" horiz-adv-x="855" 
d="M451 0q-56 0 -56 48v10l9 110h-199l-76 -134q-22 -40 -62 -40q-26 0 -39.5 13t-13.5 30q0 18 10 35l314 547q12 21 28.5 35t43.5 14h430q25 0 37 -13.5t12 -36.5q0 -30 -15 -48t-44 -18h-272l-13 -142h230q48 0 48 -49q0 -31 -14.5 -48.5t-43.5 -17.5h-230l-15 -179h272
q25 0 37 -13.5t12 -36.5q0 -30 -15 -48t-44 -18h-331zM611 694q-9 -3 -20 -3q-13 0 -26 7.5t-13 28.5q0 14 8.5 24.5t19.5 17.5l121 72q21 13 43 13q17 0 35.5 -13t18.5 -41q0 -20 -14.5 -36.5t-37.5 -24.5zM379 474l-109 -195h144l24 272h-17z" />
    <glyph glyph-name="aeacute" unicode="&#x1fd;" horiz-adv-x="749" 
d="M576 466q69 0 111 -36t42 -102q0 -24 -9 -51t-33.5 -50.5t-66.5 -38.5t-108 -15q-21 0 -39.5 3t-34.5 5l-2 -16q-1 -4 -1 -7.5v-6.5q0 -37 49 -37h136q18 0 35 -14t17 -40q0 -18 -6.5 -29.5t-15.5 -18.5t-18.5 -9.5t-15.5 -2.5h-136q-42 0 -79 11.5t-55 40.5
q-26 -29 -55.5 -40.5t-75.5 -11.5h-38q-72 0 -108.5 33t-36.5 87q0 41 15 72.5t41.5 52.5t63.5 32t82 11q51 0 101 -9l3 22q3 21 -10.5 35t-47.5 14h-117q-15 0 -29 14t-14 36q0 31 16 48.5t45 17.5h123q76 0 116 -34q52 34 128 34h28zM531 357q-35 0 -52 -19.5t-22 -48.5
l-3 -19q8 -2 21.5 -3t25.5 -1q37 0 58 7.5t31.5 18t12.5 20.5t2 15q0 10 -9 20t-28 10h-37zM242 200q-15 0 -30 -2.5t-28 -9t-21 -18t-8 -29.5q0 -12 7.5 -21.5t21.5 -9.5h31q44 0 71 15.5t32 41.5l4 23q-21 4 -42.5 7t-37.5 3zM472 536q-16 -16 -34 -16q-14 0 -27 10.5
t-13 24.5q0 8 3.5 16t8.5 15l88 127q11 17 25.5 24.5t28.5 7.5q23 0 39 -17.5t16 -37.5q0 -22 -20 -41z" />
    <glyph glyph-name="Oslashacute" unicode="&#x1fe;" horiz-adv-x="578" 
d="M347 694q-9 -3 -20 -3q-13 0 -26 7.5t-13 28.5q0 14 8.5 24.5t19.5 17.5l121 72q21 13 43 13q17 0 35.5 -13t18.5 -41q0 -20 -14.5 -36.5t-37.5 -24.5zM389 668q86 0 133 -53l31 35q13 14 26 14q14 0 22.5 -10.5t8.5 -18.5q0 -10 -11 -23l-45 -52q10 -30 10 -70
q0 -11 -0.5 -22.5t-2.5 -23.5l-35 -231q-16 -105 -73 -159t-148 -54h-84q-36 0 -66.5 9.5t-53.5 29.5l-23 -26q-12 -14 -27 -14q-11 0 -20 8t-9 21t10 26l31 36q-17 37 -17 86q0 14 1.5 28t3.5 29l36 221q17 105 73.5 159.5t141.5 54.5h87zM166 208l275 314q-9 15 -26.5 24
t-46.5 9h-64q-43 0 -66.5 -26.5t-30.5 -66.5zM443 433l-261 -301q19 -19 58 -19h67q45 0 69.5 27.5t30.5 65.5z" />
    <glyph glyph-name="oslashacute" unicode="&#x1ff;" horiz-adv-x="501" 
d="M317 536q-16 -16 -34 -16q-14 0 -27 10.5t-13 24.5q0 8 3.5 16t8.5 15l88 127q11 17 25.5 24.5t28.5 7.5q23 0 39 -17.5t16 -37.5q0 -22 -20 -41zM208 0q-76 0 -119 30l-23 -22q-13 -13 -24 -13q-8 0 -18.5 10t-10.5 20t14 23l26 25q-18 33 -18 79q0 11 1 22.5t3 23.5
l14 87q14 88 65 135.5t144 47.5h40q78 0 123 -39l30 28q8 7 13.5 10.5t11.5 2.5q11 0 19.5 -8t8.5 -18q0 -14 -14 -27l-35 -33q16 -32 16 -76q0 -19 -3 -38l-14 -90q-14 -88 -66 -134t-138 -46h-46zM252 355q-29 0 -52 -19t-30 -59l-15 -91q-1 -5 -1.5 -9t-0.5 -8l183 174
q-17 12 -43 12h-41zM356 283v2l-174 -166q13 -6 34 -6h36q32 0 57 18.5t31 56.5z" />
    <glyph glyph-name="Scommaaccent" unicode="&#x218;" horiz-adv-x="531" 
d="M70 0q-13 0 -27 9.5t-14 35.5q0 20 7 33.5t17 22t19.5 12t15.5 3.5h213q13 0 25.5 5t22.5 14t16.5 22.5t6.5 31.5q0 46 -57 72l-110 50q-26 12 -49.5 24.5t-41 30.5t-28 43.5t-10.5 62.5q0 47 16 84t44.5 62t66.5 38t83 13h197q14 0 27.5 -11t13.5 -34q0 -22 -6.5 -35.5
t-16 -21.5t-19.5 -11t-17 -3h-197q-26 0 -47.5 -17t-21.5 -50q0 -22 10.5 -35.5t34.5 -24.5l113 -51q27 -12 52 -26t44.5 -34t31.5 -47.5t12 -67.5q0 -44 -15.5 -80.5t-43.5 -63t-67 -41.5t-86 -15h-215zM202 -224q-5 -9 -17 -17.5t-28 -8.5q-24 0 -33.5 12.5t-9.5 24.5
q0 6 2 14l43 120q7 18 23.5 33t42.5 15q28 0 41 -15t13 -33q0 -15 -8 -28z" />
    <glyph glyph-name="scommaaccent" unicode="&#x219;" horiz-adv-x="448" 
d="M54 0q-14 0 -28.5 10.5t-14.5 38.5q0 21 7.5 34.5t17 21.5t20 11t16.5 3h188q14 0 23 6t9 16q0 18 -32 27l-103 31q-20 6 -40 14t-36 21.5t-25.5 33.5t-9.5 50q0 69 47 108.5t125 39.5h171q7 0 14.5 -2t14 -7.5t11 -15t4.5 -23.5q0 -22 -7.5 -35.5t-18 -20.5t-22 -9.5
t-19.5 -2.5h-166q-10 0 -19 -3.5t-9 -14.5q0 -5 8 -12t21 -11l105 -30q21 -6 41 -15t35 -23.5t24.5 -36t9.5 -52.5q0 -69 -47 -110.5t-127 -41.5h-188zM171 -224q-5 -9 -17 -17.5t-28 -8.5q-24 0 -33.5 12.5t-9.5 24.5q0 6 2 14l43 120q7 18 23.5 33t42.5 15q28 0 41 -15
t13 -33q0 -15 -8 -28z" />
    <glyph glyph-name="exclamdown" unicode="&#xa1;" horiz-adv-x="233" 
d="M156 483q25 0 41.5 -15.5t16.5 -38.5q0 -19 -7 -33t-18.5 -23t-25 -13.5t-26.5 -4.5q-23 0 -40 13.5t-17 39.5q0 31 23 53t53 22zM129 300q28 0 39.5 -13t11.5 -35q0 -9 -1 -14l-57 -361q-5 -27 -21.5 -44.5t-48.5 -17.5q-27 0 -38.5 12.5t-11.5 33.5v7.5t1 8.5l57 361
q5 27 21 44.5t48 17.5z" />
    </font>
</defs>
</svg>
