<?xml version="1.0" encoding="utf-8"?>
<!-- Generator: Adobe Illustrator 21.0.0, SVG Export Plug-In . SVG Version: 6.00 Build 0)  -->
<svg version="1.1" baseProfile="tiny" id="Слой_1"
	 xmlns="http://www.w3.org/2000/svg" xmlns:xlink="http://www.w3.org/1999/xlink" x="0px" y="0px" viewBox="0 0 60 60"
	 overflow="scroll" xml:space="preserve">
<path fill="#FFFFFF" d="M55.5,26.5c0-13.8-11.2-25-25-25c-13.8,0-25,11.2-25,25v10.2h0.1c0,0.3,0,0.6,0,0.8c0,6.6,5.3,12,11.9,12
	h0.1v-24h-0.1c-4.2,0-7.8,2.1-9.9,5.4v-4.4c0-12.7,10.3-23,23-23c12.7,0,23,10.3,23,23v4.4c-2.1-3.2-5.8-5.4-9.9-5.4h-0.1v24h0.1
	c1,0,1.9-0.1,2.9-0.4c-3,2.9-6.7,4.9-10.9,5.9v-3.5h-10v6h10v-0.4c6.4-1.3,11.9-5,15.5-10.2c2.7-2.2,4.5-5.6,4.5-9.4
	c0-0.3,0-0.6,0-0.8h0V26.5z M15.5,27.7v19.6c-4.5-0.9-8-5-8-9.8C7.5,32.7,11,28.6,15.5,27.7z M33.5,55.5h-6v-2h6V55.5z M45.5,47.3
	V27.7c4.6,0.9,8,5,8,9.8C53.5,42.3,50.1,46.4,45.5,47.3z"/>
</svg>
