<?xml version="1.0" encoding="utf-8"?>
<!-- Generator: Adobe Illustrator 21.0.0, SVG Export Plug-In . SVG Version: 6.00 Build 0)  -->
<svg version="1.1" baseProfile="tiny" id="Слой_1"
	 xmlns="http://www.w3.org/2000/svg" xmlns:xlink="http://www.w3.org/1999/xlink" x="0px" y="0px" viewBox="0 0 30 30"
	 overflow="scroll" xml:space="preserve">
<path fill="#FFFFFF" d="M16.5,2.5h-7h-2c-2.4,0-4,1.6-4,4v16.6c0,0.8,0.3,3.4,4.1,3.4h19.9v-24H16.5z M15.5,3.5V13l-2.3-2.2
	l-2.7,2.3V3.5H15.5z M4.5,6.5c0-1.8,1.2-3,3-3h2v11.8l3.7-3.1l3.3,3.2V3.5h10v16h-19c-1.3,0-2.3,0.4-3,1V6.5z M7.6,25.5
	c-2.6,0-3.1-1.3-3.1-2.4V23c0-2.3,2.3-2.5,3-2.5h19v5H7.6z"/>
</svg>
