<?xml version="1.0" encoding="utf-8"?>
<!-- Generator: Adobe Illustrator 21.0.0, SVG Export Plug-In . SVG Version: 6.00 Build 0)  -->
<svg version="1.1" baseProfile="tiny" id="Слой_1"
	 xmlns="http://www.w3.org/2000/svg" xmlns:xlink="http://www.w3.org/1999/xlink" x="0px" y="0px" viewBox="0 0 30 30"
	 overflow="scroll" xml:space="preserve">
<g>
	<path fill="#FFFFFF" d="M15.7,13.1V2.5h-5.2v10.6l2.7-2.3L15.7,13.1z M16.7,2.5v12.8l-3.5-3.2l-3.7,3.1V2.5h-2c-2.4,0-4,1.6-4,4v14
		c0.7-0.7,1.7-1,3-1h21V2.5H16.7z M3.5,23.5C3.5,23.5,3.5,23.5,3.5,23.5L3.5,23.5c0.1,1,0.7,3,4.1,3h19.9v-6.1h-21
		C4.6,20.4,3.5,21.9,3.5,23.5z"/>
</g>
</svg>
