<?xml version="1.0" encoding="utf-8"?>
<!-- Generator: Adobe Illustrator 21.0.0, SVG Export Plug-In . SVG Version: 6.00 Build 0)  -->
<svg version="1.1" id="Слой_1" xmlns="http://www.w3.org/2000/svg" xmlns:xlink="http://www.w3.org/1999/xlink" x="0px" y="0px"
	 viewBox="0 0 30 30" style="enable-background:new 0 0 30 30;" xml:space="preserve">
<style type="text/css">
	.st0{fill:#BBBEC6;}
</style>
<path class="st0" d="M28.5,12H18.2L15,2.1L11.8,12H1.5l8.4,6.1l-3.2,9.9l8.3-6.2l8.3,6.2l-3.2-9.9L28.5,12z M21.4,25.4l-5.8-4.3
	L15,20.6l-0.6,0.4l-5.8,4.3l2.3-7l0.2-0.7l-0.6-0.4L4.6,13h7.3h0.7l0.2-0.7l2.2-7l2.2,7l0.2,0.7h0.7h7.3l-5.9,4.3L19,17.7l0.2,0.7
	L21.4,25.4z"/>
</svg>
