<?xml version="1.0" standalone="no"?>
<!DOCTYPE svg PUBLIC "-//W3C//DTD SVG 20010904//EN"
 "http://www.w3.org/TR/2001/REC-SVG-20010904/DTD/svg10.dtd">
<svg version="1.0" xmlns="http://www.w3.org/2000/svg"
 width="16.000000pt" height="16.000000pt" viewBox="0 0 16.000000 16.000000"
 preserveAspectRatio="xMidYMid meet">
<metadata>
Created by potrace 1.11, written by Peter Selinger 2001-2013
</metadata>
<g transform="translate(0.000000,16.000000) scale(0.002286,-0.002286)"
fill="#000000" stroke="none">
<path d="M1590 5583 l0 -1418 1890 -2 c1757 -1 1890 0 1891 15 0 22 0 2737 0
2783 l-1 35 -1082 -1 -1083 -1 -81 -32 c-137 -55 -273 -164 -357 -287 -22 -32
-66 -110 -97 -172 l-57 -112 -38 72 c-60 115 -144 234 -220 311 -105 107 -160
146 -266 192 -62 27 -70 28 -281 32 l-217 4 -1 -1419z m436 1198 c30 -11 83
-42 117 -68 62 -49 180 -186 217 -252 156 -281 172 -348 176 -737 2 -313 4
-323 68 -344 39 -12 72 -3 101 30 19 21 20 37 21 286 2 281 6 350 30 454 9 36
17 72 19 80 7 37 76 204 106 257 91 167 218 272 366 303 31 7 379 9 992 8
l945 -3 0 -1213 c1 -668 -1 -1217 -4 -1221 -3 -4 -768 -7 -1700 -7 l-1695 1
-2 1223 -3 1222 95 0 c69 0 111 -5 151 -19z"/>
<path d="M4088 6606 c-10 -7 -22 -25 -28 -40 -15 -40 -14 -1000 2 -1029 24
-45 70 -59 121 -36 56 25 55 23 56 544 0 304 -4 492 -10 513 -17 53 -99 81
-141 48z"/>
<path d="M4463 6605 c-12 -8 -26 -30 -31 -48 -8 -25 -11 -1508 -3 -1575 3 -28
50 -62 86 -62 40 0 94 43 96 77 0 10 1 363 1 785 1 706 0 769 -16 793 -29 44
-93 58 -133 30z"/>
<path d="M4844 6602 c-12 -9 -26 -26 -32 -37 -7 -13 -9 -350 -8 -992 l1 -971
23 -25 c47 -50 131 -36 156 25 22 51 21 1919 0 1964 -25 52 -98 71 -140 36z"/>
<path d="M1591 3964 c-94 -21 -168 -90 -192 -178 -23 -87 15 -247 89 -371 66
-110 223 -249 367 -324 112 -58 129 -60 588 -61 231 0 431 -3 444 -6 12 -4 24
-11 24 -18 1 -6 2 -573 3 -1261 2 -987 5 -1262 15 -1305 49 -208 217 -377 422
-425 81 -18 225 -13 299 11 199 66 354 244 385 445 4 24 8 603 9 1287 2 1071
4 1245 17 1257 12 12 83 15 449 15 431 1 436 1 506 25 80 27 212 98 288 154
69 51 157 148 194 213 66 116 96 298 63 391 -19 56 -89 121 -152 143 -52 18
-135 18 -1910 19 -1395 1 -1869 -2 -1908 -11z m3779 -202 c24 -29 15 -116 -20
-194 -43 -98 -110 -170 -235 -252 -146 -96 -109 -90 -625 -96 l-455 -5 -49
-24 c-53 -27 -100 -83 -116 -140 -6 -23 -10 -485 -10 -1272 0 -788 -4 -1256
-10 -1290 -27 -139 -130 -249 -277 -293 -40 -13 -160 -8 -197 8 -20 8 -40 16
-44 17 -49 10 -139 87 -177 154 -56 97 -54 38 -52 1402 1 1254 1 1258 -20
1304 -24 53 -52 82 -108 112 -39 21 -52 22 -495 27 l-455 5 -59 28 c-200 93
-345 254 -377 419 -10 49 -9 61 4 82 9 14 27 26 39 28 13 2 855 3 1872 2
l1849 0 17 -22z"/>
<path d="M3403 741 c-94 -44 -136 -146 -98 -239 78 -185 348 -143 360 56 9
140 -136 242 -262 183z"/>
</g>
</svg>
